<?xml version="1.0" standalone="no"?><!DOCTYPE svg PUBLIC "-//W3C//DTD SVG 1.1//EN" "http://www.w3.org/Graphics/SVG/1.1/DTD/svg11.dtd"><svg t="1548743197391" class="icon" style="" viewBox="0 0 1024 1024" version="1.1" xmlns="http://www.w3.org/2000/svg" p-id="6438" xmlns:xlink="http://www.w3.org/1999/xlink" width="200" height="200"><defs><style type="text/css"></style></defs><path d="M512 0.073143A511.926857 511.926857 0 1 1 512 1024 511.926857 511.926857 0 0 1 512 0z m274.651429 658.432a258.194286 258.194286 0 0 0 30.354285-121.197714c0-153.965714-136.411429-278.381714-304.859428-278.381715S206.994286 383.268571 206.994286 537.307429c0 43.373714 10.971429 84.553143 30.354285 121.197714l68.900572 13.238857c9.654857 40.521143 45.275429 70.656 87.917714 72.630857v7.094857c0 7.460571 6.144 13.604571 13.604572 13.604572h22.308571a13.677714 13.677714 0 0 0 13.531429-13.604572V547.328a13.677714 13.677714 0 0 0-13.531429-13.604571h-22.308571a13.677714 13.677714 0 0 0-13.604572 13.604571v6.509714a95.305143 95.305143 0 0 0-78.848 49.225143c-9.069714-0.292571-18.139429-0.658286-23.990857-2.925714a196.022857 196.022857 0 0 1-10.605714-62.902857c0-116.662857 103.716571-211.236571 231.424-211.236572 127.707429 0 231.131429 94.573714 231.131428 211.309715 0 21.065143-3.218286 41.106286-9.654857 60.269714-3.584 3.876571-14.555429 5.12-25.6 6.436571a95.524571 95.524571 0 0 0-79.725714-50.176v-6.582857a13.385143 13.385143 0 0 0-13.312-13.531428h-22.308572a13.677714 13.677714 0 0 0-13.604571 13.604571v204.141714c0 7.460571 6.144 13.604571 13.604571 13.604572h22.308572a13.385143 13.385143 0 0 0 13.238857-13.604572v-7.094857a95.085714 95.085714 0 0 0 88.283429-71.972571l70.144-13.897143z" p-id="6439"></path></svg>