<svg xmlns="http://www.w3.org/2000/svg" width="200" height="200" class="icon"
     p-id="4403" t="1553656152462" version="1.1" viewBox="0 0 1024 1024">
  <defs>
    <style type="text/css"/>
  </defs>
  <path
    d="M155.826087 763.229814C104.944099 763.229814 66.782609 725.068323 66.782609 674.186335L66.782609 152.645963C66.782609 101.763975 104.944099 63.602484 155.826087 63.602484l521.540373 0C728.248447 63.602484 766.409938 101.763975 766.409938 152.645963l0 235.329193c0 0 44.521739 6.360248 63.602484 12.720497L830.012422 127.204969c0-69.962733-57.242236-127.204969-127.204969-127.204969L130.385093 0C60.42236 0 3.180124 57.242236 3.180124 127.204969l0 572.42236c0 69.962733 57.242236 127.204969 127.204969 127.204969l254.409938 0c-6.360248-19.080745-6.360248-63.602484-12.720497-63.602484L155.826087 763.229814z"
    p-id="4404"/>
  <path
    d="M429.31677 407.055901 429.31677 407.055901c19.080745 0 38.161491 6.360248 57.242236 6.360248C467.478261 407.055901 448.397516 407.055901 429.31677 407.055901z"
    p-id="4405"/>
  <path
    d="M486.559006 413.416149c0 0-6.360248 0-6.360248 0 63.602484-25.440994 108.124224-95.403727 89.043478-178.086957C556.521739 190.807453 512 152.645963 467.478261 139.925466 372.074534 114.484472 283.031056 184.447205 283.031056 279.850932c0 63.602484 38.161491 114.484472 95.403727 133.565217 0 0-6.360248 0-6.360248 0-108.124224 25.440994-184.447205 127.204969-178.086957 241.689441 0 6.360248 6.360248 19.080745 19.080745 19.080745l235.329193 0c0 0 25.440994-44.521739 31.801242-50.881988L238.509317 623.304348c12.720497-95.403727 95.403727-165.36646 190.807453-165.36646 50.881988 0 95.403727 19.080745 127.204969 50.881988C569.242236 496.099379 575.602484 489.73913 588.322981 483.378882l12.720497-6.360248C569.242236 445.217391 531.080745 426.136646 486.559006 413.416149zM333.913043 279.850932c0-50.881988 44.521739-95.403727 95.403727-95.403727s95.403727 44.521739 95.403727 95.403727c0 50.881988-44.521739 95.403727-95.403727 95.403727S333.913043 330.732919 333.913043 279.850932z"
    p-id="4406"/>
  <path
    d="M766.409938 705.987578c-31.801242-12.720497-69.962733 0-82.68323 31.801242-12.720497 31.801242 0 69.962733 31.801242 82.68323 6.360248 0 12.720497 6.360248 19.080745 6.360248 25.440994 6.360248 50.881988-6.360248 63.602484-31.801242 12.720497-25.440994 6.360248-50.881988-12.720497-69.962733C779.130435 718.708075 772.770186 712.347826 766.409938 705.987578z"
    p-id="4407"/>
  <path
    d="M938.136646 788.670807c19.080745-6.360248 38.161491-12.720497 50.881988-12.720497 0-12.720497 0-25.440994 0-44.521739 0 0 0 0 0-6.360248-12.720497-6.360248-31.801242-6.360248-50.881988-6.360248 0-12.720497-6.360248-25.440994-12.720497-31.801242 12.720497-12.720497 25.440994-25.440994 38.161491-38.161491-6.360248-12.720497-12.720497-25.440994-25.440994-38.161491-12.720497 6.360248-31.801242 12.720497-50.881988 19.080745-6.360248-6.360248-19.080745-19.080745-25.440994-25.440994 6.360248-19.080745 12.720497-38.161491 12.720497-50.881988-12.720497-6.360248-25.440994-12.720497-38.161491-19.080745 0 0-6.360248 6.360248-6.360248 6.360248-6.360248 12.720497-19.080745 19.080745-31.801242 31.801242-6.360248 0-6.360248 0-12.720497 0-6.360248 0-12.720497-6.360248-25.440994-6.360248-6.360248-19.080745-12.720497-38.161491-12.720497-50.881988-12.720497 0-25.440994 0-44.521739 0 0 0 0 0-6.360248 0 0 12.720497-6.360248 31.801242-6.360248 50.881988-12.720497 0-19.080745 6.360248-31.801242 12.720497 0 0 0 0 0 0-12.720497-12.720497-25.440994-25.440994-38.161491-38.161491C613.763975 546.981366 607.403727 553.341615 594.68323 559.701863 594.68323 559.701863 588.322981 566.062112 581.962733 566.062112c6.360248 12.720497 12.720497 31.801242 19.080745 50.881988C594.68323 623.304348 581.962733 636.024845 575.602484 642.385093L569.242236 642.385093C556.521739 636.024845 537.440994 636.024845 524.720497 629.664596c0 6.360248-6.360248 6.360248-6.360248 12.720497-6.360248 6.360248-12.720497 19.080745-12.720497 31.801242 6.360248 6.360248 12.720497 12.720497 19.080745 12.720497s12.720497 12.720497 25.440994 19.080745c-6.360248 12.720497-6.360248 25.440994-6.360248 38.161491-19.080745 6.360248-38.161491 12.720497-50.881988 12.720497 0 12.720497 0 25.440994 0 44.521739 0 0 0 0 0 6.360248 12.720497 6.360248 31.801242 6.360248 50.881988 6.360248 0 6.360248 6.360248 12.720497 6.360248 19.080745 0 6.360248 0 12.720497 6.360248 19.080745-6.360248 6.360248-19.080745 19.080745-25.440994 25.440994-6.360248 6.360248-6.360248 12.720497-12.720497 12.720497 6.360248 12.720497 12.720497 25.440994 25.440994 38.161491 12.720497-6.360248 31.801242-12.720497 50.881988-19.080745 6.360248 6.360248 19.080745 19.080745 25.440994 25.440994-6.360248 19.080745-12.720497 38.161491-12.720497 50.881988 12.720497 6.360248 25.440994 12.720497 38.161491 19.080745 12.720497-12.720497 19.080745-25.440994 31.801242-38.161491 12.720497 6.360248 25.440994 6.360248 38.161491 6.360248 6.360248 19.080745 12.720497 38.161491 12.720497 50.881988 12.720497 0 25.440994 0 44.521739 0 0 0 0 0 6.360248 0 6.360248-12.720497 6.360248-31.801242 6.360248-50.881988 12.720497 0 25.440994-6.360248 31.801242-12.720497 12.720497 12.720497 25.440994 25.440994 38.161491 38.161491 12.720497-6.360248 25.440994-12.720497 38.161491-25.440994-6.360248-12.720497-12.720497-31.801242-19.080745-50.881988 6.360248-6.360248 19.080745-19.080745 25.440994-25.440994 19.080745 6.360248 38.161491 12.720497 50.881988 12.720497 6.360248-12.720497 12.720497-25.440994 19.080745-38.161491-12.720497-12.720497-25.440994-19.080745-38.161491-31.801242C938.136646 814.111801 938.136646 801.391304 938.136646 788.670807zM760.049689 909.515528c-44.521739 6.360248-89.043478-12.720497-120.84472-38.161491-12.720497-12.720497-19.080745-25.440994-31.801242-38.161491-6.360248-12.720497-12.720497-25.440994-12.720497-44.521739-6.360248-31.801242 6.360248-69.962733 19.080745-95.403727 12.720497-25.440994 31.801242-38.161491 57.242236-50.881988 12.720497-6.360248 25.440994-12.720497 44.521739-12.720497 25.440994 0 44.521739 0 63.602484 6.360248 12.720497 6.360248 25.440994 12.720497 38.161491 19.080745 31.801242 25.440994 50.881988 57.242236 57.242236 95.403727C893.614907 826.832298 836.372671 896.795031 760.049689 909.515528z"
    p-id="4408"/>
</svg>
