<svg xmlns="http://www.w3.org/2000/svg" xmlns:xlink="http://www.w3.org/1999/xlink" width="200" height="200" class="icon" p-id="7616" t="1548743253773" version="1.1" viewBox="0 0 1024 1024"><defs><style type="text/css"/></defs><path d="M512 0C229.267894 0 0 229.267894 0 512s229.267894 512 512 512 512-229.267894 512-512S794.733106 0 512 0z m253.727788 463.067212c-18.774617 30.727099-48.920789 53.490209-85.331166 64.289838-9.68577 2.848638-17.065833 3.987494-23.901966 3.987494-15.927978 0-28.43639-12.52041-28.43639-28.448388 0-15.926978 12.509412-28.448388 28.43639-28.448389 1.139855 0 3.417566 0 6.266204-1.139855 24.459895-6.824134 43.79344-21.041329 54.605068-39.816945 7.394061-11.951483 10.811627-25.029822 10.811628-38.690088 0-44.944294-41.525728-81.912601-92.155301-81.912601-17.648759 0-34.714593 4.557421-50.071643 13.07834-26.725607 15.370049-42.666583 40.968799-42.666584 68.835261v238.370738c0 48.349862-26.737606 92.725228-71.100973 117.75605-23.901966 13.658266-50.640571 20.4824-77.949104 20.4824-82.483528 0-149.608007-62.010128-149.608007-138.807378 0-23.891967 6.823134-47.223005 19.344544-68.264334 18.762618-30.728099 48.919789-53.478211 85.331167-64.289838 10.229701-2.83564 17.066833-3.975495 23.890967-3.975495 15.926978 0 28.43539 12.507412 28.43539 28.447388 0 15.926978-12.508412 28.43439-28.43539 28.434391-1.138855 0-3.418566 0-6.254206 1.139855-24.472893 7.394061-43.817437 21.625255-54.617066 39.817945-7.394061 11.950483-10.811627 25.041821-10.811628 38.690088 0 44.943294 41.526728 81.912601 92.725229 81.912601 17.64776 0 34.714593-4.545423 50.071643-13.07834 26.738605-15.35705 42.665583-40.955801 42.665583-68.834261V394.802879c0-48.349862 26.726607-92.725228 71.113972-117.755051 23.320039-14.217195 50.058645-21.041329 77.368178-21.041329 82.482529 0 149.608007 61.998129 149.608007 138.79638-0.002 23.902965-6.826133 47.223005-19.334546 68.264333z" p-id="7617"/></svg>