<?xml version="1.0" standalone="no"?><!DOCTYPE svg PUBLIC "-//W3C//DTD SVG 1.1//EN" "http://www.w3.org/Graphics/SVG/1.1/DTD/svg11.dtd"><svg t="1584947636739" class="icon" viewBox="0 0 1024 1024" version="1.1" xmlns="http://www.w3.org/2000/svg" p-id="5712" xmlns:xlink="http://www.w3.org/1999/xlink" width="200" height="200"><defs><style type="text/css"></style></defs><path d="M819.2 563.2c-113.1 0-204.8 91.7-204.8 204.8 0 113.1 91.7 204.8 204.8 204.8 24.2 0 47-4.9 68.6-12.6l48.8 48.8c20 20 52.4 20 72.4 0 20-20 20-52.4 0-72.4l-35.4-35.4c31-35.9 50.4-82.1 50.4-133.2 0-113.1-91.7-204.8-204.8-204.8z" fill="#00A2FF" p-id="5713"></path><path d="M921.6 0H102.4C46.1 0 0 46.1 0 102.4v819.2C0 977.9 46.1 1024 102.4 1024h547.1C566.7 969 512 874.9 512 768c0-169.7 137.5-307.2 307.2-307.2 78.8 0 150.4 29.9 204.8 78.7V102.4C1024 46.1 977.9 0 921.6 0z m-512 716.8H204.8c-28.2 0-51.2-23-51.2-51.2 0-28.2 23-51.2 51.2-51.2h204.8c28.2 0 51.2 23 51.2 51.2 0 28.2-23 51.2-51.2 51.2zM512 512H204.8c-28.2 0-51.2-23-51.2-51.2 0-28.2 23-51.2 51.2-51.2H512c28.2 0 51.2 23 51.2 51.2 0 28.2-23 51.2-51.2 51.2z m307.2-204.8H204.8c-28.2 0-51.2-23-51.2-51.2s23-51.2 51.2-51.2h614.4c28.2 0 51.2 23 51.2 51.2s-23 51.2-51.2 51.2z" fill="#00A2FF" p-id="5714"></path></svg>