<?xml version="1.0" standalone="no"?><!DOCTYPE svg PUBLIC "-//W3C//DTD SVG 1.1//EN" "http://www.w3.org/Graphics/SVG/1.1/DTD/svg11.dtd"><svg t="1584947901682" class="icon" viewBox="0 0 1024 1024" version="1.1" xmlns="http://www.w3.org/2000/svg" p-id="10374" xmlns:xlink="http://www.w3.org/1999/xlink" width="200" height="200"><defs><style type="text/css"></style></defs><path d="M309.41 93.28m6.19 0l302.12 0q6.19 0 6.19 6.19l0 100.77q0 6.19-6.19 6.19l-302.12 0q-6.19 0-6.19-6.19l0-100.77q0-6.19 6.19-6.19Z" p-id="10375" fill="#d81e06"></path><path d="M409.4 795.28a29.1 29.1 0 0 1 0-45.93l240.4-191.51c20.19-16.09 50.73-2.26 50.73 23V660c41.64 8.25 76.09 19.78 104.65 34.88C804.5 488.1 804.3 189 804.3 189c0-12-10.08-21.77-22.41-21.77H661.22v53.67c0 12-10.09 21.77-22.42 21.77H294.51c-12.33 0-22.41-9.8-22.41-21.77v-53.63H151.42c-12.32 0-22.41 9.8-22.41 21.77v688.09c0 12 10.09 21.78 22.41 21.78h388.06zM254.19 376.45a10.29 10.29 0 0 1 10.41-10.11h404.12a10.29 10.29 0 0 1 10.4 10.11v53.91a10.29 10.29 0 0 1-10.4 10.11H264.6a10.29 10.29 0 0 1-10.41-10.11z m0 226.78v-53.92a10.29 10.29 0 0 1 10.41-10.11h196.85a10.29 10.29 0 0 1 10.41 10.11v53.92a10.29 10.29 0 0 1-10.41 10.11H264.6a10.29 10.29 0 0 1-10.41-10.11zM700.53 870v29h87.87a18.24 18.24 0 0 0 13.34-5.72c-28.27-12.47-61.02-20.22-101.21-23.28z" p-id="10376" fill="#d81e06"></path><path d="M693.58 698.77c-7.2-1.13-17-1.11-27.14-0.54v-60.9a19.19 19.19 0 0 0-31.33-14.85L467.53 759.57a19.18 19.18 0 0 0 0 29.69l167.58 137.09a19.18 19.18 0 0 0 31.33-14.84v-88.68c4.61-0.29 9-0.48 12.65-0.48 87.67 0 164.81 36.37 209.51 91.42 2.64 3.25 8.7 1.53 8.4-2.38-9.54-121.87-99.16-196.2-203.42-212.62z" p-id="10377" fill="#d81e06"></path></svg>