<svg xmlns="http://www.w3.org/2000/svg" width="133.75" height="128"
     class="icon" p-id="18951" t="1575964072821" version="1.1" viewBox="0 0 1070 1024">
  <defs>
    <style type="text/css"/>
  </defs>
  <path fill="#1296db"
        d="M0 733.090909h907.636364a139.636364 139.636364 0 0 1 0 279.272727H0v-279.272727z m907.636364 209.454546a69.818182 69.818182 0 1 0 0-139.636364 69.818182 69.818182 0 0 0 0 139.636364z m-244.363637 0a69.818182 69.818182 0 1 0 0-139.636364 69.818182 69.818182 0 0 0 0 139.636364z m-244.363636 0a69.818182 69.818182 0 1 0 0-139.636364 69.818182 69.818182 0 0 0 0 139.636364z m-244.363636 0a69.818182 69.818182 0 1 0 0-139.636364 69.818182 69.818182 0 0 0 0 139.636364zM698.181818 488.727273h209.454546V698.181818H698.181818v-209.454545zM69.818182 0H279.272727v209.454545H69.818182V0z m314.181818 0h209.454545v209.454545h-209.454545V0zM698.181818 244.363636h209.454546v209.454546H698.181818v-209.454546zM384 488.727273h209.454545V698.181818h-209.454545v-209.454545z m0-244.363637h209.454545v209.454546h-209.454545v-209.454546zM69.818182 488.727273H279.272727V698.181818H69.818182v-209.454545z m0-244.363637H279.272727v209.454546H69.818182v-209.454546z"
        p-id="18952"/>
</svg>
