<?xml version="1.0" standalone="no"?><!DOCTYPE svg PUBLIC "-//W3C//DTD SVG 1.1//EN" "http://www.w3.org/Graphics/SVG/1.1/DTD/svg11.dtd"><svg t="1546915840030" class="icon" style="" viewBox="0 0 1024 1024" version="1.1" xmlns="http://www.w3.org/2000/svg" p-id="1979" xmlns:xlink="http://www.w3.org/1999/xlink" width="200" height="200"><defs><style type="text/css"></style></defs><path d="M547.555556 841.955556L536.177778 910.222222v14.222222c-2.844444 0-2.844444 2.844444-2.844445 2.844445-2.844444 0-2.844444 2.844444-2.844444 2.844444 0 2.844444-2.844444 2.844444-2.844445 2.844445l-2.844444 2.844444c0 2.844444-2.844444 2.844444-2.844444 2.844445H499.2c0 2.844444 2.844444 2.844444 2.844444 2.844444h19.911112c0-2.844444 2.844444-2.844444 2.844444-2.844444 0-2.844444 2.844444-2.844444 2.844444-2.844445l2.844445-2.844444 2.844444-2.844445 2.844445-2.844444 2.844444-2.844445c2.844444 0 2.844444-2.844444 2.844445-2.844444 2.844444 0 0-2.844444 2.844444-2.844444s2.844444-2.844444 2.844445-2.844445V910.222222l11.377777-65.422222c0-2.844444 0-2.844444 5.688889-2.844444v-5.688889h-17.066666l-45.511112 36.977777 45.511112-31.288888z" p-id="1980"></path><path d="M521.955556 915.911111c2.844444-2.844444 2.844444-8.533333 2.844444-14.222222s-2.844444-8.533333-8.533333-11.377778c-5.688889-2.844444-8.533333-2.844444-14.222223-2.844444s-8.533333 2.844444-11.377777 8.533333c-2.844444 2.844444-2.844444 8.533333-2.844445 14.222222 0 2.844444 2.844444 8.533333 8.533334 11.377778 2.844444 2.844444 8.533333 2.844444 14.222222 2.844444s8.533333-2.844444 11.377778-8.533333zM479.288889 893.155556s0-2.844444 2.844444-2.844445c0 0 0-2.844444 2.844445-2.844444l2.844444-2.844445 2.844445-2.844444 2.844444-2.844445 8.533333-5.688889-14.222222 8.533334s-2.844444 0-2.844444 2.844444l-2.844445 2.844445s0 2.844444-2.844444 2.844444v2.844445c-2.844444 2.844444-2.844444 0 0 0zM476.444444 913.066667v-17.066667 19.911111zM496.355556 935.822222l-5.688889-5.688889-2.844445-2.844444-2.844444-2.844445-2.844445-2.844444s0-2.844444-2.844444-2.844444c0 0 0-2.844444-2.844445-2.844445V924.444444s0 2.844444 2.844445 2.844445c0 0 0 2.844444 2.844444 2.844444l2.844445 2.844445s2.844444 0 2.844444 2.844444c0 0 2.844444 0 2.844445 2.844445H499.2s-2.844444 0-2.844444-2.844445zM780.8 890.311111c2.844444 0 2.844444-2.844444 2.844444-2.844444-2.844444 0-2.844444 2.844444-2.844444 2.844444zM786.488889 884.622222c2.844444-2.844444 0-2.844444 0 0zM777.955556 893.155556c2.844444 0 2.844444-2.844444 2.844444-2.844445-2.844444 0-2.844444 2.844444-2.844444 2.844445zM789.333333 881.777778l59.733334-39.822222-11.377778 68.266666v14.222222c2.844444 0 2.844444-2.844444 2.844444-2.844444 2.844444 0 2.844444-2.844444 2.844445-2.844444 2.844444 0 2.844444-2.844444 2.844444-2.844445V910.222222l11.377778-65.422222c0-2.844444 0-2.844444 5.688889-2.844444v-5.688889h-17.066667l-54.044444 42.666666-2.844445 2.844445z" p-id="1981"></path><path d="M800.711111 887.466667c-5.688889 0-8.533333 2.844444-11.377778 8.533333-2.844444 2.844444-2.844444 8.533333-2.844444 14.222222 0 2.844444 2.844444 8.533333 8.533333 11.377778 2.844444 2.844444 8.533333 2.844444 14.222222 2.844444s8.533333-2.844444 11.377778-8.533333c2.844444-2.844444 2.844444-8.533333 2.844445-14.222222s-2.844444-8.533333-8.533334-11.377778c-2.844444-2.844444-8.533333-2.844444-14.222222-2.844444zM775.111111 896v19.911111c2.844444 0 2.844444 2.844444 2.844445 2.844445V893.155556c-2.844444 0-2.844444 2.844444-2.844445 2.844444zM826.311111 935.822222s-2.844444 0-2.844444 2.844445c0 0 2.844444 0 2.844444-2.844445zM786.488889 884.622222l-2.844445 2.844445 2.844445-2.844445zM834.844444 927.288889c0-2.844444 0 0 0 0zM777.955556 924.444444s0 2.844444 0 0c2.844444 2.844444 2.844444 5.688889 5.688888 5.688889l2.844445 2.844445s2.844444 0 2.844444 2.844444c0 0 2.844444 0 2.844445 2.844445h5.688889s-2.844444 0-2.844445-2.844445l-2.844444-2.844444-2.844445-2.844445-2.844444-2.844444-2.844445-2.844445-2.844444-2.844444s0-2.844444-2.844444-2.844444v5.688888zM832 930.133333l2.844444-2.844444c-2.844444 0-2.844444 2.844444-2.844444 2.844444zM800.711111 941.511111h19.911111c0-2.844444 2.844444-2.844444 2.844445-2.844444h-19.911111l-2.844445 2.844444c-2.844444 0 0 0 0 0zM832 930.133333l-2.844444 2.844445s2.844444 0 2.844444-2.844445zM234.666667 841.955556zM183.466667 921.6c2.844444 2.844444 8.533333 2.844444 14.222222 2.844444s8.533333-2.844444 11.377778-8.533333c2.844444-2.844444 2.844444-8.533333 2.844444-14.222222s-2.844444-8.533333-8.533333-11.377778c-5.688889-2.844444-11.377778-2.844444-14.222222-2.844444-5.688889 0-8.533333 2.844444-11.377778 8.533333-2.844444 2.844444-2.844444 8.533333-2.844445 14.222222 0 2.844444 2.844444 8.533333 8.533334 11.377778z" p-id="1982"></path><path d="M166.4 887.466667l-5.688889 5.688889c-2.844444 0-2.844444 2.844444-2.844444 2.844444-2.844444 0-2.844444 2.844444-2.844445 2.844444-2.844444 0-2.844444 2.844444-2.844444 2.844445v19.911111c2.844444 0 2.844444 2.844444 2.844444 2.844444 2.844444 0 2.844444 2.844444 2.844445 2.844445l2.844444 2.844444 2.844445 2.844445 2.844444 2.844444c0 2.844444 2.844444 2.844444 8.533333 0 0-2.844444-2.844444-2.844444-2.844444-2.844444l-2.844445-2.844445c-2.844444 0-2.844444-2.844444-2.844444-2.844444-2.844444 0-2.844444-2.844444-2.844444-2.844445V893.155556c2.844444 0 2.844444-2.844444 2.844444-5.688889 2.844444 2.844444 2.844444 0 0 0l5.688889-2.844445c0-2.844444 2.844444-2.844444 2.844444-2.844444l59.733334-39.822222h-11.377778l-56.888889 45.511111zM223.288889 915.911111V924.444444c-2.844444 0-2.844444 2.844444-2.844445 2.844445-2.844444 0-2.844444 2.844444-2.844444 2.844444 0 2.844444-2.844444 2.844444-2.844444 2.844445l-2.844445 2.844444c0 2.844444-2.844444 2.844444-2.844444 2.844445H186.311111c0 2.844444 2.844444 2.844444 2.844445 2.844444h19.911111c0-2.844444 2.844444-2.844444 2.844444-2.844444 0-2.844444 2.844444-2.844444 2.844445-2.844445l2.844444-2.844444 2.844444-2.844445 2.844445-2.844444 2.844444-2.844445c2.844444 0 2.844444-2.844444 2.844445-2.844444 2.844444 0 0-2.844444 2.844444-2.844444s2.844444-2.844444 2.844445-2.844445V910.222222l11.377777-65.422222c0-2.844444 0-2.844444-5.688888 2.844444v-5.688888h-5.688889L223.288889 910.222222v5.688889zM183.466667 935.822222c-5.688889-2.844444-5.688889 0-8.533334 0 0 0 2.844444 0 2.844445 2.844445H186.311111s-2.844444 0-2.844444-2.844445zM490.666667 173.511111h-258.844445c-17.066667 0-31.288889 14.222222-31.288889 31.288889v133.688889c0 17.066667 14.222222 31.288889 31.288889 31.288889h256c19.911111 0 34.133333-14.222222 34.133334-31.288889V204.8c0-17.066667-14.222222-31.288889-31.288889-31.288889z m17.066666 164.977778c0 8.533333-5.688889 17.066667-17.066666 17.066667h-258.844445c-8.533333 0-17.066667-5.688889-17.066666-17.066667V204.8c0-8.533333 5.688889-17.066667 17.066666-17.066667h258.844445c8.533333 0 17.066667 5.688889 17.066666 17.066667v133.688889z" p-id="1983"></path><path d="M530.488889 122.311111h-338.488889c-25.6 0-42.666667 19.911111-42.666667 42.666667v210.488889c0 22.755556 19.911111 42.666667 42.666667 42.666666h335.644444c25.6 0 42.666667-17.066667 45.511112-42.666666V164.977778c0-22.755556-19.911111-42.666667-42.666667-42.666667z m8.533333 253.155556c0 5.688889-5.688889 8.533333-8.533333 8.533333h-338.488889c-5.688889 0-8.533333-5.688889-8.533333-8.533333V164.977778c0-5.688889 5.688889-8.533333 8.533333-8.533334h338.488889c5.688889 0 8.533333 5.688889 8.533333 8.533334v210.488889zM795.022222 256c-48.355556 0-85.333333 36.977778-85.333333 85.333333s36.977778 85.333333 85.333333 85.333334 85.333333-36.977778 85.333334-85.333334-39.822222-85.333333-85.333334-85.333333z m0 17.066667c17.066667 0 34.133333 5.688889 45.511111 17.066666l-45.511111 42.666667-45.511111-45.511111c11.377778-8.533333 28.444444-14.222222 45.511111-14.222222z m-68.266666 68.266666c0-17.066667 5.688889-31.288889 14.222222-42.666666l45.511111 42.666666-42.666667 42.666667c-11.377778-11.377778-17.066667-25.6-17.066666-42.666667z m68.266666 68.266667c-17.066667 0-31.288889-5.688889-42.666666-17.066667l42.666666-42.666666 42.666667 42.666666c-11.377778 11.377778-28.444444 17.066667-42.666667 17.066667z m51.2-25.6l-42.666666-42.666667 45.511111-42.666666c8.533333 11.377778 14.222222 25.6 14.222222 42.666666s-5.688889 31.288889-17.066667 42.666667z" p-id="1984"></path><path d="M826.311111 352.711111l17.066667-8.533333-17.066667-11.377778zM746.666667 344.177778l17.066666 8.533333v-19.911111zM795.022222 292.977778l-11.377778 19.911111h22.755556zM795.022222 392.533333l11.377778-19.911111h-22.755556z" p-id="1985"></path><path d="M612.977778 301.511111m-11.377778 0a11.377778 11.377778 0 1 0 22.755556 0 11.377778 11.377778 0 1 0-22.755556 0Z" p-id="1986"></path><path d="M667.022222 301.511111m-11.377778 0a11.377778 11.377778 0 1 0 22.755556 0 11.377778 11.377778 0 1 0-22.755556 0Z" p-id="1987"></path><path d="M612.977778 372.622222m-11.377778 0a11.377778 11.377778 0 1 0 22.755556 0 11.377778 11.377778 0 1 0-22.755556 0Z" p-id="1988"></path><path d="M667.022222 372.622222m-11.377778 0a11.377778 11.377778 0 1 0 22.755556 0 11.377778 11.377778 0 1 0-22.755556 0Z" p-id="1989"></path><path d="M957.155556 34.133333C934.4 14.222222 905.955556 0 871.822222 0h-728.177778C78.222222 0 24.177778 54.044444 24.177778 119.466667v440.888889c0 65.422222 54.044444 119.466667 119.466666 119.466666h22.755556v96.711111c-51.2 14.222222-88.177778 62.577778-88.177778 119.466667 0 68.266667 56.888889 125.155556 125.155556 125.155556 68.266667 0 125.155556-56.888889 125.155555-125.155556 0-56.888889-36.977778-102.4-88.177777-119.466667v-96.711111h233.244444v96.711111c-51.2 17.066667-88.177778 62.577778-88.177778 119.466667 0 68.266667 56.888889 125.155556 125.155556 125.155556 68.266667 0 125.155556-56.888889 125.155555-125.155556 0-56.888889-36.977778-105.244444-88.177777-119.466667v-96.711111h236.088888v96.711111c-51.2 14.222222-88.177778 62.577778-88.177777 119.466667 0 68.266667 56.888889 125.155556 125.155555 125.155556s125.155556-56.888889 125.155556-125.155556c0-56.888889-36.977778-102.4-88.177778-119.466667v-96.711111h22.755556c65.422222 0 119.466667-54.044444 119.466666-119.466666V119.466667C991.288889 85.333333 977.066667 56.888889 957.155556 34.133333z m-859.022223 102.4c0-34.133333 28.444444-59.733333 59.733334-59.733333h696.888889c17.066667 0 31.288889 5.688889 42.666666 17.066667 11.377778 11.377778 17.066667 25.6 17.066667 42.666666v332.8h-816.355556V136.533333z m184.888889 756.622223c0 45.511111-36.977778 79.644444-79.644444 79.644444-45.511111 0-79.644444-36.977778-79.644445-79.644444s36.977778-79.644444 79.644445-79.644445 79.644444 34.133333 79.644444 79.644445z m307.2 0c0 45.511111-36.977778 79.644444-79.644444 79.644444-45.511111 0-79.644444-36.977778-79.644445-79.644444s36.977778-79.644444 79.644445-79.644445 79.644444 34.133333 79.644444 79.644445z m307.2 0c0 45.511111-36.977778 79.644444-79.644444 79.644444-45.511111 0-79.644444-36.977778-79.644445-79.644444s36.977778-79.644444 79.644445-79.644445 79.644444 34.133333 79.644444 79.644445z m-39.822222-290.133334h-699.733333c-34.133333 0-59.733333-28.444444-59.733334-59.733333v-28.444445h816.355556v28.444445h2.844444c0 34.133333-25.6 59.733333-59.733333 59.733333z" p-id="1990"></path><path d="M840.533333 529.066667h-659.911111c-17.066667 0-28.444444 11.377778-28.444444 28.444444s14.222222 28.444444 28.444444 28.444445h659.911111c14.222222 0 28.444444-11.377778 28.444445-28.444445s-14.222222-28.444444-28.444445-28.444444z m0 42.666666h-659.911111c-8.533333 0-14.222222-5.688889-14.222222-14.222222s5.688889-14.222222 14.222222-14.222222h659.911111c8.533333 0 14.222222 5.688889 14.222223 14.222222s-5.688889 14.222222-14.222223 14.222222z" p-id="1991"></path></svg>