<svg xmlns="http://www.w3.org/2000/svg" width="333.203" height="200"
     class="icon" p-id="4088" t="1548743078230" version="1.1" viewBox="0 0 1706 1024">
  <defs>
    <style type="text/css"/>
  </defs>
  <path
    d="M512 597.367467h682.666667v-170.632534H512v170.632534zM162.0992 512C162.0992 315.733333 315.630933 162.133333 512 162.133333h256V0H512C230.365867 0 0 230.365867 0 512c0 281.6 230.365867 511.965867 512 511.965867h256.034133v-162.133334H512C315.630933 861.832533 162.0992 708.130133 162.0992 512M1194.666667 0h-256.034134v162.133333H1194.666667c196.232533 0 349.730133 153.6 349.730133 349.866667 0 196.130133-153.4976 349.866667-349.730133 349.866667h-256.034134v162.0992H1194.666667c281.634133 0 512-230.365867 512-511.965867 0-281.634133-230.365867-512-512-512"
    p-id="4089"/>
</svg>
