<svg xmlns="http://www.w3.org/2000/svg" width="200" height="200" class="icon"
     p-id="7924" t="1577968375836" version="1.1" viewBox="0 0 1024 1024">
  <defs>
    <style type="text/css"/>
  </defs>
  <path fill="#0091FF" d="M511.1 512.5m-110 0a110 110 0 1 0 220 0 110 110 0 1 0-220 0Z" p-id="7925"/>
  <path fill="#282C37"
        d="M899.7 503c23.4-51.9 35.5-106.2 36.2-161.4h0.1c0-63.8-24.8-123.7-69.9-168.8s-105-69.9-168.8-69.9c-42.7 0-84.7 11.4-121.3 33.1-24.5 14.5-46.2 33.2-64 55.2-17.9-22-39.6-40.8-64.1-55.3-36.6-21.7-78.6-33.1-121.4-33.1-63.8 0-123.7 24.8-168.8 69.9s-69.9 105-69.9 168.8c0 52.9 17.4 103.9 49.4 145.5-4.5 8.8-8.8 17.7-12.7 26.6-24.4 55-36.8 111.7-36.8 168.4 0 63.8 24.8 123.7 69.9 168.8s105 69.9 168.8 69.9c63.1 0 123.5-15.1 180-45 6.4 3 12.8 5.9 19.2 8.6 57.3 24.2 115 36.4 171.6 36.4 63.8 0 123.7-24.8 168.8-69.9s69.9-105 69.9-168.8c0-56.9-12.7-115.9-37.9-175.5 0.6-1.2 1.1-2.3 1.7-3.5z m-13.8 179c0 104.1-84.7 188.7-188.7 188.7-49.6 0-100.6-10.8-151.4-32.2-41.3-17.3-82.6-41.6-122.9-72.1-69.3-52.6-111.7-106-112.1-106.6-8.5-10.9-24.2-12.7-35.1-4.2-10.9 8.5-12.8 24.2-4.3 35.1 1.8 2.4 46 58.3 120.1 114.7 19.7 15 39.7 28.7 59.9 40.9-39.9 16.3-81.8 24.5-125 24.5-104.1 0-188.7-84.7-188.7-188.7 0-49.4 10.8-99.1 32.1-147.7 17.3-39.4 41.5-78.1 71.9-115.2a627.2 627.2 0 0 1 50.4-54.2c12.2 7.5 26.5 11.8 41.8 11.8 44.2 0 80-35.8 80-80s-35.8-80-80-80-80 35.8-80 80c0 10.6 2.1 20.7 5.8 29.9-17.1 16.2-36.4 36.2-55.7 59.6-14.3 17.3-27.3 35-39.1 52.9-17.8-29.3-27.3-63-27.3-97.8 0-104.1 84.7-188.7 188.7-188.7 33.8 0 67 9 95.9 26.2 28.1 16.6 51.6 40.4 67.8 68.7v0.1c0.2 0.3 0.4 0.6 0.6 1l0.1 0.1 0.6 0.9c0 0.1 0.1 0.1 0.1 0.2 0.2 0.3 0.4 0.5 0.6 0.8l0.2 0.2c0.2 0.2 0.4 0.5 0.6 0.7l0.3 0.3c0.2 0.2 0.4 0.4 0.5 0.6 0.1 0.1 0.2 0.3 0.4 0.4 0.2 0.2 0.3 0.3 0.5 0.4 0.2 0.2 0.3 0.3 0.5 0.4 0.1 0.1 0.3 0.2 0.4 0.3 0.2 0.2 0.4 0.3 0.6 0.5 0.1 0.1 0.2 0.2 0.3 0.2 0.2 0.2 0.5 0.4 0.7 0.5 0.1 0.1 0.2 0.1 0.2 0.2 0.3 0.2 0.5 0.4 0.8 0.6 0.1 0 0.1 0.1 0.2 0.1 0.3 0.2 0.6 0.4 0.9 0.5l0.1 0.1h0.1c0.3 0.2 0.6 0.3 0.8 0.5 0.1 0.1 0.2 0.1 0.3 0.2 0.2 0.1 0.5 0.2 0.7 0.3 0.2 0.1 0.3 0.2 0.5 0.2 0.2 0.1 0.3 0.1 0.5 0.2s0.5 0.2 0.7 0.3c0.1 0 0.1 0 0.2 0.1 3 1.1 6.1 1.6 9.2 1.6 2.7-0.1 5.4-0.6 8-1.5 0.1 0 0.2-0.1 0.2-0.1 0.2-0.1 0.5-0.2 0.7-0.3 0.2-0.1 0.3-0.1 0.5-0.2s0.3-0.1 0.5-0.2 0.5-0.2 0.7-0.4c0.1 0 0.2-0.1 0.3-0.1 0.3-0.2 0.6-0.3 0.9-0.5h0.1s0.1 0 0.1-0.1l0.9-0.6c0.1 0 0.1-0.1 0.2-0.1l0.9-0.6c0.1 0 0.1-0.1 0.2-0.1 0.3-0.2 0.5-0.4 0.8-0.6 0.1-0.1 0.2-0.1 0.3-0.2 0.2-0.2 0.4-0.4 0.6-0.5l0.3-0.3 0.5-0.5 0.4-0.4 0.4-0.4c0.2-0.2 0.3-0.4 0.5-0.5l0.3-0.3c0.2-0.2 0.4-0.4 0.6-0.7 0.1-0.1 0.1-0.2 0.2-0.2 0.2-0.3 0.4-0.5 0.6-0.8 0-0.1 0.1-0.1 0.1-0.2l0.6-0.9 0.1-0.1 0.6-0.9s0-0.1 0.1-0.1c16.3-28.3 39.7-52 67.8-68.6 28.9-17.1 62-26.1 95.8-26.1 102.6 0 186.3 82.3 188.7 184.3 0 36.8-5.9 73.2-17.6 108.7-9.6-17.2-20.1-34.3-31.6-51.3 8.2-11.4 13-25.4 13-40.6 0-38.7-31.3-70-70-70s-70 31.3-70 70 31.3 70 70 70c5.3 0 10.4-0.6 15.4-1.7 17 25.2 33.6 53.2 47.7 83.2-15.5 29.3-35.1 57.7-58.5 84.8-18.7 21.7-37.6 39.8-54 54-10.7-6.7-23.3-10.5-36.9-10.5-38.7 0-70 31.3-70 70s31.3 70 70 70 70-31.3 70-70c0-6.8-1-13.3-2.8-19.5 18.2-15.7 39.3-35.7 60.4-60 16.8-19.4 32-39.5 45.2-60.1 12.4 37.3 19.9 76.9 19.9 117.7z"
        p-id="7926"/>
  <path fill="#282C37"
        d="M511.1 377.5c-74.4 0-135 60.6-135 135s60.6 135 135 135 135-60.6 135-135c0-74.5-60.6-135-135-135z m0 220c-46.9 0-85-38.1-85-85s38.1-85 85-85 85 38.1 85 85c0 46.8-38.1 85-85 85z"
        p-id="7927"/>
</svg>
