<svg xmlns="http://www.w3.org/2000/svg" xmlns:xlink="http://www.w3.org/1999/xlink" width="200" height="200" class="icon" p-id="2252" t="1569207303883" version="1.1" viewBox="0 0 1024 1024"><defs><style type="text/css"/></defs><path d="M748.8 896H608l-12.8-128H428.8l-12.8 128H268.8c-6.4 0-12.8 6.4-12.8 12.8s6.4 12.8 12.8 12.8h480c6.4 0 12.8-6.4 12.8-12.8 6.4-6.4 0-12.8-12.8-12.8zM896 96H128c-38.4 0-64 25.6-64 64v512c0 38.4 25.6 64 64 64h768c38.4 0 64-25.6 64-64v-512c0-38.4-25.6-64-64-64z m-32 409.6h-128c-6.4 0-19.2-6.4-19.2-12.8L614.4 288 505.6 614.4c0 6.4-12.8 12.8-19.2 19.2-6.4 0-19.2-6.4-19.2-12.8L352 403.2l-44.8 89.6c0 6.4-12.8 12.8-19.2 12.8h-128c-12.8 0-25.6-12.8-25.6-25.6s12.8-25.6 25.6-25.6h115.2l57.6-115.2c6.4-19.2 32-19.2 44.8 0l102.4 204.8 108.8-326.4c0-6.4 12.8-12.8 19.2-19.2 12.8 0 19.2 6.4 25.6 12.8l121.6 243.2h115.2c12.8 0 25.6 12.8 25.6 25.6s-19.2 25.6-32 25.6z" p-id="2253"/></svg>