<svg xmlns="http://www.w3.org/2000/svg" xmlns:xlink="http://www.w3.org/1999/xlink" width="128" height="128" class="icon" p-id="3569" t="1575962713542" version="1.1" viewBox="0 0 1024 1024"><defs><style type="text/css"/></defs><path fill="#1296db" d="M711.753 390.144a311.735 311.735 0 0 0-312.32 311.296 311.662 311.662 0 0 0 312.32 311.296 311.662 311.662 0 0 0 312.32-311.296 312.027 312.027 0 0 0-312.32-311.296z m142.848 409.088c-4.608 30.208-21.504 96.256-112.64 102.4v57.856H677.45v-57.344a619.008 619.008 0 0 1-110.08-27.648l19.456-75.264c28.672 11.264 67.072 23.04 100.352 27.136 45.568 5.12 76.288-4.096 78.848-36.864 6.656-57.344-196.096-67.584-194.048-171.52-2.56-76.288 52.736-109.568 108.032-114.176v-59.904h64.512v57.344a233.326 233.326 0 0 1 93.696 20.48l-17.92 71.168c-28.16-10.752-57.344-20.48-91.648-20.48-22.528 0-69.632 0-71.168 30.72 0 53.248 89.088 55.808 118.784 68.608 21.504 9.216 36.352 17.92 51.712 32.768 26.112 26.112 31.744 59.904 26.624 94.72zM384.585 0C172.105 0 0.073 84.992 0.073 189.952s172.032 189.952 384.512 189.952 384.512-84.992 384.512-189.952S597.065 0 384.585 0z m175.616 249.856c-5.632 18.432-26.624 58.88-138.752 62.464v35.328h-78.848v-34.816a1276.562 1276.562 0 0 1-135.68-16.896l23.552-46.08a972.8 972.8 0 0 0 123.392 16.384c55.808 3.072 93.696-2.56 97.28-22.528 8.192-35.328-241.152-41.472-239.104-104.96-3.584-46.592 65.024-67.072 133.12-69.632V32.768h79.36v34.816a544.914 544.914 0 0 1 115.2 12.8l-22.016 43.52c-34.816-6.656-70.656-12.8-113.152-12.8-27.648 0-85.504 0-87.552 18.944 0 32.256 109.568 34.304 145.92 41.984 26.624 5.632 45.056 11.264 64 19.968 33.28 15.872 39.936 36.352 33.28 57.856z m-54.272 179.2c-40.155 6.51-80.676 9.728-121.344 9.728-182.784 0-335.872-63.488-374.784-147.968a103.131 103.131 0 0 0-9.728 42.496c0 104.96 172.032 189.952 384.512 189.952 10.24 0 20.48-0.512 30.72-0.512 23.625-36.937 54.492-68.754 90.624-93.696z m252.928-52.224a101.153 101.153 0 0 0 10.752-43.52c0-14.336-3.584-28.672-9.728-41.984-13.824 30.208-42.496 57.344-81.408 80.384 5.632-0.512 10.752-1.024 16.384-1.024 21.504 0 43.008 2.048 64 6.144zM384.585 564.224c-182.784 0-335.872-63.488-374.784-147.968C3.584 429.422 0.22 443.685 0.073 458.24c0 101.888 162.816 185.344 366.592 189.952 5.12-29.696 13.824-57.856 25.6-83.968h-7.68zM362.57 688.64C189.513 684.032 47.177 622.592 9.801 541.184 3.584 554.496 0.22 568.978 0.073 583.68c0 102.4 164.352 185.856 370.176 189.952a330.606 330.606 0 0 1-8.192-71.68c0-4.608 0.512-8.704 0.512-13.312zM9.801 666.624C3.657 679.79 0.293 694.053 0.073 708.608c0 104.96 172.032 189.952 384.512 189.952 14.336 0 28.16-0.512 41.984-1.024a344.357 344.357 0 0 1-44.544-83.456c-181.76 0-333.312-63.488-372.224-147.456z m450.56 269.312a730.112 730.112 0 0 1-75.776 3.584c-182.784 0-335.872-63.488-374.784-147.968a103.131 103.131 0 0 0-9.728 42.496C0.073 939.008 172.105 1024 384.585 1024c62.464 0 121.344-7.68 173.568-20.48a351.451 351.451 0 0 1-97.792-67.584z" p-id="3570"/></svg>