<svg xmlns="http://www.w3.org/2000/svg" xmlns:xlink="http://www.w3.org/1999/xlink" width="200" height="200" class="icon" p-id="3522" t="1558407514822" version="1.1" viewBox="0 0 1024 1024"><defs><style type="text/css"/></defs><path d="M475.965807 63.302745c23.867594 0 47.809889 0 71.640644 0 235.81068 39.07904 375.201357 178.279383 411.955446 418.685731 0 18.642592 0 37.288255 0 55.969733-35.913954 242.331187-176.676885 384.505257-420.915515 420.915515-18.605753 0-37.287231 0-55.969733 0C240.192989 924.485519 101.181959 786.618545 64.010361 546.918277c0-23.868617 0-47.791469 0-71.65804 11.627828-36.888142 11.092639-85.957721 31.338752-114.171296 5.222955 3.737114 12.047384 5.834892 20.168342 6.709819-52.994981 144.728242-13.647835 290.868647 51.471278 385.117195 66.110697 95.582939 173.704181 169.243589 311.189462 176.869267 151.018505 8.348132 255.027347-44.532239 331.395666-120.899534 64.583924-64.62588 113.38642-149.991106 120.937396-261.96741 11.743462-175.134763-63.21474-293.306162-161.238264-369.426841-64.165392-49.831942-149.913335-87.310531-257.467933-87.310531-32.406061 0-65.309448 8.692986-100.769055 6.709819 0.152473-8.367575-2.249227-14.162558-4.459568-20.147876C428.574451 71.1382 456.560852 71.482031 475.965807 63.302745z" p-id="3523"/><path d="M894.670981 188.662871c-10.484795-0.705058-9.68457-12.69616-20.170388-13.420661 34.353412-46.114271-33.662681-102.750175-71.637574-62.697971-6.252401-5.661953-13.840216-10.047844-17.921161-17.900695C843.04723 35.81367 946.066535 118.224612 894.670981 188.662871z" p-id="3524"/><path d="M498.384399 114.811886c8.92016 0 17.880229 0 26.840298 0 0 17.138332 0 34.33397 0 51.469232-8.961092 0-17.921161 0-26.840298 0C498.384399 149.145855 498.384399 131.950218 498.384399 114.811886z" p-id="3525"/><path d="M525.225721 349.901135c-2.669806 56.292074 5.5279 123.394355-4.499477 172.368766-91.807962 5.222955-193.262632 0.779759-288.806685 2.25025 0-8.960069 0-17.900695 0-26.861788 88.795349 0 177.629583 0 266.464841 0 0-47.00864 0-94.058213 0-141.066853C496.479003 343.513658 516.72307 352.568894 525.225721 349.901135z" p-id="3526"/><path d="M113.270275 499.909637c17.880229 0 35.798321 0 53.719482 0 0 8.195659 0 16.412808 0 24.610514-17.920138 0-35.83823 0-53.719482 0C113.270275 516.322445 113.270275 508.104273 113.270275 499.909637z" p-id="3527"/><path d="M858.831728 499.909637c17.156752 0 34.313503 0 51.470255 0 0 8.195659 0 16.412808 0 24.610514-17.156752 0-34.313503 0-51.470255 0C858.831728 516.322445 858.831728 508.104273 858.831728 499.909637z" p-id="3528"/><path d="M498.384399 858.144578c8.92016 0 17.880229 0 26.840298 0 0 17.156752 0 34.313503 0 51.470255-8.961092 0-17.921161 0-26.840298 0C498.384399 892.458081 498.384399 875.300306 498.384399 858.144578z" p-id="3529"/></svg>