<svg xmlns="http://www.w3.org/2000/svg" width="220.508" height="200"
     class="icon" p-id="2645" t="1565318544840" version="1.1" viewBox="0 0 1129 1024">
  <defs>
    <style type="text/css"/>
  </defs>
  <path fill="#1296db"
        d="M929.721379 600.275862h-711.503448a16.595862 16.595862 0 0 1-13.771034-25.776552l127.646896-190.146207a16.595862 16.595862 0 0 1 13.771035-7.415172h456.209655a16.595862 16.595862 0 0 1 13.771034 7.415172l127.646897 190.146207a16.595862 16.595862 0 0 1 0.882758 17.655173 16.41931 16.41931 0 0 1-14.653793 8.121379z m-680.430345-32.838621h649.18069l-105.931034-156.954482h-437.848276zM929.721379 733.21931h-711.503448a16.41931 16.41931 0 0 1-13.771034-25.776551l63.735172-95.16138a16.595862 16.595862 0 0 1 27.718621 17.655173l-46.609656 69.208276H898.648276l-46.609655-69.208276a16.595862 16.595862 0 0 1 4.590345-22.951724 17.655172 17.655172 0 0 1 23.128275 4.413793l63.735173 95.161379a17.655172 17.655172 0 0 1 0.882758 17.655172 16.595862 16.595862 0 0 1-14.653793 9.004138zM929.721379 864.044138h-711.503448a16.595862 16.595862 0 0 1-13.771034-25.776552l58.085517-86.686896a17.655172 17.655172 0 0 1 23.128276-4.590345 17.655172 17.655172 0 0 1 4.413793 23.128276l-40.783449 60.733793H898.648276l-46.609655-69.208276a16.595862 16.595862 0 1 1 27.71862-17.655172l63.735173 95.161379a16.595862 16.595862 0 0 1 0.882758 17.655172 16.41931 16.41931 0 0 1-14.653793 7.238621zM302.433103 354.868966a77.682759 77.682759 0 1 1 77.682759-77.682759 77.85931 77.85931 0 0 1-77.682759 77.682759z m0-122.173794a44.491034 44.491034 0 1 0 44.491035 44.491035 44.491034 44.491034 0 0 0-44.491035-44.491035zM842.857931 354.868966a77.682759 77.682759 0 1 1 77.682759-77.682759 77.85931 77.85931 0 0 1-77.682759 77.682759z m0-122.173794a44.491034 44.491034 0 1 0 44.491035 44.491035 44.491034 44.491034 0 0 0-44.491035-44.491035zM573.969655 297.842759a90.924138 90.924138 0 1 1 90.924138-90.747587 90.924138 90.924138 0 0 1-90.924138 90.747587z m0-148.48a57.732414 57.732414 0 1 0 57.555862 57.732413 57.908966 57.908966 0 0 0-57.555862-57.732413z"
        p-id="2646"/>
  <path fill="#1296db"
        d="M573.969655 544.308966a16.595862 16.595862 0 0 1-16.595862-16.595863v-247.172413a16.595862 16.595862 0 1 1 33.191724 0v247.172413a16.595862 16.595862 0 0 1-16.595862 16.595863zM461.329655 521.18069h-2.471724a16.242759 16.242759 0 0 1-13.947586-18.714483c21.892414-146.008276-72.562759-180.435862-76.623448-181.848276a16.772414 16.772414 0 0 1 10.769655-31.602759c1.235862 0 124.822069 43.961379 98.692414 218.217931a17.655172 17.655172 0 0 1-16.419311 13.947587zM697.202759 520.121379a16.595862 16.595862 0 0 1-16.419311-14.124138c-26.129655-174.256552 97.456552-217.688276 98.692414-218.217931a16.595862 16.595862 0 0 1 10.593104 31.602759c-4.06069 1.412414-98.33931 35.310345-76.446897 181.671724a16.41931 16.41931 0 0 1-13.947586 18.891035z"
        p-id="2647"/>
</svg>
