<svg xmlns="http://www.w3.org/2000/svg" width="200" height="200" class="icon"
     p-id="3591" t="1557917322068" version="1.1" viewBox="0 0 1024 1024">
  <defs>
    <style type="text/css"/>
  </defs>
  <path
    d="M684.352 345.632c-0.335-6.67-0.835-12.335-1.502-17.002-0.668-4.662-1.663-8.663-2.999-11.995-0.668-23.995-2.665-48.323-5.997-72.987-3.331-21.329-8.667-43.827-15.999-67.489-7.333-23.661-18.659-45.49-33.994-65.491-6.666-8.663-12.829-15.328-18.498-19.996-5.664-4.662-11.332-7.834-16.996-9.497-5.663-1.668-11.5-2.498-17.497-2.498h-18.998c-4.662-4.667-9.164-9.334-13.498-13.998-4.329-4.667-9.497-8.667-15.494-12-6.002-3.331-13.83-6.163-23.5-8.5-9.664-2.332-22.159-4.162-37.492-5.495-13.997 0-28.661 1.168-43.99 3.499-15.331 2.332-30.497 6.498-45.49 12.495-14.998 6.002-29.497 14.499-43.495 25.498-13.997 10.997-26.994 24.829-38.993 41.491-13.33 17.998-22.994 38.326-28.996 60.991-5.997 22.666-10.331 43.661-12.995 62.99-2.666 23.327-4 46.659-4 69.987-2.665 5.335-4.333 11.666-4.996 18.998-1.335 5.997-1.502 13.163-0.5 21.497 0.995 8.329 3.164 17.827 6.498 28.491 3.331 10.665 6.331 18.832 8.996 24.495 2.669 5.669 5.002 10.17 6.998 13.502 2.67 3.331 4.667 5.663 6.002 6.998 2.666 10.665 5.664 20.329 8.996 28.992 3.333 8 6.832 15.834 10.498 23.5 3.666 7.666 8.165 13.498 13.497 17.497 9.998 8.663 19.167 16.996 27.495 24.996 8.333 7.995 13.168 19.327 14.499 33.994 0.668 9.997 1.002 18.993 1.002 26.994 0 8-1.501 15.666-4.5 22.999-2.999 7.333-7.995 14.66-14.995 21.993-6.998 7.333-16.834 14.998-29.497 22.999-15.995 10.665-34.827 18.666-56.491 23.995-21.663 5.331-42.325 11.5-61.987 18.499-19.665 6.998-36.995 16.494-51.988 28.495-14.999 11.995-24.166 29.326-27.5 51.99-5.997 39.99-7.333 72.485-3.999 97.482 3.338 24.996 8 39.828 14.002 44.491 3.331 3.333 12.161 6.502 26.493 9.502 14.332 2.999 31.661 6.164 51.988 9.499 20.33 3.331 42.827 6.331 67.489 8.996 24.662 2.669 49.492 5.001 74.486 6.998 24.997 2.002 49.325 3.666 72.987 5.002 23.661 1.333 44.491 1.997 62.487 1.997 17.998 0 38.995-0.496 62.99-1.497 23.995-1.003 48.657-2.666 73.987-5.002 18.694-1.721 37.39-3.717 56.083-5.984-61.354-42.246-101.584-112.964-101.584-193.089 0-48.48 14.726-93.52 39.948-130.894-2.781-3.903-5.115-7.889-6.942-11.97-4.334-9.669-6.832-19.165-7.5-28.496-0.668-9.334 0-18.666 1.998-27.994 2.665-15.332 7.666-26.164 14.998-32.495 7.333-6.332 16.661-14.165 27.994-23.494 5.331-3.999 9.831-9.831 13.498-17.497 3.666-7.666 7.166-15.499 10.498-23.5 3.331-8.663 6.331-18.327 8.999-28.992 3.996-2.001 7.662-5.335 10.994-10.002 3.333-3.996 6.336-9.831 9.001-17.497 2.666-7.661 4.669-18.16 5.997-31.494 1.335-9.995 1.836-18.324 1.502-24.989v0zM503.882 726.562c-5.331 10.665-9.831 19.165-13.498 25.498-3.666 6.331-7.499 11.165-11.5 14.496 2.002 6.666 4.334 15.663 6.999 26.995 2.669 11.332 5.168 22.994 7.499 34.993 2.332 12 4.501 22.832 6.498 32.495 2.002 9.664 2.999 16.494 2.999 20.496 0 3.331-1.497 7.499-4.495 12.495-2.999 5.001-6.666 9.669-10.998 13.998-4.334 4.333-8.834 8.165-13.498 11.499-4.667 3.333-8.667 5.002-12 5.002-3.331 0-7.166-1.668-11.499-5.002-4.33-3.331-8.496-7.499-12.496-12.495-3.999-5.002-7.499-9.835-10.497-14.499-2.999-4.667-4.501-8.667-4.501-12 0-5.329 0.835-13.163 2.503-23.494 1.663-10.331 3.662-21.329 5.997-32.995 2.332-11.662 4.83-22.994 7.5-33.994 2.665-10.997 4.662-19.493 5.997-25.497-4-3.999-7.667-9.497-10.998-16.497-3.333-6.998-7.333-15.166-11.995-24.495-2.002-3.333-2.17-6.998-0.5-10.998 1.663-3.999 3.833-7.666 6.498-10.998 2.665-3.999 6.331-8.329 10.998-12.995h45.991c4.662 4.667 8.663 8.996 11.995 12.995 3.333 4 5.831 8.167 7.5 12.502 1.668 4.33 1.501 8.496-0.5 12.495zM777.081 678.484c-38.157 0-69.142 30.917-69.142 69.14 0 38.151 30.922 69.139 69.142 69.139 38.151 0 69.14-30.917 69.14-69.139 0-38.224-30.922-69.14-69.14-69.14zM950.102 708.718h-34.127c-3.14-11.26-7.577-21.975-13.173-31.939l24.095-24.094c4.436-4.436 4.436-11.602 0-16.038l-38.907-38.906c-2.183-2.183-5.117-3.277-7.986-3.277-2.934 0-5.799 1.093-7.983 3.277l-24.094 24.094c-9.967-5.596-20.683-10.033-31.945-13.173v-34.128c0-6.212-5.12-11.332-11.329-11.332h-55.015c-6.209 0-11.329 5.12-11.329 11.332v34.128c-11.263 3.14-21.979 7.575-31.945 13.173l-24.092-24.025c-2.186-2.187-5.12-3.277-7.986-3.277-2.867 0-5.804 1.090-7.986 3.277l-38.906 38.901c-4.366 4.436-4.366 11.602 0 16.038l24.094 24.094c-5.596 9.967-10.033 20.683-13.171 31.945h-34.128c-6.212 0-11.329 5.12-11.329 11.329v55.015c0 6.209 5.117 11.329 11.329 11.329h34.128c3.139 11.263 7.575 21.979 13.171 31.945l-24.094 24.092c-4.366 4.436-4.366 11.605 0 16.042l38.906 38.902c2.183 2.182 5.12 3.276 7.986 3.276s5.799-1.093 7.986-3.276l24.092-24.095c9.966 5.6 20.682 10.036 31.945 13.177v34.128c0 6.209 5.12 11.329 11.329 11.329h55.015c6.209 0 11.329-5.12 11.329-11.329v-34.128c11.263-3.14 21.979-7.575 31.945-13.177l24.094 24.095c2.183 2.182 5.117 3.276 7.983 3.276 2.937 0 5.803-1.093 7.986-3.276l38.907-38.902c4.436-4.436 4.436-11.605 0-16.042l-24.095-24.092c5.596-9.967 10.033-20.683 13.173-31.945h34.127c6.212 0 11.332-5.12 11.332-11.329v-55.015c0-6.278-5.12-11.398-11.332-11.398zM873.932 774.652c-2.182 7.851-5.257 15.359-9.146 22.251l-13.856 24.506-24.503 13.856c-6.894 3.89-14.333 6.959-22.252 9.146l-27.094 7.575-27.098-7.575c-7.851-2.186-15.359-5.257-22.251-9.146l-24.506-13.856-13.855-24.506c-3.89-6.892-6.961-14.332-9.147-22.251l-7.506-27.098 7.577-27.094c2.182-7.851 5.255-15.359 9.147-22.251l13.855-24.506 24.506-13.856c6.892-3.89 14.332-6.963 22.247-9.146l27.098-7.575 27.097 7.575c7.851 2.182 15.357 5.257 22.252 9.146l24.5 13.856 13.856 24.506c3.892 6.892 6.963 14.332 9.146 22.251l7.575 27.094-7.642 27.098z"
    p-id="3592"/>
</svg>
