<?xml version="1.0" standalone="no"?><!DOCTYPE svg PUBLIC "-//W3C//DTD SVG 1.1//EN" "http://www.w3.org/Graphics/SVG/1.1/DTD/svg11.dtd"><svg t="1574131055020" class="icon" viewBox="0 0 1024 1024" version="1.1" xmlns="http://www.w3.org/2000/svg" p-id="23779" xmlns:xlink="http://www.w3.org/1999/xlink" width="300" height="300"><defs><style type="text/css"></style></defs><path d="M909.707064 1023.909316l-803.134846-7.60572a77.315075 77.315075 0 0 1-77.285822-77.25657l0.994594-102.706481a77.402834 77.402834 0 0 1 78.777714-75.735426l298.553787 2.925277 0.52655-53.327803-344.334375-3.305563a29.252772 29.252772 0 0 1-29.252771-29.252772L40.958252 28.583761a29.252772 29.252772 0 0 1 29.720816-28.579958L965.345836 8.487107a29.252772 29.252772 0 0 1 29.252772 29.252771l-6.406357 649.060498a29.252772 29.252772 0 0 1-29.720816 28.579958l-373.762664-3.539586-0.52655 53.357056 327.982076 3.130046a77.315075 77.315075 0 0 1 77.285823 77.227318l-0.994595 102.706481a77.373581 77.373581 0 0 1-78.017142 75.764678zM82.350923 836.837842l-1.023847 102.706481a25.771692 25.771692 0 0 0 25.742439 25.742439l803.134846 7.605721a25.742439 25.742439 0 0 0 26.327495-25.245142l1.023847-102.677229a25.771692 25.771692 0 0 0-25.771692-25.742439l-803.134846-7.634973h-0.234022a25.800945 25.800945 0 0 0-26.122725 25.245142z m2.662003-778.972057l-5.850555 591.403285a14.626386 14.626386 0 0 0 14.626386 14.626386l835.810192 7.927501a14.626386 14.626386 0 0 0 14.860408-14.275353l5.850554-591.403284a14.626386 14.626386 0 0 0-14.626386-14.626386L99.873334 43.590433h-0.146264a14.626386 14.626386 0 0 0-14.77265 14.275352z m754.721508 867.841977a30.949432 30.949432 0 1 1 0.292528 0z m-108.937321-13.631792l-553.754968-5.236246a13.310011 13.310011 0 0 1-13.251505-13.251505v-9.273129a13.251506 13.251506 0 0 1 13.456275-12.988231l553.78422 5.265499a13.251506 13.251506 0 0 1 13.222253 13.222253v9.302382a13.280758 13.280758 0 0 1-13.339264 12.958977z m153.401534-285.71182L140.125147 619.314232a14.626386 14.626386 0 0 1-14.626385-14.626386l4.972971-501.451012a14.626386 14.626386 0 0 1 14.831155-14.275353l744.0735 7.049918a14.626386 14.626386 0 0 1 14.626386 14.626386l-5.119235 501.421759a14.626386 14.626386 0 0 1-14.626386 14.304606z" fill="#48A2DF" p-id="23780"></path></svg>