<?xml version="1.0" standalone="no"?><!DOCTYPE svg PUBLIC "-//W3C//DTD SVG 1.1//EN" "http://www.w3.org/Graphics/SVG/1.1/DTD/svg11.dtd"><svg t="1546915940162" class="icon" style="" viewBox="0 0 1024 1024" version="1.1" xmlns="http://www.w3.org/2000/svg" p-id="2699" xmlns:xlink="http://www.w3.org/1999/xlink" width="200" height="200"><defs><style type="text/css"></style></defs><path d="M338.958078 0 144.980804 0C65.347311 0 0.010127 65.342128 0.010127 143.954033l0 193.973318c0 78.613883 65.337184 140.891245 143.949089 140.891245l334.866541 0L478.825756 143.954033C478.825756 65.342128 416.548394 0 338.958078 0L338.958078 0zM408.379639 408.372479 143.959216 408.372479c-38.793675 0-72.487317-31.648486-72.487317-70.445128l0-193.973318c0-38.798619 33.693642-72.487317 72.487317-72.487317l193.978263 0c38.793675 0 70.44315 32.670075 70.44315 72.487317L408.380628 408.372479 408.379639 408.372479zM884.137425 0 690.159162 0c-78.611905 0-143.957 65.342128-143.957 143.954033l0 334.863574 337.934274 0c78.602015 0 139.857789-62.276373 139.857789-140.891245l0-193.973318C1023.994225 65.342128 961.725763 0 884.137425 0L884.137425 0zM952.543331 337.927351c0 38.796642-29.614209 70.445128-69.439362 70.445128L615.631635 408.372479 615.631635 142.933434c0-38.796642 34.707319-72.487317 73.508906-72.487317l193.96244 0c38.811476 0 69.439362 32.670075 69.439362 72.487317L952.542342 337.927351 952.543331 337.927351zM0.010127 689.125469l0 193.982219c0 78.60696 65.337184 140.891245 143.949089 140.891245l193.978263 0c78.611905 0 139.867678-62.284285 139.867678-140.891245L477.805156 545.184291 143.959216 545.184291C65.347311 545.184291 0.010127 610.519497 0.010127 689.125469L0.010127 689.125469zM408.379639 883.108676c0 38.791697-30.627887 69.419583-70.44315 69.419583L143.959216 952.528259c-38.793675 0-72.487317-30.627887-72.487317-69.419583L71.471899 689.125469c0-38.796642 33.693642-73.503961 72.487317-73.503961l264.420424 0L408.379639 883.108676 408.379639 883.108676zM884.137425 545.184291 545.184529 545.184291l0 337.924385c0 78.60696 65.340151 140.891245 143.957 140.891245l193.96244 0c78.621795 0 139.877568-62.284285 139.877568-140.891245L1022.981536 689.125469C1023.994225 610.519497 961.725763 545.184291 884.137425 545.184291L884.137425 545.184291zM952.543331 883.108676c0 38.791697-29.614209 69.419583-69.439362 69.419583L689.14054 952.528259c-38.801586 0-73.508906-30.627887-73.508906-69.419583L615.631635 615.622497l268.504801 0c38.791697 0 69.419583 33.693642 69.419583 73.503961l0 193.982219L952.543331 883.108676z" p-id="2700"></path></svg>