<?xml version="1.0" standalone="no"?><!DOCTYPE svg PUBLIC "-//W3C//DTD SVG 1.1//EN" "http://www.w3.org/Graphics/SVG/1.1/DTD/svg11.dtd"><svg t="1565842720748" class="icon" viewBox="0 0 1026 1024" version="1.1" xmlns="http://www.w3.org/2000/svg" p-id="2021" xmlns:xlink="http://www.w3.org/1999/xlink" width="200.390625" height="200"><defs><style type="text/css"></style></defs><path d="M912.688095 1001.953524c-114.923732 59.70064-255.220235-18.65645-270.891653-148.505342-2.985032-25.372772-2.238774-50.745544 5.970064-75.372057 3.73129-11.19387 0.746258-17.910192-6.716322-25.372772-123.878828-123.13257-247.757655-247.011397-371.636482-370.890225-8.208838-8.208838-14.92516-9.701354-26.865288-6.716322-105.968636 29.85032-216.414819-36.566642-238.056301-144.774051-8.208838-39.551674-5.970064-79.849606 13.432643-117.162506 8.208838-1.492516 10.447612 5.223806 14.178902 8.955096 36.566642 35.820384 72.387026 73.133284 108.953668 108.953668 30.596578 30.596578 67.909478 32.089094 95.521024 5.223806 26.865288-26.11903 25.372772-64.924446-4.477548-95.521024-39.551674-40.297932-79.849606-79.849606-122.386312-122.386311 59.70064-24.626514 115.66999-25.372772 171.639339 2.985032 79.103348 41.04419 119.40128 134.326439 94.774766 220.146109-3.73129 13.432644-0.746258 20.148966 8.208838 28.357804 123.13257 122.386312 245.518881 244.772623 367.905193 367.905192 9.701354 9.701354 17.910192 10.447612 31.342836 7.46258 74.6258-17.910192 139.550245 0.746258 191.042047 57.461866 49.253028 54.476834 63.43193 117.908764 38.805416 188.803273-5.223806 15.671418-8.955096 21.641482-23.133998 5.970064-35.820384-38.059158-73.133284-74.6258-110.446184-110.446183-19.402708-19.402708-43.282964-26.865288-69.401994-16.417676-23.133998 8.955096-37.3129 26.11903-41.044189 51.491802-2.985032 23.880256 7.46258 43.282964 23.880256 59.700639 38.805416 39.551674 78.35709 79.103348 119.401279 120.147538z" fill="" p-id="2022"></path><path d="M1.507081 923.596434c-2.985032-23.880256 7.46258-45.521738 26.119029-64.178188 101.491088-102.237346 202.982175-202.982175 304.473263-305.21952 7.46258-7.46258 11.19387-8.955096 19.402708-0.746258 38.805416 39.551674 77.610832 78.35709 117.162506 117.162505 7.46258 7.46258 8.208838 11.19387 0 19.402708-102.237346 101.491088-202.982175 203.728433-305.965779 304.473263-49.999286 48.50677-124.625086 35.074126-153.729147-24.626514-6.716322-14.178902-7.46258-17.910192-7.46258-46.267996zM647.020248 442.260026c-3.73129-2.985032-6.716322-5.970064-9.701354-8.955096-15.671418-15.671418-31.342836-32.089094-47.760512-47.014254-9.701354-8.955096-7.46258-14.178902 0.746258-22.38774 38.059158-36.566642 73.879542-75.372058 112.684958-111.192441 30.596578-28.357804 56.715608-58.954382 70.89451-98.506056 22.38774-61.939414 63.43193-102.983604 125.371343-125.371343 19.402708-6.716322 38.059158-26.11903 55.96935-24.626514 18.65645 1.492516 29.104062 27.611546 45.521738 40.297932 20.148966 14.92516 22.38774 29.104062 8.208838 50.745543-18.65645 29.85032-33.58161 62.685672-49.253028 94.774766-5.223806 11.19387-12.686386 19.402708-24.626514 23.880256-85.81967 35.074126-158.206695 90.297218-218.653593 160.445469-17.910192 20.895224-38.805416 38.805416-58.208124 58.208124-3.73129 3.73129-6.716322 5.970064-11.19387 9.701354z" fill="" p-id="2023"></path></svg>