<svg xmlns="http://www.w3.org/2000/svg" xmlns:xlink="http://www.w3.org/1999/xlink" width="200" height="200" class="icon" p-id="2737" t="1556524571536" version="1.1" viewBox="0 0 1024 1024"><defs><style type="text/css"/></defs><path d="M293.227 422.108c-89.832 0-162.908-73.077-162.908-162.9S203.395 96.31 293.227 96.31c89.823 0 162.9 73.077 162.9 162.9s-73.077 162.899-162.9 162.899z m0-269.08c-58.555 0-106.19 47.634-106.19 106.18s47.636 106.18 106.19 106.18c58.547 0 106.18-47.635 106.18-106.18s-47.633-106.18-106.18-106.18zM722.196 837.1c-89.822 0-162.899-73.076-162.899-162.899s73.077-162.899 162.9-162.899c89.831 0 162.908 73.076 162.908 162.9S812.028 837.1 722.196 837.1z m0-269.08c-58.546 0-106.18 47.635-106.18 106.18 0 58.547 47.635 106.18 106.18 106.18 58.556 0 106.19-47.634 106.19-106.18 0-58.545-47.634-106.18-106.19-106.18zM725.704 422.108c-89.823 0-162.899-73.077-162.899-162.9S635.881 96.31 725.705 96.31s162.898 73.077 162.898 162.9-73.076 162.899-162.899 162.899z m0-269.08c-58.546 0-106.18 47.634-106.18 106.18s47.635 106.18 106.18 106.18c58.547 0 106.18-47.635 106.18-106.18s-47.633-106.18-106.18-106.18zM293.227 837.1c-89.832 0-162.908-73.076-162.908-162.899s73.076-162.899 162.908-162.899c89.823 0 162.9 73.076 162.9 162.9S383.05 837.1 293.226 837.1z m0-269.08c-58.555 0-106.19 47.635-106.19 106.18 0 58.547 47.636 106.18 106.19 106.18 58.547 0 106.18-47.634 106.18-106.18 0-58.545-47.633-106.18-106.18-106.18z" p-id="2738"/><path d="M617.927 617.944a28.266 28.266 0 0 1-20.051-8.308l-222.008-222c-11.078-11.078-11.078-29.023 0-40.1 11.078-11.08 29.024-11.08 40.1 0l222.01 221.998c11.077 11.079 11.077 29.024 0 40.102a28.266 28.266 0 0 1-20.051 8.308z" p-id="2739"/><path d="M395.918 617.944a28.266 28.266 0 0 1-20.05-8.308c-11.078-11.079-11.078-29.024 0-40.102l222.008-221.999c11.078-11.078 29.024-11.078 40.101 0s11.078 29.024 0 40.102L415.97 609.636a28.264 28.264 0 0 1-20.05 8.308z" p-id="2740"/></svg>