<svg xmlns="http://www.w3.org/2000/svg" xmlns:xlink="http://www.w3.org/1999/xlink" width="200" height="200" class="icon" p-id="4723" t="1546916002196" version="1.1" viewBox="0 0 1024 1024"><defs><style type="text/css"/></defs><path d="M913.335 46.545H529.574c-35.412 0-64.119 28.707-64.119 64.119v364.31h-93.091v74.05h93.091v364.31c0 35.412 28.707 64.119 64.119 64.119h383.762c35.412 0 64.119-28.707 64.119-64.119v-802.67c0-35.411-28.708-64.119-64.12-64.119zM529.574 930.909c-9.69 0-17.574-7.884-17.574-17.574V110.665c0-9.69 7.883-17.574 17.574-17.574h383.762c9.69 0 17.574 7.884 17.574 17.574v802.67c0 9.69-7.883 17.574-17.574 17.574H529.574z" p-id="4724"/><path d="M698.182 186.182h-93.091v93.091h93.091v-93.091zM837.818 186.182h-93.091v93.091h93.091v-93.091zM698.182 325.818h-93.091v93.091h93.091v-93.091zM837.818 325.818h-93.091v93.091h93.091v-93.091zM698.182 465.454h-93.091v93.091h93.091v-93.091zM168.148 93.091c9.944 0 18.033 8.09 18.033 18.033v103.569c0 9.944-8.09 18.033-18.033 18.033h-57.024c-9.944 0-18.033-8.09-18.033-18.033v-103.57c0-9.944 8.09-18.033 18.033-18.033h57.024m0 325.819c9.944 0 18.033 8.09 18.033 18.033v150.115c0 9.944-8.09 18.033-18.033 18.033h-57.024c-9.944 0-18.033-8.09-18.033-18.033V436.943c0-9.944 8.09-18.033 18.033-18.033h57.024m0 372.363c9.944 0 18.033 8.09 18.033 18.033v103.569c0 9.944-8.09 18.033-18.033 18.033h-57.024c-9.944 0-18.033-8.09-18.033-18.033v-103.57c0-9.944 8.09-18.033 18.033-18.033h57.024m0-744.727h-57.024c-35.666 0-64.579 28.913-64.579 64.579v103.57c0 35.666 28.913 64.579 64.579 64.579h57.024c35.666 0 64.579-28.913 64.579-64.579v-28.512h93.091v288.793h-93.091v-38.033c0-35.666-28.913-64.579-64.579-64.579h-57.024c-35.666 0-64.579 28.913-64.579 64.579v150.115c0 35.666 28.913 64.579 64.579 64.579h57.024c35.666 0 64.579-28.913 64.579-64.579v-38.033h93.091v288.793h-93.091v-28.512c0-35.666-28.913-64.579-64.579-64.579h-57.024c-35.666 0-64.579 28.913-64.579 64.579v103.57c0 35.666 28.913 64.579 64.579 64.579h57.024c35.666 0 64.579-28.913 64.579-64.579v-28.512h93.091c25.706 0 46.545-20.839 46.545-46.545V186.182c0-25.706-20.839-46.545-46.545-46.545h-93.091v-28.512c0-35.667-28.913-64.58-64.579-64.58zM837.818 465.454h-93.091v93.091h93.091v-93.091zM698.182 605.091h-93.091v93.091h93.091v-93.091zM837.818 605.091h-93.091v93.091h93.091v-93.091zM698.182 744.727h-93.091v93.091h93.091v-93.091zM837.818 744.727h-93.091v93.091h93.091v-93.091z" p-id="4725"/></svg>