<?xml version="1.0" standalone="no"?><!DOCTYPE svg PUBLIC "-//W3C//DTD SVG 1.1//EN" "http://www.w3.org/Graphics/SVG/1.1/DTD/svg11.dtd"><svg t="1557987884630" class="icon" style="" viewBox="0 0 1101 1024" version="1.1" xmlns="http://www.w3.org/2000/svg" p-id="4807" xmlns:xlink="http://www.w3.org/1999/xlink" width="215.0390625" height="200"><defs><style type="text/css"></style></defs><path d="M1044.809316 476.995758v369.849803h-85.808149v177.148934H151.071228v-177.148934H56.196163V486.569145H0V360.892989h56.196163V0.016515h988.007591V351.314098h56.801724v125.68166h-56.196162z m-526.266493 534.078244l161.574978-318.646775-128.494772 40.209323 46.171357-149.458231H503.156041c13.074636-2.279116-69.248778 213.945089-69.248778 213.945089l117.715766 11.384567-33.080206 202.566027zM983.774161 50.883731H125.687166v479.974023H474.210173c-0.066061-1.26067-0.192679-2.416743-0.192679-3.787515 0-35.821751 24.420668-65.642931 57.577945-75.029144l175.673564-123.898005-75.045659 200.908988c-0.02202 0.655108-0.126618 1.178094-0.159648 1.805676h351.710465V50.883731zM232.651452 89.182781h643.563871v115.508218H232.651452V89.182781z" p-id="4808"></path></svg>