<svg xmlns="http://www.w3.org/2000/svg" width="69.813" height="64"
     class="icon" p-id="13177" t="1584589732660" version="1.1" viewBox="0 0 1117 1024">
  <defs>
    <style type="text/css"/>
  </defs>
  <path fill="#2a6d0b"
        d="M1073.19258 0.003724h-43.93857v84.898253h-128.976458V0.003724H216.809379v84.898253H87.832921V0.003724H43.894352A43.286938 43.286938 0 0 0 0.002327 43.802658V980.243422c0 24.6689 19.223124 43.798934 43.892025 43.798934h43.938569v-43.798934h128.976458V1023.995811h683.468173v-43.798934h128.976458V1023.995811h43.93857a43.286938 43.286938 0 0 0 43.892024-43.798934V43.756113C1114.338444 19.133758 1097.86148 0.003724 1073.19258 0.003724zM219.55554 851.499689H90.579082V722.849047h128.976458v128.697187z m0-254.601669H90.579082v-128.697187h128.976458v128.697187z m0-254.648214H90.579082V213.552619h128.976458v128.697187z m329.725452 307.244172l-84.153532 46.265824a19.54894 19.54894 0 0 1-26.996155-8.750478 21.690014 21.690014 0 0 1-2.001439-13.265352l17.826772-108.729342-75.542689-77.078677a21.596924 21.596924 0 0 1-0.372361-29.556135 19.921301 19.921301 0 0 1 11.450093-6.143953l104.447193-15.825332 46.68473-98.954872a19.64203 19.64203 0 0 1 35.839723 0l46.684731 99.001417 104.493738 15.825333a20.805657 20.805657 0 0 1 16.849324 23.691453 20.945293 20.945293 0 0 1-5.818137 11.962089l-75.589234 77.032132 17.826771 108.729342a20.852203 20.852203 0 0 1-16.290783 24.203449 19.176579 19.176579 0 0 1-12.706811-2.141074l-84.106986-46.219279a18.990399 18.990399 0 0 0-18.524948 0z m479.973018 202.005711h-128.976458V722.849047h128.976458v128.697187z m0-254.601669h-128.976458v-128.697187h128.976458v128.697187z m0-254.648214h-128.976458V213.552619h128.976458v128.697187z"
        p-id="13178"/>
</svg>
