<svg xmlns="http://www.w3.org/2000/svg" width="200" height="200" class="icon"
     p-id="3649" t="1557987413217" version="1.1" viewBox="0 0 1024 1024">
  <defs>
    <style type="text/css"/>
  </defs>
  <path
    d="M626.01 362.33H348.534L444.844 0 22.125 483.107H299.6l-96.309 362.33L626.01 362.33z m-64.033 133.271c-24.989 89.542-59.868 168.671-104.118 237.91 7.288 44.25 13.014 78.609 17.7 103.597 3.123-4.164 8.33-11.973 15.617-21.864 13.015-19.262 23.427-33.839 30.715-44.25v248.841h72.883V634.6c16.138-38.003 30.715-77.568 44.25-118.695l-77.047-20.303z m399.813 352.44c-11.974-3.124-20.824-5.727-26.55-8.85 0 26.55-2.083 49.976-6.768 70.28 0 7.288-2.083 11.973-6.768 13.014-4.165 0-8.85-4.165-13.015-13.015-16.138-33.838-26.03-81.212-28.632-143.162h110.365v-72.882h-115.05v-43.73c-1.562-24.988-2.083-43.209-2.083-55.183 32.277-4.164 68.718-8.85 108.283-13.014l-21.865-72.883c-91.624 13.015-197.303 21.865-318.6 26.55V882.92c1.561 26.55-7.289 46.853-26.55 61.43l44.25 61.43c13.014-10.412 28.111-20.824 44.25-30.715l19.782-8.85 30.715 57.264 72.882-28.632c-13.015-20.824-26.55-39.044-39.565-55.183l17.7-6.767c-4.164-23.427-6.767-48.415-6.767-74.965-26.55 11.973-43.73 19.782-51.018 24.468-11.974 4.164-20.824 8.329-26.55 10.932V765.787h79.65c5.727 80.692 18.22 140.04 37.483 178.563 21.864 44.25 49.456 65.073 81.732 64.032 35.4 0 57.265-16.659 66.115-50.497 5.727-23.426 10.932-55.182 15.618-94.747-18.22-6.768-31.756-11.974-39.044-15.097zM720.756 693.946v-87.98c8.85 0 21.345-0.52 37.483-2.082 16.138 0 28.632-0.52 37.482-2.082 0 44.25 0.521 74.965 2.083 92.665l-77.048-0.52z"
    p-id="3650"/>
</svg>
