<svg xmlns="http://www.w3.org/2000/svg" width="257.031" height="200"
     class="icon" p-id="2651" t="1558407469185" version="1.1" viewBox="0 0 1316 1024">
  <defs>
    <style type="text/css"/>
  </defs>
  <path
    d="M1316.571429 511.488c-0.438857-8.630857-12.946286-51.2-30.500572-95.524571-17.92-45.641143-48.274286-111.762286-90.258286-166.912a606.646857 606.646857 0 0 0-201.581714-172.032C897.536 25.819429 784.310857 0 658.066286 0 531.894857 0 418.742857 25.965714 322.048 77.165714a610.596571 610.596571 0 0 0-201.581714 171.885715C78.482286 304.420571 48.274286 370.468571 30.354286 416.182857 12.8 460.434286 0.438857 503.003429 0 511.634286v0.585143c0.438857 8.630857 12.946286 51.2 30.500571 95.597714 18.066286 45.714286 48.274286 111.762286 90.112 166.765714a606.646857 606.646857 0 0 0 201.581715 172.105143C419.474286 998.034286 532.48 1024 658.212571 1024c125.805714 0 238.884571-25.965714 336.018286-77.312a610.157714 610.157714 0 0 0 201.581714-171.885714c41.984-55.222857 72.338286-121.270857 90.258286-166.985143 17.554286-44.251429 30.061714-86.820571 30.500572-95.451429v-0.292571-0.585143z m-105.325715 1.536c-8.338286 26.770286-40.448 123.392-93.622857 193.462857l-0.731428 0.731429A502.637714 502.637714 0 0 1 950.857143 849.773714c-82.139429 43.52-179.2 65.609143-288.402286 65.609143-109.275429 0-206.189714-22.089143-288.256-65.609143a500.297143 500.297143 0 0 1-166.107428-142.628571c-53.467429-70.363429-85.723429-167.277714-94.061715-194.194286 8.338286-26.697143 40.594286-123.465143 94.061715-194.194286A503.222857 503.222857 0 0 1 374.345143 176.274286c82.212571-43.52 179.273143-65.536 288.548571-65.536 109.714286 0 206.701714 22.016 288.182857 65.536a500.297143 500.297143 0 0 1 166.107429 142.628571c53.467429 70.656 85.723429 167.424 93.988571 194.121143z m-537.453714-246.491429c-141.165714 0-256 114.834286-256 256 0 141.019429 114.907429 256 256 256s256-114.980571 256-256c0-141.165714-114.834286-256-256-256z m150.966857 259.876572c0 38.985143-15.213714 75.702857-42.934857 103.424-27.648 27.648-64.365714 42.861714-103.350857 42.861714a145.261714 145.261714 0 0 1-103.424-42.861714 145.261714 145.261714 0 0 1-42.861714-103.424c0-38.985143 15.213714-75.702857 42.861714-103.424 27.648-27.648 64.365714-42.861714 103.424-42.861714 38.985143 0 75.702857 15.213714 103.350857 42.861714 27.721143 27.721143 42.934857 64.365714 42.934857 103.424z"
    p-id="2652"/>
</svg>
