<svg xmlns="http://www.w3.org/2000/svg" xmlns:xlink="http://www.w3.org/1999/xlink" id="Layer_1" x="0" y="0" version="1.1" viewBox="0 0 168 269" xml:space="preserve" style="enable-background:new 0 0 168 269"><style type="text/css">.st0{clip-path:url(#SVGID_2_);fill:#ccc;stroke-width:.4722}.st0,.st1,.st2,.st4{stroke:#000;stroke-miterlimit:10}.st1{clip-path:url(#SVGID_4_);fill:#ccc;stroke-width:.4722}.st2{fill:none;stroke-width:.4665}.st4{fill:#ccc;stroke-width:.5}.st9{fill:#3a3a3a}.st12{fill:none;stroke:#000;stroke-width:.5}.st12,.st24,.st25,.st26{stroke-miterlimit:10}.st24{stroke:#020202;stroke-width:.5047}.st24,.st25{fill:#eaeaea}.st25,.st26{stroke:#020202}.st25{stroke-width:.5}.st26{fill:none;stroke-width:.4561}.st27{fill:#afafaf;stroke-width:.4722;stroke-miterlimit:10}.st27,.st28{stroke:#000}.st28,.st29,.st30{stroke-miterlimit:10}.st28{fill:#a19616;stroke-width:.5}.st29{fill:#eaeaea;stroke:#020202;stroke-width:.5155}.st30{fill:#ccc;stroke:#000;stroke-width:.4722}.st31{fill:none}.st32{font-family:&apos;MicrosoftYaHei&apos;}.st33{font-size:3.5px}.st34{font-size:2.2px}.st35,.st36{fill:#ccc;stroke:#000;stroke-width:.5165;stroke-miterlimit:10}.st36{fill:#9e9e9e}.st37{font-size:2px}.st38{letter-spacing:-1}</style><g><defs><rect id="SVGID_1_" width="80.3" height="252.2" x="3.7" y="5.7"/></defs><clipPath id="SVGID_2_"><use xlink:href="#SVGID_1_" style="overflow:visible"/></clipPath><path d="M153.6,241.7C153.5,241.7,153.5,241.7,153.6,241.7c-17.8,4.3-41.4,8.2-69.5,8.2c-28.1,0-51.9-4-69.6-8.2 c0,0,0,0,0,0c-1.3-0.2-2.3-1.4-3.1-2.9c-0.8-10.4-1.5-20.7-2.3-31.1C9,146.3,9,84.9,9,23.4c0-2.7,2.4-4.8,5.4-4.8 c20.5-2,43.2-3.3,67.9-3.4c26-0.1,49.8,1.3,71.2,3.4c0.1,0,0.2,0,0.3,0c2.9,0.1,5.1,2.5,5.1,5.3c0,11.4,0,172.9,0,183.3 c0,0.1,0,1.1,0,2.4c0,2.4,0,4.2-0.1,5.8c0,1.6-0.1,2.7-0.1,3.7c-0.1,2.1-0.1,2.8-0.1,4.1c-0.1,3.1,0,4-0.1,5.7 c-0.2,8.6-2.4,11.5-3,12C154.6,241.6,153.6,241.7,153.6,241.7z" class="st0"/></g><g><defs><rect id="SVGID_3_" width="80.3" height="252.2" x="84" y="5.7" transform="matrix(-1 -4.490642e-11 4.490642e-11 -1 248.2839 263.6)"/></defs><clipPath id="SVGID_4_"><use xlink:href="#SVGID_3_" style="overflow:visible"/></clipPath><path d="M12.5,240.9c-0.6-0.4-2.8-3.3-3-12c0-1.7,0-2.7-0.1-5.7c0-1.3-0.1-2-0.1-4.1c0-1-0.1-2.1-0.1-3.7 c0-1.6-0.1-3.4-0.1-5.8c0-1.3,0-2.3,0-2.4c0-10.3,0-171.8,0-183.3c0-2.8,2.2-5.2,5.1-5.3c0.1,0,0.2,0,0.3,0 c21.3-2.1,45.2-3.4,71.2-3.4c24.7,0.1,47.5,1.4,67.9,3.4c3,0,5.4,2.1,5.4,4.8c0,61.4,0,122.8,0,184.3c-0.8,10.4-1.5,20.7-2.3,31.1 c-0.7,1.5-1.7,2.7-3.1,2.9c0,0,0,0,0,0c-17.8,4.3-41.5,8.3-69.6,8.2c-28,0-51.7-4-69.4-8.2c0,0,0,0,0,0 C14.4,241.7,13.4,241.6,12.5,240.9z" class="st1"/></g><path d="M11.5,204.4V24.8c0-1.1,0.4-2.1,1.2-2.8c1-1,2.4-1.1,2.9-1.2c46.5-3.9,66.4-3.9,66.4-3.9s24.5,0,70.1,3.9	c0.5,0,1.9,0.2,2.9,1.2c0.7,0.7,1.2,1.7,1.2,2.8v192.9" class="st2"/><linearGradient id="SVGID_5_" x1="-104.65" x2="-104.65" y1="270.401" y2="-129.093" gradientTransform="matrix(1 0 0 -1 0 270)" gradientUnits="userSpaceOnUse"><stop offset="0" style="stop-color:#fff"/><stop offset=".044" style="stop-color:#f2f2f2"/><stop offset=".403" style="stop-color:#8c8c8c"/><stop offset=".692" style="stop-color:#414141"/><stop offset=".898" style="stop-color:#121212"/><stop offset="1" style="stop-color:#000"/></linearGradient><g><path d="M148.8,93h-130V35.6c0-3.8,3.4-6.9,7.7-6.9c16.9-2.1,36.2-3.6,57.4-3.6c21.2,0,40.4,1.5,57.3,3.6 c0.5,0,3.2,0,5.4,2c1.4,1.3,2.2,3,2.2,4.9V93z" class="st4"/><path d="M145,89.7H22.6v-52c0-3.5,3.2-6.3,7.2-6.3c15.9-1.9,34.1-3.2,54.1-3.2c20,0,38.1,1.3,54,3.2 c0.5,0,3,0,5.1,1.8c1.3,1.1,2.1,2.7,2.1,4.5V89.7z" class="st24"/><path d="M80.1,86.1H29.8c-0.8,0-1.4-0.6-1.4-1.4V39.3c0-0.8,0.6-1.4,1.4-1.4H55h25.1c0.8,0,1.4,0.6,1.4,1.4v45.4 C81.5,85.4,80.9,86.1,80.1,86.1z" class="st4"/><circle cx="98.9" cy="45" r="1.5" class="st9"/><circle cx="88.5" cy="45" r="1.5" class="st9"/><circle cx="98.9" cy="52.7" r="1.5" class="st9"/><circle cx="88.5" cy="52.7" r="1.5" class="st9"/><path d="M132.8,52.3h-8.7c-2.3,0-4.2-1.9-4.2-4.2v-0.7c0-2.3,1.9-4.2,4.2-4.2h8.7c2.3,0,4.2,1.9,4.2,4.2v0.7 C137,50.4,135.1,52.3,132.8,52.3z" class="st9"/><polygon points="75.9 82.9 34 82.9 34 41 55 41 75.9 41" class="st24"/><g><path d="M129.7,75.5c0,2.7-1.1,5.2-2.9,7l-7-7l7-7h0C128.6,70.3,129.7,72.8,129.7,75.5z" class="st25"/><path d="M118.8,86.2c-2.7,0-5.2-1.1-7-2.9l7-7l7,7v0C124.1,85.1,121.6,86.2,118.8,86.2z" class="st25"/><path d="M107.9,75.5c0-2.7,1.1-5.2,2.9-7l7,7l-7,7h0C109.1,80.8,107.9,78.3,107.9,75.5z" class="st25"/><path d="M118.8,64.7c2.7,0,5.2,1.1,7,2.9l-7,7l-7-7v0C113.6,65.9,116.1,64.7,118.8,64.7z" class="st25"/></g><path d="M105.5,75.7c0.2,4.3,2,6.3,1.3,6.9c-1.1,0.9-7.2-2-7.5-6.6c-0.3-4.8,5.8-8.5,7-7.7 C107.1,68.8,105.3,71.1,105.5,75.7z" class="st25"/><path d="M132.1,75.7c-0.2,4.3-2,6.3-1.3,6.9c1.1,0.9,7.2-2,7.5-6.6c0.3-4.8-5.8-8.5-7-7.7 C130.5,68.8,132.3,71.1,132.1,75.7z" class="st25"/></g><g><rect width="130.6" height="68.6" x="18.8" y="97.4" class="st24"/></g><rect width="61.6" height="24" x="28.4" y="142" class="st26"/><rect width="29.3" height="18.1" x="98.7" y="147.9" class="st26"/><circle cx="117.3" cy="159.2" r="1" class="st9"/><circle cx="122.7" cy="159.2" r="1" class="st9"/><circle cx="111.7" cy="159.2" r="1" class="st9"/><g><circle cx="72.6" cy="149.1" r="1" class="st9"/><circle cx="78" cy="149.1" r="1" class="st9"/><circle cx="50.2" cy="149.1" r="1" class="st9"/><circle cx="39.1" cy="149.1" r="1" class="st9"/><circle cx="44.5" cy="149.1" r="1" class="st9"/><circle cx="33.5" cy="149.1" r="1" class="st9"/><circle cx="55.8" cy="149.1" r="1" class="st9"/></g><line x1="11.5" x2="156.2" y1="169.5" y2="169.5" class="st4"/><g><polygon points="150.8 114.9 150.8 123 149.4 123 149.4 133.6 150.8 133.6 150.8 141.2 159 149.1 159 107.6" class="st27"/><ellipse cx="153" cy="128.3" class="st28" rx="2.1" ry="2.2"/></g><g><polyline points="33.5 155.4 33.5 156.9 50.2 156.9 50.2 155.4" class="st12"/><line x1="39.1" x2="39.1" y1="155.4" y2="156.9" class="st12"/><line x1="44.5" x2="44.5" y1="155.4" y2="156.9" class="st12"/></g><polyline points="72.6 155.4 72.6 156.9 78 156.9 78 155.4" class="st12"/><line x1="145" x2="145" y1="167.9" y2="169.4" class="st4"/><line x1="130.3" x2="130.3" y1="167.9" y2="169.4" class="st4"/><line x1="93.8" x2="93.8" y1="167.9" y2="169.4" class="st4"/><line x1="16.7" x2="16.7" y1="167.9" y2="169.5" class="st4"/><g><path d="M150.7,220.4L150.7,220.4c3.6,0,6.4-2.9,6.4-6.4v-18.2h-12.9V214C144.2,217.5,147.1,220.4,150.7,220.4z" class="st29"/><circle cx="150.7" cy="214.4" r="3.1" class="st28"/></g><g><path d="M16.7,220.4L16.7,220.4c3.6,0,6.4-2.9,6.4-6.4v-18.2H10.3V214C10.3,217.5,13.2,220.4,16.7,220.4z" class="st29"/><circle cx="16.7" cy="214.4" r="3.1" class="st28"/></g><line x1="11.5" x2="156.2" y1="169.5" y2="169.5" class="st4"/><path d="M123.7,247.3c4.1-13.3,8.1-26.5,12.2-39.8l20.1-7.1l0.2-32.5H11.5v32.5l20.1,7.1c4.1,13.2,8.1,26.5,12.2,39.7	c11.7,1.6,25.2,2.8,40.1,2.8C98.7,250,112.1,248.9,123.7,247.3z" class="st4"/><line x1="16.7" x2="16.7" y1="220.4" y2="242.1" class="st4"/><line x1="150.7" x2="150.7" y1="220.4" y2="242.1" class="st4"/><path d="M9,206c0.4,1.5,0.8,3,1.2,4.6" class="st4"/><path d="M157.1,210.5c0.6-1.7,1.2-3.3,1.9-5" class="st4"/><path d="M8.8,206.7" class="st30"/><rect width="39.6" height="4.9" x="31.4" y="32.9" class="st31"/><text class="st32 st33" transform="matrix(1 0 0 1 31.3701 35.7227)">集中器</text><path d="M107.2,201.3" class="st30"/><rect width="4.9" height="3.5" x="42" y="158.9" class="st31"/><text class="st32 st34" transform="matrix(1 0 0 1 42.021 160.7078)">载波</text><rect width="4.9" height="2.5" x="73" y="158.9" class="st31"/><text class="st32 st34" transform="matrix(1 0 0 1 72.982 160.7079)">网络</text><polyline points="50.2 156.9 55.8 156.9 55.8 155.4" class="st12"/><rect width="17.6" height="3.5" x="109.1" y="150.9" class="st31"/><text class="st32 st34" transform="matrix(1 0 0 1 109.1415 152.6499)">GPRS通讯</text><rect width="9.8" height="9.2" x="9" y="97.4" class="st35"/><rect width="9.8" height="9.2" x="9" y="156.9" class="st35"/><rect width="2.4" height="9.2" x="9" y="97.4" class="st36"/><rect width="2.4" height="9.2" x="9.1" y="156.9" class="st36"/><rect width="27.2" height="3.4" x="30.2" y="151.5" class="st31"/><text transform="matrix(1 0 0 1 30.3573 153.1371)"><tspan x="0" y="0" class="st32 st37">T/R </tspan><tspan x="12.2" y="0" class="st32 st37"> </tspan><tspan x="12.5" y="0" class="st32 st37"> A </tspan><tspan x="18.1" y="0" class="st32 st37"> </tspan><tspan x="18.9" y="0" class="st32 st37">B </tspan><tspan x="20.7" y="0" class="st32 st37"> </tspan><tspan x="21.4" y="0" class="st32 st37"> C</tspan></text><text class="st32 st37" transform="matrix(1 0 0 1 31.4711 153.2564)">电源</text><text transform="matrix(1 0 0 1 70.251 153.2566)"><tspan x="0" y="0" class="st32 st37">LINK</tspan><tspan x="4.5" y="0" class="st32 st37"> </tspan><tspan x="5.4" y="0" class="st32 st37"> </tspan><tspan x="6" y="0" class="st32 st37 st38"> </tspan><tspan x="5.1" y="0" class="st32 st37">DATA</tspan></text><text class="st32 st37" transform="matrix(1 0 0 1 109.3413 156.9775)">电源</text><text transform="matrix(1 0 0 1 120.9153 156.9775)"><tspan x="0" y="0" class="st32 st37">T/R</tspan></text><text transform="matrix(1 0 0 1 115.0908 156.906)"><tspan x="0" y="0" class="st32 st37">NET</tspan></text></svg>