<svg xmlns="http://www.w3.org/2000/svg"
     style="enable-background:new 0 0 168 269" id="Layer_1" x="0" y="0" version="1.1" viewBox="0 0 168 269"
     xml:space="preserve"><style type="text/css">.st4{fill:#ccc;stroke:#000;stroke-width:.5;stroke-miterlimit:10}.st5{fill:none;stroke-width:1.0337}.st5,.st6,.st7,.st8{stroke:#020202;stroke-miterlimit:10}.st6{fill:#a19616;stroke-width:.5}.st7{fill:#eaeaea}.st8{fill:none}.st9{fill:#3a3a3a}.st10,.st11{fill:none;stroke:#020202;stroke-width:.75;stroke-miterlimit:10}.st11{fill:#a5a5a5}.st12{fill:none;stroke:#000;stroke-width:.5}.st12,.st13,.st14,.st15{stroke-miterlimit:10}.st13{fill:#a5a5a5;stroke:#020202;stroke-width:.7439}.st14,.st15{fill:none;stroke:#000;stroke-width:.4202}.st15{fill:#514f54;stroke-width:.5}.st16{fill:none}.st16,.st17,.st18,.st19{stroke:#000;stroke-miterlimit:10}.st17{fill:#ccc;stroke-width:.9803}.st18{fill:#e5e5e5}.st19{fill:#a19616;stroke-width:.75}.st20,.st21{stroke:#020202;stroke-width:.5}.st20{fill:#bbbbbc;stroke-miterlimit:10}.st21{fill:#c1c1c1}.st21,.st22,.st23{stroke-miterlimit:10}.st22{fill:none;stroke:#000;stroke-width:.4722}.st23{stroke:#020202;stroke-width:.7439}</style>
  <linearGradient id="SVGID_2_" x1="84.35" x2="84.35" y1="-70.949" y2="-470.443"
                  gradientTransform="matrix(1 0 0 -1 0 -72)" gradientUnits="userSpaceOnUse"><stop style="stop-color:#fff" offset="0"/>
    <stop style="stop-color:#f2f2f2" offset=".044"/>
    <stop style="stop-color:#8c8c8c" offset=".403"/>
    <stop style="stop-color:#414141" offset=".692"/>
    <stop style="stop-color:#121212" offset=".898"/>
    <stop style="stop-color:#000" offset="1"/></linearGradient>
  <path
    d="M154,264.8H14.7	c-5.2,0-9.4-4.2-9.4-9.4V14.9c0-5.2,4.2-9.4,9.4-9.4H154c5.2,0,9.4,4.2,9.4,9.4v240.5C163.4,260.6,159.2,264.8,154,264.8z"
    style="fill:url(#SVGID_2_);stroke:#050505;stroke-width:.75;stroke-miterlimit:10"/>
  <path
    d="M153.9,260.1H14.8c-3,0-5.4-2.4-5.4-5.4V15.4c0-3,2.4-5.4,5.4-5.4h139.1c3,0,5.4,2.4,5.4,5.4v239.3	C159.4,257.6,156.9,260.1,153.9,260.1z"
    class="st4"/>
  <path
    d="M128.9,91.7h-89c-9.9,0-17.8-8-17.8-17.8V24c0-5.1,4.1-9.2,9.2-8.2h106.3c5.1-1,9.2,3.1,9.2,8.2v49.9	C146.7,83.8,138.7,91.7,128.9,91.7z"
    class="st5"/>
  <path d="M130,77L130,77c-3.3,0-6-2.7-6-6V58.3c0-3.3,2.7-6,6-6l0,0c3.3,0,6,2.7,6,6V71C136,74.3,133.3,77,130,77z"
        class="st7"/>
  <line x1="136" x2="124" y1="64.6" y2="64.6" class="st8"/>
  <g><circle cx="51.2" cy="80.8" r="2.5" class="st9"/>
    <path
      d="M102.6,83.3H89.9c-1.4,0-2.5-1.1-2.5-2.5l0,0c0-1.4,1.1-2.5,2.5-2.5h12.8c1.4,0,2.5,1.1,2.5,2.5l0,0 C105.1,82.1,104,83.3,102.6,83.3z"
      class="st9"/>
    <circle cx="35.9" cy="80.8" r="2.5" class="st9"/>
    <circle cx="68.2" cy="80.8" r="2.5" class="st9"/></g>
  <g><rect width="121.5" height="70.2" x="24.3" y="105" class="st10"/>
    <rect width="19" height="19" x="5.3" y="105" class="st11"/>
    <rect width="19" height="19" x="5.3" y="156.2" class="st11"/></g>
  <polyline points="10.4 177.5 10.4 125.8 10.4 105" class="st4"/>
  <line x1="13" x2="13" y1="206.9" y2="20.2" class="st12"/>
  <rect width="15.3" height="14.5" x="145.8" y="132.8" class="st13"/>
  <line x1="156.7" x2="156.7" y1="132.8" y2="147.2" class="st14"/>
  <line x1="5.3" x2="163.4" y1="180.2" y2="180.2" class="st10"/>
  <rect width="144.7" height="11.7" x="12" y="202.1" class="st15"/>
  <line x1="156.7" x2="12" y1="203.9" y2="203.9" class="st16"/>
  <line x1="12" x2="156.7" y1="211.8" y2="211.8" class="st16"/>
  <path
    d="M150.6,254.7h-133c-1.5,0-2.7-1.2-2.7-2.7v-35.6c0-1.5,1.2-2.7,2.7-2.7h133c1.5,0,2.7,1.2,2.7,2.7V252	C153.3,253.5,152.1,254.7,150.6,254.7z"
    class="st17"/>
  <path
    d="M105.1,70H32.8c-2.1,0-3.9-1.7-3.9-3.9V26.3c0-2.1,1.7-3.9,3.9-3.9h72.3c2.1,0,3.9,1.7,3.9,3.9v39.8	C109,68.3,107.2,70,105.1,70z"
    class="st18"/>
  <polygon points="6.3 196.8 10.4 200.9 10.4 208.9 6.3 203.2" class="st15"/>
  <polygon points="163.4 196.8 159.4 200.9 159.4 208.9 163.4 203.2" class="st15"/>
  <g><g><path d="M15.9,220.8L15.9,220.8c3.5,0,6.3-2.8,6.3-6.3v-10.7h-9.7H9.6v10.7C9.6,218,12.4,220.8,15.9,220.8z" class="st19"/><polyline
    points="9.6 211.8 9.6 200.8 12.4 203.8 22.2 203.8" class="st19"/></g>
    <path
      d="M15.9,217.2L15.9,217.2c-1.6,0-2.9-1.3-2.9-2.9l0,0c0-1.6,1.3-2.9,2.9-2.9l0,0c1.6,0,2.9,1.3,2.9,2.9l0,0 C18.8,215.9,17.5,217.2,15.9,217.2z"
      class="st19"/></g>
  <rect width="4.1" height="4.1" x="6.3" y="175.2" class="st20"/>
  <rect width="4.1" height="18.9" x="6.3" y="156.2" class="st21"/>
  <rect width="4.1" height="18.9" x="6.3" y="105" class="st21"/>
  <line x1="159.4" x2="159.4" y1="131.2" y2="154.8" class="st12"/>
  <path d="M12,200.2V16.1c0-2.3,1.8-4.1,4.1-4.1h136.5c2.3,0,4.1,1.8,4.1,4.1v197.6" class="st22"/>
  <circle cx="157.7" cy="18.6" r="3.8" class="st6"/>
  <circle cx="13" cy="18.6" r="3.8" class="st6"/>
  <g><g><path d="M153.3,220.8L153.3,220.8c-3.5,0-6.3-2.8-6.3-6.3v-10.7h9.7h2.8v10.7C159.6,218,156.8,220.8,153.3,220.8z" class="st19"/><polyline
    points="159.6 211.8 159.6 200.8 156.7 203.8 147 203.8" class="st19"/></g>
    <path
      d="M153.3,217.2L153.3,217.2c1.6,0,2.9-1.3,2.9-2.9l0,0c0-1.6-1.3-2.9-2.9-2.9l0,0c-1.6,0-2.9,1.3-2.9,2.9l0,0 C150.3,215.9,151.7,217.2,153.3,217.2z"
      class="st19"/></g>
  <polygon points="161.9 143.2 161.9 136.8 162.3 136.8 162.3 132.8 161.5 132.8 161.5 147.2 162.3 147.2 162.3 143.2"
           class="st23"/></svg>
