<?xml version="1.0" encoding="utf-8"?>
<!-- Generator: Adobe Illustrator 23.0.3, SVG Export Plug-In . SVG Version: 6.00 Build 0)  -->
<svg version="1.1" id="Layer_1" xmlns="http://www.w3.org/2000/svg" xmlns:xlink="http://www.w3.org/1999/xlink" x="0px" y="0px"
	 viewBox="0 0 168 269" style="enable-background:new 0 0 168 269;" xml:space="preserve">
<style type="text/css">
	.st0{clip-path:url(#SVGID_2_);fill:#CCCCCC;stroke:#000000;stroke-width:0.4939;stroke-miterlimit:10;}
	.st1{clip-path:url(#SVGID_4_);fill:#CCCCCC;stroke:#000000;stroke-width:0.4939;stroke-miterlimit:10;}
	.st2{fill:none;stroke:#000000;stroke-width:0.4879;stroke-miterlimit:10;}
	.st3{fill:url(#SVGID_5_);stroke:#050505;stroke-width:0.75;stroke-miterlimit:10;}
	.st4{fill:#CCCCCC;stroke:#000000;stroke-width:0.5;stroke-miterlimit:10;}
	.st5{fill:none;stroke:#020202;stroke-width:1.0337;stroke-miterlimit:10;}
	.st6{fill:#A19616;stroke:#020202;stroke-width:0.5;stroke-miterlimit:10;}
	.st7{fill:#EAEAEA;stroke:#020202;stroke-miterlimit:10;}
	.st8{fill:none;stroke:#020202;stroke-miterlimit:10;}
	.st9{fill:#3A3A3A;}
	.st10{fill:none;stroke:#020202;stroke-width:0.75;stroke-miterlimit:10;}
	.st11{fill:#A5A5A5;stroke:#020202;stroke-width:0.75;stroke-miterlimit:10;}
	.st12{fill:none;stroke:#000000;stroke-width:0.5;stroke-miterlimit:10;}
	.st13{fill:#A5A5A5;stroke:#020202;stroke-width:0.7439;stroke-miterlimit:10;}
	.st14{fill:none;stroke:#000000;stroke-width:0.4202;stroke-miterlimit:10;}
	.st15{fill:#514F54;stroke:#000000;stroke-width:0.5;stroke-miterlimit:10;}
	.st16{fill:none;stroke:#000000;stroke-miterlimit:10;}
	.st17{fill:#CCCCCC;stroke:#000000;stroke-width:0.9803;stroke-miterlimit:10;}
	.st18{fill:#E5E5E5;stroke:#000000;stroke-miterlimit:10;}
	.st19{fill:#A19616;stroke:#000000;stroke-width:0.75;stroke-miterlimit:10;}
	.st20{fill:#BBBBBC;stroke:#020202;stroke-width:0.5;stroke-miterlimit:10;}
	.st21{fill:#C1C1C1;stroke:#020202;stroke-width:0.5;stroke-miterlimit:10;}
	.st22{fill:none;stroke:#000000;stroke-width:0.4722;stroke-miterlimit:10;}
	.st23{stroke:#020202;stroke-width:0.7439;stroke-miterlimit:10;}
	.st24{fill:#CCCCCC;stroke:#000000;stroke-width:0.5229;stroke-miterlimit:10;}
	.st25{fill:#EAEAEA;stroke:#020202;stroke-width:0.5279;stroke-miterlimit:10;}
	.st26{fill:#EAEAEA;stroke:#020202;stroke-width:0.5229;stroke-miterlimit:10;}
	.st27{fill:none;stroke:#020202;stroke-width:0.477;stroke-miterlimit:10;}
	.st28{fill:none;stroke:#000000;stroke-width:0.5229;stroke-miterlimit:10;}
	.st29{fill:#AFAFAF;stroke:#000000;stroke-width:0.4939;stroke-miterlimit:10;}
	.st30{fill:#A19616;stroke:#000000;stroke-width:0.5229;stroke-miterlimit:10;}
	.st31{fill:#EAEAEA;stroke:#020202;stroke-width:0.5391;stroke-miterlimit:10;}
	.st32{fill:#CCCCCC;stroke:#000000;stroke-width:0.4939;stroke-miterlimit:10;}
	.st33{fill:none;}
	.st34{fill:#CCCCCC;stroke:#000000;stroke-width:0.5401;stroke-miterlimit:10;}
	.st35{fill:#9E9E9E;stroke:#000000;stroke-width:0.5401;stroke-miterlimit:10;}
	.st36{fill:#B9B9B9;stroke:#000000;stroke-width:0.82;stroke-miterlimit:10;}
	.st37{fill:#CDCDCD;stroke:#000000;stroke-width:0.82;stroke-miterlimit:10;}
	.st38{fill:#B6B6B6;}
	.st39{fill:#FFFFFF;stroke:#000000;stroke-width:0.82;stroke-miterlimit:10;}
	.st40{fill:#F3F3F3;}
	.st41{fill:#F3F3F3;stroke:#000000;stroke-width:0.82;stroke-miterlimit:10;}
	.st42{fill:#CDCDCD;stroke:#020202;stroke-width:0.82;stroke-miterlimit:10;}
	.st43{fill:#DFDFDF;stroke:#252626;stroke-width:0.767;stroke-miterlimit:10;}
	.st44{fill:#DFDFDF;stroke:#252626;stroke-width:0.82;stroke-miterlimit:10;}
	.st45{fill:#9F9F9F;}
	.st46{fill:#CDCDCD;}
	.st47{fill:#FFFFFF;}
	.st48{fill:#FFFFFF;stroke:#0F0F0F;stroke-width:0.82;stroke-miterlimit:10;}
	.st49{fill:#FFFFFF;stroke:#0F0F0F;stroke-width:0.8965;stroke-miterlimit:10;}
	.st50{fill:#DFDFDF;stroke:#252626;stroke-width:0.7692;stroke-miterlimit:10;}
</style>
<g>
	<path class="st36" d="M136.1,220.2H31.8c-14.9,0-27.1-14.5-27.1-32.4V38.5c0-17.8,12.1-32.4,27.1-32.4h104.3
		c14.9,0,27.1,14.5,27.1,32.4v149.3C163.2,205.6,151,220.2,136.1,220.2z"/>
	<path class="st37" d="M154.7,176.2H13.3c-4.6,0-8.4,4.5-8.4,10v67.4c0,5.5,3.8,10,8.4,10h141.4c4.6,0,8.4-4.5,8.4-10v-67.4
		C163.2,180.7,159.4,176.2,154.7,176.2z"/>
	<rect x="5.8" y="198.8" class="st38" width="156.5" height="29.5"/>
	<g>
		<path class="st39" d="M163.2,185.3V32.6c0-14.7-10-26.5-22.3-26.5H43.6c-12.3,0-22.3,11.8-22.3,26.5v16.3c0,4.2-2.9,7.7-6.4,7.7
			l0,0c-5.5,0-9.9,5.3-9.9,12v116.9V210v1.2c0,6,4.1,10.8,9,10.8h1h121.8h17.4c5,0,9.1-4.9,9.1-10.8v-25.8
			C163.2,185.4,163.2,185.3,163.2,185.3z"/>
		<path class="st40" d="M158.2,180.7V37.9c0-13.7-9.4-25-20.9-25H46.1c-11.5,0-20.9,11.2-20.9,25v15.3c0,3.8-2.7,7.1-5.9,7.1l0,0
			c-5.2,0-9.5,5-9.5,11.2v109.4V204v1.1c0,5.5,3.8,10,8.4,10h1h114.1h16.3c4.7,0,8.4-4.5,8.4-10v-24.3
			C158.2,180.9,158.2,180.7,158.2,180.7z"/>
	</g>
	<path class="st36" d="M155.4,209.4h6.8c0.5,0,0.7-0.5,0.7-0.8v-61.4c0-0.6-0.4-0.8-0.7-0.8h-6.8c-3.3,0-6.1,3.3-6.1,7.3v48.7
		C149.3,206.2,152,209.4,155.4,209.4z"/>
	<g>
		<path class="st37" d="M130.2,118H35.9c-3.6,0-6.5-3.5-6.5-7.8V38.7c0-4.3,2.9-7.8,6.5-7.8h94.3c3.6,0,6.5,3.5,6.5,7.8v71.5
			C136.6,114.5,133.7,118,130.2,118z"/>
		<path class="st41" d="M123.1,95.6H42.8c-2.9,0-5.3-2.7-5.3-6.3v-42c0-3.5,2.3-6.3,5.3-6.3h80.3c2.9,0,5.3,2.7,5.3,6.3v42
			C128.4,92.8,126.1,95.6,123.1,95.6z"/>
	</g>
	<path class="st42" d="M158.1,166.6h-13.3v-14c0-3.9-2.7-7.2-6-7.2l0,0c-0.3,0-0.6-0.4-0.6-0.7v-10.3c0-5.6-3.9-10.3-8.6-10.3H31.9
		c-4.7,0-8.6,4.7-8.6,10.3v8.5H20c-3.2,0-5.8,3.1-5.8,6.9v33.6c0,3.8,2.6,6.9,5.8,6.9h3.3v8.4c0,5.6,3.9,10.3,8.6,10.3h80.5h17.1
		h9.3c3.3,0,6-3.2,6-7.2v-17.1h13.3c2.9,0,5.1-2.7,5.1-6.1v-6.1C163.2,169.4,160.8,166.6,158.1,166.6z"/>
	<circle class="st43" cx="154.7" cy="176.2" r="4.5"/>
	<g>
		<circle class="st9" cx="65.5" cy="110.1" r="3.5"/>
		<path class="st9" d="M112.8,114H96.2c-1.8,0-3.2-1.8-3.2-3.8l0,0c0-2.2,1.5-3.8,3.2-3.8h16.6c1.8,0,3.2,1.8,3.2,3.8l0,0
			C116.1,112.2,114.6,114,112.8,114z"/>
		<circle class="st9" cx="45.7" cy="110.1" r="3.5"/>
	</g>
	<path class="st40" d="M21.5,181.9L21.5,181.9c1.8,0,3.2-1.7,3.2-3.8v-23.9c0-2.2-1.4-3.8-3.2-3.8l0,0c-1.8,0-3.2,1.7-3.2,3.8v23.9
		C18.4,180.3,19.8,181.9,21.5,181.9z"/>
	<path class="st40" d="M135.1,148.3h-0.5v-9.8c0-5.1-3.6-9.2-8.1-9.2H35.4c-4.4,0-8.1,4.1-8.1,9.2v49.6v7.4c0,5.1,3.6,9.2,8.1,9.2
		h75.2h15.9h8.6c3.1,0,5.7-2.9,5.7-6.5v-8.7V183v-28.4C140.7,151.2,138.2,148.3,135.1,148.3z"/>
	<g>
		<path class="st44" d="M128.4,183.6L128.4,183.6c-3.3,0-6.1-3.3-6.1-7.3v-11.5c0-3.9,2.8-7.3,6.1-7.3l0,0c3.3,0,6.1,3.3,6.1,7.3
			v11.5C134.5,180.3,131.7,183.6,128.4,183.6z"/>
		<circle class="st45" cx="128.4" cy="170.6" r="4"/>
	</g>
	<path class="st46" d="M109.6,149.5H78.2c-3.7,0-6.7-3.3-6.7-7.2l0,0c0-4,3.1-7.2,6.7-7.2h31.4c3.7,0,6.7,3.3,6.7,7.2l0,0
		C116.3,146.2,113.3,149.5,109.6,149.5z"/>
	<ellipse class="st47" cx="30.7" cy="135.9" rx="1.5" ry="1.7"/>
	<path class="st47" d="M30.9,175.1L30.9,175.1c-0.7,0-1.4-0.7-1.4-1.7v-31.1c0-0.8,0.6-1.7,1.4-1.7l0,0c0.7,0,1.4,0.7,1.4,1.7v31.1
		C32.3,174.4,31.6,175.1,30.9,175.1z"/>
	<circle class="st45" cx="110" cy="142.3" r="2.5"/>
	<circle class="st45" cx="100" cy="142.3" r="2.5"/>
	<rect x="12.3" y="24.9" class="st48" width="8.9" height="10.6"/>
	<g>
		<circle class="st49" cx="12.3" cy="30.1" r="5.3"/>
	</g>
	<g>
		<path class="st44" d="M17.4,236.6h8.1c1,0,1.9,1,1.9,2.3v19.4c0,1.2-0.8,2.3-1.9,2.3h-8.2c-2.1,0-3.9-2.2-3.9-4.7v-14.5
			C13.5,238.7,15.2,236.6,17.4,236.6z"/>
		<circle class="st50" cx="20.3" cy="249.1" r="4"/>
	</g>
	<g>
		<path class="st44" d="M151.6,236.6h-8.1c-1,0-1.9,1-1.9,2.3v19.4c0,1.2,0.8,2.3,1.9,2.3h8.2c2.1,0,3.9-2.2,3.9-4.7v-14.5
			C155.5,238.7,153.7,236.6,151.6,236.6z"/>
		<circle class="st50" cx="148.6" cy="249.1" r="4"/>
	</g>
	<circle class="st45" cx="129.7" cy="233.2" r="2.5"/>
	<circle class="st45" cx="119.8" cy="233.2" r="2.5"/>
	<circle class="st45" cx="109.5" cy="233.2" r="2.5"/>
	<circle class="st45" cx="99.6" cy="233.2" r="2.5"/>
	<circle class="st45" cx="65.6" cy="233.2" r="2.5"/>
	<circle class="st45" cx="55.7" cy="233.2" r="2.5"/>
</g>
</svg>
