<svg xmlns="http://www.w3.org/2000/svg" xmlns:xlink="http://www.w3.org/1999/xlink" style="enable-background:new 0 0 177.7 277.4" id="Layer_1" x="0" y="0" version="1.1" viewBox="0 0 177.7 277.4" xml:space="preserve"><style type="text/css">.st12{fill:#3a3a3a}.st17{fill:#ccc;stroke:#000;stroke-width:.5199}.st17,.st18,.st19{stroke-miterlimit:10}.st18{fill:none;stroke-width:1.0748}.st18,.st19,.st20{stroke:#020202}.st19{fill:#a19616;stroke-width:.5199}.st20{fill:#eaeaea}.st20,.st21{stroke-width:1.0397;stroke-miterlimit:10}.st21,.st22,.st23{stroke:#020202}.st22,.st23,.st24,.st25{stroke-miterlimit:10}.st21,.st22{fill:none}.st22,.st23{stroke-width:.7798}.st23{fill:#a5a5a5}.st24{fill:none;stroke:#000;stroke-width:.5199}.st25{fill:#a5a5a5;stroke:#020202;stroke-width:.7734}.st26{fill:none;stroke-width:.4369}.st26,.st27,.st28,.st29,.st30,.st31{stroke:#000;stroke-miterlimit:10}.st27{fill:#514f54;stroke-width:.5199}.st28{fill:none;stroke-width:1.0397}.st29{fill:#ccc;stroke-width:1.0192}.st30{fill:#e5e5e5;stroke-width:1.0397}.st31{fill:#a19616;stroke-width:.7798}.st32,.st33{stroke:#020202;stroke-width:.5199}.st32{fill:#bbbbbc;stroke-miterlimit:10}.st33{fill:#c1c1c1}.st33,.st34,.st35{stroke-miterlimit:10}.st34{fill:none;stroke:#000;stroke-width:.491}.st35{stroke:#020202;stroke-width:.7734}</style><g><linearGradient id="SVGID_1_" x1="89.429" x2="89.429" y1="-58.529" y2="-473.893" gradientTransform="matrix(1 0 0 -1 0 -61.6518)" gradientUnits="userSpaceOnUse"><stop style="stop-color:#fff" offset="0"/><stop style="stop-color:#f2f2f2" offset=".044"/><stop style="stop-color:#8c8c8c" offset=".403"/><stop style="stop-color:#414141" offset=".692"/><stop style="stop-color:#121212" offset=".898"/><stop style="stop-color:#000" offset="1"/></linearGradient><path d="M161.8,273.2H17 c-5.4,0-9.8-4.4-9.8-9.8V13.4c0-5.4,4.4-9.8,9.8-9.8h144.8c5.4,0,9.8,4.4,9.8,9.8v250.1C171.6,268.9,167.3,273.2,161.8,273.2z" style="fill:url(#SVGID_1_);stroke:#050505;stroke-width:.7798;stroke-miterlimit:10"/><path d="M161.7,268.4H17.1c-3.1,0-5.6-2.5-5.6-5.6V13.9c0-3.1,2.5-5.6,5.6-5.6h144.6c3.1,0,5.6,2.5,5.6,5.6v248.8 C167.5,265.9,164.9,268.4,161.7,268.4z" class="st17"/><path d="M135.7,93.3H43.2c-10.3,0-18.5-8.3-18.5-18.5V22.9c0-5.3,4.3-9.6,9.6-8.5h110.5c5.3-1,9.6,3.2,9.6,8.5v51.9 C154.3,85,145.9,93.3,135.7,93.3z" class="st18"/><path d="M136.9,78L136.9,78c-3.4,0-6.2-2.8-6.2-6.2V58.5c0-3.4,2.8-6.2,6.2-6.2l0,0c3.4,0,6.2,2.8,6.2,6.2v13.2 C143.1,75.2,140.3,78,136.9,78z" class="st20"/><line x1="143.1" x2="130.7" y1="65.1" y2="65.1" class="st21"/><g><circle cx="55" cy="81.9" r="2.6" class="st12"/><path d="M108.4,84.5H95.2c-1.5,0-2.6-1.1-2.6-2.6l0,0c0-1.5,1.1-2.6,2.6-2.6h13.3c1.5,0,2.6,1.1,2.6,2.6l0,0 C111,83.3,109.9,84.5,108.4,84.5z" class="st12"/><circle cx="39.1" cy="81.9" r="2.6" class="st12"/><circle cx="72.6" cy="81.9" r="2.6" class="st12"/></g><g><rect width="126.3" height="73" x="27" y="107.1" class="st22"/><rect width="19.8" height="19.8" x="7.2" y="107.1" class="st23"/><rect width="19.8" height="19.8" x="7.2" y="160.3" class="st23"/></g><polyline points="11.5 182.5 11.5 128.7 11.5 107.1" class="st17"/><line x1="14.2" x2="14.2" y1="213" y2="18.9" class="st24"/><rect width="15.9" height="15.1" x="153.3" y="136" class="st25"/><line x1="164.7" x2="164.7" y1="136" y2="151.1" class="st26"/><line x1="7.2" x2="171.6" y1="185.4" y2="185.4" class="st22"/><rect width="150.4" height="12.2" x="14.2" y="208" class="st27"/><line x1="164.7" x2="14.2" y1="209.9" y2="209.9" class="st28"/><line x1="14.2" x2="164.7" y1="218.1" y2="218.1" class="st28"/><path d="M158.3,262.7H20c-1.6,0-2.8-1.2-2.8-2.8v-37c0-1.6,1.2-2.8,2.8-2.8h138.3c1.6,0,2.8,1.2,2.8,2.8v37 C161.1,261.5,159.9,262.7,158.3,262.7z" class="st29"/><path d="M111,70.7H35.8c-2.2,0-4.1-1.8-4.1-4.1V25.3c0-2.2,1.8-4.1,4.1-4.1H111c2.2,0,4.1,1.8,4.1,4.1v41.4 C115.1,68.9,113.2,70.7,111,70.7z" class="st30"/><polygon points="7.2 202.5 11.5 206.8 11.5 215.1 7.2 209.2" class="st27"/><polygon points="171.6 202.5 167.5 206.8 167.5 215.1 171.6 209.2" class="st27"/><g><g><path d="M17.2,227.5L17.2,227.5c3.6,0,6.6-2.9,6.6-6.6v-11.1H13.7h-3v11.1C10.7,224.6,13.6,227.5,17.2,227.5z" class="st31"/><polyline points="10.7 218.1 10.7 206.7 13.6 209.8 23.8 209.8" class="st31"/></g><path d="M17.2,223.9L17.2,223.9c-1.7,0-3-1.4-3-3l0,0c0-1.7,1.4-3,3-3l0,0c1.7,0,3,1.4,3,3l0,0 C20.2,222.4,18.9,223.9,17.2,223.9z" class="st31"/></g><rect width="4.3" height="4.3" x="7.2" y="180.1" class="st32"/><rect width="4.3" height="19.7" x="7.2" y="160.3" class="st33"/><rect width="4.3" height="19.7" x="7.2" y="107.1" class="st33"/><line x1="167.5" x2="167.5" y1="134.3" y2="158.9" class="st24"/><path d="M14.2,206.1V14.7c0-2.4,1.9-4.3,4.3-4.3h141.9c2.4,0,4.3,1.9,4.3,4.3v205.4" class="st34"/><circle cx="164.7" cy="17.3" r="4" class="st19"/><circle cx="14.2" cy="17.3" r="4" class="st19"/><g><g><path d="M161.1,227.5L161.1,227.5c-3.6,0-6.6-2.9-6.6-6.6v-11.1h10.1h2.9v11.1C167.7,224.6,164.8,227.5,161.1,227.5 z" class="st31"/><polyline points="167.7 218.1 167.7 206.7 164.7 209.8 154.6 209.8" class="st31"/></g><path d="M161.1,223.9L161.1,223.9c1.7,0,3-1.4,3-3l0,0c0-1.7-1.4-3-3-3l0,0c-1.7,0-3,1.4-3,3l0,0 C158,222.4,159.5,223.9,161.1,223.9z" class="st31"/></g><polygon points="170.1 146.9 170.1 140.2 170.5 140.2 170.5 136 169.6 136 169.6 151.1 170.5 151.1 170.5 146.9" class="st35"/></g></svg>