<?xml version="1.0" encoding="utf-8"?>
<!-- Generator: Adobe Illustrator 23.0.3, SVG Export Plug-In . SVG Version: 6.00 Build 0)  -->
<svg version="1.1" id="Layer_1" xmlns="http://www.w3.org/2000/svg" xmlns:xlink="http://www.w3.org/1999/xlink" x="0px" y="0px"
	 viewBox="0 0 168 269" style="enable-background:new 0 0 168 269;" xml:space="preserve">
<style type="text/css">
	.st0{clip-path:url(#SVGID_2_);fill:#CCCCCC;stroke:#000000;stroke-width:0.4939;stroke-miterlimit:10;}
	.st1{clip-path:url(#SVGID_4_);fill:#CCCCCC;stroke:#000000;stroke-width:0.4939;stroke-miterlimit:10;}
	.st2{fill:none;stroke:#000000;stroke-width:0.4879;stroke-miterlimit:10;}
	.st3{fill:url(#SVGID_5_);stroke:#050505;stroke-width:0.75;stroke-miterlimit:10;}
	.st4{fill:#CCCCCC;stroke:#000000;stroke-width:0.5;stroke-miterlimit:10;}
	.st5{fill:none;stroke:#020202;stroke-width:1.0337;stroke-miterlimit:10;}
	.st6{fill:#A19616;stroke:#020202;stroke-width:0.5;stroke-miterlimit:10;}
	.st7{fill:#EAEAEA;stroke:#020202;stroke-miterlimit:10;}
	.st8{fill:none;stroke:#020202;stroke-miterlimit:10;}
	.st9{fill:#3A3A3A;}
	.st10{fill:none;stroke:#020202;stroke-width:0.75;stroke-miterlimit:10;}
	.st11{fill:#A5A5A5;stroke:#020202;stroke-width:0.75;stroke-miterlimit:10;}
	.st12{fill:none;stroke:#000000;stroke-width:0.5;stroke-miterlimit:10;}
	.st13{fill:#A5A5A5;stroke:#020202;stroke-width:0.7439;stroke-miterlimit:10;}
	.st14{fill:none;stroke:#000000;stroke-width:0.4202;stroke-miterlimit:10;}
	.st15{fill:#514F54;stroke:#000000;stroke-width:0.5;stroke-miterlimit:10;}
	.st16{fill:none;stroke:#000000;stroke-miterlimit:10;}
	.st17{fill:#CCCCCC;stroke:#000000;stroke-width:0.9803;stroke-miterlimit:10;}
	.st18{fill:#E5E5E5;stroke:#000000;stroke-miterlimit:10;}
	.st19{fill:#A19616;stroke:#000000;stroke-width:0.75;stroke-miterlimit:10;}
	.st20{fill:#BBBBBC;stroke:#020202;stroke-width:0.5;stroke-miterlimit:10;}
	.st21{fill:#C1C1C1;stroke:#020202;stroke-width:0.5;stroke-miterlimit:10;}
	.st22{fill:none;stroke:#000000;stroke-width:0.4722;stroke-miterlimit:10;}
	.st23{stroke:#020202;stroke-width:0.7439;stroke-miterlimit:10;}
	.st24{fill:#CCCCCC;stroke:#000000;stroke-width:0.5229;stroke-miterlimit:10;}
	.st25{fill:#EAEAEA;stroke:#020202;stroke-width:0.5279;stroke-miterlimit:10;}
	.st26{fill:#EAEAEA;stroke:#020202;stroke-width:0.5229;stroke-miterlimit:10;}
	.st27{fill:none;stroke:#020202;stroke-width:0.477;stroke-miterlimit:10;}
	.st28{fill:none;stroke:#000000;stroke-width:0.5229;stroke-miterlimit:10;}
	.st29{fill:#AFAFAF;stroke:#000000;stroke-width:0.4939;stroke-miterlimit:10;}
	.st30{fill:#A19616;stroke:#000000;stroke-width:0.5229;stroke-miterlimit:10;}
	.st31{fill:#EAEAEA;stroke:#020202;stroke-width:0.5391;stroke-miterlimit:10;}
	.st32{fill:#CCCCCC;stroke:#000000;stroke-width:0.4939;stroke-miterlimit:10;}
	.st33{fill:none;}
	.st34{fill:#CCCCCC;stroke:#000000;stroke-width:0.5401;stroke-miterlimit:10;}
	.st35{fill:#9E9E9E;stroke:#000000;stroke-width:0.5401;stroke-miterlimit:10;}
	.st36{fill:#B9B9B9;stroke:#000000;stroke-width:0.82;stroke-miterlimit:10;}
	.st37{fill:#CDCDCD;stroke:#000000;stroke-width:0.82;stroke-miterlimit:10;}
	.st38{fill:#B6B6B6;}
	.st39{fill:#FFFFFF;stroke:#000000;stroke-width:0.82;stroke-miterlimit:10;}
	.st40{fill:#F3F3F3;}
	.st41{fill:#F3F3F3;stroke:#000000;stroke-width:0.82;stroke-miterlimit:10;}
	.st42{fill:#CDCDCD;stroke:#020202;stroke-width:0.82;stroke-miterlimit:10;}
	.st43{fill:#DFDFDF;stroke:#252626;stroke-width:0.767;stroke-miterlimit:10;}
	.st44{fill:#DFDFDF;stroke:#252626;stroke-width:0.82;stroke-miterlimit:10;}
	.st45{fill:#9F9F9F;}
	.st46{fill:#CDCDCD;}
	.st47{fill:#FFFFFF;}
	.st48{fill:#FFFFFF;stroke:#0F0F0F;stroke-width:0.82;stroke-miterlimit:10;}
	.st49{fill:#FFFFFF;stroke:#0F0F0F;stroke-width:0.8965;stroke-miterlimit:10;}
	.st50{fill:#DFDFDF;stroke:#252626;stroke-width:0.7692;stroke-miterlimit:10;}
</style>
<linearGradient id="SVGID_2_" gradientUnits="userSpaceOnUse" x1="84.35" y1="-70.9488" x2="84.35" y2="-470.4431" gradientTransform="matrix(1 0 0 -1 0 -72)">
	<stop  offset="0" style="stop-color:#FFFFFF"/>
	<stop  offset="4.373908e-02" style="stop-color:#F2F2F2"/>
	<stop  offset="0.403" style="stop-color:#8C8C8C"/>
	<stop  offset="0.6924" style="stop-color:#414141"/>
	<stop  offset="0.8977" style="stop-color:#121212"/>
	<stop  offset="1" style="stop-color:#000000"/>
</linearGradient>
<path style="fill:url(#SVGID_2_);stroke:#050505;stroke-width:0.75;stroke-miterlimit:10;" d="M154,264.8H14.7
	c-5.2,0-9.4-4.2-9.4-9.4V14.9c0-5.2,4.2-9.4,9.4-9.4H154c5.2,0,9.4,4.2,9.4,9.4v240.5C163.4,260.6,159.2,264.8,154,264.8z"/>
<path class="st4" d="M153.9,260.1H14.8c-3,0-5.4-2.4-5.4-5.4V15.4c0-3,2.4-5.4,5.4-5.4h139.1c3,0,5.4,2.4,5.4,5.4v239.3
	C159.4,257.6,156.9,260.1,153.9,260.1z"/>
<path class="st5" d="M128.9,91.7h-89c-9.9,0-17.8-8-17.8-17.8V24c0-5.1,4.1-9.2,9.2-8.2h106.3c5.1-1,9.2,3.1,9.2,8.2v49.9
	C146.7,83.8,138.7,91.7,128.9,91.7z"/>
<path class="st7" d="M130,77L130,77c-3.3,0-6-2.7-6-6V58.3c0-3.3,2.7-6,6-6l0,0c3.3,0,6,2.7,6,6V71C136,74.3,133.3,77,130,77z"/>
<line class="st8" x1="136" y1="64.6" x2="124" y2="64.6"/>
<g>
	<circle class="st9" cx="51.2" cy="80.8" r="2.5"/>
	<path class="st9" d="M102.6,83.3H89.9c-1.4,0-2.5-1.1-2.5-2.5l0,0c0-1.4,1.1-2.5,2.5-2.5h12.8c1.4,0,2.5,1.1,2.5,2.5l0,0
		C105.1,82.1,104,83.3,102.6,83.3z"/>
	<circle class="st9" cx="35.9" cy="80.8" r="2.5"/>
	<circle class="st9" cx="68.2" cy="80.8" r="2.5"/>
</g>
<g>
	<rect x="24.3" y="105" class="st10" width="121.5" height="70.2"/>
	<rect x="5.3" y="105" class="st11" width="19" height="19"/>
	<rect x="5.3" y="156.2" class="st11" width="19" height="19"/>
</g>
<polyline class="st4" points="10.4,177.5 10.4,125.8 10.4,105 "/>
<line class="st12" x1="13" y1="206.9" x2="13" y2="20.2"/>
<rect x="145.8" y="132.8" class="st13" width="15.3" height="14.5"/>
<line class="st14" x1="156.7" y1="132.8" x2="156.7" y2="147.2"/>
<line class="st10" x1="5.3" y1="180.2" x2="163.4" y2="180.2"/>
<rect x="12" y="202.1" class="st15" width="144.7" height="11.7"/>
<line class="st16" x1="156.7" y1="203.9" x2="12" y2="203.9"/>
<line class="st16" x1="12" y1="211.8" x2="156.7" y2="211.8"/>
<path class="st17" d="M150.6,254.7h-133c-1.5,0-2.7-1.2-2.7-2.7v-35.6c0-1.5,1.2-2.7,2.7-2.7h133c1.5,0,2.7,1.2,2.7,2.7V252
	C153.3,253.5,152.1,254.7,150.6,254.7z"/>
<path class="st18" d="M105.1,70H32.8c-2.1,0-3.9-1.7-3.9-3.9V26.3c0-2.1,1.7-3.9,3.9-3.9h72.3c2.1,0,3.9,1.7,3.9,3.9v39.8
	C109,68.3,107.2,70,105.1,70z"/>
<polygon class="st15" points="6.3,196.8 10.4,200.9 10.4,208.9 6.3,203.2 "/>
<polygon class="st15" points="163.4,196.8 159.4,200.9 159.4,208.9 163.4,203.2 "/>
<g>
	<g>
		<path class="st19" d="M15.9,220.8L15.9,220.8c3.5,0,6.3-2.8,6.3-6.3v-10.7h-9.7H9.6v10.7C9.6,218,12.4,220.8,15.9,220.8z"/>
		<polyline class="st19" points="9.6,211.8 9.6,200.8 12.4,203.8 22.2,203.8 		"/>
	</g>
	<path class="st19" d="M15.9,217.2L15.9,217.2c-1.6,0-2.9-1.3-2.9-2.9l0,0c0-1.6,1.3-2.9,2.9-2.9l0,0c1.6,0,2.9,1.3,2.9,2.9l0,0
		C18.8,215.9,17.5,217.2,15.9,217.2z"/>
</g>
<rect x="6.3" y="175.2" class="st20" width="4.1" height="4.1"/>
<rect x="6.3" y="156.2" class="st21" width="4.1" height="18.9"/>
<rect x="6.3" y="105" class="st21" width="4.1" height="18.9"/>
<line class="st12" x1="159.4" y1="131.2" x2="159.4" y2="154.8"/>
<path class="st22" d="M12,200.2V16.1c0-2.3,1.8-4.1,4.1-4.1h136.5c2.3,0,4.1,1.8,4.1,4.1v197.6"/>
<circle class="st6" cx="157.7" cy="18.6" r="3.8"/>
<circle class="st6" cx="13" cy="18.6" r="3.8"/>
<g>
	<g>
		<path class="st19" d="M153.3,220.8L153.3,220.8c-3.5,0-6.3-2.8-6.3-6.3v-10.7h9.7h2.8v10.7C159.6,218,156.8,220.8,153.3,220.8z"/>
		<polyline class="st19" points="159.6,211.8 159.6,200.8 156.7,203.8 147,203.8 		"/>
	</g>
	<path class="st19" d="M153.3,217.2L153.3,217.2c1.6,0,2.9-1.3,2.9-2.9l0,0c0-1.6-1.3-2.9-2.9-2.9l0,0c-1.6,0-2.9,1.3-2.9,2.9l0,0
		C150.3,215.9,151.7,217.2,153.3,217.2z"/>
</g>
<polygon class="st23" points="161.9,143.2 161.9,136.8 162.3,136.8 162.3,132.8 161.5,132.8 161.5,147.2 162.3,147.2 162.3,143.2 
	"/>
</svg>
