<?xml version="1.0" encoding="utf-8"?>
<!-- Generator: Adobe Illustrator 23.0.3, SVG Export Plug-In . SVG Version: 6.00 Build 0)  -->
<svg version="1.1" id="Layer_1" xmlns="http://www.w3.org/2000/svg" xmlns:xlink="http://www.w3.org/1999/xlink" x="0px" y="0px"
	 viewBox="0 0 177.7 277.4" style="enable-background:new 0 0 177.7 277.4;" xml:space="preserve">
<style type="text/css">
	.st0{fill:url(#SVGID_1_);stroke:#050505;stroke-width:0.7931;stroke-miterlimit:10;}
	.st1{fill:#F3F3F3;}
	.st2{fill:#A19616;stroke:#020202;stroke-width:0.5287;stroke-miterlimit:10;}
	.st3{fill:#CDCDCD;stroke:#000000;stroke-width:0.8246;stroke-miterlimit:10;}
	.st4{fill:#B6B6B6;}
	.st5{fill:#DFDFDF;stroke:#252626;stroke-width:0.8246;stroke-miterlimit:10;}
	.st6{fill:#DFDFDF;stroke:#252626;stroke-width:0.7735;stroke-miterlimit:10;}
	.st7{fill:#9F9F9F;}
	.st8{fill:#B9B9B9;stroke:#000000;stroke-width:0.8246;stroke-miterlimit:10;}
	.st9{fill:#F3F3F3;stroke:#000000;stroke-width:0.8246;stroke-miterlimit:10;}
	.st10{fill:#CDCDCD;stroke:#020202;stroke-width:0.8246;stroke-miterlimit:10;}
	.st11{fill:#DFDFDF;stroke:#252626;stroke-width:0.7713;stroke-miterlimit:10;}
	.st12{fill:#3A3A3A;}
	.st13{fill:#CDCDCD;}
	.st14{fill:#FFFFFF;}
	.st15{fill:#CDCDCD;stroke:#000000;stroke-width:0.4698;stroke-miterlimit:10;}
	.st16{fill:url(#SVGID_2_);stroke:#050505;stroke-width:0.7798;stroke-miterlimit:10;}
	.st17{fill:#CCCCCC;stroke:#000000;stroke-width:0.5199;stroke-miterlimit:10;}
	.st18{fill:none;stroke:#020202;stroke-width:1.0748;stroke-miterlimit:10;}
	.st19{fill:#A19616;stroke:#020202;stroke-width:0.5199;stroke-miterlimit:10;}
	.st20{fill:#EAEAEA;stroke:#020202;stroke-width:1.0397;stroke-miterlimit:10;}
	.st21{fill:none;stroke:#020202;stroke-width:1.0397;stroke-miterlimit:10;}
	.st22{fill:none;stroke:#020202;stroke-width:0.7798;stroke-miterlimit:10;}
	.st23{fill:#A5A5A5;stroke:#020202;stroke-width:0.7798;stroke-miterlimit:10;}
	.st24{fill:none;stroke:#000000;stroke-width:0.5199;stroke-miterlimit:10;}
	.st25{fill:#A5A5A5;stroke:#020202;stroke-width:0.7734;stroke-miterlimit:10;}
	.st26{fill:none;stroke:#000000;stroke-width:0.4369;stroke-miterlimit:10;}
	.st27{fill:#514F54;stroke:#000000;stroke-width:0.5199;stroke-miterlimit:10;}
	.st28{fill:none;stroke:#000000;stroke-width:1.0397;stroke-miterlimit:10;}
	.st29{fill:#CCCCCC;stroke:#000000;stroke-width:1.0192;stroke-miterlimit:10;}
	.st30{fill:#E5E5E5;stroke:#000000;stroke-width:1.0397;stroke-miterlimit:10;}
	.st31{fill:#A19616;stroke:#000000;stroke-width:0.7798;stroke-miterlimit:10;}
	.st32{fill:#BBBBBC;stroke:#020202;stroke-width:0.5199;stroke-miterlimit:10;}
	.st33{fill:#C1C1C1;stroke:#020202;stroke-width:0.5199;stroke-miterlimit:10;}
	.st34{fill:none;stroke:#000000;stroke-width:0.491;stroke-miterlimit:10;}
	.st35{stroke:#020202;stroke-width:0.7734;stroke-miterlimit:10;}
</style>
<g>
	
		<linearGradient id="SVGID_1_" gradientUnits="userSpaceOnUse" x1="88.1705" y1="-58.5295" x2="88.1705" y2="-473.8927" gradientTransform="matrix(1 0 0 -1 0 -61.6518)">
		<stop  offset="0" style="stop-color:#FFFFFF"/>
		<stop  offset="4.373908e-02" style="stop-color:#F2F2F2"/>
		<stop  offset="0.403" style="stop-color:#8C8C8C"/>
		<stop  offset="0.6924" style="stop-color:#414141"/>
		<stop  offset="0.8977" style="stop-color:#121212"/>
		<stop  offset="1" style="stop-color:#000000"/>
	</linearGradient>
	<path class="st0" d="M163.1,273.2H13.3c-5.6,0-10.1-4.4-10.1-9.8V13.4c0-5.4,4.5-9.8,10.1-9.8h149.8c5.6,0,10.1,4.4,10.1,9.8v250.1
		C173.2,268.9,168.7,273.2,163.1,273.2z"/>
	<path class="st1" d="M163,268.5H13.4c-3.2,0-5.8-2.5-5.8-5.6V14c0-3.1,2.6-5.6,5.8-5.6H163c3.2,0,5.8,2.5,5.8,5.6v248.8
		C168.9,266,166.2,268.5,163,268.5z"/>
	<g>
		<g>
			<path class="st3" d="M162.9,268.5H13.3c-3.2,0-5.8-2.5-5.8-5.6V14c0-3.1,2.6-5.6,5.8-5.6h149.6c3.2,0,5.8,2.5,5.8,5.6v248.8
				C168.8,266,166.1,268.5,162.9,268.5z"/>
			<rect x="7.9" y="188.5" class="st4" width="160.2" height="29.7"/>
			<path class="st1" d="M162,211.2H13.8c-3.2,0-5.8-1.9-5.8-4.4V13.3c0-2.4,2.6-4.4,5.8-4.4H162c3.2,0,5.8,1.9,5.8,4.4v193.6
				C167.8,209.3,165.2,211.2,162,211.2z"/>
		</g>
		<g>
			<g>
				<path class="st5" d="M20.6,231.3h8.1c1,0,1.9,1,1.9,2.3v19.5c0,1.2-0.8,2.3-1.9,2.3h-8.2c-2.1,0-3.9-2.2-3.9-4.7v-14.6
					C16.7,233.4,18.4,231.3,20.6,231.3z"/>
				<circle class="st6" cx="23.5" cy="243.9" r="4"/>
			</g>
			<g>
				<path class="st5" d="M155.6,231.3h-8.1c-1,0-1.9,1-1.9,2.3v19.5c0,1.2,0.8,2.3,1.9,2.3h8.2c2.1,0,3.9-2.2,3.9-4.7v-14.6
					C159.5,233.4,157.7,231.3,155.6,231.3z"/>
				<circle class="st6" cx="152.5" cy="243.9" r="4"/>
			</g>
			<circle class="st7" cx="133.5" cy="227.9" r="2.5"/>
			<circle class="st7" cx="123.6" cy="227.9" r="2.5"/>
			<circle class="st7" cx="113.2" cy="227.9" r="2.5"/>
			<circle class="st7" cx="103.3" cy="227.9" r="2.5"/>
			<circle class="st7" cx="69.1" cy="227.9" r="2.5"/>
			<circle class="st7" cx="59.1" cy="227.9" r="2.5"/>
		</g>
		<g>
			<path class="st8" d="M161,202.4h6.8c0.5,0,0.7-0.5,0.7-0.8v-61.7c0-0.6-0.4-0.8-0.7-0.8H161c-3.3,0-6.1,3.3-6.1,7.3v49
				C154.9,199.2,157.6,202.4,161,202.4z"/>
			<g>
				<path class="st3" d="M135.7,110.5H40.8c-3.6,0-6.5-3.5-6.5-7.8V30.7c0-4.3,2.9-7.8,6.5-7.8h94.8c3.6,0,6.5,3.5,6.5,7.8v71.9
					C142.1,106.9,139.2,110.5,135.7,110.5z"/>
				<path class="st9" d="M128.5,87.9H47.8c-2.9,0-5.3-2.7-5.3-6.3V39.4c0-3.5,2.3-6.3,5.3-6.3h80.8c2.9,0,5.3,2.7,5.3,6.3v42.2
					C133.9,85.1,131.6,87.9,128.5,87.9z"/>
			</g>
			<path class="st10" d="M163.7,159.3h-13.4v-14.1c0-3.9-2.7-7.2-6-7.2l0,0c-0.3,0-0.6-0.4-0.6-0.7V127c0-5.6-3.9-10.4-8.6-10.4
				H36.8c-4.7,0-8.6,4.7-8.6,10.4v8.5h-3.3c-3.2,0-5.8,3.1-5.8,6.9v33.8c0,3.8,2.6,6.9,5.8,6.9h3.3v8.4c0,5.6,3.9,10.4,8.6,10.4h81
				H135h9.4c3.3,0,6-3.2,6-7.2v-17.2h13.4c2.9,0,5.1-2.7,5.1-6.1v-6.1C168.9,162.2,166.4,159.3,163.7,159.3z"/>
			<circle class="st11" cx="160.3" cy="169" r="4.5"/>
			<g>
				<circle class="st12" cx="70.6" cy="102.5" r="3.5"/>
				<path class="st12" d="M118.2,106.4h-16.7c-1.8,0-3.2-1.8-3.2-3.8l0,0c0-2.2,1.5-3.8,3.2-3.8h16.7c1.8,0,3.2,1.8,3.2,3.8l0,0
					C121.5,104.6,120,106.4,118.2,106.4z"/>
				<circle class="st12" cx="50.7" cy="102.5" r="3.5"/>
			</g>
			<path class="st1" d="M26.4,174.7L26.4,174.7c1.8,0,3.2-1.7,3.2-3.8v-24c0-2.2-1.4-3.8-3.2-3.8l0,0c-1.8,0-3.2,1.7-3.2,3.8v24
				C23.2,173.1,24.7,174.7,26.4,174.7z"/>
			<path class="st1" d="M140.6,140.9h-0.5v-9.9c0-5.1-3.6-9.3-8.1-9.3H40.3c-4.4,0-8.1,4.1-8.1,9.3V181v7.4c0,5.1,3.6,9.3,8.1,9.3
				H116h16h8.6c3.1,0,5.7-2.9,5.7-6.5v-8.7v-6.5v-28.6C146.2,143.9,143.7,140.9,140.6,140.9z"/>
			<g>
				<path class="st5" d="M133.9,176.4L133.9,176.4c-3.3,0-6.1-3.3-6.1-7.3v-11.6c0-3.9,2.8-7.3,6.1-7.3l0,0c3.3,0,6.1,3.3,6.1,7.3
					v11.6C140,173.1,137.2,176.4,133.9,176.4z"/>
				<circle class="st7" cx="133.9" cy="163.4" r="4"/>
			</g>
			<path class="st13" d="M115,142.1H83.4c-3.7,0-6.7-3.3-6.7-7.2l0,0c0-4,3.1-7.2,6.7-7.2H115c3.7,0,6.7,3.3,6.7,7.2l0,0
				C121.7,138.8,118.7,142.1,115,142.1z"/>
			<ellipse class="st14" cx="35.6" cy="128.5" rx="1.5" ry="1.7"/>
			<path class="st14" d="M35.8,167.9L35.8,167.9c-0.7,0-1.4-0.7-1.4-1.7v-31.3c0-0.8,0.6-1.7,1.4-1.7l0,0c0.7,0,1.4,0.7,1.4,1.7
				v31.3C37.2,167.2,36.5,167.9,35.8,167.9z"/>
			<circle class="st7" cx="115.4" cy="134.9" r="2.5"/>
			<circle class="st7" cx="105.3" cy="134.9" r="2.5"/>
			<g>
				<circle class="st15" cx="5.3" cy="19.9" r="1.8"/>
			</g>
		</g>
	</g>
</g>
</svg>
