<?xml version="1.0" encoding="utf-8"?>
<!-- Generator: Adobe Illustrator 23.0.3, SVG Export Plug-In . SVG Version: 6.00 Build 0)  -->
<svg version="1.1" id="Layer_1" xmlns="http://www.w3.org/2000/svg" xmlns:xlink="http://www.w3.org/1999/xlink" x="0px" y="0px"
	 viewBox="0 0 168 269" style="enable-background:new 0 0 168 269;" xml:space="preserve">
<style type="text/css">
	.st0{clip-path:url(#SVGID_2_);fill:#CCCCCC;stroke:#000000;stroke-width:0.4722;stroke-miterlimit:10;}
	.st1{clip-path:url(#SVGID_4_);fill:#CCCCCC;stroke:#000000;stroke-width:0.4722;stroke-miterlimit:10;}
	.st2{fill:none;stroke:#000000;stroke-width:0.4665;stroke-miterlimit:10;}
	.st3{fill:url(#SVGID_5_);stroke:#050505;stroke-width:0.75;stroke-miterlimit:10;}
	.st4{fill:#CCCCCC;stroke:#000000;stroke-width:0.5;stroke-miterlimit:10;}
	.st5{fill:none;stroke:#020202;stroke-width:1.0337;stroke-miterlimit:10;}
	.st6{fill:#A19616;stroke:#020202;stroke-width:0.5;stroke-miterlimit:10;}
	.st7{fill:#EAEAEA;stroke:#020202;stroke-miterlimit:10;}
	.st8{fill:none;stroke:#020202;stroke-miterlimit:10;}
	.st9{fill:#3A3A3A;}
	.st10{fill:none;stroke:#020202;stroke-width:0.75;stroke-miterlimit:10;}
	.st11{fill:#A5A5A5;stroke:#020202;stroke-width:0.75;stroke-miterlimit:10;}
	.st12{fill:none;stroke:#000000;stroke-width:0.5;stroke-miterlimit:10;}
	.st13{fill:#A5A5A5;stroke:#020202;stroke-width:0.7439;stroke-miterlimit:10;}
	.st14{fill:none;stroke:#000000;stroke-width:0.4202;stroke-miterlimit:10;}
	.st15{fill:#514F54;stroke:#000000;stroke-width:0.5;stroke-miterlimit:10;}
	.st16{fill:none;stroke:#000000;stroke-miterlimit:10;}
	.st17{fill:#CCCCCC;stroke:#000000;stroke-width:0.9803;stroke-miterlimit:10;}
	.st18{fill:#E5E5E5;stroke:#000000;stroke-miterlimit:10;}
	.st19{fill:#A19616;stroke:#000000;stroke-width:0.75;stroke-miterlimit:10;}
	.st20{fill:#BBBBBC;stroke:#020202;stroke-width:0.5;stroke-miterlimit:10;}
	.st21{fill:#C1C1C1;stroke:#020202;stroke-width:0.5;stroke-miterlimit:10;}
	.st22{fill:none;stroke:#000000;stroke-width:0.4722;stroke-miterlimit:10;}
	.st23{stroke:#020202;stroke-width:0.7439;stroke-miterlimit:10;}
	.st24{fill:#EAEAEA;stroke:#020202;stroke-width:0.5047;stroke-miterlimit:10;}
	.st25{fill:#EAEAEA;stroke:#020202;stroke-width:0.5;stroke-miterlimit:10;}
	.st26{fill:none;stroke:#020202;stroke-width:0.4561;stroke-miterlimit:10;}
	.st27{fill:#AFAFAF;stroke:#000000;stroke-width:0.4722;stroke-miterlimit:10;}
	.st28{fill:#A19616;stroke:#000000;stroke-width:0.5;stroke-miterlimit:10;}
	.st29{fill:#EAEAEA;stroke:#020202;stroke-width:0.5155;stroke-miterlimit:10;}
	.st30{fill:#CCCCCC;stroke:#000000;stroke-width:0.4722;stroke-miterlimit:10;}
	.st31{fill:none;}
	.st32{font-family:'MicrosoftYaHei';}
	.st33{font-size:3.5px;}
	.st34{font-size:2.2px;}
	.st35{fill:#CCCCCC;stroke:#000000;stroke-width:0.5165;stroke-miterlimit:10;}
	.st36{fill:#9E9E9E;stroke:#000000;stroke-width:0.5165;stroke-miterlimit:10;}
	.st37{font-size:2px;}
	.st38{letter-spacing:-1;}
</style>
<g>
	<defs>
		<rect id="SVGID_1_" x="3.7" y="5.7" width="80.3" height="252.2"/>
	</defs>
	<clipPath id="SVGID_2_">
		<use xlink:href="#SVGID_1_"  style="overflow:visible;"/>
	</clipPath>
	<path class="st0" d="M153.6,241.7C153.5,241.7,153.5,241.7,153.6,241.7c-17.8,4.3-41.4,8.2-69.5,8.2c-28.1,0-51.9-4-69.6-8.2
		c0,0,0,0,0,0c-1.3-0.2-2.3-1.4-3.1-2.9c-0.8-10.4-1.5-20.7-2.3-31.1C9,146.3,9,84.9,9,23.4c0-2.7,2.4-4.8,5.4-4.8
		c20.5-2,43.2-3.3,67.9-3.4c26-0.1,49.8,1.3,71.2,3.4c0.1,0,0.2,0,0.3,0c2.9,0.1,5.1,2.5,5.1,5.3c0,11.4,0,172.9,0,183.3
		c0,0.1,0,1.1,0,2.4c0,2.4,0,4.2-0.1,5.8c0,1.6-0.1,2.7-0.1,3.7c-0.1,2.1-0.1,2.8-0.1,4.1c-0.1,3.1,0,4-0.1,5.7
		c-0.2,8.6-2.4,11.5-3,12C154.6,241.6,153.6,241.7,153.6,241.7z"/>
</g>
<g>
	<defs>
		
			<rect id="SVGID_3_" x="84" y="5.7" transform="matrix(-1 -4.490642e-11 4.490642e-11 -1 248.2839 263.6)" width="80.3" height="252.2"/>
	</defs>
	<clipPath id="SVGID_4_">
		<use xlink:href="#SVGID_3_"  style="overflow:visible;"/>
	</clipPath>
	<path class="st1" d="M12.5,240.9c-0.6-0.4-2.8-3.3-3-12c0-1.7,0-2.7-0.1-5.7c0-1.3-0.1-2-0.1-4.1c0-1-0.1-2.1-0.1-3.7
		c0-1.6-0.1-3.4-0.1-5.8c0-1.3,0-2.3,0-2.4c0-10.3,0-171.8,0-183.3c0-2.8,2.2-5.2,5.1-5.3c0.1,0,0.2,0,0.3,0
		c21.3-2.1,45.2-3.4,71.2-3.4c24.7,0.1,47.5,1.4,67.9,3.4c3,0,5.4,2.1,5.4,4.8c0,61.4,0,122.8,0,184.3c-0.8,10.4-1.5,20.7-2.3,31.1
		c-0.7,1.5-1.7,2.7-3.1,2.9c0,0,0,0,0,0c-17.8,4.3-41.5,8.3-69.6,8.2c-28,0-51.7-4-69.4-8.2c0,0,0,0,0,0
		C14.4,241.7,13.4,241.6,12.5,240.9z"/>
</g>
<path class="st2" d="M11.5,204.4V24.8c0-1.1,0.4-2.1,1.2-2.8c1-1,2.4-1.1,2.9-1.2c46.5-3.9,66.4-3.9,66.4-3.9s24.5,0,70.1,3.9
	c0.5,0,1.9,0.2,2.9,1.2c0.7,0.7,1.2,1.7,1.2,2.8v192.9"/>
<linearGradient id="SVGID_5_" gradientUnits="userSpaceOnUse" x1="-104.65" y1="270.4012" x2="-104.65" y2="-129.0931" gradientTransform="matrix(1 0 0 -1 0 270)">
	<stop  offset="0" style="stop-color:#FFFFFF"/>
	<stop  offset="4.373908e-02" style="stop-color:#F2F2F2"/>
	<stop  offset="0.403" style="stop-color:#8C8C8C"/>
	<stop  offset="0.6924" style="stop-color:#414141"/>
	<stop  offset="0.8977" style="stop-color:#121212"/>
	<stop  offset="1" style="stop-color:#000000"/>
</linearGradient>
<!-- <path class="st3" d="M-35,265.4h-139.3c-5.2,0-9.4-4.2-9.4-9.4V15.5c0-5.2,4.2-9.4,9.4-9.4H-35c5.2,0,9.4,4.2,9.4,9.4V256
	C-25.6,261.2-29.8,265.4-35,265.4z"/> -->
<!-- <path class="st4" d="M-35.1,260.7h-139.1c-3,0-5.4-2.4-5.4-5.4V16c0-3,2.4-5.4,5.4-5.4h139.1c3,0,5.4,2.4,5.4,5.4v239.3
	C-29.6,258.3-32.1,260.7-35.1,260.7z"/> -->
<!-- <path class="st5" d="M-60.1,92.3h-89c-9.9,0-17.8-8-17.8-17.8V24.6c0-5.1,4.1-9.2,9.2-8.2h106.3c5.1-1,9.2,3.1,9.2,8.2v49.9
	C-42.3,84.4-50.3,92.3-60.1,92.3z"/>
<path class="st6" d="M-40.5,12.6"/>
<path class="st7" d="M-59,77.6L-59,77.6c-3.3,0-6-2.7-6-6V58.9c0-3.3,2.7-6,6-6l0,0c3.3,0,6,2.7,6,6v12.7
	C-53,74.9-55.7,77.6-59,77.6z"/>
<line class="st8" x1="-53" y1="65.2" x2="-65" y2="65.2"/> -->
<!-- <g>
	<circle class="st9" cx="-137.8" cy="81.4" r="2.5"/>
	<path class="st9" d="M-86.4,83.9h-12.7c-1.4,0-2.5-1.1-2.5-2.5l0,0c0-1.4,1.1-2.5,2.5-2.5h12.8c1.4,0,2.5,1.1,2.5,2.5l0,0
		C-83.9,82.7-85,83.9-86.4,83.9z"/>
	<circle class="st9" cx="-153.1" cy="81.4" r="2.5"/>
	<circle class="st9" cx="-120.8" cy="81.4" r="2.5"/>
</g>
<g>
	<rect x="-164.7" y="105.6" class="st10" width="121.5" height="70.2"/>
	<rect x="-183.7" y="105.6" class="st11" width="19" height="19"/>
	<rect x="-183.7" y="156.8" class="st11" width="19" height="19"/>
</g>
<polyline class="st4" points="-179.6,178.1 -179.6,126.4 -179.6,105.6 "/>
<line class="st12" x1="-177" y1="207.5" x2="-177" y2="20.8"/>
<rect x="-43.2" y="133.4" class="st13" width="15.3" height="14.5"/>
<line class="st14" x1="-32.3" y1="133.4" x2="-32.3" y2="147.9"/>
<line class="st8" x1="-183.7" y1="180.9" x2="-25.6" y2="180.9"/>
<rect x="-177" y="202.7" class="st15" width="144.7" height="11.7"/>
<line class="st16" x1="-32.3" y1="204.5" x2="-177" y2="204.5"/>
<line class="st16" x1="-177" y1="212.4" x2="-32.3" y2="212.4"/>
<path class="st17" d="M-38.4,255.3h-133c-1.5,0-2.7-1.2-2.7-2.7V217c0-1.5,1.2-2.7,2.7-2.7h133c1.5,0,2.7,1.2,2.7,2.7v35.6
	C-35.7,254.1-36.9,255.3-38.4,255.3z"/>
<path class="st18" d="M-83.9,70.6h-72.3c-2.1,0-3.9-1.7-3.9-3.9V26.9c0-2.1,1.7-3.9,3.9-3.9h72.3c2.1,0,3.9,1.7,3.9,3.9v39.8
	C-80,68.9-81.8,70.6-83.9,70.6z"/>
<path class="st7" d="M-174.3,255.3"/>
<polygon class="st15" points="-183.7,197.4 -179.6,201.5 -179.6,209.5 -183.7,203.8 "/>
<polygon class="st15" points="-25.6,197.4 -29.6,201.5 -29.6,209.5 -25.6,203.8 "/>
<g>
	<g>
		<path class="st19" d="M-174.1,221.4L-174.1,221.4c3.5,0,6.3-2.8,6.3-6.3v-10.7h-9.7h-2.9v10.7
			C-180.4,218.6-177.6,221.4-174.1,221.4z"/>
		<polyline class="st19" points="-180.4,212.4 -180.4,201.4 -177.6,204.4 -167.8,204.4 		"/>
	</g>
	<path class="st19" d="M-174.1,217.9L-174.1,217.9c-1.6,0-2.9-1.3-2.9-2.9l0,0c0-1.6,1.3-2.9,2.9-2.9l0,0c1.6,0,2.9,1.3,2.9,2.9l0,0
		C-171.2,216.5-172.5,217.9-174.1,217.9z"/>
</g>
<rect x="-183.7" y="175.8" class="st20" width="4.1" height="4.1"/>
<rect x="-183.7" y="156.8" class="st21" width="4.1" height="18.9"/>
<rect x="-183.7" y="105.6" class="st21" width="4.1" height="18.9"/>
<line class="st12" x1="-29.6" y1="131.8" x2="-29.6" y2="155.4"/>
<path class="st22" d="M-177,200.8V16.7c0-2.3,1.8-4.1,4.1-4.1h136.5c2.3,0,4.1,1.8,4.1,4.1v197.6"/>
<circle class="st6" cx="-32.3" cy="19.2" r="3.8"/>
<circle class="st6" cx="-177" cy="19.2" r="3.8"/>
<g>
	<g>
		<path class="st19" d="M-35.7,221.4L-35.7,221.4c-3.5,0-6.3-2.8-6.3-6.3v-10.7h9.7h2.8v10.7C-29.4,218.6-32.2,221.4-35.7,221.4z"/>
		<polyline class="st19" points="-29.4,212.4 -29.4,201.4 -32.3,204.4 -42,204.4 		"/>
	</g>
	<path class="st19" d="M-35.7,217.9L-35.7,217.9c1.6,0,2.9-1.3,2.9-2.9l0,0c0-1.6-1.3-2.9-2.9-2.9l0,0c-1.6,0-2.9,1.3-2.9,2.9l0,0
		C-38.7,216.5-37.3,217.9-35.7,217.9z"/>
</g>
<polygon class="st23" points="-27.1,143.9 -27.1,137.4 -26.7,137.4 -26.7,133.4 -27.5,133.4 -27.5,147.9 -26.7,147.9 -26.7,143.9 
	"/> -->
<g>
	<path class="st4" d="M148.8,93h-130V35.6c0-3.8,3.4-6.9,7.7-6.9c16.9-2.1,36.2-3.6,57.4-3.6c21.2,0,40.4,1.5,57.3,3.6
		c0.5,0,3.2,0,5.4,2c1.4,1.3,2.2,3,2.2,4.9V93z"/>
	<path class="st24" d="M145,89.7H22.6v-52c0-3.5,3.2-6.3,7.2-6.3c15.9-1.9,34.1-3.2,54.1-3.2c20,0,38.1,1.3,54,3.2
		c0.5,0,3,0,5.1,1.8c1.3,1.1,2.1,2.7,2.1,4.5V89.7z"/>
	<path class="st4" d="M80.1,86.1H29.8c-0.8,0-1.4-0.6-1.4-1.4V39.3c0-0.8,0.6-1.4,1.4-1.4H55h25.1c0.8,0,1.4,0.6,1.4,1.4v45.4
		C81.5,85.4,80.9,86.1,80.1,86.1z"/>
	<circle class="st9" cx="98.9" cy="45" r="1.5"/>
	<circle class="st9" cx="88.5" cy="45" r="1.5"/>
	<circle class="st9" cx="98.9" cy="52.7" r="1.5"/>
	<circle class="st9" cx="88.5" cy="52.7" r="1.5"/>
	<path class="st9" d="M132.8,52.3h-8.7c-2.3,0-4.2-1.9-4.2-4.2v-0.7c0-2.3,1.9-4.2,4.2-4.2h8.7c2.3,0,4.2,1.9,4.2,4.2v0.7
		C137,50.4,135.1,52.3,132.8,52.3z"/>
	<polygon class="st24" points="75.9,82.9 34,82.9 34,41 55,41 75.9,41 	"/>
	<g>
		<path class="st25" d="M129.7,75.5c0,2.7-1.1,5.2-2.9,7l-7-7l7-7h0C128.6,70.3,129.7,72.8,129.7,75.5z"/>
		<path class="st25" d="M118.8,86.2c-2.7,0-5.2-1.1-7-2.9l7-7l7,7v0C124.1,85.1,121.6,86.2,118.8,86.2z"/>
		<path class="st25" d="M107.9,75.5c0-2.7,1.1-5.2,2.9-7l7,7l-7,7h0C109.1,80.8,107.9,78.3,107.9,75.5z"/>
		<path class="st25" d="M118.8,64.7c2.7,0,5.2,1.1,7,2.9l-7,7l-7-7v0C113.6,65.9,116.1,64.7,118.8,64.7z"/>
	</g>
	<path class="st25" d="M105.5,75.7c0.2,4.3,2,6.3,1.3,6.9c-1.1,0.9-7.2-2-7.5-6.6c-0.3-4.8,5.8-8.5,7-7.7
		C107.1,68.8,105.3,71.1,105.5,75.7z"/>
	<path class="st25" d="M132.1,75.7c-0.2,4.3-2,6.3-1.3,6.9c1.1,0.9,7.2-2,7.5-6.6c0.3-4.8-5.8-8.5-7-7.7
		C130.5,68.8,132.3,71.1,132.1,75.7z"/>
</g>
<g>
	<rect x="18.8" y="97.4" class="st24" width="130.6" height="68.6"/>
</g>
<rect x="28.4" y="142" class="st26" width="61.6" height="24"/>
<rect x="98.7" y="147.9" class="st26" width="29.3" height="18.1"/>
<circle class="st9" cx="117.3" cy="159.2" r="1"/>
<circle class="st9" cx="122.7" cy="159.2" r="1"/>
<circle class="st9" cx="111.7" cy="159.2" r="1"/>
<g>
	<circle class="st9" cx="72.6" cy="149.1" r="1"/>
	<circle class="st9" cx="78" cy="149.1" r="1"/>
	<circle class="st9" cx="50.2" cy="149.1" r="1"/>
	<circle class="st9" cx="39.1" cy="149.1" r="1"/>
	<circle class="st9" cx="44.5" cy="149.1" r="1"/>
	<circle class="st9" cx="33.5" cy="149.1" r="1"/>
	<circle class="st9" cx="55.8" cy="149.1" r="1"/>
</g>
<line class="st4" x1="11.5" y1="169.5" x2="156.2" y2="169.5"/>
<g>
	<polygon class="st27" points="150.8,114.9 150.8,123 149.4,123 149.4,133.6 150.8,133.6 150.8,141.2 159,149.1 159,107.6 	"/>
	<ellipse class="st28" cx="153" cy="128.3" rx="2.1" ry="2.2"/>
</g>
<g>
	<polyline class="st12" points="33.5,155.4 33.5,156.9 50.2,156.9 50.2,155.4 	"/>
	<line class="st12" x1="39.1" y1="155.4" x2="39.1" y2="156.9"/>
	<line class="st12" x1="44.5" y1="155.4" x2="44.5" y2="156.9"/>
</g>
<polyline class="st12" points="72.6,155.4 72.6,156.9 78,156.9 78,155.4 "/>
<line class="st4" x1="145" y1="167.9" x2="145" y2="169.4"/>
<line class="st4" x1="130.3" y1="167.9" x2="130.3" y2="169.4"/>
<line class="st4" x1="93.8" y1="167.9" x2="93.8" y2="169.4"/>
<line class="st4" x1="16.7" y1="167.9" x2="16.7" y2="169.5"/>
<g>
	<path class="st29" d="M150.7,220.4L150.7,220.4c3.6,0,6.4-2.9,6.4-6.4v-18.2h-12.9V214C144.2,217.5,147.1,220.4,150.7,220.4z"/>
	<circle class="st28" cx="150.7" cy="214.4" r="3.1"/>
</g>
<g>
	<path class="st29" d="M16.7,220.4L16.7,220.4c3.6,0,6.4-2.9,6.4-6.4v-18.2H10.3V214C10.3,217.5,13.2,220.4,16.7,220.4z"/>
	<circle class="st28" cx="16.7" cy="214.4" r="3.1"/>
</g>
<line class="st4" x1="11.5" y1="169.5" x2="156.2" y2="169.5"/>
<path class="st4" d="M123.7,247.3c4.1-13.3,8.1-26.5,12.2-39.8l20.1-7.1l0.2-32.5H11.5v32.5l20.1,7.1c4.1,13.2,8.1,26.5,12.2,39.7
	c11.7,1.6,25.2,2.8,40.1,2.8C98.7,250,112.1,248.9,123.7,247.3z"/>
<line class="st4" x1="16.7" y1="220.4" x2="16.7" y2="242.1"/>
<line class="st4" x1="150.7" y1="220.4" x2="150.7" y2="242.1"/>
<path class="st4" d="M9,206c0.4,1.5,0.8,3,1.2,4.6"/>
<path class="st4" d="M157.1,210.5c0.6-1.7,1.2-3.3,1.9-5"/>
<path class="st30" d="M8.8,206.7"/>
<rect x="31.4" y="32.9" class="st31" width="39.6" height="4.9"/>
<text transform="matrix(1 0 0 1 31.3701 35.7227)" class="st32 st33">集中器</text>
<path class="st30" d="M107.2,201.3"/>
<rect x="42" y="158.9" class="st31" width="4.9" height="3.5"/>
<text transform="matrix(1 0 0 1 42.021 160.7078)" class="st32 st34">载波</text>
<rect x="73" y="158.9" class="st31" width="4.9" height="2.5"/>
<text transform="matrix(1 0 0 1 72.982 160.7079)" class="st32 st34">网络</text>
<polyline class="st12" points="50.2,156.9 55.8,156.9 55.8,155.4 "/>
<rect x="109.1" y="150.9" class="st31" width="17.6" height="3.5"/>
<text transform="matrix(1 0 0 1 109.1415 152.6499)" class="st32 st34">GPRS通讯</text>
<rect x="9" y="97.4" class="st35" width="9.8" height="9.2"/>
<rect x="9" y="156.9" class="st35" width="9.8" height="9.2"/>
<rect x="9" y="97.4" class="st36" width="2.4" height="9.2"/>
<rect x="9.1" y="156.9" class="st36" width="2.4" height="9.2"/>
<rect x="30.2" y="151.5" class="st31" width="27.2" height="3.4"/>
<text transform="matrix(1 0 0 1 30.3573 153.1371)"><tspan x="0" y="0" class="st32 st37">            T/R   </tspan><tspan x="12.2" y="0" class="st32 st37"> </tspan><tspan x="12.5" y="0" class="st32 st37"> A      </tspan><tspan x="18.1" y="0" class="st32 st37"> </tspan><tspan x="18.9" y="0" class="st32 st37">B </tspan><tspan x="20.7" y="0" class="st32 st37"> </tspan><tspan x="21.4" y="0" class="st32 st37">     C</tspan></text>
<text transform="matrix(1 0 0 1 31.4711 153.2564)" class="st32 st37">电源</text>
<text transform="matrix(1 0 0 1 70.251 153.2566)"><tspan x="0" y="0" class="st32 st37">LINK</tspan><tspan x="4.5" y="0" class="st32 st37"> </tspan><tspan x="5.4" y="0" class="st32 st37"> </tspan><tspan x="6" y="0" class="st32 st37 st38"> </tspan><tspan x="5.1" y="0" class="st32 st37">DATA</tspan></text>
<text transform="matrix(1 0 0 1 109.3413 156.9775)" class="st32 st37">电源</text>
<text transform="matrix(1 0 0 1 120.9153 156.9775)"><tspan x="0" y="0" class="st32 st37">T/R   </tspan><tspan x="5.1" y="0" class="st32 st37"> </tspan><tspan x="5.4" y="0" class="st32 st37"> </tspan></text>
<text transform="matrix(1 0 0 1 115.0908 156.906)"><tspan x="0" y="0" class="st32 st37">NET   </tspan><tspan x="5.6" y="0" class="st32 st37"> </tspan><tspan x="6" y="0" class="st32 st37"> </tspan></text>
</svg>
