<?xml version="1.0" encoding="utf-8"?>
<!-- Generator: Adobe Illustrator 23.0.3, SVG Export Plug-In . SVG Version: 6.00 Build 0)  -->
<svg version="1.1" id="Layer_1" xmlns="http://www.w3.org/2000/svg" xmlns:xlink="http://www.w3.org/1999/xlink" x="0px" y="0px"
	 viewBox="0 0 177.7 277.4" style="enable-background:new 0 0 177.7 277.4;" xml:space="preserve">
<style type="text/css">
	.st0{fill:url(#SVGID_1_);stroke:#050505;stroke-width:0.7931;stroke-miterlimit:10;}
	.st1{fill:#F3F3F3;}
	.st2{fill:#A19616;stroke:#020202;stroke-width:0.5287;stroke-miterlimit:10;}
	.st3{fill:#CDCDCD;stroke:#000000;stroke-width:0.8246;stroke-miterlimit:10;}
	.st4{fill:#B6B6B6;}
	.st5{fill:#DFDFDF;stroke:#252626;stroke-width:0.8246;stroke-miterlimit:10;}
	.st6{fill:#DFDFDF;stroke:#252626;stroke-width:0.7735;stroke-miterlimit:10;}
	.st7{fill:#9F9F9F;}
	.st8{fill:#B9B9B9;stroke:#000000;stroke-width:0.8246;stroke-miterlimit:10;}
	.st9{fill:#F3F3F3;stroke:#000000;stroke-width:0.8246;stroke-miterlimit:10;}
	.st10{fill:#CDCDCD;stroke:#020202;stroke-width:0.8246;stroke-miterlimit:10;}
	.st11{fill:#DFDFDF;stroke:#252626;stroke-width:0.7713;stroke-miterlimit:10;}
	.st12{fill:#3A3A3A;}
	.st13{fill:#CDCDCD;}
	.st14{fill:#FFFFFF;}
	.st15{fill:#CDCDCD;stroke:#000000;stroke-width:0.4698;stroke-miterlimit:10;}
	.st16{fill:url(#SVGID_2_);stroke:#050505;stroke-width:0.7798;stroke-miterlimit:10;}
	.st17{fill:#CCCCCC;stroke:#000000;stroke-width:0.5199;stroke-miterlimit:10;}
	.st18{fill:none;stroke:#020202;stroke-width:1.0748;stroke-miterlimit:10;}
	.st19{fill:#A19616;stroke:#020202;stroke-width:0.5199;stroke-miterlimit:10;}
	.st20{fill:#EAEAEA;stroke:#020202;stroke-width:1.0397;stroke-miterlimit:10;}
	.st21{fill:none;stroke:#020202;stroke-width:1.0397;stroke-miterlimit:10;}
	.st22{fill:none;stroke:#020202;stroke-width:0.7798;stroke-miterlimit:10;}
	.st23{fill:#A5A5A5;stroke:#020202;stroke-width:0.7798;stroke-miterlimit:10;}
	.st24{fill:none;stroke:#000000;stroke-width:0.5199;stroke-miterlimit:10;}
	.st25{fill:#A5A5A5;stroke:#020202;stroke-width:0.7734;stroke-miterlimit:10;}
	.st26{fill:none;stroke:#000000;stroke-width:0.4369;stroke-miterlimit:10;}
	.st27{fill:#514F54;stroke:#000000;stroke-width:0.5199;stroke-miterlimit:10;}
	.st28{fill:none;stroke:#000000;stroke-width:1.0397;stroke-miterlimit:10;}
	.st29{fill:#CCCCCC;stroke:#000000;stroke-width:1.0192;stroke-miterlimit:10;}
	.st30{fill:#E5E5E5;stroke:#000000;stroke-width:1.0397;stroke-miterlimit:10;}
	.st31{fill:#A19616;stroke:#000000;stroke-width:0.7798;stroke-miterlimit:10;}
	.st32{fill:#BBBBBC;stroke:#020202;stroke-width:0.5199;stroke-miterlimit:10;}
	.st33{fill:#C1C1C1;stroke:#020202;stroke-width:0.5199;stroke-miterlimit:10;}
	.st34{fill:none;stroke:#000000;stroke-width:0.491;stroke-miterlimit:10;}
	.st35{stroke:#020202;stroke-width:0.7734;stroke-miterlimit:10;}
</style>
<g>
	
		<linearGradient id="SVGID_1_" gradientUnits="userSpaceOnUse" x1="89.429" y1="-58.5295" x2="89.429" y2="-473.8929" gradientTransform="matrix(1 0 0 -1 0 -61.6518)">
		<stop  offset="0" style="stop-color:#FFFFFF"/>
		<stop  offset="4.373908e-02" style="stop-color:#F2F2F2"/>
		<stop  offset="0.403" style="stop-color:#8C8C8C"/>
		<stop  offset="0.6924" style="stop-color:#414141"/>
		<stop  offset="0.8977" style="stop-color:#121212"/>
		<stop  offset="1" style="stop-color:#000000"/>
	</linearGradient>
	<path style="fill:url(#SVGID_1_);stroke:#050505;stroke-width:0.7798;stroke-miterlimit:10;" d="M161.8,273.2H17
		c-5.4,0-9.8-4.4-9.8-9.8V13.4c0-5.4,4.4-9.8,9.8-9.8h144.8c5.4,0,9.8,4.4,9.8,9.8v250.1C171.6,268.9,167.3,273.2,161.8,273.2z"/>
	<path class="st17" d="M161.7,268.4H17.1c-3.1,0-5.6-2.5-5.6-5.6V13.9c0-3.1,2.5-5.6,5.6-5.6h144.6c3.1,0,5.6,2.5,5.6,5.6v248.8
		C167.5,265.9,164.9,268.4,161.7,268.4z"/>
	<path class="st18" d="M135.7,93.3H43.2c-10.3,0-18.5-8.3-18.5-18.5V22.9c0-5.3,4.3-9.6,9.6-8.5h110.5c5.3-1,9.6,3.2,9.6,8.5v51.9
		C154.3,85,145.9,93.3,135.7,93.3z"/>
	<path class="st20" d="M136.9,78L136.9,78c-3.4,0-6.2-2.8-6.2-6.2V58.5c0-3.4,2.8-6.2,6.2-6.2l0,0c3.4,0,6.2,2.8,6.2,6.2v13.2
		C143.1,75.2,140.3,78,136.9,78z"/>
	<line class="st21" x1="143.1" y1="65.1" x2="130.7" y2="65.1"/>
	<g>
		<circle class="st12" cx="55" cy="81.9" r="2.6"/>
		<path class="st12" d="M108.4,84.5H95.2c-1.5,0-2.6-1.1-2.6-2.6l0,0c0-1.5,1.1-2.6,2.6-2.6h13.3c1.5,0,2.6,1.1,2.6,2.6l0,0
			C111,83.3,109.9,84.5,108.4,84.5z"/>
		<circle class="st12" cx="39.1" cy="81.9" r="2.6"/>
		<circle class="st12" cx="72.6" cy="81.9" r="2.6"/>
	</g>
	<g>
		<rect x="27" y="107.1" class="st22" width="126.3" height="73"/>
		<rect x="7.2" y="107.1" class="st23" width="19.8" height="19.8"/>
		<rect x="7.2" y="160.3" class="st23" width="19.8" height="19.8"/>
	</g>
	<polyline class="st17" points="11.5,182.5 11.5,128.7 11.5,107.1 	"/>
	<line class="st24" x1="14.2" y1="213" x2="14.2" y2="18.9"/>
	<rect x="153.3" y="136" class="st25" width="15.9" height="15.1"/>
	<line class="st26" x1="164.7" y1="136" x2="164.7" y2="151.1"/>
	<line class="st22" x1="7.2" y1="185.4" x2="171.6" y2="185.4"/>
	<rect x="14.2" y="208" class="st27" width="150.4" height="12.2"/>
	<line class="st28" x1="164.7" y1="209.9" x2="14.2" y2="209.9"/>
	<line class="st28" x1="14.2" y1="218.1" x2="164.7" y2="218.1"/>
	<path class="st29" d="M158.3,262.7H20c-1.6,0-2.8-1.2-2.8-2.8v-37c0-1.6,1.2-2.8,2.8-2.8h138.3c1.6,0,2.8,1.2,2.8,2.8v37
		C161.1,261.5,159.9,262.7,158.3,262.7z"/>
	<path class="st30" d="M111,70.7H35.8c-2.2,0-4.1-1.8-4.1-4.1V25.3c0-2.2,1.8-4.1,4.1-4.1H111c2.2,0,4.1,1.8,4.1,4.1v41.4
		C115.1,68.9,113.2,70.7,111,70.7z"/>
	<polygon class="st27" points="7.2,202.5 11.5,206.8 11.5,215.1 7.2,209.2 	"/>
	<polygon class="st27" points="171.6,202.5 167.5,206.8 167.5,215.1 171.6,209.2 	"/>
	<g>
		<g>
			<path class="st31" d="M17.2,227.5L17.2,227.5c3.6,0,6.6-2.9,6.6-6.6v-11.1H13.7h-3v11.1C10.7,224.6,13.6,227.5,17.2,227.5z"/>
			<polyline class="st31" points="10.7,218.1 10.7,206.7 13.6,209.8 23.8,209.8 			"/>
		</g>
		<path class="st31" d="M17.2,223.9L17.2,223.9c-1.7,0-3-1.4-3-3l0,0c0-1.7,1.4-3,3-3l0,0c1.7,0,3,1.4,3,3l0,0
			C20.2,222.4,18.9,223.9,17.2,223.9z"/>
	</g>
	<rect x="7.2" y="180.1" class="st32" width="4.3" height="4.3"/>
	<rect x="7.2" y="160.3" class="st33" width="4.3" height="19.7"/>
	<rect x="7.2" y="107.1" class="st33" width="4.3" height="19.7"/>
	<line class="st24" x1="167.5" y1="134.3" x2="167.5" y2="158.9"/>
	<path class="st34" d="M14.2,206.1V14.7c0-2.4,1.9-4.3,4.3-4.3h141.9c2.4,0,4.3,1.9,4.3,4.3v205.4"/>
	<circle class="st19" cx="164.7" cy="17.3" r="4"/>
	<circle class="st19" cx="14.2" cy="17.3" r="4"/>
	<g>
		<g>
			<path class="st31" d="M161.1,227.5L161.1,227.5c-3.6,0-6.6-2.9-6.6-6.6v-11.1h10.1h2.9v11.1C167.7,224.6,164.8,227.5,161.1,227.5
				z"/>
			<polyline class="st31" points="167.7,218.1 167.7,206.7 164.7,209.8 154.6,209.8 			"/>
		</g>
		<path class="st31" d="M161.1,223.9L161.1,223.9c1.7,0,3-1.4,3-3l0,0c0-1.7-1.4-3-3-3l0,0c-1.7,0-3,1.4-3,3l0,0
			C158,222.4,159.5,223.9,161.1,223.9z"/>
	</g>
	<polygon class="st35" points="170.1,146.9 170.1,140.2 170.5,140.2 170.5,136 169.6,136 169.6,151.1 170.5,151.1 170.5,146.9 	"/>
</g>
</svg>
