<svg xmlns="http://www.w3.org/2000/svg" width="200" height="200" class="icon"
     p-id="1156" t="1582012080247" version="1.1" viewBox="0 0 1024 1024">
  <defs>
    <style type="text/css"/>
  </defs>
  <path fill="#FF7029"
        d="M509.017476 514.982524m-509.017476 0a509.017476 509.017476 0 1 0 1018.034951 0 509.017476 509.017476 0 1 0-1018.034951 0Z"
        p-id="1157"/>
  <path fill="#F2F2F2"
        d="M766.80699 326.188738H517.567379c-6.660971 0-12.029515 5.368544-12.029515 12.029514V794.345631c0 6.660971 5.368544 12.029515 12.029515 12.029515h327.878835c6.660971 0 12.029515-5.368544 12.029514-12.029515V416.857476c0-3.181359-1.292427-6.263301-3.479611-8.450486l-78.639224-78.639223c-2.386019-2.286602-5.368544-3.579029-8.549903-3.579029z"
        p-id="1158"/>
  <path fill="#CCC"
        d="M783.707961 411.886602h69.691651c1.491262 0 2.187184-1.789515 1.193009-2.783689L774.561553 329.071845c-0.994175-0.994175-2.783689-0.298252-2.783689 1.193009v69.691651c0 6.561553 5.368544 11.930097 11.930097 11.930097z"
        p-id="1159"/>
  <path fill="#4CDBC4" d="M533.772427 370.23068H708.846602v24.754951H533.772427z" p-id="1160"/>
  <path fill="#DBDBDB"
        d="M533.772427 451.255922h294.076893V463.285437H533.772427zM533.772427 485.554951h294.076893v12.029515H533.772427zM533.772427 519.953398h214.24466v12.029515H533.772427zM533.772427 554.053592h265.04699v12.029515H533.772427zM533.772427 588.452039h283.041554V600.481553H533.772427zM533.772427 622.751068h214.24466v12.029515H533.772427zM533.772427 656.95068h294.076893v12.029514H533.772427z"
        p-id="1161"/>
  <path fill="#FFF"
        d="M544.608932 417.752233c28.532816-26.842718 44.539029-62.931262 44.539029-100.511068V280.357282H303.521553v36.983301c0 37.579806 16.006214 73.568932 44.53903 100.511067l59.551067 55.972039c10.339417 9.742913 16.205049 22.866019 16.205049 36.486214 0 13.620194-5.766214 26.743301-16.205049 36.486214l-59.551067 55.972038c-28.532816 26.842718-44.539029 62.931262-44.53903 100.511068v36.983301h285.626408v-36.983301c0-37.579806-16.006214-73.568932-44.539029-100.511068L485.057864 546.796117c-10.339417-9.742913-16.205049-22.866019-16.205048-36.486214 0-13.620194 5.766214-26.743301 16.205048-36.486214l59.551068-56.071456z"
        p-id="1162"/>
  <path fill="#2B3B4E"
        d="M283.439223 280.357282h325.791068c15.707961 0 28.333981-12.725437 28.333981-28.333981 0-15.707961-12.725437-28.333981-28.333981-28.333981H283.439223c-15.707961 0-28.333981 12.725437-28.33398 28.333981s12.626019 28.333981 28.33398 28.333981zM609.230291 740.063689H283.439223c-15.707961 0-28.333981 12.725437-28.33398 28.333981 0 15.707961 12.725437 28.333981 28.33398 28.33398h325.791068c15.707961 0 28.333981-12.725437 28.333981-28.33398s-12.725437-28.333981-28.333981-28.333981z"
        p-id="1163"/>
  <path fill="#54C0EB"
        d="M479.29165 614.499417c-0.39767-0.099417-0.695922-0.198835-1.093592-0.298252-14.813204-3.479612-25.152621-16.801553-25.152621-31.91301V464.776699l64.124272-65.814369c7.953398-8.152233 14.415534-17.298641 19.485825-27.140971H356.013981c5.169709 9.84233 11.631845 18.988738 19.485825 27.140971l64.124272 65.814369v117.511456c0 15.111456-10.339417 28.532816-25.053204 31.91301-0.099417 0-0.198835 0-0.298253 0.099418-37.878058 8.748738-68.200388 39.76699-71.481165 78.539805-0.298252 3.380194-0.39767 6.859806-0.39767 10.339418v10.041165h208.080777v-10.041165c0-3.678447-0.198835-7.257476-0.497087-10.935923-3.678447-38.375146-33.106019-69.095146-70.685826-77.744466z"
        p-id="1164"/>
  <path fill="#54C0EB"
        d="M398.465243 593.025243a8.052816 8.052816 0 1 0 16.105631 0 8.052816 8.052816 0 1 0-16.105631 0Z"
        p-id="1165"/>
  <path fill="#54C0EB"
        d="M473.326602 595.610097a10.737087 10.737087 0 1 0 21.474175 0 10.737087 10.737087 0 1 0-21.474175 0Z"
        p-id="1166"/>
  <path fill="#54C0EB"
        d="M419.641165 568.469126a4.772039 4.672621 90 1 0 9.345243 0 4.772039 4.672621 90 1 0-9.345243 0Z"
        p-id="1167"/>
</svg>
