<?xml version="1.0" standalone="no"?><!DOCTYPE svg PUBLIC "-//W3C//DTD SVG 1.1//EN" "http://www.w3.org/Graphics/SVG/1.1/DTD/svg11.dtd"><svg t="1581385698697" class="icon" viewBox="0 0 1024 1024" version="1.1" xmlns="http://www.w3.org/2000/svg" p-id="1968" xmlns:xlink="http://www.w3.org/1999/xlink" width="200" height="200"><defs><style type="text/css"></style></defs><path d="M920.9856 148.224c-1.1008 0-104.1152-2.048-210.5088-41.728C601.344 65.6896 531.0208 18.8928 530.3552 18.4576L502.6816 0l-27.648 18.4832c-0.64 0.4352-71.0144 47.232-180.096 87.9872C188.5952 146.2272 85.5296 148.224 84.608 148.224L38.4 148.9152v430.464C38.4 795.4944 340.3776 1024 502.7328 1024c162.432 0 464.4096-228.5056 464.4096-444.6208l-0.128-300.5952V244.4288l-0.0256-31.8208-0.0512-63.6928-45.952-0.6912zM104.96 579.3792V211.2512c38.016-2.4832 124.2112-11.5968 214.0928-45.184 92.1088-34.432 159.0528-73.3952 183.7568-88.6016 26.5216 16.5376 91.52 54.1696 183.552 88.6016 90.2144 33.664 243.2768 42.7008 280.7808 45.2096v50.688h-66.56v317.4144c0 175.1808-262.9632 380.6976-397.824 380.6976-134.912 0-397.824-205.5168-397.824-380.6976z" p-id="1969"></path><path d="M769.0752 557.1328l-172.928 172.9536-72.4736-82.304a32.3072 32.3072 0 1 0-48.4864 42.8032l95.2064 108.16a32.2304 32.2304 0 0 0 24.2432 10.9312c8.576 0 16.7936-3.3536 22.8608-9.4208l197.2736-197.2224a32.512 32.512 0 0 0 0.0768-45.824 32.4864 32.4864 0 0 0-45.7728-0.0768z" p-id="1970"></path><path d="M585.472 611.5584a637.0304 637.0304 0 0 1 48.2816-44.3904 238.1056 238.1056 0 0 0-78.336-55.6288 152.5248 152.5248 0 0 0 59.2896-120.448c0-84.3264-67.9168-152.96-151.3472-152.96-83.456 0-151.3216 68.608-151.3216 152.96 0 48.9728 23.3216 92.2112 58.9312 120.192a237.312 237.312 0 0 0-142.08 217.6768c0 18.2784 14.6688 33.0752 32.768 33.0752 18.0736 0 32.7168-14.7968 32.7168-33.0752 0-94.1312 75.776-170.752 168.9856-170.752 48.0768 0 91.3152 20.5824 122.112 53.3504zM463.36 304.3072c47.3088 0 85.8624 38.9632 85.8624 86.784s-38.5536 86.7072-85.8624 86.7072-85.8624-38.912-85.8624-86.7072c0-47.8208 38.5536-86.784 85.8624-86.784z" p-id="1971"></path></svg>