<svg xmlns="http://www.w3.org/2000/svg" xmlns:xlink="http://www.w3.org/1999/xlink" width="200" height="200" class="icon" p-id="9982" t="1577968402000" version="1.1" viewBox="0 0 1024 1024"><defs><style type="text/css"/></defs><path fill="#1989FA" d="M512.384 64l420.7744 224v448L512.384 960 91.6224 736v-448L512.384 64z m0 176.512L257.408 376.256v271.488L512.384 783.488l254.9888-135.744v-271.488L512.3968 240.512z" opacity=".3" p-id="9983"/><path fill="#1989FA" d="M512.384 342.4l159.3088 84.8v169.6L512.384 681.6128l-159.296-84.8128v-169.6zM486.4 283.008V149.2352a76.8 76.8 0 1 1 51.2 0v133.76a232.9344 232.9344 0 0 0-51.2 0z m211.1104 92.3264l147.7504-85.2992a76.8 76.8 0 1 1 22.3744 46.208l-144.4864 83.4048a230.1568 230.1568 0 0 0-25.6384-44.3136z m25.6384 229.0176l144.4736 83.4048a76.8 76.8 0 1 1-22.3744 46.208l-147.7376-85.2992c10.112-13.696 18.7264-28.544 25.6384-44.3136zM537.6 740.992v133.7728a76.8 76.8 0 1 1-51.2 0v-133.76a232.9344 232.9344 0 0 0 51.2 0z m-211.1104-92.3264L178.7392 733.952a76.8 76.8 0 1 1-22.3744-46.208l144.4864-83.4048a230.1568 230.1568 0 0 0 25.6384 44.3136z m-25.6384-229.0176L156.3776 336.256a76.8 76.8 0 1 1 22.3744-46.208l147.7376 85.2992a230.1568 230.1568 0 0 0-25.6384 44.3136z" p-id="9984"/></svg>