<?xml version="1.0" standalone="no"?><!DOCTYPE svg PUBLIC "-//W3C//DTD SVG 1.1//EN" "http://www.w3.org/Graphics/SVG/1.1/DTD/svg11.dtd"><svg t="1584526216980" class="icon" viewBox="0 0 1024 1024" version="1.1" xmlns="http://www.w3.org/2000/svg" p-id="5565" xmlns:xlink="http://www.w3.org/1999/xlink" width="64" height="64"><defs><style type="text/css"></style></defs><path d="M829.5 628c-0.8 1.8-1.7 3.6-2.5 5.3-1.3 2.7-2.6 5.4-3.8 8-0.6 1.2-1.1 2.3-1.7 3.4-6.2 12.7-12 23.8-16.9 33.1-9.1 17-26.7 27.7-46 27.9l-109.2 1.2h-1.2l-9.4 0.1-8 0.1-24.6 0.3h-1l-12.5 0.1h-0.4l-77.1 0.8-68.8 0.7-8 0.1-49.7 0.5h-0.1l-32.2 0.3h-0.3L254.2 711l-30.5 0.3c-6.5 0.1-13-0.9-19.2-2.8-10.8-3.3-20.6-9.4-28.2-17.8-13.1-14.4-22.6-31.3-29-49.5-0.9-2.6-1.8-5.3-2.6-8-22.2-75 4.9-171.8 53.6-236.6 2-2.7 4.1-5.3 6.2-7.9l0.1-0.1c15-18.4 31.8-33.7 49.6-44.7 31.7-19.4 66.8-24.8 101.3-8.6 29.2 13.8 56.5 20.2 83 22 2.7 0.2 5.3 0.3 8 0.4 60.7 1.9 117.5-20 184.3-34.1 2.7-0.6 5.3-1.1 8-1.6 47.6-9.5 100.5-14.5 163.3-4 6.5 1.1 13 2.6 19.3 4.6 2.8 0.9 5.4 1.9 8 2.9 30 12.2 46.3 34.7 53.3 63 0.7 2.6 1.2 5.3 1.7 8 12.4 68.2-23.6 164.6-54.9 231.5z" fill="#1C92FF" opacity=".1" p-id="5566"></path><path d="M254.3 344.2v367.1l-30.5 0.3c-6.5 0.1-13-0.9-19.2-2.8v-320h0.1c15-18.4 31.7-33.7 49.6-44.6z" fill="#1C92FF" opacity=".1" p-id="5567"></path><path d="M884.6 396.8H198.4c2-2.7 4.1-5.3 6.2-7.9v-0.1h678.2c0.7 2.6 1.3 5.3 1.8 8z" fill="#1C92FF" opacity=".1" p-id="5568"></path><path d="M829.5 325.8v307.6H827c-1.3 2.7-2.6 5.4-3.8 8-0.6 1.2-1.1 2.3-1.7 3.4V322.9c2.8 0.9 5.4 1.9 8 2.9zM638.9 322.3v384.8l-8 0.1V323.9c2.7-0.6 5.3-1.1 8-1.6zM446.6 358v351.2l-8 0.1V357.6c2.7 0.2 5.4 0.3 8 0.4z" fill="#1C92FF" opacity=".1" p-id="5569"></path><path d="M827 633.4c-1.3 2.7-2.6 5.4-3.8 8H147.4c-0.9-2.6-1.8-5.3-2.6-8H827z" fill="#1C92FF" opacity=".1" p-id="5570"></path><path d="M289.4 503.9h13.7v41.5h-13.7zM657.7 501.7h13.7v43.9h-13.7z" fill="#3F3D56" p-id="5571"></path><path d="M758.7 696.8v9.3l-109.5 1.1h-1.1l-41.6 0.4h-1l-12.7 0.1h-0.3l-77.1 0.7-126.5 1.2h-0.1l-32.1 0.3h-0.4l-142.9 1.3v-10.8l33.6-20.2 67.4-0.5 1.5-0.1h1.9l32.4-0.2 1.4-0.1h1.9l10.4-0.1h0.3l25.6-0.2h0.2l199.8-1.7H598.9l27.1-0.3h3.5l8.4-0.1H641.8l7-0.1 11.2-0.1h4.4l53.8-0.4z" fill="#65617D" p-id="5572"></path><path d="M758.7 696.8v9.3l-109.5 1.1h-1.1l-41.6 0.4h-1l-12.7 0.1h-0.3l-77.1 0.7-126.5 1.2h-0.1l-32.1 0.3h-0.4l-142.9 1.3v-10.8l33.6-20.2 67.4-0.5 1.5-0.1h1.9l32.4-0.2 1.4-0.1h1.9l10.4-0.1h0.3l25.6-0.2h0.2l199.8-1.7H598.9l27.1-0.3h3.5l8.4-0.1H641.8l7-0.1 11.2-0.1h4.4l53.8-0.4z" opacity=".2" p-id="5573"></path><path d="M350.3 660.8v17.6c0 1.7-1 3.3-2.5 4-0.6 0.3-1.2 0.4-1.8 0.4l-25.1 0.5c-0.7 0-1.3-0.1-1.9-0.4-1.6-0.7-2.6-2.3-2.6-4v-18.2h33.9v0.1z" fill="#3F3D56" p-id="5574"></path><path d="M350.3 660.8v17.6c0 1.7-1 3.3-2.5 4-0.6 0.3-1.2 0.4-1.8 0.4l-25.1 0.5c-0.7 0-1.3-0.1-1.9-0.4-1.6-0.7-2.6-2.3-2.6-4v-18.2h33.9v0.1z" opacity=".1" p-id="5575"></path><path d="M351.7 660.8v17.6c0 1.7-1 3.3-2.5 4-0.6 0.3-1.2 0.4-1.8 0.4l-25.1 0.5c-0.7 0-1.3-0.1-1.9-0.4-1.6-0.7-2.6-2.3-2.6-4v-18.2h33.9v0.1zM627.4 660.8h34v22.7h-34z" fill="#3F3D56" p-id="5576"></path><path d="M627.4 660.8h34v22.7h-34z" opacity=".1" p-id="5577"></path><path d="M626 660.8h34v22.7h-34z" fill="#3F3D56" p-id="5578"></path><path d="M303.1 503.9v4.1l-13.7-0.4v-3.7z" opacity=".1" p-id="5579"></path><path d="M393.2 387.6l-16.4 118.1c-0.2 1.6-1.6 2.7-3.1 2.7L241.9 505l-2.5-0.1c-1.7 0-3.1-1.5-3-3.2v-0.3l18.5-123.7c0.2-1.6 1.7-2.7 3.3-2.6l132.1 8.9c1.7 0.1 3 1.6 2.9 3.3v0.3z" fill="#65617D" p-id="5580"></path><path d="M263.7 383.8l-13.9 109 121 3.9 14.9-105.2z" fill="#1C92FF" p-id="5581"></path><path d="M417.8 382.1h139.7c2.1 0 3.8 1.7 3.8 3.8v117.2c0 2.1-1.7 3.8-3.8 3.8H417.8c-2.1 0-3.8-1.7-3.8-3.8V386c0-2.1 1.7-3.9 3.8-3.9z" fill="#65617D" p-id="5582"></path><path d="M421 390.6h134v104H421z" fill="#1C92FF" p-id="5583"></path><path d="M671.4 501.7v2.7l-13.7 0.3v-3z" opacity=".1" p-id="5584"></path><path d="M733.1 499.4c0.1 1.2-0.8 2.3-2.1 2.4h-0.1l-134.8 2.8c-1.2 0-2.1-0.9-2.3-2l-11.6-120.5c-0.1-1.2 0.8-2.3 2-2.4h0.1l133.8-6.7 1.4-0.1c1.2-0.1 2.2 0.8 2.3 2l11.3 124.5z" fill="#65617D" p-id="5585"></path><path d="M590 386.7l122.2-6 10.3 109.5-121.2 2.9z" fill="#1C92FF" p-id="5586"></path><path d="M733.1 499.4c0.1 1.2-0.8 2.3-2.1 2.4h-0.1L718.2 373l1.4-0.1c1.2-0.1 2.2 0.8 2.3 2l11.2 124.5zM258.2 375.1L241.9 505l-2.5-0.1c-1.7 0-3.1-1.5-3-3.2v-0.3l18.5-123.7c0.2-1.5 1.6-2.7 3.3-2.6zM289.4 533.1h13.7v12.3h-13.7zM351.7 660.8v3.5l-34 1v-4.5z" opacity=".1" p-id="5587"></path><path d="M411.7 537.4v121.1c0 1.5-1.2 2.8-2.8 2.8l-138 3.7c-1.6 0-2.8-1.3-2.8-2.8V537.4c0-1.6 1.3-2.8 2.8-2.8h138c1.5 0 2.7 1.2 2.8 2.8z" fill="#65617D" p-id="5588"></path><path d="M270.9 534.5V665c-1.6 0-2.8-1.3-2.8-2.8V537.4c-0.1-1.6 1.2-2.8 2.8-2.9z" opacity=".1" p-id="5589"></path><path d="M277.2 542.3H405v106.8l-127.8 2.8z" fill="#D4DFEC" p-id="5590"></path><path d="M657.7 533.1h13.7v12.5h-13.7zM660 660.8v4.6l-34-0.9v-3.7z" opacity=".1" p-id="5591"></path><path d="M704.8 537.4v124.8c0 1.6-1.3 2.8-2.9 2.8l-138.1-3.7c-1.5-0.1-2.8-1.3-2.8-2.8V537.4c0-1.6 1.3-2.8 2.8-2.8h138c1.7 0 3 1.2 3 2.8z" fill="#65617D" p-id="5592"></path><path d="M704.8 537.4v124.8c0 1.6-1.3 2.8-2.9 2.8V534.5c1.6 0 2.9 1.3 2.9 2.9z" opacity=".1" p-id="5593"></path><path d="M695.6 542.3H567.8v106.8l127.8 2.8z" fill="#D4DFEC" p-id="5594"></path><path d="M557.5 537.4v121.1c0 1.5-1.2 2.8-2.8 2.8l-138 3.7c-1.6 0-2.9-1.3-2.9-2.8V537.4c0-1.6 1.3-2.8 2.8-2.8h138c1.6 0 2.9 1.2 2.9 2.8z" fill="#65617D" p-id="5595"></path><path d="M423 542.3h127.9v106.8L423 651.9z" fill="#D4DFEC" p-id="5596"></path><path d="M758.7 696.8v9.3l-109.5 1.1h-1.1l-41.6 0.4h-1l-12.7 0.1h-0.3l-77.1 0.7-126.5 1.2h-0.1l-32.1 0.3h-0.4l-142.9 1.3v-10.8l145.9-1h0.3l29.5-0.2h0.2l203.9-1.3H593.8l3.5-0.1h1l53.7-0.3H655.9z" opacity=".1" p-id="5597"></path><path d="M488 508.4m-37 0a37 37 0 1 0 74 0 37 37 0 1 0-74 0Z" fill="#FBBEBE" p-id="5598"></path><path d="M356.2 563.6h308.3v146.8H356.2z" fill="#808080" p-id="5599"></path><path d="M356.2 438.5h308.3v125.1H356.2z" fill="#808080" p-id="5600"></path><path d="M356.2 438.2h308.3v0.3H356.2z" fill="#808080" p-id="5601"></path><path d="M524.9 584.1s-71.7 8.6-64.8 0c2.5-3.1 3.2-12.4 3-22.9 0-3.2-0.2-6.5-0.3-9.8-0.8-15.8-2.7-31.3-2.7-31.3s62.7-29.5 55.5-6.1c-2.9 9.5-1.9 22.7 0.3 35.2 0.6 3.6 1.4 7.2 2.2 10.6 1.8 8.1 4.1 16.2 6.8 24.3z" fill="#FBBEBE" p-id="5602"></path><path d="M524.9 584.1s-71.7 8.6-64.8 0c2.5-3.1 3.2-12.4 3-22.9 10.9-4.7 24.8-1.2 24.8-1.2 14.6-2.9 24-2.3 30-0.3 2 8.2 4.3 16.3 7 24.4z" opacity=".1" p-id="5603"></path><path d="M388.9 710.4v-0.6l126.5-1.4 77.1-0.7h0.2l-0.1 1.1 0.1-1.1h0.1v-0.1l1-9.7 0.4-3.7 0.1-1.1 0.1-1 4.5-14.8 4.5-14.8 3.7-12.5 5.7-19.1s-3.2-7.6-5-9.7-3.6-16.9-3.6-16.9-15.4-14.6-22.1-16.3c-2.8-0.7-8.4-1.7-14.3-2.9-2.2-0.4-4.5-0.9-6.7-1.4l-3.6-0.9c-2.3-0.6-4.5-1.3-6.7-2.1-1.1-0.4-2.2-1-3.2-1.6-5.3-3.9-18.6-4.3-19.1-4.3v-0.2-0.9c0-0.3 0-0.6-0.1-1 0-0.1 0-0.2-0.1-0.4 0-0.3-0.1-0.5-0.1-0.8 0-0.1-0.1-0.3-0.1-0.4-0.2-0.9-0.5-1.7-0.9-2.5-0.1-0.1-0.1-0.2-0.2-0.4-0.4-0.7-0.8-1.3-1.2-1.9-0.1-0.1-0.2-0.3-0.3-0.4-0.6-0.7-1.2-1.3-2-1.9-0.2-0.2-0.4-0.3-0.6-0.5-0.1-0.1-0.2-0.2-0.4-0.3l-0.6-0.4-0.6-0.3c-0.5-0.3-1.1-0.6-1.7-0.8-0.2-0.1-0.4-0.2-0.6-0.2-0.2-0.1-0.5-0.2-0.8-0.3l-0.5-0.2c-0.4-0.1-0.8-0.3-1.3-0.4l-0.7-0.2-0.7-0.2-0.7-0.2c-0.7-0.1-1.5-0.3-2.3-0.4l-0.8-0.1-0.8-0.1-0.9-0.1-1.2-0.1-1.4-0.1c-6.4 0-12.7 0.7-18.9 2-4.3-1-8.7-1.4-13.2-1.2H473l-0.9 0.1c-0.3 0-0.6 0.1-0.9 0.1s-0.6 0.1-0.9 0.1l-0.5 0.1c-0.5 0.1-0.9 0.2-1.4 0.3-0.2 0-0.3 0.1-0.5 0.1-0.6 0.1-1.3 0.3-1.9 0.5l-0.9 0.3c-0.2 0-0.3 0.1-0.5 0.2l-0.5 0.2-0.5 0.2-0.5 0.2c-0.3 0.1-0.5 0.2-0.8 0.4-0.2 0.1-0.3 0.1-0.4 0.2-0.1 0.1-0.3 0.1-0.4 0.2-1.6 0.8-3.1 1.9-4.5 3.2l-0.4 0.4-0.4 0.4c-0.1 0.1-0.2 0.3-0.4 0.4-0.5 0.5-0.9 1.1-1.3 1.6-0.1 0.2-0.2 0.3-0.3 0.5-0.5 0.7-0.9 1.4-1.2 2.1-0.1 0.2-0.2 0.4-0.3 0.5-0.6 1.2-1.1 2.5-1.4 3.8-0.1 0.5-0.3 1-0.4 1.4-0.2 0.7-15.2 6.7-27.9 11.6-3.4 1.3-6.5 2.5-9.2 3.4-0.8 0.3-1.5 0.5-2.2 0.7-1.5 0.5-3 0.9-4.5 1-0.7 0-1.4 0.1-2.2 0.2-5.8 0.9-15.8 5-16.9 9.2-0.1 0.3-0.1 0.7-0.1 1v0.1c0.7 5-4.3 4.3-4.3 4.3s-1.8 13.3-4.3 16.9c-1.8 2.6-3.1 8.4-3.2 12.7-0.1 1.4 0 2.7 0.3 4.1v0.1c0.3 1-0.4 3.6-1.6 7-1.3 3.7-3.1 8.3-4.9 12.7-2.7 6.6-5.2 12.5-5.4 13.8-0.1 0.6-0.3 1.6-0.5 3-1.1 5.5-3.4 15.9-4.5 20.2-0.9 3.2-2.1 7.5-3 10.4 0 0.1-0.1 0.2-0.1 0.3l32.3-0.3 0.2 0.6z" fill="#1C92FF" p-id="5604"></path><path d="M400.7 625.5s41.1 21.2 55.8 18.7l-55.8-18.7zM484.2 616.8s40 13 53.3 14.8c13.4 1.8-53.3-14.8-53.3-14.8zM528.6 575.1c-20.9 3.8-60.2 3-77.2 2.4 6.2-22.3 36.6-14.7 36.6-14.7 37.6-7.5 40.5 8.1 40.6 12.3z" opacity=".1" p-id="5605"></path><path d="M528.6 573.7c-20.9 3.8-60.2 3-77.2 2.4 6.2-22.3 36.6-14.7 36.6-14.7 37.6-7.5 40.5 8 40.6 12.3z" fill="#1C92FF" p-id="5606"></path><path d="M639.5 672.1s24.6-3.8 25.1 7-12.5 18.4-12.5 18.4l-12.6-25.4z" fill="#FBBEBE" p-id="5607"></path><path d="M499.4 431.4c-1.4-4.6-2.9-7.9-8.6-8.7l-0.1 16.6c5.2 1.9 11.5 4.6 11.5 11.8 0 5.8-4.1 10.2-11.4 11.1v6.2h-1.9v-6.1c-3.2 0-6.9-0.3-10.7-2.5-0.4-1.3-1.1-5.1-1.8-8.9l1.3-0.5c1.2 3.7 4.2 9.7 11.2 10.4v-17.9l-2.8-1.3c-4.1-1.9-7.9-4.5-7.9-9.8 0-4.9 3.4-9.6 10.7-10.3v-5.7h1.9l-0.1 5.6c1.4-0.1 3.8 0 8.6 1.2 0.4 2.2 0.8 4.6 1.4 8.5l-1.3 0.3z m-10.5-8.8c-5.1 0.3-7.4 3.8-7.4 7.4 0 4 2.7 6.8 7.4 8.5v-15.9z m1.9 38.1c5.3-0.3 7.5-4.1 7.5-8 0-2-0.1-7.1-7.5-9.2v17.2z" fill="#FFFFFF" p-id="5608"></path><path d="M515.8 549c-1.1 0.5-2.1 0.9-3.2 1.3-7.8 2.7-15.6 5.4-23.8 6.4-8.2 1-16.8 0.1-23.9-4-0.7-0.4-1.5-0.9-2.2-1.4-0.8-15.8-2.7-31.3-2.7-31.3s62.7-29.5 55.5-6.1c-2.8 9.4-1.9 22.7 0.3 35.1z" opacity=".1" p-id="5609"></path><path d="M477.8 450.7c-2.1 0.6-4.3 0.1-6-1.3l1.5 2.1c-1.8 0.2-3.6-0.4-4.9-1.6-0.1 1.9-0.1 3.7 0.2 5.6-2.5 0.1-4.9-0.6-6.9-2.2-0.1 1.3 0.7 2.6 1.9 3.1-5.2-0.6-10 2.7-11.2 7.7l3.8 0.3c-3 0.6-5.6 2.2-7.5 4.6-1.2 1.4-2 3.3-1.5 5 0.5 1.8 2.9 2.9 4.3 1.6-3.8 4.6-5.4 10.6-4.4 16.4 0.3 1.2 0.5 2.5 0.3 3.8-0.2 1.2-1 2.2-1.4 3.4-0.7 2.1 0 4.4 0.6 6.5l3.4 11.1c1.2 4 2.4 8 4 11.9 1.1 2.5 2.1 5 2.9 7.6 0.9 3.5 0.9 7.3 2.9 10.4 1.3 1.9 3.1 3.5 5.2 4.6 7.1 4.1 15.7 4.9 23.9 4 8.2-1 16-3.7 23.7-6.4 1.7-0.5 3.4-1.2 4.9-2.2 5.4-3.5 6.6-10.7 7.6-17 1.1-7.1 2.6-14.1 5.3-20.7 1.6-4 3.6-8 3.3-12.2-0.4-5.6-4.9-10.2-6-15.7-0.4-1.8-0.4-3.8 0.1-5.6 0.3-1.1 0.5-2.2 0.6-3.4-0.1-2.3-2-4.1-3.8-5.6-3.9-3.2-7.9-6.3-12-9.2-0.2-1.4 1.8-2.1 2.6-3.2 1.3-1.6 0-4.2-1.9-4.9-1.9-0.7-4-0.3-6 0.2 0.3-2.6-1.5-5-4.1-5.3-1.6-0.2-3.2 0.4-4.2 1.6-1.1-2.5-3.4-4.1-6.1-4.4-4.8-0.4-4.9 3.3-7.9 5.3-3.1 2-5.6-0.6-7.9-2.6-1.1 2.3-0.8 4.8 0.7 6.7z" fill="#3F3D56" p-id="5610"></path><path d="M657.7 693.7s-0.6 1.5-1.8 3.7c-1.8 3.4-4 6.6-6.5 9.5l-0.2 0.2H648l-41.6 0.4h-1l-0.1-0.1-8.1-9.6-3-3.6-0.1-0.2-0.3-0.3-0.1-0.2-0.2-0.2-5.9-7 2.2-9 3.7-15.2 0.1-0.4 0.7-2.9 0.5-2.2 1.7-7 5.9-24.2 10.4 5.4 11 19.4 5.9 10.4h3.2c0.6 0 2 1.2 3.4 2.5l1.4 1.4c1.3 1.3 2.3 2.5 2.3 2.5s5.3 0.1 6.7 4.2c0.1 0.2 0.1 0.4 0.2 0.6 0.5 1.6 1.1 3.2 1.8 4.7 0.9 2 2.1 4.3 3.3 6.6 2.2 4.2 4.4 8.2 5.3 9.7l0.1 0.2 0.3 0.7z" fill="#1C92FF" p-id="5611"></path><path d="M595.8 661.2l-0.1 1v0.1l-0.1 1.7-1 13.3-1.2 16.1-0.3 4.5-0.7 9.7v0.1l-77.1 0.7-126.5 1.4v0.6h-0.1v-0.8l0.3-10.3 0.6-20.2 0.5-17.1 0.1-1.7c0.1-4.2 3.6-7.5 7.8-7.3h0.4c3.4 0.3 7.8 0.6 13.1 1l2.2 0.2c30.5 2.1 86.8 4.9 143.7 1.4 1.2-0.1 2.4-0.1 3.6-0.2 8.8-0.6 17.6-1.3 26.3-2.2 4.2-0.4 7.9 2.6 8.3 6.8 0.3 0.3 0.3 0.7 0.2 1.2z" opacity=".1" p-id="5612"></path><path d="M388.9 710.4v-0.6l126.5-1.4 77.1-0.7h0.2v-0.1l0.7-9.7 0.3-4.3 1.2-16.3 0.9-12.9v-0.3c0-0.6 0-1.2-0.1-1.8v-0.1c-0.2-1.2-0.7-2.4-1.4-3.3-1.6-2.1-4.2-3.2-6.8-2.9-8.7 0.9-17.5 1.6-26.3 2.2-1.2 0.1-2.4 0.2-3.6 0.2-56.9 3.4-113.2 0.6-143.7-1.4l-2.2-0.2c-5.3-0.4-9.7-0.7-13.1-1-3.9-0.3-7.4 2.3-8.1 6.1-0.1 0.4-0.1 0.8-0.1 1.2l-0.5 16-0.7 20.2-0.3 10.3v0.8z" fill="#3F3D56" p-id="5613"></path><path d="M596 666.3l-0.9 11-1.3 16.5-0.3 4.1-0.7 9.2v0.6l-0.1 1.1 0.1-1.1h-0.2l-77.1 0.7-126.5 1.4v-0.2l0.4-10.3 0.6-20.3 0.5-13.4c0-1.6 0.9-3 2.2-3.8 0.8-0.5 1.8-0.7 2.7-0.6 1.5 0.1 3.4 0.3 5.5 0.4 3.5 0.3 7.9 0.6 12.9 0.9 9.4 0.6 21.1 1.2 34.6 1.7 37.5 1.4 88 1.9 136-2.3l6.6-0.6c0.9-0.1 1.7 0.1 2.5 0.5 0.2 0.1 0.4 0.2 0.6 0.4 0.6 0.5 1.1 1.1 1.4 1.8 0.1 0.1 0.1 0.3 0.2 0.4 0.3 0.6 0.4 1.2 0.3 1.9zM351.7 676.1v2.3c0 1.7-1 3.3-2.5 4l-28.9 0.6c-1.6-0.7-2.6-2.3-2.6-4v-2.2l34-0.7z" opacity=".1" p-id="5614"></path><path d="M352.1 683.8l-37.7 0.7v-6.3l37.7-0.7z" fill="#3F3D56" p-id="5615"></path><path d="M352.1 683.8l-37.7 0.7v-6.3l37.7-0.7z" opacity=".1" p-id="5616"></path><path d="M353.5 683.8l-37.6 0.7v-6.3l37.6-0.7z" fill="#3F3D56" p-id="5617"></path><path d="M478.1 448.3c-0.7-0.9-1.2-2-1.4-3.1-0.2 1.1-0.1 2.3 0.3 3.3 0.4-0.1 0.8-0.1 1.1-0.2zM469 453.1l-0.3-2.7v2.7h0.3zM527.7 477.1c0-0.6 0.1-1.3 0.3-1.9 0.3-1.1 0.5-2.2 0.6-3.4 0-0.3-0.1-0.5-0.1-0.8-0.1 0.7-0.3 1.3-0.5 2-0.4 1.4-0.5 2.7-0.3 4.1zM512.7 454.9l0.8 0.6c0.7-0.5 1.3-1 1.9-1.6 0.6-0.8 0.7-1.8 0.3-2.6-0.1 0.2-0.2 0.3-0.3 0.5-1 1-2.9 1.6-2.7 3.1zM453.5 461.8c-0.3 0.5-0.5 1.1-0.6 1.6 1.1-0.6 2.3-1.1 3.6-1.4l-3-0.2zM463.4 453.9c-0.5-0.3-0.9-0.6-1.4-0.9 0 0.3 0 0.6 0.1 0.8 0.5 0.1 0.9 0.1 1.3 0.1zM533.8 496.4c-0.3 3.5-1.9 6.9-3.2 10.2-2.6 6.6-4.1 13.7-5.3 20.8-1 6.3-2.2 13.5-7.6 17-1.5 0.9-3.2 1.6-4.9 2.2-7.8 2.7-15.6 5.4-23.8 6.4s-16.8 0.1-23.9-4c-2.1-1.1-3.8-2.6-5.2-4.6-1.9-3-2-6.9-2.9-10.4-0.8-2.6-1.7-5.1-2.9-7.6-1.6-3.9-2.8-7.9-4-11.9-1.1-3.7-2.3-7.4-3.4-11.1-0.4-1.1-0.6-2.3-0.8-3.4-0.3 1.8 0.3 3.8 0.8 5.6 1.1 3.7 2.2 7.4 3.4 11.1 1.2 4 2.4 8 4 11.9 1.1 2.5 2.1 5 2.9 7.6 0.9 3.5 0.9 7.3 2.9 10.4 1.3 1.9 3.1 3.5 5.2 4.6 7.1 4.1 15.7 4.9 23.9 4 8.2-1 16-3.7 23.8-6.4 1.7-0.5 3.4-1.2 4.9-2.2 5.4-3.5 6.6-10.7 7.6-17 1.1-7.1 2.6-14.1 5.3-20.8 1.6-3.9 3.6-8 3.3-12.2 0-0.1-0.1-0.2-0.1-0.2zM447.6 493.6s0-0.1 0 0c0.1-1.3 0-2.6-0.3-3.9l-0.3-2.4c-0.1 1.5 0 3.1 0.3 4.6 0.1 0.6 0.3 1.1 0.3 1.7zM449.8 476c0.6-0.9 1.2-1.8 1.9-2.6-1.3 1.3-3.8 0.1-4.3-1.6-0.2 0.7-0.2 1.5 0 2.2 0.4 1 1.3 1.8 2.4 2z" opacity=".1" p-id="5618"></path><path d="M629.7 660.8s2.3 8.3 0 15.5 0-15.5 0-15.5z" opacity=".1" p-id="5619"></path><path d="M639.5 669.2s1 10.5-1.2 12.4 1.2-12.4 1.2-12.4z" opacity=".1" p-id="5620"></path><path d="M280.307 558.663l73.2-0.678 0.013 1.4-73.2 0.678z" fill="#1C92FF" p-id="5621"></path><path d="M280.307 567.664l73.2-0.679 0.013 1.4-73.2 0.679z" fill="#1C92FF" p-id="5622"></path><path d="M280.307 576.664l73.2-0.678 0.013 1.4-73.2 0.678z" fill="#1C92FF" p-id="5623"></path><path d="M330.1 436.2c-0.6-4.8-1.5-8.3-7-10.1l-2.9 16.3c4.8 2.7 10.5 6.5 9.3 13.5-1 5.7-5.8 9.4-13.1 9l-1.1 6.1-1.9-0.3 1-6c-3.2-0.5-6.7-1.5-10.1-4.3-0.2-1.4-0.2-5.2-0.2-9.1l1.4-0.3c0.6 3.9 2.5 10.3 9.3 12.1l3-17.6-2.6-1.8c-3.7-2.6-7-5.8-6.1-11 0.8-4.8 5-8.9 12.3-8.3l1-5.6 1.9 0.3-1 5.5c1.4 0.2 3.7 0.6 8.3 2.7v8.6l-1.5 0.3z m-8.9-10.5c-5.1-0.6-7.9 2.5-8.5 6.1-0.7 3.9 1.6 7.2 5.8 9.6l2.7-15.7z m-4.6 37.9c5.3 0.6 8.1-2.8 8.7-6.7 0.3-2 1.1-7.1-5.8-10.3l-2.9 17z" fill="#FFFFFF" p-id="5624"></path><path d="M665.8 430c-2.1-4.3-4.1-7.4-9.8-7.3l2.5 16.4c5.4 1 12 2.8 13.1 9.9 0.9 5.7-2.5 10.8-9.6 12.7l0.9 6.1-1.9 0.3-0.9-6c-3.2 0.5-6.8 0.7-11-0.9-0.6-1.2-1.9-4.9-3.1-8.6l1.2-0.7c1.8 3.5 5.6 8.9 12.7 8.5l-2.7-17.7-3-0.9c-4.4-1.3-8.5-3.3-9.3-8.5-0.7-4.8 1.9-10 9-11.8l-0.9-5.5 1.9-0.3 0.8 5.6c1.4-0.3 3.7-0.6 8.7-0.1 0.7 2.1 1.4 4.4 2.7 8.1l-1.3 0.7z m-11.7-7.1c-5 1-6.7 4.9-6.1 8.5 0.6 3.9 3.8 6.3 8.6 7.2l-2.5-15.7z m7.7 37.3c5.2-1.1 6.8-5.2 6.2-9.1-0.3-2-1.2-7.1-8.8-8l2.6 17.1z" fill="#FFFFFF" p-id="5625"></path></svg>