<svg xmlns="http://www.w3.org/2000/svg" xmlns:xlink="http://www.w3.org/1999/xlink" width="213.281" height="200" class="icon" p-id="1796" t="1583228601651" version="1.1" viewBox="0 0 1092 1024"><defs><style type="text/css"/></defs><path d="M1092.266667 750.933333V0H0v750.933333h512v170.666667H273.066667v68.266667h546.133333v-68.266667H580.266667V750.933333H1092.266667zM68.266667 682.666667V68.266667h955.733333v614.4H68.266667z" p-id="1797"/><path d="M716.8 320.853333c0-116.053333-88.746667-204.8-204.8-204.8s-204.8 88.746667-204.8 204.8 88.746667 204.8 204.8 204.8c40.96 0 75.093333-13.653333 102.4-27.306666l129.706667 129.706666 47.786666-47.786666-122.88-129.706667c27.306667-34.133333 47.786667-81.92 47.786667-129.706667z m-341.333333 0c0-75.093333 61.44-136.533333 136.533333-136.533333s136.533333 61.44 136.533333 136.533333-61.44 136.533333-136.533333 136.533334-136.533333-61.44-136.533333-136.533334z" p-id="1798"/></svg>