<svg xmlns="http://www.w3.org/2000/svg" width="221.875" height="200"
     class="icon" p-id="8576" t="1546942580805" version="1.1" viewBox="0 0 1136 1024">
  <defs>
    <style type="text/css"/>
  </defs>
  <path d="M1064.197321 434.038381" p-id="8577"/>
  <path
    d="M352.865371 950.845687 204.097423 950.845687c-61.520215 0-111.576298-54.700824-111.576298-121.854624L92.521125 194.994108c0-67.14031 50.056083-121.854624 111.576298-121.854624l669.438901 0c61.513469 0 111.583043 54.714314 111.583043 121.854624l0 61.012976c0 20.184318 16.671421 36.569743 37.198395 36.569743 20.528323 0 37.183555-16.385425 37.183555-36.569743L1059.501318 194.994108c0-107.510295-83.384086-194.99411-185.966342-194.99411L204.097423-1.0e-06c-102.504012 0-185.959597 87.483815-185.959597 194.99411l0 633.996955c0 107.597983 83.455585 195.008949 185.959597 195.008949l148.767948 0c20.526974 0 37.198395-16.398915 37.198395-36.568394C390.063766 967.228414 373.392345 950.845687 352.865371 950.845687zM204.097423 292.576827c-20.528323 0-37.19165 16.385425-37.19165 36.571092s16.663327 36.569743 37.19165 36.569743l297.534546 0c20.526974 0 37.184904-16.385425 37.184904-36.569743s-16.657931-36.571092-37.184904-36.571092L204.097423 292.576827zM464.433575 548.570423c0-20.187016-16.656582-36.571092-37.183555-36.571092L204.097423 511.999331c-20.528323 0-37.19165 16.385425-37.19165 36.571092 0 20.184318 16.663327 36.569743 37.19165 36.569743l223.151247 0C447.776993 585.141514 464.433575 568.754741 464.433575 548.570423zM910.999131 616.769728c56.113267-39.896472 92.704595-104.785237 92.704595-177.911232 0-120.983145-100.109468-219.422504-223.135058-219.422504-123.024241 0-223.151247 98.439358-223.151247 219.422504 0 73.127344 36.598073 138.016109 92.716736 177.912581-118.430764 58.343228-204.299779 187.063111-204.299779 297.50082 0 20.185667 16.670072 36.572441 37.198395 36.572441 20.541813 0 37.199744-16.386774 37.199744-36.572441 0-101.153624 116.624401-255.990897 260.336151-255.990897S1040.904818 813.118273 1040.904818 914.271897c0 20.185667 16.657931 36.572441 37.197046 36.572441 20.529672 0 37.199744-16.386774 37.199744-36.572441C1115.301608 803.832839 1029.429895 675.111608 910.999131 616.769728zM780.567318 585.141514c-82.111942 0-148.766598-65.541699-148.766598-146.283018 0-80.684659 66.654656-146.283018 148.766598-146.283018s148.766598 65.598359 148.766598 146.283018C929.333916 519.599815 862.67926 585.141514 780.567318 585.141514z"
    p-id="8578"/>
</svg>
