<?xml version="1.0" standalone="no"?><!DOCTYPE svg PUBLIC "-//W3C//DTD SVG 1.1//EN" "http://www.w3.org/Graphics/SVG/1.1/DTD/svg11.dtd"><svg t="1558508660768" class="icon" style="" viewBox="0 0 1024 1024" version="1.1" xmlns="http://www.w3.org/2000/svg" p-id="2674" xmlns:xlink="http://www.w3.org/1999/xlink" width="200" height="200"><defs><style type="text/css"></style></defs><path d="M392.883014 372.240582a115.732981 115.732981 0 0 0 38.57766-87.307337 112.348976 112.348976 0 0 0-108.288169-115.732981 112.348976 112.348976 0 0 0-108.96497 115.732981A118.440185 118.440185 0 0 0 252.785195 372.240582 163.109055 163.109055 0 0 0 171.569068 515.722406a23.011236 23.011236 0 0 0 20.980833 25.71844 23.011236 23.011236 0 0 0 21.657634-23.688037 112.348976 112.348976 0 0 1 108.96497-115.05618 111.672174 111.672174 0 0 1 108.288169 115.05618 21.657634 21.657634 0 1 0 43.315268 0A163.109055 163.109055 0 0 0 392.883014 372.240582z m-135.360212-87.307337a67.680106 67.680106 0 0 1 67.680106-67.680106 67.680106 67.680106 0 0 1 67.680106 67.680106 67.680106 67.680106 0 0 1-67.680106 67.680106 67.680106 67.680106 0 0 1-67.680106-67.680106z m195.595506 313.35889H192.549901a23.011236 23.011236 0 0 0 0 46.022472h260.568407a23.011236 23.011236 0 0 0 0-46.022472zM366.487773 710.64111H192.549901a23.011236 23.011236 0 0 0 0 46.022472h173.937872a23.011236 23.011236 0 0 0 0-46.022472zM374.609385 913.681428h46.699273a33.840053 33.840053 0 0 1 33.840053 33.840053 33.840053 33.840053 0 0 1-33.840053 33.840052H374.609385a33.840053 33.840053 0 0 1-33.840053-33.840052 33.840053 33.840053 0 0 1 33.840053-33.840053z" p-id="2675"></path><path d="M882.210178 450.749504v47.376074a33.840053 33.840053 0 0 1-33.840052 33.840053 33.840053 33.840053 0 0 1-33.840053-33.840053v-47.376074a33.840053 33.840053 0 0 1 33.840053-33.840053 33.840053 33.840053 0 0 1 33.840052 33.840053z" p-id="2676"></path><path d="M983.730337 676.801058l4.060806 10.152015-48.729676 58.881692a29.779247 29.779247 0 0 0 0 35.870456l48.729676 56.851289-4.060806 10.152016a238.910773 238.910773 0 0 1-44.66887 78.508923l-8.121612 8.121612-73.771316-12.182419a28.425644 28.425644 0 0 0-30.456047 18.273629l-27.072043 73.771315h-10.152015a270.720423 270.720423 0 0 1-114.379379 0h-12.182419l-24.364838-67.680105a27.748843 27.748843 0 0 0-29.779247-18.273629l-76.478519 12.182419-8.121613-8.121613a116.409782 116.409782 0 0 1-23.688037-34.516854 198.979511 198.979511 0 0 1-20.304032-46.022472l-4.060806-10.152015 50.083278-56.851289a26.395241 26.395241 0 0 0 0-33.840053l-48.052875-58.881692 4.060806-10.152016a251.769993 251.769993 0 0 1 46.022472-80.539326l8.121613-8.121613 72.417713 12.18242a31.80965 31.80965 0 0 0 31.80965-18.273629l26.395241-67.680106h10.152016a261.922009 261.922009 0 0 1 112.348976 0h12.182419l23.688037 67.680106a31.132849 31.132849 0 0 0 32.48645 20.304032l73.771316-10.152016 8.121612 8.121613a143.481824 143.481824 0 0 1 24.364838 36.547257 379.008592 379.008592 0 0 1 19.627231 33.840053z m-75.801718-13.536022a129.945803 129.945803 0 0 0-12.182419-19.62723l-47.376074 5.414408A63.619299 63.619299 0 0 1 780.69002 609.120952l-14.212822-41.961666a213.192333 213.192333 0 0 0-67.680106 0L683.907469 609.120952a61.588896 61.588896 0 0 1-67.680106 39.931262l-45.345671-7.444811a189.504296 189.504296 0 0 0-25.041639 43.992068l30.456047 35.870456a62.942498 62.942498 0 0 1 0 78.508923l-30.456047 36.547257a142.128222 142.128222 0 0 0 12.182419 25.041639 73.771315 73.771315 0 0 0 12.85922 18.273629l48.729676-7.444812a63.619299 63.619299 0 0 1 67.680106 41.961666l14.212822 43.992068a222.667548 222.667548 0 0 0 67.680106 0l16.243225-46.022471a61.588896 61.588896 0 0 1 67.680106-39.931263l45.345671 7.444812a157.694646 157.694646 0 0 0 23.688037-43.315268l-29.102446-34.516854a67.680106 67.680106 0 0 1 0-78.508923l31.132849-36.547257z m-174.614673 193.565103a91.368143 91.368143 0 1 1 90.01454-91.368143 90.691342 90.691342 0 0 1-90.01454 91.368143z m0-40.608064a50.760079 50.760079 0 0 0 0-100.843357 50.760079 50.760079 0 0 0 0 100.843357z" p-id="2677"></path></svg>