<svg xmlns="http://www.w3.org/2000/svg" xmlns:xlink="http://www.w3.org/1999/xlink" width="221.094" height="200" class="icon" p-id="1964" t="1560302090615" version="1.1" viewBox="0 0 1132 1024"><defs><style type="text/css"/></defs><path d="M744.412 301.355L590.448 34.674h-50.626l-153.976 266.68-30.022-17.33L519.799 0h90.66l163.975 284.024-30.022 17.33z m15.182 673.561l-0.126-34.66 307.94-1.05 25.168-43.927-154.874-266.163 29.97-17.444L1132.61 895.14l-45.064 78.664-327.951 1.112z m-386.566 0l-327.964-1.112L0 895.14l164.949-283.468 29.958 17.444L40.033 895.28l25.168 43.927 307.94 1.05-0.113 34.66zM351.4 678.504l206.663-357.948 206.663 357.948H351.4z m597.5-404.086l4.437 96.802a17.343 17.343 0 0 0 8.103 13.905l81.735 51.334-306.538 66.718zM648.545 1024l-85.123-46.316a17.343 17.343 0 0 0-16.079-0.265l-86.222 43.358 101.594-296.805zM380.726 513.997L74.188 447.28l81.735-51.334a17.343 17.343 0 0 0 8.103-13.904l4.437-96.803z" p-id="1965"/></svg>