<svg xmlns="http://www.w3.org/2000/svg" xmlns:xlink="http://www.w3.org/1999/xlink" width="300" height="300" class="icon" p-id="1824" t="1579051924885" version="1.1" viewBox="0 0 1024 1024"><defs><style type="text/css"/></defs><path d="M715 448.56h80.47a40.22 40.22 0 0 1 40.2 40.24v281.63a40.24 40.24 0 0 1-40.2 40.24H232.23A40.24 40.24 0 0 1 192 770.43V488.8a40.22 40.22 0 0 1 40.22-40.24h80.42l17.62-341.3a21.93 21.93 0 1 1 43.86 0l19 341.31H634.5l17.62-341.31a21.93 21.93 0 0 1 43.86 0z m20 201.16a20.06 20.06 0 0 0-20 20.06v80.47a20.12 20.12 0 0 0 40.23 0v-80.41a20 20 0 0 0-20-20.1h-0.11z m-80.46 0a20.06 20.06 0 0 0-20.06 20.06v80.47a20.12 20.12 0 0 0 40.23 0v-80.41a20.06 20.06 0 0 0-20-20.1h-0.11zM292.53 529a20.06 20.06 0 1 0 20.06 20.06A20.06 20.06 0 0 0 292.53 529z m80.47 0a20.06 20.06 0 1 0 20.07 20.06A20.06 20.06 0 0 0 373 529z m80.47 0a20.06 20.06 0 1 0 20.06 20.06A20.06 20.06 0 0 0 453.46 529z" p-id="1825"/></svg>