<svg xmlns="http://www.w3.org/2000/svg" xmlns:xlink="http://www.w3.org/1999/xlink" width="200" height="200" class="icon" p-id="2384" t="1569207362321" version="1.1" viewBox="0 0 1024 1024"><defs><style type="text/css"/></defs><path d="M877.9 92.1H146.1c-45.3 0-82.1 36.4-82.1 81.2v520.4c0 44.8 36.8 81.3 82.1 81.3h263.2v90.4h-99.2c-5.2 0-9.3 4.1-9.3 9.2v48c0 5.1 4.2 9.2 9.3 9.2h406.7c5.2 0 9.3-4.1 9.3-9.2v-48c0-5.1-4.2-9.2-9.3-9.2H614.7V775h263.2c45.3 0 82.1-36.4 82.1-81.3V173.4c0-44.8-36.8-81.3-82.1-81.3z m-0.1 561.1H146.1V173.4h731.8l-0.1 479.8z m0.1 81.2v-40.6 40.6zM512 360.5c-32.9 0-59.5 26.4-59.5 58.9s26.6 58.9 59.5 58.9 59.5-26.4 59.5-58.9-26.6-58.9-59.5-58.9z m0-86.3c-115.7 0-203.4 124.2-207.1 129.5L294 419.4l10.9 15.7c3.7 5.3 91.4 129.5 207.1 129.5 115.7 0 203.4-124.2 207.1-129.5l10.9-15.7-10.9-15.7c-3.7-5.3-91.4-129.5-207.1-129.5z m0 235c-65.6 0-124.2-60.6-148.7-90 28.8-34.5 87.6-89.7 148.7-89.7 65.6 0 124.2 60.6 148.8 89.9-28.8 34.7-87.7 89.8-148.8 89.8z" p-id="2385"/></svg>