<?xml version="1.0" standalone="no"?><!DOCTYPE svg PUBLIC "-//W3C//DTD SVG 1.1//EN" "http://www.w3.org/Graphics/SVG/1.1/DTD/svg11.dtd"><svg t="1562049238336" class="icon" viewBox="0 0 1024 1024" version="1.1" xmlns="http://www.w3.org/2000/svg" p-id="1387" xmlns:xlink="http://www.w3.org/1999/xlink" width="200" height="200"><defs><style type="text/css"></style></defs><path d="M512 434.08a272 272 0 0 1 261.76-16 266.72 266.72 0 1 0-523.52 0 272 272 0 0 1 261.76 16zM308.96 446.88a218.56 218.56 0 0 0 100.64 112 269.6 269.6 0 0 1 62.08-92.8 224 224 0 0 0-162.72-19.2zM584.8 657.44a211.52 211.52 0 0 0-2.72-33.6 270.4 270.4 0 0 1-140.16 0 211.52 211.52 0 0 0-2.72 33.6A216.32 216.32 0 0 0 512 820.16a216.32 216.32 0 0 0 72.8-162.72zM715.04 446.88a223.04 223.04 0 0 0-162.72 19.36 267.52 267.52 0 0 1 62.08 92.8 218.56 218.56 0 0 0 100.64-112.16zM569.44 576.96A221.28 221.28 0 0 0 512 494.88a221.28 221.28 0 0 0-57.44 82.08 221.92 221.92 0 0 0 114.88 0z" p-id="1388"></path><path d="M773.76 417.76a266.56 266.56 0 0 1-145.44 188.64 269.28 269.28 0 0 1-101.76 266.08l-13.76 10.4a265.28 265.28 0 0 0 144 43.04 267.04 267.04 0 0 0 116.32-508.16zM390.72 657.44a268 268 0 0 1 4.96-51.04 266.56 266.56 0 0 1-145.44-188.64 267.04 267.04 0 0 0 116.32 508.16 265.28 265.28 0 0 0 144-43.04l-13.76-10.4a267.52 267.52 0 0 1-106.08-215.04z" p-id="1389"></path></svg>