<svg xmlns="http://www.w3.org/2000/svg" xmlns:xlink="http://www.w3.org/1999/xlink" width="201.953" height="200" class="icon" p-id="8013" t="1548743275668" version="1.1" viewBox="0 0 1034 1024"><defs><style type="text/css"/></defs><path d="M75.665025 559.921182s0-5.044335 0 0c0-15.133005-5.044335-30.26601-5.044335-45.399015 0-242.128079 196.729064-443.901478 443.901477-443.901477 141.241379 0 272.394089 70.62069 358.147784 181.596059h-151.33005c-20.17734 0-35.310345 15.133005-35.310344 35.310345 0 20.17734 15.133005 35.310345 35.310344 35.310344h272.394089C968.512315 252.216749 923.1133 201.773399 923.1133 201.773399c-95.842365-126.108374-247.172414-201.773399-403.546798-201.773399C237.083744 0 10.08867 226.995074 10.08867 509.477833v45.399014c0 20.17734 20.17734 35.310345 35.310345 30.26601 15.133005 0 30.26601-10.08867 30.26601-25.221675z m948.334975-70.620689c0-20.17734-20.17734-30.26601-40.35468-30.26601-15.133005 0-30.26601 15.133005-30.26601 30.26601V504.433498c0 242.128079-196.729064 443.901478-443.901477 443.901477-131.152709 0-257.261084-60.53202-343.014779-161.418719h161.418719c20.17734-5.044335 30.26601-20.17734 30.26601-40.35468 0-15.133005-15.133005-25.221675-30.26601-30.266009H55.487685s10.08867 45.399015 65.576354 110.975369c95.842365 110.975369 232.039409 186.640394 393.458128 186.640394 282.482759 0 509.477833-226.995074 509.477833-509.477832 5.044335 0 5.044335-5.044335 0-15.133005z" p-id="8014"/><path d="M75.665025 559.921182s0-5.044335 0 0c0-15.133005-5.044335-30.26601-5.044335-45.399015 0-242.128079 196.729064-443.901478 443.901477-443.901477 141.241379 0 272.394089 70.62069 358.147784 181.596059h-151.33005c-20.17734 0-35.310345 15.133005-35.310344 35.310345 0 20.17734 15.133005 35.310345 35.310344 35.310344h272.394089C968.512315 252.216749 923.1133 201.773399 923.1133 201.773399c-95.842365-126.108374-247.172414-201.773399-403.546798-201.773399C237.083744 0 10.08867 226.995074 10.08867 509.477833v45.399014c0 20.17734 20.17734 35.310345 35.310345 30.26601 15.133005 0 30.26601-10.08867 30.26601-25.221675z m948.334975-70.620689c0-20.17734-20.17734-30.26601-40.35468-30.26601-15.133005 0-30.26601 15.133005-30.26601 30.26601V504.433498c0 242.128079-196.729064 443.901478-443.901477 443.901477-131.152709 0-257.261084-60.53202-343.014779-161.418719h161.418719c20.17734-5.044335 30.26601-20.17734 30.26601-40.35468 0-15.133005-15.133005-25.221675-30.26601-30.266009H55.487685s10.08867 45.399015 65.576354 110.975369c95.842365 110.975369 232.039409 186.640394 393.458128 186.640394 282.482759 0 509.477833-226.995074 509.477833-509.477832 5.044335 0 5.044335-5.044335 0-15.133005z" p-id="8015"/><path d="M514.522167 1024c-151.330049 0-297.615764-70.62069-398.502463-186.640394C55.487685 766.738916 45.399015 721.339901 45.399015 721.339901v-5.044334h272.394088l10.08867 5.044334v-5.044334h5.044335c15.133005 5.044335 25.221675 15.133005 30.26601 30.266009 5.044335 20.17734-10.08867 40.35468-30.26601 45.399015H186.640394c80.70936 95.842365 201.773399 151.330049 332.926108 151.330049 242.128079 0 438.857143-196.729064 438.857143-438.857142v-5.044335-10.08867c0-20.17734 15.133005-35.310345 35.310345-35.310345 20.17734 0 40.35468 15.133005 40.35468 30.26601v25.221675c0 287.527094-232.039409 514.522167-519.566503 514.522167zM40.35468 595.231527c-20.17734 0-35.310345-15.133005-40.35468-35.310345v-45.399015C0 232.039409 232.039409 0 514.522167 0c161.418719 0 312.748768 75.665025 408.591133 201.773399 0 0 45.399015 55.487685 70.62069 121.064039v5.044335h-272.394089c-25.221675 0-40.35468-15.133005-40.354679-40.354679 0-20.17734 15.133005-40.35468 40.354679-40.35468h141.24138c-80.70936-110.975369-211.862069-171.507389-348.059114-171.507389-242.128079 0-438.857143 196.729064-438.857142 438.857142 0 15.133005 0 30.26601 5.044335 45.399015 0 15.133005-15.133005 30.26601-40.35468 35.310345z" p-id="8016"/></svg>