<svg xmlns="http://www.w3.org/2000/svg" xmlns:xlink="http://www.w3.org/1999/xlink" width="134.375" height="128" class="icon" p-id="3412" t="1577330737348" version="1.1" viewBox="0 0 1075 1024"><defs><style type="text/css"/></defs><path fill="#1296db" d="M197.832802 0.000215a116.119253 116.119253 0 1 0 115.904217 116.119253A116.119253 116.119253 0 0 0 197.832802 0.000215z m255.677393 504.473645L559.092701 467.702763l8.601426-2.795464 7.741283 4.300713 79.133121 49.458201 64.510696-186.865984 10.751783-28.16967 21.503566 21.503565 59.994947 64.510696 87.519511-150.524958 31.825277 18.493067-99.561508 172.028523-12.041996 21.503565-16.987817-17.632923-55.694235-60.209983-63.005446 180.414913-7.741284 21.503566-18.923137-12.041997-91.175118-57.199484-96.120937 33.115491zM473.078439 960.994553h353.518615v62.36034H473.078439z m222.131831-201.703443H1075.178271V32.470599H373.08686v74.402336h629.40936v580.596266H403.406887v74.402337h191.381732v182.56527h101.066758v-185.145698zM0 563.393629l73.542194 56.124306L49.4582 1024h106.012578l17.632924-345.992367h45.157487l21.503565 345.992367h99.99158l-15.482568-404.482065-8.601426-247.721074L559.092701 367.281112l51.178485-91.820224-271.805066-12.902139H215.035654l9.246533 15.482567-12.687103 24.083993 26.019314 186.865984-39.781596 41.716916v2.795464l-1.50525-2.150357-2.795463 2.150357v-3.655606l-40.856775-43.007131 26.019315-186.865983-11.826961-24.729101 9.031497-15.697602H55.90927z m0 0" p-id="3413"/></svg>