<svg xmlns="http://www.w3.org/2000/svg" width="200" height="200" class="icon"
     p-id="5369" t="1566807237584" version="1.1" viewBox="0 0 1024 1024">
  <defs>
    <style type="text/css"/>
  </defs>
  <path fill="#dbdbdb"
        d="M926.071467 660.821333c-1.262933 0-2.525867 0-3.618134-0.1024a448.648533 448.648533 0 0 1-299.690666 254.8736 83.899733 83.899733 0 0 1-82.6368 69.802667h-55.978667a84.002133 84.002133 0 0 1-83.933867-83.968 84.002133 84.002133 0 0 1 83.968-83.899733h55.944534c31.3344 0 58.743467 17.2032 73.147733 42.8032a392.567467 392.567467 0 0 0 256.136533-217.668267 97.757867 97.757867 0 0 1-41.130666-79.735467V490.154667c0-43.1104 27.8528-79.598933 66.4576-92.7744C855.995733 221.730133 699.323733 90.112 512 90.112c-187.323733 0-343.995733 131.652267-382.600533 307.336533a98.030933 98.030933 0 0 1 66.4576 92.7744v72.704a97.860267 97.860267 0 0 1-97.962667 97.962667A97.860267 97.860267 0 0 1 0 562.858667v-72.704c0-45.329067 30.788267-83.524267 72.6016-94.549334C112.878933 189.508267 294.331733 34.133333 512 34.133333c217.668267 0 399.121067 155.409067 439.261867 361.472A98.030933 98.030933 0 0 1 1024 490.154667v72.772266a97.860267 97.860267 0 0 1-97.928533 97.928534zM539.989333 873.472h-55.978666c-15.36 0-27.989333 12.5952-27.989334 27.989333 0 15.36 12.629333 27.989333 27.989334 27.989334h55.978666c15.36 0 27.989333-12.629333 27.989334-27.989334 0-15.394133-12.629333-27.989333-27.989334-27.989333zM97.928533 448.2048c-23.210667 0-41.984 18.773333-41.984 41.984v72.704c0 23.2448 18.773333 41.984 41.984 41.984 23.210667 0 41.984-18.7392 41.984-41.984v-72.704c0-23.210667-18.773333-41.984-41.984-41.984z m870.126934 41.984c0-23.210667-18.773333-41.984-41.984-41.984-23.210667 0-41.984 18.773333-41.984 41.984v72.704c0 23.2448 18.773333 41.984 41.984 41.984 23.210667 0 41.984-18.7392 41.984-41.984v-72.704z"
        p-id="5370"/>
  <path fill="#dbdbdb"
        d="M345.531733 628.667733c6.144 0 11.741867 1.9456 16.384 5.3248l0.136534-0.136533 0.955733 0.955733a33.450667 33.450667 0 0 1 3.242667 3.072 211.797333 211.797333 0 0 0 144.349866 56.5248c56.251733 0 107.281067-21.845333 145.339734-57.344a23.210667 23.210667 0 0 1 3.754666-3.652266l0.170667-0.136534a27.648 27.648 0 0 1 17.2032-6.007466c15.36 0 27.989333 12.5952 27.989333 27.989333a27.374933 27.374933 0 0 1-6.007466 17.2032l0.273066 0.273067a267.502933 267.502933 0 0 1-188.859733 77.482666 267.639467 267.639467 0 0 1-188.142933-76.936533l0.4096-0.4096a27.579733 27.579733 0 0 1-5.3248-16.384 28.228267 28.228267 0 0 1 28.125866-27.818667z"
        p-id="5371"/>
</svg>
