<?xml version="1.0" standalone="no"?><!DOCTYPE svg PUBLIC "-//W3C//DTD SVG 1.1//EN" "http://www.w3.org/Graphics/SVG/1.1/DTD/svg11.dtd"><svg t="1565318439432" class="icon" viewBox="0 0 1024 1024" version="1.1" xmlns="http://www.w3.org/2000/svg" p-id="945" xmlns:xlink="http://www.w3.org/1999/xlink" width="200" height="200"><defs><style type="text/css"></style></defs><path d="M928 150.613333h-384V85.333333h-64v65.28h-384a32.853333 32.853333 0 0 0-32 32.853334v522.666666a32.426667 32.426667 0 0 0 32 32.426667h384v51.626667l-152.746667 91.306666 32 57.173334 143.786667-85.333334h19.2l144.213333 85.333334 32-57.173334-154.453333-91.306666v-51.626667h384a32.426667 32.426667 0 0 0 32-32.426667V183.466667a32.853333 32.853333 0 0 0-32-32.853334zM896 673.28H128V215.893333h768z m-105.813333-392.106667l42.666666 49.066667-316.586666 276.906667-164.266667-140.373334-118.186667 101.12-42.666666-49.92L352.853333 384l162.986667 140.373333z" p-id="946" fill="#1296db"></path></svg>