<?xml version="1.0" standalone="no"?><!DOCTYPE svg PUBLIC "-//W3C//DTD SVG 1.1//EN" "http://www.w3.org/Graphics/SVG/1.1/DTD/svg11.dtd"><svg t="1546942378691" class="icon" style="" viewBox="0 0 1024 1024" version="1.1" xmlns="http://www.w3.org/2000/svg" p-id="7274" xmlns:xlink="http://www.w3.org/1999/xlink" width="200" height="200"><defs><style type="text/css"></style></defs><path d="M620.229468 64.303538c-225.738277 0-492.221538 0-492.221538 0l0 895.392924 767.985162 0c0 0 0-349.672938 0-614.924137L620.229468 64.303538zM831.715137 895.740848l-639.310547 0L192.40459 128.791272l394.561287 0 21.036106 21.629623 0 201.849194 196.298781 0 27.415396 28.191062L831.71616 895.740848z" p-id="7275"></path><path d="M287.765471 447.975824l447.811072 0 0 31.985482-447.811072 0 0-31.985482Z" p-id="7276"></path><path d="M287.826869 639.856993l351.885326 0 0 31.971156-351.885326 0 0-31.971156Z" p-id="7277"></path><path d="M287.765471 543.909757l447.811072 0 0 31.985482-447.811072 0 0-31.985482Z" p-id="7278"></path><path d="M287.965016 352.050078l223.928049 0 0 31.977295-223.928049 0 0-31.977295Z" p-id="7279"></path><path d="M287.965016 256.108982l223.928049 0 0 31.978319-223.928049 0 0-31.978319Z" p-id="7280"></path><path d="M735.896838 736.003773 703.926706 672.040996 671.942247 736.003773 608.000959 736.003773 652.776745 795.5868 639.971092 863.915002 703.926706 831.943846 767.883343 863.915002 755.075643 795.5868 799.853475 736.003773Z" p-id="7281"></path><path d="M288.04074 735.783763l159.942759 0 0 31.978319-159.942759 0 0-31.978319Z" p-id="7282"></path></svg>