<svg xmlns="http://www.w3.org/2000/svg" width="260.938" height="200"
     class="icon" p-id="1251" t="1566013515381" version="1.1" viewBox="0 0 1336 1024">
  <defs>
    <style type="text/css"/>
  </defs>
  <path fill="#666"
        d="M1166.222222 0H170.666667A170.666667 170.666667 0 0 0 0 170.666667v682.666666A170.666667 170.666667 0 0 0 170.666667 1024h995.555555a170.666667 170.666667 0 0 0 170.666667-170.666667v-682.666666a170.666667 170.666667 0 0 0-170.666667-170.666667z m56.888889 853.333333a56.888889 56.888889 0 0 1-56.888889 56.888889H170.666667a56.888889 56.888889 0 0 1-56.888889-56.888889v-682.666666a56.888889 56.888889 0 0 1 56.888889-56.888889h995.555555a56.888889 56.888889 0 0 1 56.888889 56.888889z"
        p-id="1252"/>
  <path fill="#666"
        d="M246.897778 327.68h98.986666V739.555556h-98.986666zM610.986667 319.715556a186.595556 186.595556 0 0 0-188.871111 211.626666 190.008889 190.008889 0 1 0 374.328888 0 186.595556 186.595556 0 0 0-185.457777-211.626666z m0 341.333333c-54.613333 0-87.608889-50.062222-87.608889-130.844445s32.995556-127.431111 87.608889-127.431111 87.608889 46.648889 87.608889 127.431111-34.133333 131.982222-87.608889 131.982223zM826.026667 409.6h111.502222v329.955556h98.986667V409.6h112.64v-81.92H826.026667v81.92z"
        p-id="1253"/>
</svg>
