<svg xmlns="http://www.w3.org/2000/svg" width="200" height="200" class="icon"
     p-id="3340" t="1548743052049" version="1.1" viewBox="0 0 1024 1024">
  <defs>
    <style type="text/css"/>
  </defs>
  <path d="M192.5 192.2m-64 0a64 64 0 1 0 128 0 64 64 0 1 0-128 0Z" p-id="3341"/>
  <path d="M320.5 127.9h575.3v128.3H320.5z" p-id="3342"/>
  <path d="M192.5 448.3m-64 0a64 64 0 1 0 128 0 64 64 0 1 0-128 0Z" p-id="3343"/>
  <path d="M320.5 384.1h575.3v128.3H320.5z" p-id="3344"/>
  <path d="M192.5 704m-64 0a64 64 0 1 0 128 0 64 64 0 1 0-128 0Z" p-id="3345"/>
  <path d="M320.5 639.7h575.3V768H320.5z" p-id="3346"/>
</svg>
