<?xml version="1.0" standalone="no"?><!DOCTYPE svg PUBLIC "-//W3C//DTD SVG 1.1//EN" "http://www.w3.org/Graphics/SVG/1.1/DTD/svg11.dtd"><svg t="1548743227287" class="icon" style="" viewBox="0 0 1024 1024" version="1.1" xmlns="http://www.w3.org/2000/svg" p-id="7174" xmlns:xlink="http://www.w3.org/1999/xlink" width="200" height="200"><defs><style type="text/css"></style></defs><path d="M456 160v-48c0-26.432-18.88-48-41.984-48H273.984C250.88 64 232 85.568 232 112v48H64v64h168v48c0 26.432 18.88 48 41.984 48h140.032C437.12 320 456 298.432 456 272v-48h504v-64H456z m-168 96V128h112v128H288z m168 544v-48c0-26.368-18.88-48-41.984-48H274.048c-23.104 0-41.984 21.632-41.984 48v48H64v64h168v48c0 26.368 18.88 48 41.984 48h140.032C437.12 960 456 938.368 456 912v-48h504v-64H456z m-168 96V768h112v128H288z m504-464c0-26.368-18.88-48-41.984-48H609.984C586.88 384 568 405.632 568 432v48H64v64h504v48c0 26.368 18.88 48 41.984 48h140.032C773.12 640 792 618.368 792 592v-48h168v-64H792v-48zM624 576V448h112v128H624z" p-id="7175"></path></svg>