<?xml version="1.0" standalone="no"?><!DOCTYPE svg PUBLIC "-//W3C//DTD SVG 1.1//EN" "http://www.w3.org/Graphics/SVG/1.1/DTD/svg11.dtd"><svg t="1557987755393" class="icon" style="" viewBox="0 0 1024 1024" version="1.1" xmlns="http://www.w3.org/2000/svg" p-id="4067" xmlns:xlink="http://www.w3.org/1999/xlink" width="200" height="200"><defs><style type="text/css"></style></defs><path d="M971.546227 34.798601c-23.028486-20.469765-52.197901-34.798601-84.437781-34.798601h-747.146427C72.923538 0 17.655172 55.268366 17.655172 122.306847v779.386306c0 67.038481 55.268366 122.306847 122.306847 122.306847h744.587706c67.038481 0 122.306847-55.268366 122.306847-122.306847V122.306847c-0.511744-35.310345-14.84058-63.968016-35.310345-87.508246zM93.393303 139.706147c0-34.798601 26.098951-60.897551 60.897552-60.897551h712.347826c17.3993 0 31.728136 5.629185 43.498251 17.3993s17.3993 26.098951 17.3993 43.498251V660.149925h-834.142929V139.706147z m834.654673 744.075962c0 32.23988-29.169415 60.897551-60.897551 60.897551H154.290855c-32.23988 0-60.897551-26.098951-60.897552-60.897551V706.206897h834.654673v177.575212z" p-id="4068"></path><path d="M611.278361 375.62019h47.592204c11.258371 0 20.469765-9.211394 20.469765-20.469765V153.011494c0-11.258371-9.211394-20.469765-20.469765-20.469765h-47.592204c-11.258371 0-20.469765 9.211394-20.469765 20.469765v202.138931c0 11.258371 9.211394 20.469765 20.469765 20.469765z m-5.117441-222.608696c0-3.070465 2.558721-5.117441 5.117441-5.117441h47.592204c3.070465 0 5.117441 2.558721 5.117441 5.117441v202.138931c0 3.070465-2.558721 5.117441-5.117441 5.117441h-47.592204c-3.070465 0-5.117441-2.558721-5.117441-5.117441V153.011494zM718.744628 375.62019h47.592204c11.258371 0 20.469765-9.211394 20.469765-20.469765V153.011494c0-11.258371-9.211394-20.469765-20.469765-20.469765h-47.592204c-11.258371 0-20.469765 9.211394-20.469765 20.469765v202.138931c0 11.258371 9.211394 20.469765 20.469765 20.469765z m-5.117442-222.608696c0-3.070465 2.558721-5.117441 5.117442-5.117441h47.592204c3.070465 0 5.117441 2.558721 5.117441 5.117441v202.138931c0 3.070465-2.558721 5.117441-5.117441 5.117441h-47.592204c-3.070465 0-5.117441-2.558721-5.117442-5.117441V153.011494zM877.385307 132.541729h-47.592204c-11.258371 0-20.469765 9.211394-20.469765 20.469765v202.138931c0 11.258371 9.211394 20.469765 20.469765 20.469765h47.592204c11.258371 0 20.469765-9.211394 20.469765-20.469765V153.011494c0-11.258371-9.211394-20.469765-20.469765-20.469765z m5.117442 222.608696c0 3.070465-2.558721 5.117441-5.117442 5.117441h-47.592204c-3.070465 0-5.117441-2.558721-5.117441-5.117441V153.011494c0-3.070465 2.558721-5.117441 5.117441-5.117441h47.592204c3.070465 0 5.117441 2.558721 5.117442 5.117441v202.138931zM202.906547 603.858071h292.205897c28.657671 0 51.686157-23.028486 51.686157-51.686157V184.227886c0-28.657671-23.028486-51.686157-51.686157-51.686157H202.906547c-28.657671 0-51.686157 23.028486-51.686157 51.686157v367.944028c0 28.145927 23.028486 51.686157 51.686157 51.686157z m-26.098951-419.630185c0-14.328836 11.770115-26.098951 26.098951-26.09895h292.205897c14.328836 0 26.098951 11.770115 26.09895 26.09895v367.944028c0 14.328836-11.770115 26.098951-26.09895 26.098951H202.906547c-14.328836 0-26.098951-11.770115-26.098951-26.098951V184.227886zM842.586707 734.864568h-655.032484c-18.422789 0-33.775112 15.352324-33.775113 33.775112v108.489755c0 18.422789 15.352324 33.775112 33.775113 33.775113h655.032484c18.422789 0 33.775112-15.352324 33.775112-33.775113v-108.489755c0-18.934533-14.84058-33.775112-33.775112-33.775112z m13.305347 141.753123c0 7.164418-6.14093 13.305347-13.305347 13.305347h-655.032484c-7.164418 0-13.305347-6.14093-13.305347-13.305347v-108.489755c0-7.164418 6.14093-13.305347 13.305347-13.305347h655.032484c7.164418 0 13.305347 6.14093 13.305347 13.305347v108.489755z" p-id="4069"></path><path d="M810.858571 768.63968H219.794103c-12.281859 0-22.516742 10.234883-22.516742 22.516742v60.897551c0 12.281859 10.234883 22.516742 22.516742 22.516742h591.064468c12.281859 0 22.516742-10.234883 22.516741-22.516742v-60.897551c0-12.281859-10.234883-22.516742-22.516741-22.516742z m7.164418 83.414293c0 4.093953-3.070465 7.164418-7.164418 7.164418H219.794103c-4.093953 0-7.164418-3.070465-7.164418-7.164418v-60.897551c0-4.093953 3.070465-7.164418 7.164418-7.164418h591.064468c4.093953 0 7.164418 3.070465 7.164418 7.164418v60.897551zM251.010495 531.702149h195.486257c22.004998 0 39.916042-17.911044 39.916042-39.916042V244.101949c0-22.004998-17.911044-39.916042-39.916042-39.916042H251.010495c-22.004998 0-39.916042 17.911044-39.916042 39.916042v247.684158c0 22.004998 17.911044 39.916042 39.916042 39.916042z m-19.446277-287.6002c0-10.746627 8.69965-19.446277 19.446277-19.446277h195.486257c10.746627 0 19.446277 8.69965 19.446276 19.446277v247.684158c0 10.746627-8.69965 19.446277-19.446276 19.446277H251.010495c-10.746627 0-19.446277-8.69965-19.446277-19.446277V244.101949zM806.252874 429.353323c-48.103948 0-87.508246 39.404298-87.508246 87.508246 0 48.103948 39.404298 87.508246 87.508246 87.508246s87.508246-39.404298 87.508245-87.508246c0-48.103948-38.892554-87.508246-87.508245-87.508246z m0 159.664168c-39.916042 0-72.155922-32.23988-72.155922-72.155922s32.23988-72.155922 72.155922-72.155922 72.155922 32.23988 72.155922 72.155922-32.23988 72.155922-72.155922 72.155922z" p-id="4070"></path><path d="M806.252874 465.687156c-28.145927 0-51.174413 23.028486-51.174413 51.174413s23.028486 51.174413 51.174413 51.174413 51.174413-23.028486 51.174412-51.174413c0.511744-28.145927-22.516742-51.174413-51.174412-51.174413z m35.310344 42.474763h-26.09895v-26.09895c12.281859 3.070465 22.516742 13.305347 26.09895 26.09895z m-44.009995-26.09895v26.09895h-26.09895c3.070465-12.793603 13.305347-23.028486 26.09895-26.09895z m-26.09895 43.49825h26.09895v26.098951c-12.793603-3.070465-23.028486-13.305347-26.09895-26.098951z m43.498251 26.610695v-26.09895h26.09895c-3.070465 12.281859-13.305347 22.516742-26.09895 26.09895z" p-id="4071"></path><path d="M609.231384 448.7996m-19.446277 0a19.446277 19.446277 0 1 0 38.892554 0 19.446277 19.446277 0 1 0-38.892554 0Z" p-id="4072"></path><path d="M673.1994 448.7996m-19.446277 0a19.446277 19.446277 0 1 0 38.892554 0 19.446277 19.446277 0 1 0-38.892554 0Z" p-id="4073"></path><path d="M609.231384 518.908546m-19.446277 0a19.446277 19.446277 0 1 0 38.892554 0 19.446277 19.446277 0 1 0-38.892554 0Z" p-id="4074"></path><path d="M673.1994 518.908546m-19.446277 0a19.446277 19.446277 0 1 0 38.892554 0 19.446277 19.446277 0 1 0-38.892554 0Z" p-id="4075"></path><path d="M609.231384 584.411794m-19.446277 0a19.446277 19.446277 0 1 0 38.892554 0 19.446277 19.446277 0 1 0-38.892554 0Z" p-id="4076"></path><path d="M673.1994 584.411794m-19.446277 0a19.446277 19.446277 0 1 0 38.892554 0 19.446277 19.446277 0 1 0-38.892554 0Z" p-id="4077"></path></svg>