<svg xmlns="http://www.w3.org/2000/svg" width="200" height="200" class="icon"
     p-id="1051" t="1583227526845" version="1.1" viewBox="0 0 1024 1024">
  <defs>
    <style type="text/css"/>
  </defs>
  <path
    d="M347.477333 629.76c-23.552 0-26.624 19.114667-26.624 42.666667s19.114667 42.666667 42.666667 42.666666S406.186667 695.978667 406.186667 672.426667c-0.341333-23.552-35.157333-42.666667-58.709334-42.666667z m143.018667 115.029333c-10.581333 0-19.114667 8.533333-19.114667 19.114667 0 10.581333 8.533333 19.114667 19.114667 19.114667s19.114667-8.533333 19.114667-19.114667c0-10.581333-8.533333-19.114667-19.114667-19.114667zM409.941333 332.8c-6.144 6.144-6.144 16.384 0 22.528 4.437333 4.437333 10.922667 5.802667 16.725334 3.754667v-26.282667h-16.725334z m3.413334 185.002667c-13.312 0-23.893333 10.581333-23.893334 23.893333s10.581333 23.893333 23.893334 23.893333 23.893333-10.581333 23.893333-23.893333c0-1.365333 0-2.730667-0.341333-4.096-2.389333-3.754667-4.437333-7.850667-5.802667-12.288-4.437333-4.778667-10.922667-7.509333-17.749333-7.509333z m-35.84-118.101334c-6.485333 0-12.288 4.096-15.018667 9.898667v11.946667c3.413333 8.192 12.629333 12.288 20.821333 8.874666 8.192-3.413333 12.288-12.629333 8.874667-20.821333-2.389333-5.802667-8.192-9.898667-14.677333-9.898667z m99.669333 203.776l128 208.896H310.613333c-4.096-16.725333-21.162667-26.624-37.546666-22.528-10.922667 2.730667-19.797333 11.264-22.528 22.528H183.296l128.682667-208.896h165.205333z m195.925333-494.933333c0-32.085333-13.312-66.901333-46.762666-75.093333-19.797333-4.778667-16.042667-31.744 2.730666-31.744H928.426667c18.773333 0 21.845333 26.965333 3.754666 31.402666-35.84 8.533333-47.786667 42.325333-47.786666 72.362667v814.421333c0 128.682667-174.08 135.509333-206.506667 34.474667 16.042667-2.389333 31.402667-8.533333 44.714667-17.749333 4.437333 16.042667 16.042667 28.672 31.402666 34.474666 8.192 3.413333 17.066667 4.778667 25.941334 4.778667 8.533333 0 17.408-1.365333 25.258666-4.778667 17.408-6.826667 31.061333-23.893333 31.061334-51.541333V105.472c0-19.114667 3.413333-38.229333 10.922666-55.978667h-138.24c7.850667 18.773333 11.605333 38.570667 11.605334 59.050667v200.362667H788.48v32.085333h-67.925333v47.786667h32.085333v32.085333h-32.085333v47.786667H788.48v32.085333h-67.925333v47.786667h32.085333v32.085333h-32.085333v47.786667H788.48v32.085333h-67.925333v47.786667h32.085333v31.744h-23.210667l-56.661333-92.501334 0.341333-538.965333z"
    p-id="1052"/>
  <path
    d="M338.602667 225.28v44.373333c0 8.533333 5.461333 15.36 12.288 15.36h87.381333c6.826667 0 12.288-6.826667 12.288-15.36V225.28h24.234667v275.456c0 4.437333 1.024 8.533333 3.413333 12.288l193.536 315.050667c5.12 8.533333 7.509333 31.744-11.605333 31.744H128.682667c-19.114667 0-16.042667-24.234667-10.922667-32.768l193.194667-314.026667c2.389333-3.754667 3.413333-8.192 3.413333-12.629333V225.28h24.234667z m321.194666 682.666667c55.637333 0 79.530667-62.122667 51.2-106.154667L522.24 493.909333V225.28h8.874667c13.312 0 23.893333-10.581333 23.893333-23.893333s-10.581333-23.893333-23.893333-23.893334H450.56V140.629333c0-8.533333-5.461333-15.36-12.288-15.36h-87.381333c-6.826667 0-12.288 6.826667-12.288 15.36v36.522667H257.706667c-13.312 0-23.893333 10.581333-23.893334 23.893333s10.581333 23.893333 23.893334 23.893334h8.874666v268.629333L77.141333 802.133333c-25.6 41.984-5.461333 105.813333 51.882667 105.813334h530.773333z"
    p-id="1053"/>
</svg>
