<svg xmlns="http://www.w3.org/2000/svg" width="200" height="200" class="icon"
     p-id="10644" t="1546943035521" version="1.1" viewBox="0 0 1024 1024">
  <defs>
    <style type="text/css"/>
  </defs>
  <path
    d="M848.40394 0 178.152232 0c-56.4635 0-102.399104 45.947119-102.399104 102.400384l0 893.671076c0 15.420188 12.500677 27.927261 27.925982 27.927261 1.564664 0 3.089667-0.1612 4.580127-0.406838 1.568502 0.267387 3.154914 0.406838 4.747724 0.406838 6.045 0 12.137337-1.963825 17.263753-5.982311l114.98166-90.562418 114.980381 90.562418c10.13513 7.961489 24.410286 7.961489 34.564607 0l119.307194-93.962971 115.636695 91.072885c10.145365 7.962768 24.416683 7.962768 34.564607 0l114.889546-90.490774 117.088775 92.216637c5.483359 4.317857 12.058016 6.234346 18.506016 5.947768 2.561289 0.772737 5.270984 1.200044 8.084308 1.200044 15.430423 0 27.927261-12.508353 27.927261-27.927261L950.801765 102.399104C950.804323 45.943281 904.868719 0 848.40394 0zM245.892056 170.761979c0-9.381584 7.604546-16.984851 16.984851-16.984851L614.349209 153.777128c9.380305 0 16.984851 7.604546 16.984851 16.984851l0 27.438544c0 9.381584-7.604546 16.984851-16.984851 16.984851L262.876907 215.185374c-9.381584 0-16.984851-7.604546-16.984851-16.984851L245.892056 170.761979zM767.873023 689.478007c0 9.381584-7.604546 16.984851-16.984851 16.984851L262.876907 706.462858c-9.381584 0-16.984851-7.603267-16.984851-16.984851l0-27.438544c0-9.381584 7.604546-16.984851 16.984851-16.984851l488.009985 0c9.380305 0 16.984851 7.603267 16.984851 16.984851L767.871744 689.478007zM767.873023 525.719272c0 9.381584-7.604546 16.984851-16.984851 16.984851L262.876907 542.704123c-9.381584 0-16.984851-7.603267-16.984851-16.984851l0-27.438544c0-9.381584 7.604546-16.984851 16.984851-16.984851l488.009985 0c9.380305 0 16.984851 7.604546 16.984851 16.984851L767.871744 525.719272zM767.873023 361.960537c0 9.381584-7.604546 16.984851-16.984851 16.984851L262.876907 378.945388c-9.381584 0-16.984851-7.604546-16.984851-16.984851l0-27.438544c0-9.381584 7.604546-16.984851 16.984851-16.984851l488.009985 0c9.380305 0 16.984851 7.604546 16.984851 16.984851L767.871744 361.960537z"
    p-id="10645"/>
</svg>
