<?xml version="1.0" standalone="no"?><!DOCTYPE svg PUBLIC "-//W3C//DTD SVG 1.1//EN" "http://www.w3.org/Graphics/SVG/1.1/DTD/svg11.dtd"><svg t="1561607200335" class="icon" viewBox="0 0 1024 1024" version="1.1" xmlns="http://www.w3.org/2000/svg" p-id="1603" xmlns:xlink="http://www.w3.org/1999/xlink" width="200" height="200"><defs><style type="text/css"></style></defs><path d="M204.32 551.632l286.112-0.976v92.016l52.848 0.272v-91.312h369.728l-0.512 89.152h45.312v-127.248H543.28v-71.648h-52.848v71.648H81.472l0.672 129.248h43.328L124.8 551.632zM750.08 33.456H266.32c-14.352 0-25.952 8.96-25.952 20.016v266.896c0 11.024 11.584 20 25.952 20h164.112v33.36l-34.528 26.688v6.672H620.48v-6.672l-34.544-26.688v-33.392H750.08c14.304 0 25.92-8.96 25.92-20V53.472c0-11.04-11.6-20.016-25.92-20.016z m-24.56 253.536H287.168V73.84h438.336v213.152zM660.592 739.664h-14.048v162.432c0 1.296 0.416 2.56-0.256 3.584l14.304-0.192c3.712 0 6.912 2.8 6.72 6.24-0.336 5.12-3.024 6.128-5.904 6.912H384.704c-5.616 0.512-7.936-4.096-7.936-4.096-0.768-7.728 3.504-9.04 7.152-9.04l14.016-0.144V739.664h-14c-3.68 0-6.688-2.752-6.688-6.176 0-3.488-1.6-10.144 7.856-10.256l127.312-0.176v-18.848c0.32-2.896 5.696-6.08 9.008-6.08 3.28 0 8.384 3.184 8.384 6.912l1.264 17.952 129.136 0.336c6.384 0.896 7.232 4.944 6.976 8.704-0.272 3.44-0.592 6.688-6.592 7.632z m-31.04 161.872V739.056l-109.168 0.592-0.192 0.032-0.128-0.032h-106.16v162.496s0.56 4.368-0.416 3.52l221.648-0.16c1.024 0.416-5.056 0.848-5.056-0.448l-0.528-3.52z m-212.496 28.816h210.368c3.664 0 6.704 2.96 6.704 6.24 0 3.264-2.944 6.224-6.672 6.224H532.32v6.016c-1.76 0.416-0.992-0.448-1.072 0l26.416 28.576a6.432 6.432 0 0 1-4.56 10.928 6.448 6.448 0 0 1-4.544-1.904l-24.304-24.304-24.24 24.304a6.304 6.304 0 0 1-9.056 0 6.368 6.368 0 0 1 0-9.024l27.376-27.472c-0.048-0.336-0.224-0.72-0.224-1.104v-6h-101.12c-3.68 0-6.72-2.96-6.72-6.224 0.08-3.296 3.088-6.256 6.784-6.256z" p-id="1604"></path><path d="M504.336 802.432h-24.464v37.232h-15.856l28.144 37.44 28.16-37.408h-15.84l-0.144-37.264m0 0zM479.872 768.112h24.496v8.544h-24.496v-8.544m0 0zM479.872 785.664h24.496v8.56h-24.496v-8.56m0 0zM544.848 768.112l-28.128 37.392h15.824v37.28h24.448l0.176-37.28h15.84l-28.16-37.392m0 0zM532.544 868.48h24.496v8.56h-24.496v-8.56m0 0zM532.544 850.944h24.496v8.544h-24.496v-8.544m0 0zM983.536 711.744h-204.48c-11.056 0-20.16 9.072-20.16 20.16V953.6c0 11.072 9.072 20.16 20.16 20.16H983.52c11.04 0 18.464-9.056 18.464-20.16V731.904c0.048-11.056-7.392-20.16-18.448-20.16z m-112.224 241.888h-93.68V768.144h93.68v185.488z m112.224 0h-93.6V768.144h93.6v185.488z m0-204.032H777.6v-17.664h205.936v17.664z" p-id="1605"></path><path d="M833.744 824.336h18.944v55.936h-18.944v-55.936zM908.432 824.336h18.976v55.936h-18.976v-55.936zM287.2 720.224H25.504a9.44 9.44 0 0 0-9.504 9.456v171.216c0 5.28 4.24 9.536 9.504 9.536h39.92a9.568 9.568 0 0 0 7.408-3.536l53.184-65.936 24.272 20.032a9.536 9.536 0 0 0 13.024-0.88l47.2-50.928a30.464 30.464 0 0 0 46.192-26.032c0-16.8-13.648-30.432-30.416-30.432a30.464 30.464 0 0 0-28.16 41.856l-42.64 46.016-24.768-20.416a9.648 9.648 0 0 0-7.008-2.176 9.664 9.664 0 0 0-6.448 3.536l-56.352 69.872h-25.92v-152.192h242.656v152.192H146.56a9.488 9.488 0 0 0-9.504 9.504v46.624h-55.84c-5.264 0-9.504 4.224-9.504 9.504s4.24 9.52 9.504 9.52h127.792c5.28 0 9.52-4.24 9.52-9.52s-4.24-9.504-9.52-9.504H156.064v-37.088h131.088a9.504 9.504 0 0 0 9.504-9.536V729.68a9.392 9.392 0 0 0-9.456-9.456z m-60.912 51.488a11.424 11.424 0 1 1-11.408 11.408c0-6.288 5.12-11.408 11.408-11.408z" p-id="1606"></path></svg>