<svg xmlns="http://www.w3.org/2000/svg" xmlns:xlink="http://www.w3.org/1999/xlink" width="200" height="200" class="icon" p-id="2607" t="1548384597964" version="1.1" viewBox="0 0 1024 1024"><defs><style type="text/css"/></defs><path d="M896 85.333333h-298.666667a42.666667 42.666667 0 0 0-42.666666 42.666667v298.666667a42.666667 42.666667 0 0 0 42.666666 42.666666h298.666667a42.666667 42.666667 0 0 0 42.666667-42.666666V128a42.666667 42.666667 0 0 0-42.666667-42.666667z m-42.666667 298.666667h-213.333333V170.666667h213.333333z" p-id="2608"/><path d="M810.666667 512h-298.666667V213.333333a42.666667 42.666667 0 0 0-42.666667-42.666666H128a42.666667 42.666667 0 0 0-42.666667 42.666666v682.666667a42.666667 42.666667 0 0 0 42.666667 42.666667h682.666667a42.666667 42.666667 0 0 0 42.666666-42.666667v-341.333333a42.666667 42.666667 0 0 0-42.666666-42.666667zM170.666667 256h256v256H170.666667z m0 341.333333h256v256H170.666667z m597.333333 256h-256v-256h256z" p-id="2609"/></svg>