<svg xmlns="http://www.w3.org/2000/svg" width="64" height="64" class="icon"
     p-id="9989" t="1584589305866" version="1.1" viewBox="0 0 1024 1024">
  <defs>
    <style type="text/css"/>
  </defs>
  <path fill="#08af6b" d="M902.994 736.179h-27.93l-111.71-111.712v-0.754l-27.93-27.93V428.217l139.64-139.641h27.93z"
        p-id="9990"/>
  <path fill="#08af6b"
        d="M628.073 204.791H144.575c-44.183 0-80 35.817-80 80v454.418c0 44.183 35.817 80 80 80h483.498c44.184 0 80-35.817 80-80V284.791c0-44.183-35.816-80-80-80z m-340.435 443.18V376.787l224.938 135.594-224.938 135.59zM903.569 232.721h-24.771c-10.57 0-20.826 3.017-29.655 8.552v-0.018l-0.078 0.066a56.1 56.1 0 0 0-9.478 7.482l-4.859 4.793-107.55 92.083v332.64l106.838 92.134 5.571 5.496a56.075 56.075 0 0 0 9.48 7.484l0.075 0.065v-0.018c8.829 5.536 19.085 8.555 29.655 8.555h24.771c30.832 0 55.855-24.998 55.855-55.858V288.576c0.002-30.861-25.022-55.855-55.854-55.855z"
        p-id="9991"/>
</svg>
