<?xml version="1.0" standalone="no"?><!DOCTYPE svg PUBLIC "-//W3C//DTD SVG 1.1//EN" "http://www.w3.org/Graphics/SVG/1.1/DTD/svg11.dtd"><svg t="1557917171103" class="icon" style="" viewBox="0 0 1024 1024" version="1.1" xmlns="http://www.w3.org/2000/svg" p-id="2173" xmlns:xlink="http://www.w3.org/1999/xlink" width="200" height="200"><defs><style type="text/css"></style></defs><path d="M1003.1616 861.218133l-52.053333-35.6864c0-6.690133 2.269867-13.380267 2.269867-22.306133s0-15.598933-2.269867-22.306133l47.530667-37.905067c4.522667-4.471467 4.522667-8.9088 2.2528-13.380267l-45.2608-78.0288c-2.2528-2.235733-6.775467-4.471467-13.568-2.235733l-56.576 22.306133c-11.3152-8.9088-24.900267-15.616-38.485333-22.306133l-9.045333-57.975467C840.209067 584.721067 833.4336 580.266667 828.893867 580.266667l-90.538667 0c-4.522667 0-11.3152 4.4544-11.3152 8.9088l-9.045333 60.194133c-13.585067 4.4544-24.900267 13.380267-38.468267 22.306133l-54.340267-22.306133c-6.775467-2.235733-11.298133 0-15.837867 4.4544l-45.2608 78.045867c-2.269867 2.235733 0 8.9088 4.539733 13.380267l47.5136 35.669333c0 6.7072-2.2528 13.380267-2.2528 22.306133s0 15.616 2.2528 22.306133l-47.5136 37.922133c-4.539733 4.4544-4.539733 8.9088-2.269867 13.3632l45.2608 78.045867c2.269867 2.235733 6.775467 4.4544 13.568 2.235733l56.576-22.306133c11.3152 8.9088 24.900267 15.598933 38.485333 22.306133l9.045333 57.9584c0 4.471467 4.539733 8.9088 11.3152 8.9088l90.538667 0c4.522667 0 11.3152-4.4544 11.3152-8.9088l9.045333-57.9584c13.585067-6.7072 27.153067-13.380267 38.468267-22.306133l56.576 22.306133c4.539733 2.218667 11.3152 0 13.585067-4.471467l45.2608-78.0288C1007.701333 870.126933 1007.701333 863.453867 1003.1616 861.218133zM783.633067 881.288533c-43.008 0-79.223467-35.6864-79.223467-78.045867s36.215467-78.0288 79.223467-78.0288 79.223467 35.669333 79.223467 78.0288S826.641067 881.288533 783.633067 881.288533zM494.933333 802.133333c0-150.818133 122.248533-273.066667 273.066667-273.066667 11.588267 0 22.9376 0.955733 34.133333 2.3552L802.133333 85.333333c0-28.279467-22.920533-51.2-51.2-51.2L68.266667 34.133333C39.9872 34.133333 17.066667 57.053867 17.066667 85.333333l0 853.333333c0 28.279467 22.920533 51.2 51.2 51.2l501.777067 0C523.605333 940.919467 494.933333 874.939733 494.933333 802.133333zM102.4 136.533333l614.4 0 0 51.2L102.4 187.733333 102.4 136.533333zM102.4 358.4l580.266667 0 0 51.2L102.4 409.6 102.4 358.4zM102.4 563.2l443.733333 0 0 51.2L102.4 614.4 102.4 563.2zM477.866667 819.2 102.4 819.2l0-51.2 375.466667 0L477.866667 819.2z" p-id="2174"></path></svg>