<?xml version="1.0" standalone="no"?><!DOCTYPE svg PUBLIC "-//W3C//DTD SVG 1.1//EN" "http://www.w3.org/Graphics/SVG/1.1/DTD/svg11.dtd"><svg t="1553656232418" class="icon" style="" viewBox="0 0 1024 1024" version="1.1" xmlns="http://www.w3.org/2000/svg" p-id="4661" xmlns:xlink="http://www.w3.org/1999/xlink" width="200" height="200"><defs><style type="text/css"></style></defs><path d="M893.7 129H552.1c-1 0-1.8 0.8-1.8 1.8v341.6c0 1 0.8 1.8 1.8 1.8h341.6c1 0 1.8-0.8 1.8-1.8V130.8c0-1-0.8-1.8-1.8-1.8z m-46.2 297.2H598.3V177h249.2v249.2zM471.9 129H130.3c-1 0-1.8 0.8-1.8 1.8v341.6c0 1 0.8 1.8 1.8 1.8h341.6c1 0 1.8-0.8 1.8-1.8V130.8c0-1-0.8-1.8-1.8-1.8z m-46.2 297.2H176.5V177h249.2v249.2zM471.9 549.8H130.3c-1 0-1.8 0.8-1.8 1.8v341.6c0 1 0.8 1.8 1.8 1.8h341.6c1 0 1.8-0.8 1.8-1.8V551.6c0-1-0.8-1.8-1.8-1.8zM425.7 847H176.5V597.8h249.2V847z" p-id="4662"></path><path d="M577 613m-24 0a24 24 0 1 0 48 0 24 24 0 1 0-48 0Z" p-id="4663"></path><path d="M873 589H636c-4.4 0-8 3.6-8 8v32c0 4.4 3.6 8 8 8h237c4.4 0 8-3.6 8-8v-32c0-4.4-3.6-8-8-8z" p-id="4664"></path><path d="M577 722m-24 0a24 24 0 1 0 48 0 24 24 0 1 0-48 0Z" p-id="4665"></path><path d="M873 698H636c-4.4 0-8 3.6-8 8v32c0 4.4 3.6 8 8 8h237c4.4 0 8-3.6 8-8v-32c0-4.4-3.6-8-8-8z" p-id="4666"></path><path d="M577 831m-24 0a24 24 0 1 0 48 0 24 24 0 1 0-48 0Z" p-id="4667"></path><path d="M873 807H636c-4.4 0-8 3.6-8 8v32c0 4.4 3.6 8 8 8h237c4.4 0 8-3.6 8-8v-32c0-4.4-3.6-8-8-8z" p-id="4668"></path></svg>