<svg xmlns="http://www.w3.org/2000/svg" width="300" height="300" class="icon"
     p-id="5639" t="1574239223000" version="1.1" viewBox="0 0 1024 1024">
  <defs>
    <style type="text/css"/>
  </defs>
  <path fill="#F3F7FD" d="M512 512m-512 0a512 512 0 1 0 1024 0 512 512 0 1 0-1024 0Z" p-id="5640"/>
  <path fill="#288CFF"
        d="M256 230.4h128a102.4 102.4 0 0 1 102.4 102.4v128a25.6 25.6 0 0 1-25.6 25.6h-128a102.4 102.4 0 0 1-102.4-102.4v-128a25.6 25.6 0 0 1 25.6-25.6z m512 0a25.6 25.6 0 0 1 25.6 25.6v128a102.4 102.4 0 0 1-102.4 102.4h-128a25.6 25.6 0 0 1-25.6-25.6v-128a102.4 102.4 0 0 1 102.4-102.4h128zM256 793.6a25.6 25.6 0 0 1-25.6-25.6v-128a102.4 102.4 0 0 1 102.4-102.4h128a25.6 25.6 0 0 1 25.6 25.6v128a102.4 102.4 0 0 1-102.4 102.4h-128z m512 0h-128a102.4 102.4 0 0 1-102.4-102.4v-128a25.6 25.6 0 0 1 25.6-25.6h128a102.4 102.4 0 0 1 102.4 102.4v128a25.6 25.6 0 0 1-25.6 25.6z"
        p-id="5641"/>
</svg>
