<?xml version="1.0" standalone="no"?><!DOCTYPE svg PUBLIC "-//W3C//DTD SVG 1.1//EN" "http://www.w3.org/Graphics/SVG/1.1/DTD/svg11.dtd"><svg t="1546916026105" class="icon" style="" viewBox="0 0 1024 1024" version="1.1" xmlns="http://www.w3.org/2000/svg" p-id="5074" xmlns:xlink="http://www.w3.org/1999/xlink" width="200" height="200"><defs><style type="text/css"></style></defs><path d="M864 64H160c-35.296 0-64 28.704-64 64v768c0 35.296 28.704 64 64 64h704c35.296 0 64-28.704 64-64V128c0-35.296-28.704-64-64-64zM256 128h512v224H256V128zM160 896V128h32v288h640V128h32l0.064 768H160z" p-id="5075"></path><path d="M328 192h64v96h-64zM488 192h64v96h-64zM648 192h64v96h-64zM605.152 480h-135.136L352 647.488l160 40.576-82.88 169.536L672 630.208l-160-24.16z" p-id="5076"></path></svg>