<svg xmlns="http://www.w3.org/2000/svg" width="200" height="200" class="icon"
     p-id="1390" t="1557390886245" version="1.1" viewBox="0 0 1024 1024">
  <defs>
    <style type="text/css"/>
  </defs>
  <path d="M192.5 192.2m-64 0a64 64 0 1 0 128 0 64 64 0 1 0-128 0Z" p-id="1391"/>
  <path d="M320.5 127.9h575.3v128.3H320.5z" p-id="1392"/>
  <path d="M192.5 448.3m-64 0a64 64 0 1 0 128 0 64 64 0 1 0-128 0Z" p-id="1393"/>
  <path d="M320.5 384.1h575.3v128.3H320.5z" p-id="1394"/>
  <path d="M192.5 704m-64 0a64 64 0 1 0 128 0 64 64 0 1 0-128 0Z" p-id="1395"/>
  <path d="M320.5 639.7h575.3V768H320.5z" p-id="1396"/>
</svg>
