<?xml version="1.0" standalone="no"?><!DOCTYPE svg PUBLIC "-//W3C//DTD SVG 1.1//EN" "http://www.w3.org/Graphics/SVG/1.1/DTD/svg11.dtd"><svg t="1568117470356" class="icon" viewBox="0 0 1024 1024" version="1.1" xmlns="http://www.w3.org/2000/svg" p-id="3258" xmlns:xlink="http://www.w3.org/1999/xlink" width="200" height="200"><defs><style type="text/css"></style></defs><path d="M929.185185 284.444444c20.935111 0 37.925926-16.990815 37.925926-37.925926L967.111111 94.814815c0-20.935111-16.990815-37.925926-37.925926-37.925926L94.814815 56.888889C73.879704 56.888889 56.888889 73.879704 56.888889 94.814815l0 151.703704c0 20.935111 16.990815 37.925926 37.925926 37.925926l644.740741 0 0 113.777778L94.814815 398.222222c-20.935111 0-37.925926 16.990815-37.925926 37.925926l0 151.703704c0 20.935111 16.990815 37.925926 37.925926 37.925926l644.740741 0 0 113.777778L94.814815 739.555556c-20.935111 0-37.925926 16.990815-37.925926 37.925926l0 151.703704c0 20.935111 16.990815 37.925926 37.925926 37.925926l834.37037 0c20.935111 0 37.925926-16.990815 37.925926-37.925926l0-151.703704c0-20.935111-16.990815-37.925926-37.925926-37.925926l-75.851852 0 0-113.777778 75.851852 0c20.935111 0 37.925926-16.990815 37.925926-37.925926l0-151.703704c0-20.935111-16.990815-37.925926-37.925926-37.925926l-75.851852 0 0-113.777778L929.185185 284.444444zM265.481481 568.888889 151.703704 568.888889l0-113.777778 113.777778 0L265.481481 568.888889zM265.481481 910.222222 151.703704 910.222222l0-113.777778 113.777778 0L265.481481 910.222222zM265.481481 227.555556 151.703704 227.555556 151.703704 113.777778l113.777778 0L265.481481 227.555556z" p-id="3259"></path></svg>