<?xml version="1.0" standalone="no"?><!DOCTYPE svg PUBLIC "-//W3C//DTD SVG 1.1//EN" "http://www.w3.org/Graphics/SVG/1.1/DTD/svg11.dtd"><svg t="1557390886245" class="icon" style="" viewBox="0 0 1024 1024" version="1.1" xmlns="http://www.w3.org/2000/svg" p-id="1390" xmlns:xlink="http://www.w3.org/1999/xlink" width="200" height="200"><defs><style type="text/css"></style></defs><path d="M192.5 192.2m-64 0a64 64 0 1 0 128 0 64 64 0 1 0-128 0Z" p-id="1391"></path><path d="M320.5 127.9h575.3v128.3H320.5z" p-id="1392"></path><path d="M192.5 448.3m-64 0a64 64 0 1 0 128 0 64 64 0 1 0-128 0Z" p-id="1393"></path><path d="M320.5 384.1h575.3v128.3H320.5z" p-id="1394"></path><path d="M192.5 704m-64 0a64 64 0 1 0 128 0 64 64 0 1 0-128 0Z" p-id="1395"></path><path d="M320.5 639.7h575.3V768H320.5z" p-id="1396"></path></svg>