<svg xmlns="http://www.w3.org/2000/svg" xmlns:xlink="http://www.w3.org/1999/xlink" width="200" height="200" class="icon" p-id="6082" t="1566879293489" version="1.1" viewBox="0 0 1024 1024"><defs><style type="text/css"/></defs><path fill="#999" d="M196.608158 0C243.814534 0 286.566513 18.943991 317.440097 49.561575a167.782316 167.782316 0 0 1 0 239.257481 171.366314 171.366314 0 0 1-120.883139 49.561575c-47.206376 0-89.958355-18.943991-120.93434-49.561575a167.782316 167.782316 0 0 1 0-239.257481A171.366314 171.366314 0 0 1 196.608158 0z m66.815966 103.065548a94.719953 94.719953 0 0 0-66.815966-27.391986c-26.111987 0-49.715175 10.495995-66.815967 27.391986a92.723154 92.723154 0 0 0 0 132.249534c17.100791 16.895992 40.70398 27.391986 66.815967 27.391987 26.111987 0 49.715175-10.444795 66.815966-27.391987a92.723154 92.723154 0 0 0 0-132.249534z m240.12788 103.935948a38.041581 38.041581 0 0 1-38.195181-37.785581c0-20.94079 17.100791-37.887981 38.246381-37.887981h456.550172c21.145589 0 38.246381 16.947192 38.246381 37.887981 0 20.88959-17.100791 37.836781-38.246381 37.836781H503.603204zM196.608158 685.670057c47.206376 0 89.958355 18.943991 120.883139 49.561575a167.782316 167.782316 0 0 1 0 239.257481A171.366314 171.366314 0 0 1 196.608158 1023.999488c-47.206376 0-89.958355-18.943991-120.93434-49.561575a167.782316 167.782316 0 0 1 0-239.257481 171.366314 171.366314 0 0 1 120.93434-49.561575z m66.815966 103.065549a94.719953 94.719953 0 0 0-66.815966-27.391987c-26.111987 0-49.715175 10.444795-66.815967 27.391987a92.723154 92.723154 0 0 0 0 132.249534c17.100791 16.895992 40.70398 27.391986 66.815967 27.391986 26.111987 0 49.715175-10.495995 66.815966-27.391986a92.723154 92.723154 0 0 0 0-132.249534z m240.12788 103.935948a38.041581 38.041581 0 0 1-38.195181-37.836781c0-20.88959 17.100791-37.836781 38.246381-37.836781h456.550172c21.145589 0 38.246381 16.947192 38.246381 37.887981 0 20.88959-17.100791 37.785581-38.246381 37.785581H503.603204z m323.839838-474.111763c-26.111987 0-49.715175 10.444795-66.815966 27.340786a92.723154 92.723154 0 0 0 0 132.249534c17.100791 16.947192 40.70398 27.391986 66.815966 27.391986 26.111987 0 49.715175-10.444795 66.815967-27.391986a92.723154 92.723154 0 0 0 0-132.249534 94.719953 94.719953 0 0 0-66.815967-27.340786z m-120.883139-26.111987a171.366314 171.366314 0 0 1 120.883139-49.612775c47.206376 0 89.958355 18.943991 120.93434 49.561575a167.782316 167.782316 0 0 1 0 239.30868 171.366314 171.366314 0 0 1-120.93434 49.561575c-47.206376 0-89.958355-18.943991-120.883139-49.561575a167.782316 167.782316 0 0 1 0-239.30868zM520.396796 474.111763c21.145589 0 38.246381 16.895992 38.246381 37.836781 0 20.88959-17.100791 37.887981-38.246381 37.887981H63.846624A38.041581 38.041581 0 0 1 25.600243 511.999744c0-20.88959 17.100791-37.887981 38.246381-37.887981h456.550172z" p-id="6083"/></svg>