<svg xmlns="http://www.w3.org/2000/svg" xmlns:xlink="http://www.w3.org/1999/xlink" width="300" height="300" class="icon" p-id="32382" t="1574131306928" version="1.1" viewBox="0 0 1024 1024"><defs><style type="text/css"/></defs><path fill="#1296db" d="M936.3456 43.04896H87.69536c-44.6464 0-80.85504 38.01088-80.85504 84.82816v532.02944c0 46.8992 36.20864 84.86912 80.85504 84.86912h288.03072v97.97632H318.6688v64.26624h-73.728v82.78016h534.1184v-82.78016h-73.64608v-64.26624h-57.09824v-97.97632h288.03072c44.6464 0 80.85504-38.01088 80.85504-84.86912V127.87712c0-46.81728-36.20864-84.82816-80.85504-84.82816z m-7.53664 615.8336H95.232V128.94208h833.57696v529.94048z" p-id="32383"/><path fill="#1296db" d="M715.3664 268.0832l-54.39488-54.39488-198.16448 198.16448L363.1104 312.1152 308.71552 366.51008l154.91072 154.91072 54.35392-54.35392-0.8192-0.86016z" p-id="32384"/></svg>