<svg xmlns="http://www.w3.org/2000/svg" width="200" height="200" class="icon"
     p-id="3308" t="1572577002048" version="1.1" viewBox="0 0 1024 1024">
  <defs>
    <style type="text/css"/>
  </defs>
  <path
    d="M795.1872 364.288H332.4416V256.3584a179.6096 179.6096 0 0 1 355.2768-37.2224 38.4 38.4 0 1 0 75.1616-15.8208 256.4096 256.4096 0 0 0-507.2384 53.0432v107.9296H228.8128A161.4848 161.4848 0 0 0 67.5328 525.568v337.152A161.4848 161.4848 0 0 0 228.8128 1024h566.3744a161.4848 161.4848 0 0 0 161.28-161.28v-337.152a161.4848 161.4848 0 0 0-161.28-161.28z m84.48 498.432a84.5824 84.5824 0 0 1-84.48 84.48H228.8128A84.5824 84.5824 0 0 1 144.3328 862.72v-337.152a84.5824 84.5824 0 0 1 84.48-84.48h566.3744a84.5824 84.5824 0 0 1 84.48 84.48z"
    p-id="3309"/>
  <path d="M512 578.9184a38.4 38.4 0 0 0-38.4 38.4v153.6a38.4 38.4 0 0 0 76.8 0v-153.6a38.4 38.4 0 0 0-38.4-38.4z"
        p-id="3310"/>
</svg>
