<?xml version="1.0" standalone="no"?><!DOCTYPE svg PUBLIC "-//W3C//DTD SVG 1.1//EN" "http://www.w3.org/Graphics/SVG/1.1/DTD/svg11.dtd"><svg t="1572577221769" class="icon" viewBox="0 0 1024 1024" version="1.1" xmlns="http://www.w3.org/2000/svg" p-id="3430" xmlns:xlink="http://www.w3.org/1999/xlink" width="200" height="200"><defs><style type="text/css"></style></defs><path d="M868.57142844 409.14285687H505.14285687v-137.14285687c0-123.42857156-96-219.42857156-219.42857156-219.42857156C162.28571469 52.57142844 66.28571469 148.57142844 66.28571469 272v144H148.57142844V272c0-75.42857156 61.71428531-137.14285688 137.14285687-137.14285688s137.14285688 61.71428531 137.14285782 137.14285688v137.14285688H299.42857156c-34.28571469 0-61.71428531 27.42857156-61.71428625 54.85714312v404.57142844c0 27.42857156 27.42857156 54.85714313 54.85714313 54.85714312h576c27.42857156 0 54.85714313-27.42857156 54.85714312-54.85714312V464c0-27.42857156-20.57142844-54.85714313-54.85714312-54.85714313z m-253.71428531 274.28571469v89.14285688c0 6.85714313 0 6.85714313-6.85714313 6.85714312h-48c-6.85714313 0-6.85714313 0-6.85714312-6.85714312v-89.14285688c-20.57142844-13.71428531-41.14285687-34.28571469-41.14285688-61.71428625 0-41.14285687 27.42857156-68.57142844 68.57142844-68.57142843s68.57142844 34.28571469 68.57142844 68.57142843c6.85714313 27.42857156-13.71428531 48-34.28571375 61.71428625z" fill="#515151" p-id="3431"></path></svg>