<svg xmlns="http://www.w3.org/2000/svg" xmlns:xlink="http://www.w3.org/1999/xlink" width="225" height="200" class="icon" p-id="2884" t="1557917249037" version="1.1" viewBox="0 0 1152 1024"><defs><style type="text/css"/></defs><path d="M1087.427062 1024h-255.865191a63.966298 63.966298 0 0 1-63.966298-63.966298v-255.865191a63.966298 63.966298 0 0 1 63.966298-63.966298h63.966298V576.235916H255.865191v63.966297h63.966298a63.966298 63.966298 0 0 1 63.966298 63.966298v255.865191a63.966298 63.966298 0 0 1-63.966298 63.966298H63.966298a63.966298 63.966298 0 0 1-63.966298-63.966298v-255.865191a63.966298 63.966298 0 0 1 63.966298-63.966298h63.966298V576.235916a127.484831 127.484831 0 0 1 127.932595-127.932596h255.865191V372.823089a191.898893 191.898893 0 1 1 127.932596 0V448.30332h255.865191a127.932596 127.932596 0 0 1 127.932595 127.932596v63.966297h63.966298a63.966298 63.966298 0 0 1 63.966298 63.966298v255.865191a63.966298 63.966298 0 0 1-63.966298 63.966298zM191.898893 768.134809a63.966298 63.966298 0 1 0 63.966298 63.966298 63.966298 63.966298 0 0 0-63.966298-63.966298zM575.69668 128.471831a63.966298 63.966298 0 1 0 63.966298 63.966298 63.966298 63.966298 0 0 0-63.966298-63.966298z m383.797786 639.662978a63.966298 63.966298 0 1 0 63.966298 63.966298 63.966298 63.966298 0 0 0-63.966298-63.966298z" p-id="2885"/></svg>