<svg xmlns="http://www.w3.org/2000/svg" xmlns:xlink="http://www.w3.org/1999/xlink" width="200" height="200" class="icon" p-id="5057" t="1563879056601" version="1.1" viewBox="0 0 1024 1024"><defs><style type="text/css"/></defs><path fill="#666" d="M428.23268656 436.21052656c5.31855937 0 7.97783906-2.65927969 10.63711969-5.31855937 2.65927969-2.65927969 5.31855937-7.97783906 5.31855938-10.63711969V79.86703625c0-2.65927969 0-5.31855937-2.65927969-5.31855937h-5.31855938L319.20221563 191.55678688 164.96398906 37.31855938C162.30470938 34.65927969 156.98615 32 154.32686938 32c-5.31855937 0-10.63711875 2.65927969-13.29639844 5.31855937L37.31855938 141.03047094c-2.65927969 2.65927969-5.31855937 7.97783906-5.31855938 10.63711875 0 5.31855937 2.65927969 10.63711875 5.31855937 13.29639937L191.55678688 316.54293594l-111.68975063 111.68975062c-2.65927969 2.65927969-2.65927969 2.65927969 0 5.31856032 0 2.65927969 2.65927969 2.65927969 5.31855937 2.65927968h343.04709094z m0 146.2603875c5.31855937 0 7.97783906 2.65927969 10.63711969 5.31855938 2.65927969 2.65927969 5.31855937 7.97783906 5.31855938 10.63711968v343.04709094c0 2.65927969 0 5.31855937-2.65927969 5.31855938h-5.31855938L319.20221563 829.78393344 164.96398906 984.02216094c-2.65927969 2.65927969-7.97783906 5.31855937-10.63711969 5.31855937-5.31855937 0-7.97783906-2.65927969-10.63711875-5.31855937L39.97783906 880.31024938c-5.31855937-2.65927969-7.97783906-7.97783906-7.97783906-10.63711876s2.65927969-7.97783906 5.31855938-10.63711968L191.55678688 704.79778437l-111.68975063-111.68975156c-2.65927969-2.65927969-2.65927969-2.65927969 0-5.31855937 0-2.65927969 2.65927969-2.65927969 5.31855937-2.65927969l343.04709094-2.65927969z m164.87534625-146.2603875c-5.31855937 0-7.97783906-2.65927969-10.63711875-5.31855937-2.65927969-2.65927969-5.31855937-7.97783906-5.31855937-10.63711969V79.86703625c0-2.65927969 0-5.31855937 2.65927969-5.31855937h5.31855937L702.13850375 191.55678688 856.37673125 37.31855938c2.65927969-2.65927969 7.97783906-5.31855937 10.63711875-5.31855938 5.31855937 0 7.97783906 2.65927969 10.63711969 5.31855937l103.71191156 103.71191157c5.31855937 2.65927969 7.97783906 7.97783906 7.97783906 10.63711875 0 5.31855937-2.65927969 7.97783906-5.31855937 10.63711968L829.78393344 316.54293594l111.68975062 111.68975062c2.65927969 2.65927969 2.65927969 2.65927969 0 5.31856032 0 2.65927969-2.65927969 2.65927969-5.31855937 2.65927968H593.10803281z m0 146.2603875c-5.31855937 0-7.97783906 2.65927969-10.63711875 5.31855938-2.65927969 2.65927969-5.31855937 7.97783906-5.31855937 10.63711968v343.04709094c0 2.65927969 0 5.31855937 2.65927969 5.31855938h5.31855937l114.34903031-114.34903032 154.2382275 154.2382275c2.65927969 2.65927969 7.97783906 5.31855937 10.63711875 5.31855938 5.31855937 0 7.97783906-2.65927969 10.63711969-5.31855937l103.71191156-103.71191157c2.65927969-2.65927969 5.31855937-7.97783906 5.31855938-10.63711875s-2.65927969-7.97783906-5.31855938-10.63711968L829.78393344 704.79778437l111.68975062-111.68975156c2.65927969-2.65927969 2.65927969-2.65927969 0-5.31855937 0-2.65927969-2.65927969-2.65927969-5.31855937-2.65927969l-343.04709188-2.65927969z" p-id="5058"/></svg>