<svg xmlns="http://www.w3.org/2000/svg" width="200" height="200" class="icon"
     p-id="2764" t="1563539947382" version="1.1" viewBox="0 0 1024 1024">
  <defs>
    <style type="text/css"/>
  </defs>
  <path d="M0 64h64v768H0zM960 64h64v768h-64z" p-id="2765"/>
  <path d="M0 64h1024v64H0zM0 768h1024v64H0zM0 320h256v64H0zM768 448h256v64h-256zM64 896h896v64H64z" p-id="2766"/>
  <path d="M192 320h64l192 320H384zM576 192h64l192 320h-64z" p-id="2767"/>
  <path d="M640 192H576l-192 448h64z" p-id="2768"/>
  <path d="M384 576h64v64H384zM576 192h64v64H576z" p-id="2769"/>
</svg>
