<?xml version="1.0" standalone="no"?><!DOCTYPE svg PUBLIC "-//W3C//DTD SVG 1.1//EN" "http://www.w3.org/Graphics/SVG/1.1/DTD/svg11.dtd"><svg t="1563539947382" class="icon" viewBox="0 0 1024 1024" version="1.1" xmlns="http://www.w3.org/2000/svg" p-id="2764" xmlns:xlink="http://www.w3.org/1999/xlink" width="200" height="200"><defs><style type="text/css"></style></defs><path d="M0 64h64v768H0zM960 64h64v768h-64z" p-id="2765"></path><path d="M0 64h1024v64H0zM0 768h1024v64H0zM0 320h256v64H0zM768 448h256v64h-256zM64 896h896v64H64z" p-id="2766"></path><path d="M192 320h64l192 320H384zM576 192h64l192 320h-64z" p-id="2767"></path><path d="M640 192H576l-192 448h64z" p-id="2768"></path><path d="M384 576h64v64H384zM576 192h64v64H576z" p-id="2769"></path></svg>