<svg xmlns="http://www.w3.org/2000/svg" xmlns:xlink="http://www.w3.org/1999/xlink" width="300" height="300" class="icon" p-id="1952" t="1583977537916" version="1.1" viewBox="0 0 1024 1024"><defs><style type="text/css"/></defs><path d="M808.905 257.625h-597.41c-29.862 0-54.295 24.433-54.295 54.295v393.41c0 29.862 24.433 54.295 54.295 54.295h597.41c29.862 0 54.295-24.433 54.295-54.295V311.92c0-29.863-24.433-54.295-54.295-54.295zM830.2 691.066c0 19.558-16.002 35.559-35.559 35.559H225.759c-19.557 0-35.559-16.001-35.559-35.559V326.184c0-19.557 16.002-35.559 35.559-35.559h568.882c19.557 0 35.559 16.002 35.559 35.559v364.882z" p-id="1953"/><path d="M497.016 368.625H272.429c-15.239 0-27.706 12.468-27.706 27.706v224.587c0 15.239 12.468 27.706 27.706 27.706h224.587c15.239 0 27.707-12.468 27.707-27.706V396.331c-0.001-15.238-12.469-27.706-27.707-27.706zM282.802 618.809c3.031-55.367 64.458-42.145 73.824-67.487 0.826-8.815 0.55-14.875 0.55-22.863-3.856-1.928-17.629-15.15-18.731-26.444-3.03-0.275-7.988-3.306-9.366-15.425-0.826-6.611 2.204-10.192 4.132-11.294-10.467-40.492 3.581-76.027 50.96-76.853 11.845 0 20.935 3.306 24.516 9.366 34.708 4.683 32.504 52.062 27.545 67.212 1.928 1.102 4.959 4.959 4.132 11.294-1.377 12.12-6.335 15.151-9.366 15.426-1.101 11.019-14.874 24.241-18.73 26.444 0 7.988-0.275 14.323 0.551 22.863 9.366 25.617 72.171 11.569 73.824 67.763H282.802zM747.94 570.808h-170c-11 0-20-9-20-20s9-20 20-20h170c11 0 20 9 20 20s-9 20-20 20zM747.94 641.19h-170c-11 0-20-9-20-20s9-20 20-20h170c11 0 20 9 20 20s-9 20-20 20zM636.548 257.625v219l75.473-49 74.527 49v-219h-150z m117 157.353l-42-29-42 29V292.493h84v122.485z" p-id="1954"/></svg>