<?xml version="1.0" standalone="no"?><!DOCTYPE svg PUBLIC "-//W3C//DTD SVG 1.1//EN" "http://www.w3.org/Graphics/SVG/1.1/DTD/svg11.dtd"><svg t="1567496483620" class="icon" viewBox="0 0 1024 1024" version="1.1" xmlns="http://www.w3.org/2000/svg" p-id="1994" xmlns:xlink="http://www.w3.org/1999/xlink" width="200" height="200"><defs><style type="text/css"></style></defs><path d="M898.6624 55.0912H274.432C234.0864 55.0912 200.9088 88.064 200.9088 128.4096v75.5712H262.144V128.4096c0-6.5536 5.5296-12.288 12.288-12.288h624.2304c6.5536 0 12.288 5.5296 12.288 12.288v648.8064c0 6.5536-5.5296 12.288-12.288 12.288h-106.2912v61.2352h106.2912c40.3456 0 73.5232-32.9728 73.5232-73.5232V128.4096c0-40.3456-32.9728-73.3184-73.5232-73.3184z" p-id="1995" fill="#dbdbdb"></path><path d="M749.568 173.2608H125.3376C84.992 173.2608 51.8144 206.2336 51.8144 246.784v648.8064c0 40.3456 32.9728 73.5232 73.5232 73.5232H749.568c40.3456 0 73.5232-32.9728 73.5232-73.5232V246.784c0-40.3456-33.1776-73.5232-73.5232-73.5232z m12.288 722.3296c0 6.5536-5.5296 12.288-12.288 12.288H125.3376c-6.5536 0-12.288-5.5296-12.288-12.288V246.784c0-6.5536 5.5296-12.288 12.288-12.288H749.568c6.5536 0 12.288 5.5296 12.288 12.288v648.8064z" p-id="1996" fill="#dbdbdb"></path><path d="M657.2032 573.44c-2.4576-11.264-11.4688-20.48-22.7328-22.9376-11.0592-2.4576-21.2992 1.4336-28.2624 8.6016l-139.0592 139.0592V365.3632v-0.6144c0-16.5888-13.5168-30.1056-30.1056-30.1056s-30.1056 13.5168-30.1056 30.1056c0 0.8192 0.2048 1.4336 0.2048 2.048v331.3664l-138.4448-138.4448c-6.7584-7.3728-17.2032-11.4688-28.4672-9.0112-11.264 2.4576-20.2752 11.4688-22.7328 22.7328-2.4576 11.0592 1.2288 21.2992 8.3968 28.0576l202.5472 202.5472c4.7104 4.7104 12.288 4.7104 17.2032 0l202.5472-202.3424c7.3728-6.7584 11.264-17.2032 9.0112-28.2624z" p-id="1997" fill="#dbdbdb"></path></svg>