<svg xmlns="http://www.w3.org/2000/svg" width="200" height="200" class="icon"
     p-id="2670" t="1559186805960" version="1.1" viewBox="0 0 1024 1024">
  <defs>
    <style type="text/css"/>
  </defs>
  <path
    d="M120.469333 328.533333c-19.413333 0-35.136 15.722667-35.136 35.136v475.861334C85.333333 858.944 101.056 874.666667 120.469333 874.666667h783.061334c19.413333 0 35.136-15.722667 35.136-35.136V363.669333c0-19.413333-15.722667-35.136-35.136-35.136H120.469333z m0-85.333333h783.061334A120.469333 120.469333 0 0 1 1024 363.669333v475.861334A120.469333 120.469333 0 0 1 903.530667 960H120.469333A120.469333 120.469333 0 0 1 0 839.530667V363.669333A120.469333 120.469333 0 0 1 120.469333 243.2z"
    p-id="2671"/>
  <path
    d="M481.877333 571.733333v-149.077333a30.122667 30.122667 0 0 1 60.245334 0V571.733333h150.826666a29.866667 29.866667 0 1 1 0 59.733334h-150.826666v149.077333a30.122667 30.122667 0 0 1-60.245334 0V631.466667h-150.826666a29.866667 29.866667 0 1 1 0-59.733334h150.826666z"
    p-id="2672"/>
  <path
    d="M180.714667 153.6m29.866666 0l602.858667 0q29.866667 0 29.866667 29.866667l0 0q0 29.866667-29.866667 29.866666l-602.858667 0q-29.866667 0-29.866666-29.866666l0 0q0-29.866667 29.866666-29.866667Z"
    p-id="2673"/>
  <path
    d="M301.184 64m29.866667 0l361.92 0q29.866667 0 29.866666 29.866667l0 0q0 29.866667-29.866666 29.866666l-361.92 0q-29.866667 0-29.866667-29.866666l0 0q0-29.866667 29.866667-29.866667Z"
    p-id="2674"/>
</svg>
