<?xml version="1.0" standalone="no"?><!DOCTYPE svg PUBLIC "-//W3C//DTD SVG 1.1//EN" "http://www.w3.org/Graphics/SVG/1.1/DTD/svg11.dtd"><svg t="1562723969719" class="icon" viewBox="0 0 1024 1024" version="1.1" xmlns="http://www.w3.org/2000/svg" p-id="2708" xmlns:xlink="http://www.w3.org/1999/xlink" width="200" height="200"><defs><style type="text/css"></style></defs><path d="M550.272 405.376a173.28 173.28 0 0 0-173.088 173.056c0 41.376 14.656 79.456 39.04 109.248l8.416-3.392a920.32 920.32 0 0 1 78.912-27.968c1.952-0.608 2.24-0.704 2.24-9.28 0-9.056-1.088-15.552-3.264-20.288a99.584 99.584 0 0 1-7.968-27.2c-3.648-4.288-8.576-12.608-11.776-28.448-2.784-13.984-1.472-19.04 0.416-23.84l0.48-1.536c0.704-3.2-0.224-20.224-2.656-33.44-1.632-9.056 0.48-28.288 12.96-44.256 7.808-10.08 22.944-22.432 49.984-24.128l15.104-0.032c27.488 1.728 42.624 14.08 50.528 24.16 12.448 15.968 14.496 35.2 12.864 44.288-2.4 13.216-3.36 30.208-2.656 33.504l0.544 1.44c1.824 4.8 3.232 9.888 0.448 23.872-3.328 15.84-8.192 24.16-11.808 28.448a100.608 100.608 0 0 1-8.064 27.2c-2.784 5.984-5.6 13.024-5.6 20.032 0 8.544 0.32 8.608 2.304 9.28 23.936 7.072 62.592 20.48 79.008 27.296l8.448 3.52a172.16 172.16 0 0 0 38.304-108.448 173.376 173.376 0 0 0-173.12-173.088z m313.248 48.544s19.424-261.824-220.448-291.68c-205.632-20.96-268.096 170.08-268.096 170.08s-61.984-59.552-145.952-10.944c-75.168 46.464-61.92 131.424-61.92 131.424S0.16 485.216 0.16 655.456c3.744 169.984 181.376 171.648 181.376 171.648h653.184s165.312 0.224 188.576-161.504c11.04-176.832-159.776-211.68-159.776-211.68z m-133.76 200.352a193.6 193.6 0 0 1-41.664 61.92 196.288 196.288 0 0 1-62.016 41.792 193.92 193.92 0 0 1-75.808 15.328 193.152 193.152 0 0 1-75.84-15.328 195.104 195.104 0 0 1-61.984-41.792 194.368 194.368 0 0 1-57.088-137.76 194.368 194.368 0 0 1 57.088-137.792 194.656 194.656 0 0 1 213.632-41.76 196.192 196.192 0 0 1 62.016 41.76 193.6 193.6 0 0 1 41.664 61.92c10.208 24 15.392 49.536 15.392 75.872 0 26.272-5.184 51.776-15.392 75.84z" p-id="2709"></path></svg>