<?xml version="1.0" standalone="no"?><!DOCTYPE svg PUBLIC "-//W3C//DTD SVG 1.1//EN" "http://www.w3.org/Graphics/SVG/1.1/DTD/svg11.dtd"><svg t="1574042751883" class="icon" viewBox="0 0 1024 1024" version="1.1" xmlns="http://www.w3.org/2000/svg" p-id="2097" xmlns:xlink="http://www.w3.org/1999/xlink" width="200" height="200"><defs><style type="text/css"></style></defs><path d="M81.7 361.2l424.2 231.7c5.1 2.8 10.7 4.2 16.3 4.2 5.9 0 11.7-1.5 16.9-4.5l402-231.7c10.5-6.1 17-17.3 17-29.4 0-12.1-6.5-23.4-17-29.4L539 71c-10.3-5.9-22.8-6.1-33.1-0.4l-424.2 231C70.8 307.6 64 319 64 331.4s6.8 23.8 17.7 29.8z m440-221.9L856 331.5 521.7 524.2 168.8 331.5l352.9-192.2z" p-id="2098"></path><path d="M907.1 475.8L521.7 698 114.2 475.4c-16.5-9-37.1-2.9-46.1 13.5s-2.9 37.1 13.5 46l424.2 231.7c5.1 2.8 10.7 4.2 16.3 4.2 5.9 0 11.7-1.5 16.9-4.5l402-231.7c16.2-9.4 21.8-30.1 12.5-46.4-9.4-16.2-30.2-21.8-46.4-12.4z" p-id="2099"></path><path d="M907.1 664.5L521.7 886.7 114.2 664.1c-16.5-9-37.1-2.9-46.1 13.5s-2.9 37.1 13.5 46l424.2 231.7c5.1 2.8 10.7 4.2 16.3 4.2 5.9 0 11.7-1.5 16.9-4.5l402-231.7c16.2-9.4 21.8-30.1 12.5-46.4-9.4-16.1-30.2-21.8-46.4-12.4z" p-id="2100"></path></svg>