<?xml version="1.0" standalone="no"?><!DOCTYPE svg PUBLIC "-//W3C//DTD SVG 1.1//EN" "http://www.w3.org/Graphics/SVG/1.1/DTD/svg11.dtd"><svg t="1574130528003" class="icon" viewBox="0 0 1024 1024" version="1.1" xmlns="http://www.w3.org/2000/svg" p-id="4003" xmlns:xlink="http://www.w3.org/1999/xlink" width="200" height="200"><defs><style type="text/css"></style></defs><path d="M984.6 411.6L804.9 591.3c-16.6 16.6-43.4 16.6-59.9 0L565.3 411.6c-16.6-16.5-16.6-43.4 0-59.9L745 172c16.6-16.6 43.4-16.6 59.9 0l179.7 179.7c16.6 16.5 16.6 43.3 0 59.9z m-524.9 589.8h-257c-25.9 0-46.8-20.9-46.8-46.8V697.5c0-25.8 20.9-46.8 46.8-46.8h257.1c25.8 0 46.8 21 46.8 46.8v257.1c-0.1 25.9-21.1 46.8-46.9 46.8z m0-420.8h-257c-25.9 0-46.8-20.9-46.8-46.8v-257c0-25.8 20.9-46.8 46.8-46.8h257.1c25.8 0 46.8 21 46.8 46.8v257.1c-0.1 25.8-21.1 46.7-46.9 46.7z m163.6 70.2h257.1c25.8 0 46.8 21 46.8 46.8v257.1c0 25.9-21 46.8-46.8 46.8H623.3c-25.8 0-46.8-20.9-46.8-46.8V697.5c0.1-25.8 21-46.7 46.8-46.7z" fill="#5ECEF4" p-id="4004"></path><path d="M367.2 26.1a2.3 12.4 0 1 0 4.6 0 2.3 12.4 0 1 0-4.6 0Z" fill="#E61F19" p-id="4005"></path><path d="M356.683429 29.873771a12.4 2.3 60 1 0 3.983717-2.3 12.4 2.3 60 1 0-3.983717 2.3Z" fill="#E61F19" p-id="4006"></path><path d="M349.668151 38.473296a12.4 2.3 30 1 0 2.3-3.983717 12.4 2.3 30 1 0-2.3 3.983717Z" fill="#E61F19" p-id="4007"></path><path d="M335.3 47.1a12.4 2.3 0 1 0 24.8 0 12.4 2.3 0 1 0-24.8 0Z" fill="#E61F19" p-id="4008"></path><path d="M339.661409 64.092464a2.3 12.4 60 1 0 21.47743-12.4 2.3 12.4 60 1 0-21.47743 12.4Z" fill="#E61F19" p-id="4009"></path><path d="M351.914847 76.60243a2.3 12.4 30 1 0 12.4-21.47743 2.3 12.4 30 1 0-12.4 21.47743Z" fill="#E61F19" p-id="4010"></path><path d="M366.4 68.9a2.3 12.4 0 1 0 4.6 0 2.3 12.4 0 1 0-4.6 0Z" fill="#E61F19" p-id="4011"></path><path d="M377.52056 67.434347a12.4 2.3 60 1 0 3.983717-2.3 12.4 2.3 60 1 0-3.983717 2.3Z" fill="#E61F19" p-id="4012"></path><path d="M386.347124 60.558878a12.4 2.3 30 1 0 2.3-3.983717 12.4 2.3 30 1 0-2.3 3.983717Z" fill="#E61F19" p-id="4013"></path><path d="M378.1 47.9a12.4 2.3 0 1 0 24.8 0 12.4 2.3 0 1 0-24.8 0Z" fill="#E61F19" p-id="4014"></path><path d="M377.078484 43.422187a2.3 12.4 60 1 0 21.47743-12.4 2.3 12.4 60 1 0-21.47743 12.4Z" fill="#E61F19" p-id="4015"></path><path d="M373.950677 39.95449a2.3 12.4 30 1 0 12.4-21.47743 2.3 12.4 30 1 0-12.4 21.47743Z" fill="#E61F19" p-id="4016"></path><path d="M169.7 66c-5.6 2.9-8.4 8.5-6.3 12.7l41.2 79.8c2.1 4.1 8.4 5.1 13.9 2.2 5.6-2.9 8.4-8.5 6.3-12.7l-41.2-79.7c-2.1-4.2-8.3-5.2-13.9-2.3z" fill="#DAB647" p-id="4017"></path><path d="M146.8 137.7c2.9 5.6 8.5 8.4 12.7 6.3l79.7-41.2c4.1-2.1 5.1-8.4 2.2-13.9-2.9-5.6-8.5-8.4-12.7-6.3L149 123.8c-4.1 2.1-5 8.3-2.2 13.9z" fill="#DAB647" p-id="4018"></path><path d="M536.5 190.1m-30.5 0a30.5 30.5 0 1 0 61 0 30.5 30.5 0 1 0-61 0Z" fill="#EC7677" p-id="4019"></path><path d="M900.7 227.9c-21.1 0-38.2-16.9-38.2-37.8s17.1-37.8 38.2-37.8 38.2 16.9 38.2 37.8-17.2 37.8-38.2 37.8z m0-65.6c-15.5 0-28.1 12.5-28.1 27.8s12.6 27.8 28.1 27.8 28.1-12.5 28.1-27.8-12.7-27.8-28.1-27.8z" fill="#E62A52" p-id="4020"></path><path d="M840.5 1015.3H583.4c-33.4 0-60.7-27.2-60.7-60.7V697.5c0-33.4 27.2-60.7 60.7-60.7h257.1c33.4 0 60.7 27.2 60.7 60.7v37.3c0 7.7-6.2 13.9-13.9 13.9s-13.9-6.2-13.9-13.9v-37.3c0-18.1-14.7-32.8-32.8-32.8H583.4c-18.1 0-32.8 14.7-32.8 32.8v257.1c0 18.1 14.7 32.8 32.8 32.8h257.1c18.1 0 32.8-14.7 32.8-32.8 0-7.7 6.2-13.9 13.9-13.9s13.9 6.2 13.9 13.9c0.1 33.5-27.1 60.7-60.6 60.7z m-420.7 0H379c-7.7 0-13.9-6.2-13.9-13.9s6.2-13.9 13.9-13.9h40.7c18.1 0 32.8-14.7 32.8-32.8V697.5c0-18.1-14.7-32.8-32.8-32.8H162.6c-18.1 0-32.8 14.7-32.8 32.8v257.1c0 18.1 14.7 32.8 32.8 32.8H314c7.7 0 13.9 6.2 13.9 13.9s-6.2 13.9-13.9 13.9H162.6c-33.4 0-60.7-27.2-60.7-60.7v-257c0-33.4 27.2-60.7 60.7-60.7h257.1c33.4 0 60.7 27.2 60.7 60.7v257.1c0.1 33.5-27.1 60.7-60.6 60.7z m467.5-102.1c-7.7 0-13.9-6.2-13.9-13.9V788.4c0-7.7 6.2-13.9 13.9-13.9s13.9 6.2 13.9 13.9v110.8c0 7.8-6.2 14-13.9 14zM735 617.6c-14.4 0-28.8-5.5-39.8-16.4L515.5 421.4c-10.6-10.6-16.5-24.7-16.5-39.8 0-15 5.9-29.2 16.5-39.8l179.7-179.7c10.6-10.6 24.7-16.5 39.8-16.5s29.1 5.9 39.8 16.5l33 33c5.5 5.5 5.5 14.3 0 19.7-5.5 5.5-14.3 5.5-19.7 0l-33-33c-5.3-5.3-12.5-8.4-20.1-8.4s-14.7 3-20.1 8.4L535.2 361.6c-5.3 5.3-8.3 12.5-8.3 20.1 0 7.6 3 14.7 8.3 20.1l179.7 179.7c11.1 11.1 29.1 11.1 40.2 0l179.7-179.7c5.3-5.3 8.4-12.5 8.4-20.1s-3-14.7-8.3-20.1L832.1 258.8c-5.5-5.5-5.5-14.3 0-19.7 5.5-5.5 14.3-5.5 19.7 0l102.7 102.8c10.6 10.6 16.5 24.7 16.5 39.8 0 15-5.9 29.2-16.5 39.8L774.8 601.1c-11 11-25.4 16.5-39.8 16.5z m-315.2-23H162.6c-33.4 0-60.7-27.2-60.7-60.7V381.6c0-7.7 6.2-13.9 13.9-13.9s13.9 6.2 13.9 13.9v152.2c0 18.1 14.7 32.8 32.8 32.8h257.1c18.1 0 32.8-14.7 32.8-32.8v-257c0-18.1-14.7-32.8-32.8-32.8h-257c-18.1 0-32.8 14.7-32.8 32.8v28c0 7.7-6.2 13.9-13.9 13.9s-13.9-6.2-13.9-13.9v-28c0-33.4 27.2-60.7 60.7-60.7h257.1c33.4 0 60.7 27.2 60.7 60.7v257.1c0 33.5-27.2 60.7-60.7 60.7z" fill="" p-id="4021"></path></svg>