<svg xmlns="http://www.w3.org/2000/svg" xmlns:xlink="http://www.w3.org/1999/xlink" width="300" height="300" class="icon" p-id="17937" t="1574130865029" version="1.1" viewBox="0 0 1024 1024"><defs><style type="text/css"/></defs><path fill="#388BEA" d="M958.906 265.131A86214.66 86214.66 0 0 1 841.968 89.833c-1.964-2.953-4.007-4.119-7.627-4.118-213.963 0.096-427.927 0.093-641.89 0.021-3.346-0.001-5.382 0.934-7.296 3.815-39.085 58.81-78.281 117.546-117.489 176.275-1.433 2.146-2.223 4.264-2.223 6.926 0.055 195.299 0.049 390.599 0.061 585.898 0.001 9.388 1.301 18.595 4.545 27.438 12.693 34.596 42.319 55.044 79.948 55.055 120.98 0.033 241.959 0.013 362.938 0.013 120.813 0 241.625 0.017 362.438-0.049 5.81-0.004 11.713-0.203 17.414-1.21 41.209-7.275 68.651-40.052 68.661-82.063 0.046-194.799 0.014-389.601 0.071-584.4 0.002-3.16-0.866-5.69-2.613-8.303z m-809.501 0.563c25.545-38.404 51.142-76.773 76.622-115.22 1.696-2.559 3.515-3.418 6.5-3.417 187.258 0.063 374.516 0.061 561.775 0.024 2.643 0 4.591 0.361 6.266 2.887 25.776 38.845 51.674 77.609 77.531 116.399 0.442 0.664 0.762 1.409 1.508 2.812H148.19c-0.789-1.583 0.54-2.469 1.215-3.485z m445.538 64.881c-0.049 2.164-0.139 4.328-0.14 6.491-0.007 89.813-0.006 179.626-0.006 269.438 0 1 0.005 2-0.001 3-0.026 5.604-0.04 5.627-4.901 3.236-7.914-3.895-15.813-7.819-23.717-11.732-16.4-8.119-32.848-16.149-49.163-24.437-3.158-1.604-5.58-1.601-8.723 0.016-23.087 11.863-46.273 23.534-69.429 35.271-6.649 3.369-6.647 3.375-6.647-3.854-0.001-90.313 0-180.625-0.006-270.938 0-2.164-0.071-4.329-0.109-6.493 1.157-0.084 2.316-0.243 3.475-0.243 51.963-0.012 103.927-0.012 155.89 0 1.159 0.002 2.318 0.16 3.477 0.245z m305.461 505.398c-0.002 21.834-12.193 38.307-31.648 42.919-3.602 0.854-7.269 0.882-10.93 0.882-229.765 0.011-459.527 0.022-689.292-0.011-24.287-0.004-41.946-17.588-41.953-41.854-0.049-167.616-0.021-335.232-0.066-502.848-0.001-2.992 0.044-4.836 4.067-4.83 79.309 0.121 158.618 0.092 237.927 0.106 0.826 0 1.651 0.164 2.477 0.252 1.512 2.814 0.94 5.875 0.941 8.833 0.029 121.79 0.024 243.578 0.025 365.367 0 9.847 0.018 9.877 8.581 4.998 42.122-23.999 84.107-48.234 126.187-72.308 4.647-2.658 8.355-2.64 12.936-0.019 42.938 24.584 85.952 49.036 128.9 73.602 0.867 0.495 1.729 1.004 2.609 1.479 2.601 1.397 3.69 0.403 3.746-2.319 0.037-1.833 0.03-3.664 0.03-5.498 0-121.621-0.006-243.244 0.031-364.867 0.003-3.109-0.694-6.359 1.104-9.279 1.825-0.087 3.65-0.248 5.477-0.248 77.645-0.013 155.286 0.034 232.931-0.121 4.713-0.01 6.052 0.983 6.048 5.916-0.147 166.616-0.117 333.232-0.128 499.848z" p-id="17938"/><path fill="#D9AB34" d="M656.203 711.942c-0.065-0.66-0.01-1.332-0.01-1.999 0-124.457 0.001-248.914-0.006-373.373 0-1.997-0.072-3.995-0.111-5.993-20.378-0.001-40.755-0.002-61.133-0.005-3.147 2.337-1.968 5.763-1.97 8.73-0.067 88.604-0.051 177.206-0.061 265.809-0.001 6.961-0.398 7.24-6.482 4.122-22.232-11.395-45.071-21.563-67.191-33.172-4.774-2.508-8.836-2.57-13.586 0.013-20.632 11.219-41.785 21.426-62.766 31.967-8.91 4.479-8.912 4.479-8.912-5.246l-0.001-194.359c0-23.483 0.027-46.967-0.035-70.449-0.007-2.565 0.683-5.423-1.84-7.415l-61.115 0.016c-0.056 1.33-0.156 2.66-0.156 3.99-0.007 125.624-0.007 251.249-0.007 376.872 0 0.833 0.027 1.666 0 2.498-0.068 2.104 0.68 2.812 2.644 1.63 0.997-0.602 2.037-1.129 3.048-1.708 44.323-25.399 88.657-50.777 132.934-76.256 2.579-1.484 4.5-1.784 7.2-0.204 13.5 7.896 27.127 15.574 40.714 23.321 31.509 17.968 63.062 35.862 94.485 53.982 4.25 2.453 4.724 1.035 4.357-2.771z" p-id="17939"/></svg>