<?xml version="1.0" standalone="no"?><!DOCTYPE svg PUBLIC "-//W3C//DTD SVG 1.1//EN" "http://www.w3.org/Graphics/SVG/1.1/DTD/svg11.dtd"><svg t="1585099846809" class="icon" viewBox="0 0 1024 1024" version="1.1" xmlns="http://www.w3.org/2000/svg" p-id="1212" xmlns:xlink="http://www.w3.org/1999/xlink" width="200" height="200"><defs><style type="text/css"></style></defs><path d="M513.9 566.1c-16.8 0-33.6-4.4-48.9-13.1L152.3 374.2c-14.8-8.5-23.9-25.6-23.5-44 0.4-18.4 10.4-35 25.6-42.5l315.7-157.6c27.8-13.9 59.7-13.9 87.5 0l315.9 157.6c15.2 7.6 25.1 24.1 25.6 42.5 0.4 18.4-8.7 35.5-23.5 44L562.8 553c-15.3 8.8-32.1 13.1-48.9 13.1zM272 334.4l232.9 133.2c5.6 3.2 12.3 3.2 18 0l233-133.2-234-116.7c-5.1-2.5-11-2.6-16.1 0L272 334.4z" fill="#2867CE" p-id="1213"></path><path d="M899.2 595.2L529.9 806.3c-10.1 5.8-22.1 5.7-32.1 0l-369-211.1c0 66.5 33.5 127.4 86.9 158l242.1 138.5c17.5 10 36.7 15 56 15 19.2 0 38.4-5 55.9-15l242.5-138.6c53.4-30.5 87-91.4 87-157.9z" fill="#BDD2EF" p-id="1214"></path><path d="M899.2 428.8L529.9 639.9c-10.1 5.8-22.1 5.7-32.1 0l-369-211.1c0 66.5 33.5 127.4 86.9 158l242.1 138.5c17.5 10 36.7 15 56 15 19.2 0 38.4-5 55.9-15l242.5-138.6c53.4-30.5 87-91.4 87-157.9z" fill="#BDD2EF" p-id="1215"></path></svg>