<svg xmlns="http://www.w3.org/2000/svg" xmlns:xlink="http://www.w3.org/1999/xlink" width="200" height="200" class="icon" p-id="4970" t="1556526695053" version="1.1" viewBox="0 0 1024 1024"><defs><style type="text/css"/></defs><path d="M407.507478 646.678261l56.720696 30.230261-36.329739 58.100869-87.930435-46.925913c-0.089043 2.493217 0.979478 5.965913 5.030957 11.219479 10.774261 13.890783 34.816 28.271304 62.686608 37.531826 30.274783 9.97287 61.529043 13.089391 85.659826 8.45913 147.277913-28.137739 222.074435-95.276522 222.074435-199.635478a197.676522 197.676522 0 0 0-14.068869-69.988174c-14.06887 5.787826-29.696 8.993391-46.124522 9.037913-41.761391 0-78.313739-20.791652-98.081392-51.823304l-95.721739 149.281391-126.530782-69.186783 240.016695-374.160695c17.274435-26.935652 61.484522-60.994783 87.351653-56.364522L711.457391 5.698783l50.754783 27.737043-49.241044 76.755478c16.918261 18.521043 6.856348 69.008696-10.418087 95.944348l-43.898434 68.385391c61.261913 1.691826 110.369391 48.083478 110.369391 105.071305 0 20.168348-6.188522 38.956522-16.829217 54.984348 20.48 33.658435 28.226783 82.454261 28.226782 111.081739 0 69.587478-26.134261 127.777391-77.645913 172.922435a291.439304 291.439304 0 0 1-43.987478 31.654956l91.803826 146.921739h138.150957v73.594435H833.892174v39.357217H197.854609v-39.357217H138.818783v-73.594435h266.150956l59.659131-89.844869a269.623652 269.623652 0 0 1-78.803479-13.979826c-40.96-13.534609-75.063652-35.038609-93.718261-59.035827-19.144348-24.709565-22.438957-52.357565-9.216-76.577391l-76.399304-40.737391 36.329739-58.145391 58.768696 31.343304 5.253565-8.414609 105.961739 56.498087-5.298087 8.414609z m241.530435-217.043478c31.343304 0 56.765217-23.462957 56.765217-52.402087s-25.377391-52.446609-56.765217-52.446609c-31.343304 0-56.765217 23.507478-56.765217 52.446609 0 28.93913 25.377391 52.402087 56.765217 52.402087z" p-id="4971"/></svg>