<svg xmlns="http://www.w3.org/2000/svg" width="200.195" height="200"
     class="icon" p-id="1152" t="1582681095721" version="1.1" viewBox="0 0 1025 1024">
  <defs>
    <style type="text/css"/>
  </defs>
  <path
    d="M828.238 346.146H578.436v32.993h249.803v-32.993zM578.437 577.094h66.658v-32.992h-66.658v32.992z m249.801-131.97H578.436v32.993h249.803v-32.993z m-16.832 98.978c-82.925 0-150.151 66.616-150.151 148.803s67.226 148.803 150.151 148.803c82.923 0 150.149-66.617 150.149-148.803 0-82.188-67.225-148.803-150.149-148.803z m-0.718 242.288c-7.932 7.765-20.788 7.765-28.719 0l-64.598-63.27a19.628 19.628 0 0 1 0-28.122c7.933-7.763 20.788-7.763 28.702 0l50.245 49.207 96.915-94.897c7.912-7.764 20.79-7.764 28.702 0a19.577 19.577 0 0 1 0 28.111L810.687 786.39z m-672.602-10.666c-23.798 0-43.093-19.296-43.093-43.093V256.594c0-23.798 19.295-43.093 43.093-43.093h729.879c23.796 0 43.093 19.295 43.093 43.093v283.769a183.78 183.78 0 0 1 33.664 27.908V245.148c0-35.697-28.932-64.64-64.64-64.64H126.64c-35.708 0-64.64 28.943-64.64 64.64v498.93c0 35.696 28.932 64.638 64.64 64.638h543.59a181.977 181.977 0 0 1-21.903-32.993h-510.24z m66.027-446.485c-14.12 0-25.565 11.108-25.565 24.828v297.88c0 13.708 11.446 24.818 25.565 24.818h281.132c14.098 0 26.617-11.11 26.617-24.818v-297.88c0-13.719-12.519-24.828-26.617-24.828H204.113z m24.639 314.062s-2.567-24.861 10.816-41.547c7.701-7.111 11.91-26.048 52.836-31.877 40.925-5.828 27.227-49.593 28.574-48.942 1.326 0.652-0.358-9.384-0.358-9.384s-22.682-27.626-22.346-52.561c0.337-24.924 0-20.789 0-20.789s-0.821-59.147 41.031-59.147l32.404 10.921c37.6 0 40.252 48.226 40.252 48.226v24.428s0.105 34.129-23.483 46.87c0 0-1.662 10.036-0.337 9.384 1.347-0.641-22.282 45.165 18.664 50.993 40.946 5.829 52.204 24.083 59.925 31.204 7.702 7.122 11.511 42.22 11.511 42.22H228.754z"
    p-id="1153"/>
</svg>
