<svg xmlns="http://www.w3.org/2000/svg" width="200" height="200" class="icon"
     p-id="1957" t="1558508613400" version="1.1" viewBox="0 0 1024 1024">
  <defs>
    <style type="text/css"/>
  </defs>
  <path
    d="M859.263052 174.458357L521.365298 66.747193a30.837332 30.837332 0 0 0-18.73162 0L164.736948 174.458357a30.839379 30.839379 0 0 0-21.472034 29.383214v426.148704c0 65.940828 59.634192 139.018194 182.310186 223.415372 85.317131 58.69582 169.229263 100.364849 172.758646 102.111632a30.842449 30.842449 0 0 0 27.334555 0c3.52836-1.746784 87.440491-43.416835 172.758646-102.111632 122.675994-84.396155 182.310186-157.474544 182.310185-223.415372V203.841571a30.844495 30.844495 0 0 0-21.47408-29.383214zM819.058374 629.989251c0 78.343299-182.816722 199.756533-307.063491 263.358084-124.246769-63.551408-307.054281-184.922686-307.054281-263.358084v-403.61243l307.058375-97.881285 307.058374 97.881285v403.61243z"
    p-id="1958"/>
  <path
    d="M380.455012 388.650671c0 63.070454 43.932582 116.03883 102.794177 130.001843v198.940958c0 17.030885 13.808494 30.838356 30.838356 30.838355s30.838356-13.808494 30.838355-30.838355v-82.235956h51.076283c17.029862 0 30.838356-13.808494 30.838355-30.838356 0-17.030885-13.808494-30.838356-30.838355-30.838356h-51.076283v-55.02829c58.862619-13.963013 102.794178-66.931389 102.794178-130.001843 0-73.685209-59.945277-133.633556-133.633557-133.633557s-133.63151 59.948347-133.631509 133.633557z m133.632533-71.955822c39.677675 0 71.955822 32.279171 71.955822 71.955822s-32.279171 71.955822-71.955822 71.955822-71.955822-32.279171-71.955822-71.955822 32.279171-71.955822 71.955822-71.955822z"
    p-id="1959"/>
</svg>
