<?xml version="1.0" standalone="no"?><!DOCTYPE svg PUBLIC "-//W3C//DTD SVG 1.1//EN" "http://www.w3.org/Graphics/SVG/1.1/DTD/svg11.dtd"><svg t="1575963828181" class="icon" viewBox="0 0 1024 1024" version="1.1" xmlns="http://www.w3.org/2000/svg" p-id="16947" xmlns:xlink="http://www.w3.org/1999/xlink" width="128" height="128"><defs><style type="text/css"></style></defs><path d="M109.06 63.147h531.056v897.411H109.06z" fill="#3A5CAC" p-id="16948"></path><path d="M550.945 749.402v211.156h-59.583V775.797H253.031v184.761h-59.582v-237.55h357.496z" fill="#F3797D" p-id="16949"></path><path d="M914.693 960.558l0.303-632.414-259.99-1.053v633.467z" fill="#3A5CAC" p-id="16950"></path><path d="M193.449 195.119h148.957v52.789H193.449z m0 131.972h148.957v52.789H193.449z m208.539-131.972h148.957v52.789H401.988z m0 131.972h148.957v52.789H401.988zM193.449 459.063h148.957v52.789H193.449z m208.539 0h148.957v52.789H401.988z m308.272-54.436h148.957v52.789H710.26z m0 131.973h148.957v52.789H710.26z m0 131.972h148.957v52.789H710.26z m-516.811-77.536h148.957v52.789H193.449z m208.539 0h148.957v52.789H401.988z" fill="#F3797D" p-id="16951"></path></svg>