<svg xmlns="http://www.w3.org/2000/svg" width="203.711" height="200"
     class="icon" p-id="905" t="1582948337025" version="1.1" viewBox="0 0 1043 1024">
  <defs>
    <style type="text/css"/>
  </defs>
  <path fill="#09F"
        d="M270.490566 850.113208m-154.566038 0a154.566038 154.566038 0 1 0 309.132076 0 154.566038 154.566038 0 1 0-309.132076 0Z"
        opacity=".2" p-id="906"/>
  <path fill="#09F"
        d="M850.113208 289.811321m-154.566038 0a154.566038 154.566038 0 1 0 309.132075 0 154.566038 154.566038 0 1 0-309.132075 0Z"
        opacity=".2" p-id="907"/>
  <path fill="#09F"
        d="M850.113208 460.220377V792.150943h-1.333133c-9.525132 76.220377-74.423547 135.245283-153.232905 135.245283h-38.64151c-85.359094 0-154.566038-88.527698-154.566037-173.886792V405.735849a115.924528 115.924528 0 1 0-231.849057 0v158.043774c109.606642 18.432 193.207547 113.509434 193.207547 228.37132 0 128.038642-103.810415 231.849057-231.849056 231.849057S0 920.189585 0 792.150943c0-121.527547 93.551094-221.029434 212.528302-230.883018V386.415094a154.566038 154.566038 0 0 1 154.566038-154.566037h38.641509a154.566038 154.566038 0 0 1 154.566038 154.566037v370.320906l0.328453 0.019321C562.388528 819.238642 613.318038 869.433962 676.226415 869.433962c58.541887 0 106.438038-43.548981 114.301585-99.907622l1.622943 0.077283V462.712755C673.173736 452.878491 579.622642 353.376604 579.622642 231.849057c0-128.038642 103.810415-231.849057 231.849056-231.849057s231.849057 103.810415 231.849057 231.849057c0 114.842566-83.600906 209.939321-193.207547 228.37132zM231.849057 618.264151a173.886792 173.886792 0 1 0 0 347.773585 173.886792 173.886792 0 0 0 0-347.773585zM811.471698 57.962264a173.886792 173.886792 0 0 0-173.886792 173.886793 173.886792 173.886792 0 0 0 173.886792 173.886792 173.886792 173.886792 0 0 0 173.886793-173.886792 173.886792 173.886792 0 0 0-173.886793-173.886793z"
        p-id="908"/>
</svg>
