<svg xmlns="http://www.w3.org/2000/svg" width="200" height="200" class="icon"
     p-id="6510" t="1566807371088" version="1.1" viewBox="0 0 1024 1024">
  <defs>
    <style type="text/css"/>
  </defs>
  <path fill="#cdcdcd"
        d="M512 499.2c-70.4 0-128-25.6-128-64s57.6-64 128-64 128 25.6 128 64-64 64-128 64z m0-236.8c-70.4 0-128-25.6-128-64s57.6-64 128-64 128 25.6 128 64-64 64-128 64z m275.2 102.4c-70.4 0-128-25.6-128-64s57.6-64 128-64 128 25.6 128 64-57.6 64-128 64zM256 364.8c-70.4 0-128-25.6-128-64s57.6-64 128-64 128 25.6 128 64-57.6 64-128 64zM38.4 780.8c-19.2-12.8-38.4-32-38.4-57.6V409.6c0-6.4 6.4-19.2 12.8-19.2 6.4-6.4 12.8-6.4 25.6 0L473.6 576c6.4 6.4 12.8 12.8 12.8 19.2v339.2c0 6.4-6.4 12.8-12.8 19.2-6.4 6.4-12.8 6.4-25.6 0L38.4 780.8z m505.6-185.6c0-6.4 6.4-19.2 12.8-19.2l435.2-185.6c6.4-6.4 12.8 0 25.6 0 0 0 6.4 12.8 6.4 19.2v313.6c0 25.6-19.2 51.2-38.4 57.6L576 953.6c-6.4 6.4-12.8 0-25.6 0-6.4-6.4-12.8-12.8-12.8-19.2l6.4-339.2z"
        p-id="6511"/>
</svg>
