<?xml version="1.0" standalone="no"?><!DOCTYPE svg PUBLIC "-//W3C//DTD SVG 1.1//EN" "http://www.w3.org/Graphics/SVG/1.1/DTD/svg11.dtd"><svg t="1566807371088" class="icon" viewBox="0 0 1024 1024" version="1.1" xmlns="http://www.w3.org/2000/svg" p-id="6510" xmlns:xlink="http://www.w3.org/1999/xlink" width="200" height="200"><defs><style type="text/css"></style></defs><path d="M512 499.2c-70.4 0-128-25.6-128-64s57.6-64 128-64 128 25.6 128 64-64 64-128 64z m0-236.8c-70.4 0-128-25.6-128-64s57.6-64 128-64 128 25.6 128 64-64 64-128 64z m275.2 102.4c-70.4 0-128-25.6-128-64s57.6-64 128-64 128 25.6 128 64-57.6 64-128 64zM256 364.8c-70.4 0-128-25.6-128-64s57.6-64 128-64 128 25.6 128 64-57.6 64-128 64zM38.4 780.8c-19.2-12.8-38.4-32-38.4-57.6V409.6c0-6.4 6.4-19.2 12.8-19.2 6.4-6.4 12.8-6.4 25.6 0L473.6 576c6.4 6.4 12.8 12.8 12.8 19.2v339.2c0 6.4-6.4 12.8-12.8 19.2-6.4 6.4-12.8 6.4-25.6 0L38.4 780.8z m505.6-185.6c0-6.4 6.4-19.2 12.8-19.2l435.2-185.6c6.4-6.4 12.8 0 25.6 0 0 0 6.4 12.8 6.4 19.2v313.6c0 25.6-19.2 51.2-38.4 57.6L576 953.6c-6.4 6.4-12.8 0-25.6 0-6.4-6.4-12.8-12.8-12.8-19.2l6.4-339.2z" p-id="6511" fill="#cdcdcd"></path></svg>