<?xml version="1.0" standalone="no"?><!DOCTYPE svg PUBLIC "-//W3C//DTD SVG 1.1//EN" "http://www.w3.org/Graphics/SVG/1.1/DTD/svg11.dtd"><svg t="1574238954247" class="icon" viewBox="0 0 1024 1024" version="1.1" xmlns="http://www.w3.org/2000/svg" p-id="1151" xmlns:xlink="http://www.w3.org/1999/xlink" width="300" height="300"><defs><style type="text/css"></style></defs><path d="M537.405065 684.395396a35.940641 35.940641 0 0 1-50.773863 0l-254.377049-147.062865a36.267044 36.267044 0 0 1 0-51.063999l20.309545-11.750522 234.067504 134.188064a36.267044 36.267044 0 0 0 50.773863 0l234.067505-134.188064 20.309544 11.750522a36.267044 36.267044 0 0 1 0 51.063999z m0-108.801134a35.940641 35.940641 0 0 1-50.773863 0l-254.377049-147.062865a36.267044 36.267044 0 0 1 0-51.063998l254.377049-147.026599a35.868107 35.868107 0 0 1 50.773863 0l254.377049 147.026599a36.267044 36.267044 0 0 1 0 51.063998z m-284.950169 7.724881l234.067505 134.188064a36.267044 36.267044 0 0 0 50.773863 0l234.067504-134.188064 20.309545 11.750522a36.267044 36.267044 0 0 1 0 51.063999l-254.268248 147.062865a35.940641 35.940641 0 0 1-50.773863 0l-254.377049-147.062865a36.267044 36.267044 0 0 1 0-51.063999z" fill="#45ABFF" p-id="1152"></path></svg>