<svg xmlns="http://www.w3.org/2000/svg" xmlns:xlink="http://www.w3.org/1999/xlink" width="200" height="200" class="icon" p-id="1863" t="1566806936599" version="1.1" viewBox="0 0 1024 1024"><defs><style type="text/css"/></defs><path d="M908.154435 44.388174h4.897391L530.387478 0h-29.384348L110.992696 44.388174h4.852869C88.82087 49.285565 66.782609 71.546435 66.782609 101.064348v354.838261s36.819478 440.987826 443.970782 561.730782h4.897392c375.318261-110.85913 434.176-497.664 441.566608-554.340174V91.180522c-2.493217-27.158261-22.038261-46.747826-49.062956-46.747826z m-186.368 362.228869l-245.314783 246.338783c-2.537739 2.493217-7.390609 4.897391-9.794782 7.390609a26.757565 26.757565 0 0 1-31.922087-7.390609l-137.394087-138.017391c-12.288-12.243478-12.288-29.517913 0-41.894957 12.243478-12.377043 29.384348-12.288 41.672347 0l115.311305 115.845565 223.142956-224.211478a28.226783 28.226783 0 0 1 41.672348 0c14.870261 9.883826 14.870261 29.562435 2.626783 41.939478z" p-id="1864"/></svg>