<?xml version="1.0" standalone="no"?><!DOCTYPE svg PUBLIC "-//W3C//DTD SVG 1.1//EN" "http://www.w3.org/Graphics/SVG/1.1/DTD/svg11.dtd"><svg t="1572230044566" class="icon" viewBox="0 0 1024 1024" version="1.1" xmlns="http://www.w3.org/2000/svg" p-id="2036" xmlns:xlink="http://www.w3.org/1999/xlink" width="200" height="200"><defs><style type="text/css"></style></defs><path d="M836.1 997H187.9c-48.4 0-87.6-39.2-87.6-87.6V103.6c0-48.4 39.2-87.6 87.6-87.6h87.6v306.6c0 9.7 3.9 18.4 10.3 24.8l94.8-94.8 94.8 94.8c6.3-6.3 10.3-15.1 10.3-24.8V16h350.4c48.4 0 87.6 39.2 87.6 87.6v805.8c0 48.4-39.2 87.6-87.6 87.6zM731 532.8H310.5c-24.2 0-43.8 19.6-43.8 43.8 0 24.2 19.6 43.8 43.8 43.8H731c24.2 0 43.8-19.6 43.8-43.8 0-24.2-19.6-43.8-43.8-43.8z m0 210.2H310.5c-24.2 0-43.8 19.6-43.8 43.8 0 24.2 19.6 43.8 43.8 43.8H731c24.2 0 43.8-19.6 43.8-43.8 0-24.2-19.6-43.8-43.8-43.8z" p-id="2037"></path></svg>