<svg xmlns="http://www.w3.org/2000/svg" width="128" height="128" class="icon"
     p-id="7476" t="1575963151634" version="1.1" viewBox="0 0 1024 1024">
  <defs>
    <style type="text/css"/>
  </defs>
  <path fill="#1296db"
        d="M697.656093 456.136058c-3.963455-84.372573-59.366887-127.909177-166.199039-130.577064h-199.830587v437.264363h98.923662V592.683377h57.380555l106.832151 168.162858h124.651838L590.808591 586.73359C663.338896 572.240832 698.95166 528.705252 697.656093 456.136058z m-182.031369 63.336482h-85.074595V402.734309h85.074595c54.068977-1.304778 79.791012 18.466446 77.166106 59.362794 1.295568 38.276558-24.426467 57.375437-77.166106 57.375437zM1014.130762 167.277655l8.760944-30.086645c2.838788-9.623633 0.132013-19.927797-7.071385-26.898894l-22.308122-21.548792-7.144043-30.509291c-2.299479-9.864122-9.765879-17.454348-19.469334-19.806019l-29.794989-7.270939-21.068839-22.721557C911.063534 3.075183 904.060714 0 896.823545 0c-2.460146 0-4.987834 0.379665-7.563619 1.145135l-29.330386 8.888864-29.387693-8.904215C828.019276 0.379665 825.487495 0 823.020185 0c-7.248425 0-14.251246 3.079276-19.201215 8.435518l-21.073955 22.720534-29.773499 7.266846c-9.717782 2.353717-17.187252 9.940873-19.496965 19.806018l-7.128693 30.516454-22.292771 21.539582c-7.203398 6.942442-9.926546 17.24456-7.11232 26.872287l8.770155 30.119393-8.772201 30.106089c-2.800923 9.651264-0.077775 19.959522 7.105155 26.901964l22.300959 21.548792 7.129716 30.520548c2.30869 9.862075 9.780206 17.450254 19.482638 19.796808l17.984446 4.384054v154.088652c0 6.680463 3.648262 12.930094 9.521297 16.310237 0.040934 0.023537 0.080845 0.047074 0.122803 0.069588a19.44375 19.44375 0 0 0 9.427149 2.448889c3.312601 0 6.561754-0.843245 9.346304-2.411025l60.569329-33.615174 60.484391 33.57117c2.830601 1.606668 6.089987 2.455029 9.425102 2.455029 3.290087 0 6.550497-0.847338 9.430219-2.449912l0.135083-0.076752c5.863826-3.389353 9.506971-9.63489 9.506971-16.30205V300.533864l17.970118-4.379961c9.720852-2.352694 17.187252-9.94292 19.484685-19.799878l7.14609-30.519525 22.312215-21.559026c7.184977-6.960863 9.894822-17.274237 7.076502-26.901963l-8.769131-30.095856z m-84.515843 286.756432l-65.002505-36.079414a9.649217 9.649217 0 0 0-9.364724 0l-65.007621 36.079414V311.496045l13.591181 14.660588c4.96225 5.331681 11.95586 8.389467 19.188935 8.389467 2.575785 0 5.12701-0.378641 7.584086-1.124668l29.326293-8.918541 29.322199 8.918541a26.019832 26.019832 0 0 0 7.571806 1.124668c7.240239 0 14.237942-3.057786 19.213495-8.403794l13.577878-14.649331v142.541112z m72.791261-243.6261l-24.345622 23.523868a9.658427 9.658427 0 0 0-2.690401 4.738135l-7.795921 33.293841c-0.62527 2.683238-2.680167 4.816933-5.248789 5.439133l-32.611263 7.948401a9.65024 9.65024 0 0 0-4.791349 2.81525l-23.025494 24.843996c-1.343665 1.443954-3.145794 2.239101-5.074819 2.239102a6.621109 6.621109 0 0 1-1.957679-0.28961l-32.128239-9.772019a9.652287 9.652287 0 0 0-5.615151 0l-32.132332 9.772019a6.786892 6.786892 0 0 1-1.970982 0.290633c-1.921861 0-3.719896-0.795147-5.051282-2.224774l-23.044938-24.858324a9.640007 9.640007 0 0 0-4.790326-2.814227l-32.621496-7.952494c-2.558388-0.61913-4.618402-2.755896-5.24572-5.439133l-7.776476-33.284631a9.651264 9.651264 0 0 0-2.691425-4.743251l-24.344599-23.523868c-1.993496-1.925955-2.771246-4.927456-1.985309-7.636277l9.555068-32.794444a9.649217 9.649217 0 0 0 0.001024-5.396152l-9.558139-32.828215c-0.784914-2.685284-0.00921-5.659155 1.987356-7.583062L741.799546 100.646992a9.651264 9.651264 0 0 0 2.691425-4.743251l7.775453-33.280538c0.62834-2.688354 2.689378-4.82512 5.265163-5.449367l32.606146-7.95761a9.648194 9.648194 0 0 0 4.786233-2.812181l23.056194-24.859346c1.339572-1.449071 3.12942-2.247288 5.040025-2.247288 0.607873 0 1.290451 0.111546 1.978146 0.315193l32.133356 9.736202c1.825666 0.552612 3.772088 0.552612 5.59673 0l32.076048-9.720852c0.740909-0.220021 1.419394-0.331567 2.020104-0.331567 1.912651 0 3.710686 0.803334 5.063561 2.259569l23.039821 24.846043a9.64717 9.64717 0 0 0 4.786233 2.813203l32.62559 7.961705c2.555318 0.61913 4.611239 2.753849 5.238556 5.446296l7.793874 33.284631a9.651264 9.651264 0 0 0 2.691424 4.739158l24.344599 23.516705c1.988379 1.924931 2.764083 4.893685 1.966889 7.598413l-9.556092 32.817981a9.649217 9.649217 0 0 0 0.001023 5.396152l9.559162 32.8057c0.791054 2.705751 0.013304 5.702136-1.973029 7.626044z"
        p-id="7477"/>
  <path fill="#1296db"
        d="M1011.573397 262.504958a9.648194 9.648194 0 0 0-9.648194 9.648194v732.074601H49.108773V67.768634h635.773799c5.328611 0 9.648194-4.319583 9.648194-9.648194s-4.319583-9.648194-9.648194-9.648194H39.46058a9.648194 9.648194 0 0 0-9.648194 9.648194v955.75653a9.648194 9.648194 0 0 0 9.648194 9.648193h972.112817a9.648194 9.648194 0 0 0 9.648193-9.648193V272.153152a9.648194 9.648194 0 0 0-9.648193-9.648194z"
        p-id="7478"/>
</svg>
