<?xml version="1.0" standalone="no"?><!DOCTYPE svg PUBLIC "-//W3C//DTD SVG 1.1//EN" "http://www.w3.org/Graphics/SVG/1.1/DTD/svg11.dtd"><svg t="1575963065956" class="icon" viewBox="0 0 1024 1024" version="1.1" xmlns="http://www.w3.org/2000/svg" p-id="5758" xmlns:xlink="http://www.w3.org/1999/xlink" width="128" height="128"><defs><style type="text/css"></style></defs><path d="M32 736h832a128 128 0 1 1 0 256H32v-256z m832 192a64 64 0 1 0 0-128 64 64 0 0 0 0 128z m-224 0a64 64 0 1 0 0-128 64 64 0 0 0 0 128z m-224 0a64 64 0 1 0 0-128 64 64 0 0 0 0 128z m-224 0a64 64 0 1 0 0-128 64 64 0 0 0 0 128z m480-416h192v192h-192v-192zM96 64h192v192H96V64z m288 0h192v192h-192V64z m288 224h192v192h-192V288z m-288 224h192v192h-192v-192z m0-224h192v192h-192V288z m-288 224h192v192H96v-192z m0-224h192v192H96V288z" fill="#13227a" p-id="5759"></path></svg>