<svg xmlns="http://www.w3.org/2000/svg" width="128" height="128" class="icon"
     p-id="5758" t="1575963065956" version="1.1" viewBox="0 0 1024 1024">
  <defs>
    <style type="text/css"/>
  </defs>
  <path fill="#13227a"
        d="M32 736h832a128 128 0 1 1 0 256H32v-256z m832 192a64 64 0 1 0 0-128 64 64 0 0 0 0 128z m-224 0a64 64 0 1 0 0-128 64 64 0 0 0 0 128z m-224 0a64 64 0 1 0 0-128 64 64 0 0 0 0 128z m-224 0a64 64 0 1 0 0-128 64 64 0 0 0 0 128z m480-416h192v192h-192v-192zM96 64h192v192H96V64z m288 0h192v192h-192V64z m288 224h192v192h-192V288z m-288 224h192v192h-192v-192z m0-224h192v192h-192V288z m-288 224h192v192H96v-192z m0-224h192v192H96V288z"
        p-id="5759"/>
</svg>
