<svg xmlns="http://www.w3.org/2000/svg" width="135.75" height="128"
     class="icon" p-id="2712" t="1575962668301" version="1.1" viewBox="0 0 1086 1024">
  <defs>
    <style type="text/css"/>
  </defs>
  <path fill="#1296db"
        d="M1066.72686066 680.945258c-5.988262-23.323085-12.033604-40.713952-23.37809-46.701176-17.960634-6.041191-46.645133 17.10754-75.954405 0-34.721539-23.377052-12.028415-58.102743-23.37809-81.420639-5.416419-12.034642-28.511182-23.382242-58.103781-23.382242-23.317896 29.368428-17.102351 46.700138-63.976843 46.700138-46.700138-5.699746-35.350462-46.700138-70.077191-46.700138-17.390867 0-40.713952 6.04638-46.6991 23.382242 0 11.97341 5.702859 52.681135-11.40468 70.078228-29.364276 22.80521-46.754105 0-76.004221 11.402605-17.108578 5.988262-29.364276 35.291306-23.323085 52.687362 5.703897 23.263929 46.701176 29.304082 46.701176 64.03081 0 46.639944-40.768957 46.639944-46.701176 64.036-5.92703 17.390867 0 46.694949 17.10754 58.043586 11.97341 11.402605 46.701176-11.974448 76.00422 11.402605 23.323085 23.377052 11.920481 40.713952 5.704935 64.089967 0 17.109615 40.65272 34.727766 64.03081 34.727766 23.382242 0 23.268081-46.754105 70.023224-46.754105 35.296495 0 35.296495 23.377052 52.628205 40.765843 11.402605 11.919443 46.759294-5.703897 64.089967-17.106502 11.402605-11.402605-11.403643-34.720501 0-64.03081 5.986186-11.974448 18.020827-17.10754 29.363238-23.377053 17.10754-5.704935 40.713952 0 58.050852 0 17.10754-5.362452 23.322048-46.646171 23.322047-57.989619-5.703897-17.961671-40.658947-12.034642-46.645133-52.687362-5.471424-53.373365 47.216976-47.439071 58.619581-81.197506zM845.25873666 860.784066v0.287478c-134.114228 22.807285-186.740358-181.324977-46.754105-216.104634 163.473315-29.598825 181.661233 186.507885 46.754105 215.816118z"
        p-id="2713"/>
  <path fill="#1296db"
        d="M656.12618766 594.847132a81.742366 81.742366 0 0 0 8.836059 0.908099 4.988834 4.988834 0 0 0 2.108864-0.342483 111.209387 111.209387 0 0 0 1.083492-32.784954c0-3.762123-0.398526-7.068639-0.398526-10.091829v-6.270551l2.050746-5.704935a56.759795 56.759795 0 0 1 5.704935-11.859249l13.055863-15.454281a77.816266 77.816266 0 0 1 21.267151-13.171062 110.815012 110.815012 0 0 1 42.083883-8.096088c36.49311 0 52.742367 24.404501 60.555128 36.095622 5.699746 8.325448 6.497835 9.69019 11.974448 10.604516a59.057544 59.057544 0 0 0 11.402605-1.028487c1.143685-1.707225 2.964034-4.730415 4.390008-7.069677a209.715771 209.715771 0 0 1 16.536735-24.458468l11.402605-14.143506h18.019789c33.639086 0 63.634361 11.402605 80.970223 29.194072v-45.616646a72.2504 72.2504 0 0 0-39.91275-64.601615l-256.478179-127.839526a37.403284 37.403284 0 0 0-54.112298 33.469919V595.41171a88.451917 88.451917 0 0 1 19.500769-2.223025 143.434952 143.434952 0 0 1 19.957412 1.658447z"
        p-id="2714"/>
  <path fill="#1296db"
        d="M654.64209566 910.677598a117.051315 117.051315 0 0 0-13.79791 1.256808 131.720999 131.720999 0 0 1-18.074794 1.53806 52.144578 52.144578 0 0 1-33.817592-11.060122c-31.017535-22.240632-40.539597-69.05078-29.875925-99.784988 6.443868-18.760798 21.555666-28.166624 31.589377-34.215079 11.97341-7.465089 13.115019-8.439609 13.11502-17.618151v-0.397488a67.967288 67.967288 0 0 0-11.402605-10.267222c-11.408832-9.004187-27.428729-21.206956-33.476147-42.593456a82.306943 82.306943 0 0 1 6.216583-60.213683 85.706865 85.706865 0 0 1 14.425795-21.038829v-378.900248l-0.793937-0.395412V34.45378a34.214042 34.214042 0 0 0-49.724366-30.734208L132.50823366 201.63525a72.236908 72.236908 0 0 0-39.913787 64.601616v586.451112H56.58807766A13.921411 13.921411 0 0 0 42.66666666 866.609389v69.659984a13.920373 13.920373 0 0 0 13.921411 13.921411h36.006369v-0.512687h563.927153a13.82178 13.82178 0 0 1 0-1.479941v-4.958737l1.14161-4.563325c1.197652-4.735604 2.50739-9.06957 3.705042-12.886698a91.320471 91.320471 0 0 0 3.196507-11.860286l-1.430125-1.826576a15.809218 15.809218 0 0 0-8.493576-1.424936zM383.96644366 804.44978h-96.936152v-96.935114h96.936152z m0-194.436882h-96.936152v-96.935115h96.936152z m0-193.870229h-96.936152v-96.935115h96.936152z"
        p-id="2715"/>
</svg>
