<svg xmlns="http://www.w3.org/2000/svg" width="200" height="200" class="icon"
     p-id="4328" t="1563873206212" version="1.1" viewBox="0 0 1024 1024">
  <defs>
    <style type="text/css"/>
  </defs>
  <path fill="#2F3030"
        d="M962.662355 0H61.337645A57.64986 57.64986 0 0 0 3.687785 57.64986v908.549758a57.64986 57.64986 0 0 0 57.64986 57.64986h901.32471a57.64986 57.64986 0 0 0 57.047773-57.64986V57.64986A57.64986 57.64986 0 0 0 962.662355 0z m-6.020873 943.019256a21.976187 21.976187 0 0 1-21.976187 22.277231H86.474791a21.976187 21.976187 0 0 1-21.976187-21.976187V81.281787A21.976187 21.976187 0 0 1 86.474791 59.3056h848.190504a21.976187 21.976187 0 0 1 21.976187 21.976187z"
        p-id="4329"/>
  <path fill="#2E3030"
        d="M831.256798 133.061296H182.357195a45.156549 45.156549 0 0 0-45.156548 45.156549v227.287961a45.156549 45.156549 0 0 0 45.156548 45.156549h648.899603a45.156549 45.156549 0 0 0 45.156549-45.156549V177.615758a45.156549 45.156549 0 0 0-45.156549-44.554462z m7.827136 252.425107a26.792885 26.792885 0 0 1-26.792886 26.792886H203.881817a26.792885 26.792885 0 0 1-27.093929-26.792886V197.635161a26.792885 26.792885 0 0 1 27.093929-26.943407h608.860797a26.792885 26.792885 0 0 1 26.34132 26.943407z"
        p-id="4330"/>
  <path fill="#2E3030"
        d="M195.753638 212.687344v157.144789a19.116272 19.116272 0 0 0 19.116272 19.116272h587.035132a19.116272 19.116272 0 0 0 19.116272-19.116272V212.687344a19.116272 19.116272 0 0 0-19.116272-19.116272h-587.035132a19.116272 19.116272 0 0 0-19.116272 19.116272z m589.744525 153.532265h-553.92033a13.396443 13.396443 0 0 1-13.396442-13.396443v-125.083639a13.396443 13.396443 0 0 1 13.396442-13.396443h553.92033a13.396443 13.396443 0 0 1 13.396442 13.396443v125.083639a13.396443 13.396443 0 0 1-13.396442 13.396443z"
        p-id="4331"/>
  <path fill="#2F3030"
        d="M729.504042 628.127591a15.052183 15.052183 0 0 0-16.858444 0 15.052183 15.052183 0 0 0 0 16.858445 65.476995 65.476995 0 0 1 0 94.67823 15.052183 15.052183 0 0 0 0 16.858445 12.493312 12.493312 0 0 0 10.084962 3.462002 12.493312 12.493312 0 0 0 10.084963-3.462002 90.313097 90.313097 0 0 0-3.462002-128.545642z m0 0"
        p-id="4332"/>
  <path fill="#2F3030"
        d="M770.144936 587.486697a15.052183 15.052183 0 0 0-16.858445 0 15.052183 15.052183 0 0 0 0 16.858445 126.73938 126.73938 0 0 1 0 175.960017 15.052183 15.052183 0 0 0 0 16.858445 12.493312 12.493312 0 0 0 10.084963 3.311481 12.493312 12.493312 0 0 0 10.084962-3.311481 152.328091 152.328091 0 0 0-3.31148-209.827429z m0 0"
        p-id="4333"/>
  <path fill="#2F3030"
        d="M793.927385 546.845803a15.052183 15.052183 0 0 0 0 16.858445 181.679847 181.679847 0 0 1 0 257.091283 15.052183 15.052183 0 0 0 0 16.858445 12.493312 12.493312 0 0 0 10.084962 3.31148 12.493312 12.493312 0 0 0 10.084963-3.31148 204.258121 204.258121 0 0 0 0-290.958695q-15.052183-5.117742-20.320447 0z m-490.701161 101.602235c3.31148-6.773482 3.31148-16.858445-3.311481-20.320447a15.052183 15.052183 0 0 0-16.858444 0 91.968837 91.968837 0 0 0 0 132.007643 12.493312 12.493312 0 0 0 10.084962 3.311481 12.493312 12.493312 0 0 0 10.084963-3.311481 15.052183 15.052183 0 0 0 0-16.858444 65.476995 65.476995 0 0 1 0-94.678231z m0 0"
        p-id="4334"/>
  <path fill="#2F3030"
        d="M259.27385 604.044098a15.052183 15.052183 0 0 0 0-16.858445 15.052183 15.052183 0 0 0-16.858445 0 153.231222 153.231222 0 0 0 0 213.13891 12.493312 12.493312 0 0 0 10.084962 3.462002 12.34279 12.34279 0 0 0 10.084963-3.462002 15.052183 15.052183 0 0 0 0-16.858445 127.642511 127.642511 0 0 1-3.31148-179.42202z m0 0"
        p-id="4335"/>
  <path fill="#2F3030"
        d="M167.9071 692.400412a184.840806 184.840806 0 0 1 54.037336-128.545642 15.052183 15.052183 0 0 0 0-16.858445 15.052183 15.052183 0 0 0-16.858445 0 204.258121 204.258121 0 0 0 0 290.958695 12.493312 12.493312 0 0 0 10.084963 3.31148 12.493312 12.493312 0 0 0 10.084963-3.31148 15.052183 15.052183 0 0 0 0-16.858445 158.650007 158.650007 0 0 1-57.499339-128.545642z m0 0M541.803322 574.993385l-137.426429 137.576952h87.754226l-19.116273 122.223724 136.222255-136.222254h-86.550051l19.116272-123.578422z"
        p-id="4336"/>
</svg>
