<?xml version="1.0" standalone="no"?><!DOCTYPE svg PUBLIC "-//W3C//DTD SVG 1.1//EN" "http://www.w3.org/Graphics/SVG/1.1/DTD/svg11.dtd"><svg t="1584934009759" class="icon" viewBox="0 0 1024 1024" version="1.1" xmlns="http://www.w3.org/2000/svg" p-id="3627" xmlns:xlink="http://www.w3.org/1999/xlink" width="64" height="64"><defs><style type="text/css"></style></defs><path d="M982.016 936.96h-408.064c-20.992 0-38.4 18.432-38.4 40.96s17.408 40.96 38.4 40.96h408.064c20.992 0 37.888-17.92 38.4-41.472 0-22.528-17.408-40.448-38.4-40.448zM949.76 729.088h-71.168c-9.216-17.92 2.56-51.712 32.256-91.648l0.512-1.024v-0.512c0.512-0.512 1.024-1.536 1.024-1.536 12.8-20.48 26.112-46.08 26.112-79.36 0-74.24-70.656-133.12-161.28-133.632h-1.024c-90.624 0.512-160.768 59.392-160.768 133.632 0 33.28 12.8 58.368 26.112 78.848 0.512 1.536 1.024 2.56 2.048 3.072l0.512 0.512c29.696 39.936 41.472 73.216 32.256 91.648h-71.168c-40.448 0-72.704 27.648-72.704 61.952v98.816c0 13.824 13.824 25.088 30.208 25.088h429.568c16.896 0 29.696-11.264 29.696-24.576v-99.328c0.512-34.304-31.744-61.952-72.192-61.952z m5.632 129.024h-355.84v-67.072c0-3.072 2.56-5.12 5.632-5.12h100.864l4.096-3.072c52.224-35.328 49.152-97.28-8.704-174.592-11.776-18.944-18.432-33.792-18.432-53.248 0-43.52 40.96-76.8 94.208-77.312 53.76 0.512 94.208 33.792 94.208 77.312 0 19.968-6.656 34.816-18.432 53.248-57.856 77.312-60.416 139.264-8.704 174.592l4.096 3.072h100.352c3.072 0 5.632 2.048 5.632 5.12v67.072h1.024z" fill="#1296db" p-id="3628"></path><path d="M365.568 947.2H174.08c-26.624 0-51.712-10.752-69.632-28.672s-28.672-44.032-28.672-69.632V171.52c0-26.624 10.752-51.712 28.672-69.632 18.944-18.944 43.52-28.672 69.632-28.672h677.376c26.624 0 51.712 10.752 69.632 28.672 18.944 18.944 28.672 43.52 28.672 69.632l-1.024 243.2c0 19.968 16.384 36.352 36.352 36.352 19.968 0 36.352-15.872 36.352-35.84l1.536-243.2c0-45.568-18.432-89.088-50.688-121.344S896.512 0 850.944 0H174.08c-45.568 0-89.088 18.432-121.344 50.688S2.048 125.952 2.048 172.032v676.864c0 45.568 18.432 89.088 50.688 121.344s75.776 50.688 121.344 50.688h192c19.968 0 36.352-16.384 36.352-36.352-0.512-20.48-16.384-37.376-36.864-37.376z" fill="#1296db" p-id="3629"></path><path d="M799.232 317.44c19.968 0 36.352-16.384 36.352-36.352s-16.384-36.352-36.352-36.352h-583.68c-19.968 0-36.352 16.384-36.352 36.352s16.384 36.352 36.352 36.352h583.68zM434.688 535.552c12.8 0 25.088-7.168 31.744-18.432 6.656-11.264 6.656-25.088 0-36.352s-18.944-18.432-31.744-18.432H215.552c-19.968 0-36.352 16.384-36.352 36.352s16.384 36.352 36.352 36.352c0 0.512 219.136 0.512 219.136 0.512zM216.064 680.96c-19.968 0-36.352 16.384-36.352 36.352 0 19.968 16.384 36.352 36.352 36.352h145.408c12.8 0 25.088-7.168 31.744-18.432 6.656-11.264 6.656-25.088 0-36.352s-18.944-18.432-31.744-18.432H216.064v0.512z" fill="#1296db" p-id="3630"></path></svg>