<svg xmlns="http://www.w3.org/2000/svg" xmlns:xlink="http://www.w3.org/1999/xlink" width="200" height="200" class="icon" p-id="4071" t="1584945118538" version="1.1" viewBox="0 0 1024 1024"><defs><style type="text/css"/></defs><path fill="#5584FF" d="M423.936 912.384a32.192 32.192 0 1 1 0 64.384H85.824c-47.36 0-85.824-38.4-85.824-85.888V85.824C0 38.464 38.4 0 85.824 0h683.52c47.488 0 85.888 38.4 85.888 85.824v319.552a32.192 32.192 0 0 1-64.384 0V85.824a21.44 21.44 0 0 0-21.44-21.44H85.888a21.44 21.44 0 0 0-21.504 21.44v805.12c0 11.84 9.6 21.44 21.44 21.44h338.112z m158.784-14.144a13.952 13.952 0 0 0-13.952 13.952v7.488c0 7.68 6.272 13.952 13.952 13.952h358.4c7.744 0 14.016-6.208 14.016-13.952v-7.488a13.952 13.952 0 0 0-13.952-13.952h-358.4z m179.712-241.344c32.384 0 58.432-25.6 58.432-56.96s-26.048-56.96-58.432-56.96-58.432 25.6-58.432 56.96 26.048 56.96 58.432 56.96z m-564.608 3.072h260.48a31.488 31.488 0 1 1 0 63.04h-260.48a31.488 31.488 0 1 1 0-63.04z m0-232.832h351.744a31.488 31.488 0 1 1 0 62.976H197.76a31.488 31.488 0 1 1 0-62.976z m0-233.984h459.84a31.488 31.488 0 0 1 0 62.976H197.824a31.488 31.488 0 1 1 0-62.976z m396.352 640.64a28.864 28.864 0 0 1 2.624-5.184l86.4-136a120.384 120.384 0 0 1-43.584-92.672c0-67.136 55.104-121.28 122.88-121.28 67.648 0 122.752 54.144 122.752 121.28 0 37.76-17.408 71.424-44.672 93.632l85.76 135.04c1.024 1.664 1.92 3.392 2.624 5.248h12.16c43.328 0 78.4 35.072 78.4 78.336v7.488c0 43.264-35.072 78.336-78.336 78.336h-358.4A78.336 78.336 0 0 1 504.32 919.68v-7.488c0-43.264 35.072-78.336 78.336-78.336h11.456z m74.88 0h185.024l-71.04-111.68a29.44 29.44 0 0 1-1.28-2.368 124.672 124.672 0 0 1-40.32-0.256 28.608 28.608 0 0 1-1.408 2.56l-71.04 111.808z" p-id="4072"/></svg>