<?xml version="1.0" standalone="no"?><!DOCTYPE svg PUBLIC "-//W3C//DTD SVG 1.1//EN" "http://www.w3.org/Graphics/SVG/1.1/DTD/svg11.dtd"><svg t="1584947832202" class="icon" viewBox="0 0 1024 1024" version="1.1" xmlns="http://www.w3.org/2000/svg" p-id="6531" xmlns:xlink="http://www.w3.org/1999/xlink" width="200" height="200"><defs><style type="text/css"></style></defs><path d="M518.4 275.2m-170.666667 0a170.666667 170.666667 0 1 0 341.333334 0 170.666667 170.666667 0 1 0-341.333334 0Z" fill="#FF7A45" p-id="6532"></path><path d="M876.8 915.2H149.333333c-8.533333 0-17.066667-6.4-19.2-17.066667L106.666667 795.733333c-6.4-27.733333 12.8-53.333333 36.266666-53.333333h736c25.6 0 42.666667 25.6 36.266667 53.333333l-19.2 104.533334c-2.133333 8.533333-10.666667 14.933333-19.2 14.933333z" fill="#FF7A45" p-id="6533"></path><path d="M620.8 416c0-14.933333 0-27.733333 2.133333-42.666667l-55.466666-108.8h-128l-36.266667 87.466667c2.133333 21.333333 4.266667 42.666667 4.266667 64 0 149.333333-72.533333 279.466667-179.2 345.6l-2.133334 6.4H810.666667c-113.066667-64-189.866667-196.266667-189.866667-352z" fill="#FF7A45" p-id="6534"></path></svg>