<svg xmlns="http://www.w3.org/2000/svg" width="128" height="128" class="icon"
     p-id="5589" t="1577334372893" version="1.1" viewBox="0 0 1024 1024">
  <defs>
    <style type="text/css"/>
  </defs>
  <path fill="#1296db"
        d="M524.96 394.72a347.68 347.68 0 0 0 12.48-74.72 13.28 13.28 0 0 1 14.24-13.44 14.72 14.72 0 0 1 13.44 15.2 345.6 345.6 0 0 1-3.84 37.28c-1.92 11.52-4.48 23.52-7.68 36.32h59.2a14.24 14.24 0 0 1 14.24 13.28 13.44 13.44 0 0 1-14.24 13.44h-66.88q-28.48 40.16-117.44 57.28a16 16 0 0 1-19.04-10.56c0-7.68 4.16-12.32 14.4-14.24a165.6 165.6 0 0 0 85.92-32h-90.72q-11.52 0-12.48-13.44a12.64 12.64 0 0 1 12.48-13.28h67.68a62.88 62.88 0 0 1-19.04-8.64L433.28 368a11.2 11.2 0 0 1-5.76-16 16 16 0 0 1 19.2-6.56 245.12 245.12 0 0 1 57.28 29.6 16 16 0 0 1-2.88 20z m-22.88-120.32l-0.96-2.4q-0.96-1.92 0-2.88c-1.92-6.24 0.96-10.72 8.64-13.28a16 16 0 0 1 18.08 5.76 34.08 34.08 0 0 0 1.92 4.64l3.84 7.68h67.68c16-1.28 23.84 7.68 22.08 26.72a123.68 123.68 0 0 0-0.96 16c0 4.32-1.28 8.48-1.92 12.32a13.28 13.28 0 0 1-16 9.6 11.52 11.52 0 0 1-10.4-14.4 13.28 13.28 0 0 1 0.96-5.6q3.52-16-2.88-16h-149.28q-4.8 0-3.84 5.76v17.12c0 7.04-5.44 11.2-14.24 12.48s-13.44-4.48-13.44-11.52v-37.6c-1.28-10.24 5.76-15.04 20.96-14.4z m4.8 82.08c-16-8.16-28.96-14.56-37.28-19.04q-8.64-4.8-11.52-6.72c-6.24-3.2-7.52-8.32-3.68-16a13.44 13.44 0 0 1 17.12-5.76 268.32 268.32 0 0 1 48 24.8 13.92 13.92 0 0 1 3.84 19.04 11.04 11.04 0 0 1-16.48 3.68z m48 72.64a235.36 235.36 0 0 1 64 24.8 14.24 14.24 0 0 1 6.56 18.08 12.32 12.32 0 0 1-18.08 5.76 199.04 199.04 0 0 0-60.16-22.88 12.48 12.48 0 0 1-10.4-16 15.04 15.04 0 0 1 17.76-9.76z"
        p-id="5590"/>
  <path fill="#1296db"
        d="M955.36 408.48a24.16 24.16 0 0 1-33.44 5.28L864 371.68v168a24.16 24.16 0 0 1-48 0V336L512 115.68 206.72 337.6V880a32 32 0 0 0 32 32h296.48a24 24 0 0 1 0 48H224a64 64 0 0 1-64-64V373.12l-57.76 40.64a24 24 0 1 1-28.32-38.88L496 68.48a32 32 0 0 1 33.12 0l420.96 306.4a24 24 0 0 1 5.44 33.44z"
        p-id="5591"/>
  <path fill="#1296db"
        d="M336 608v64h-64v-64h64m0-32h-64a32 32 0 0 0-32 32v64a32 32 0 0 0 32 32h64a32 32 0 0 0 32-32v-64a32 32 0 0 0-32-32z m160 32v64h-64v-64h64m0-32h-64a32 32 0 0 0-32 32v64a32 32 0 0 0 32 32h64a32 32 0 0 0 32-32v-64a32 32 0 0 0-32-32zM336 784v64h-64v-64h64m0-32h-64a32 32 0 0 0-32 32v64a32 32 0 0 0 32 32h64a32 32 0 0 0 32-32v-64a32 32 0 0 0-32-32z m160 32v64h-64v-64h64m0-32h-64a32 32 0 0 0-32 32v64a32 32 0 0 0 32 32h64a32 32 0 0 0 32-32v-64a32 32 0 0 0-32-32z"
        p-id="5592"/>
  <path fill="#1296db"
        d="M717.76 633.44A85.12 85.12 0 0 0 774.4 656a81.12 81.12 0 0 0 57.6-22.4 130.88 130.88 0 0 1 37.6 22.4A88 88 0 0 0 928 756.96c1.12 8.32 1.76 16 2.08 24.8a125.12 125.12 0 0 1-2.08 23.2 86.24 86.24 0 0 0-56.64 100.16A206.08 206.08 0 0 1 833.92 928a85.92 85.92 0 0 0-57.12-23.04A84.48 84.48 0 0 0 718.4 928a131.84 131.84 0 0 1-38.24-22.56 88 88 0 0 0-57.76-101.12 133.76 133.76 0 0 1-1.6-22.56 154.08 154.08 0 0 1 1.76-24.32 87.52 87.52 0 0 0 47.04-38.24 90.24 90.24 0 0 0 9.76-63.2 185.92 185.92 0 0 1 38.4-22.88m3.52-32a24.96 24.96 0 0 0-6.88 1.28A221.12 221.12 0 0 0 656 638.56a16 16 0 0 0-6.24 19.2A57.12 57.12 0 0 1 608 730.72h-1.76a23.84 23.84 0 0 0-11.36 13.28v0.8a181.92 181.92 0 0 0-2.88 36.8 151.52 151.52 0 0 0 3.04 34.4 16.8 16.8 0 0 0 12.96 16h0.96a57.28 57.28 0 0 1 41.76 69.44 13.28 13.28 0 0 1 0 2.4 17.12 17.12 0 0 0 5.28 19.04 157.12 157.12 0 0 0 59.84 36h6.24a19.68 19.68 0 0 0 13.92-5.28 53.44 53.44 0 0 1 41.12-18.4 58.88 58.88 0 0 1 41.44 19.36 17.92 17.92 0 0 0 12.32 6.08 13.12 13.12 0 0 0 5.92-0.64 216.48 216.48 0 0 0 59.2-35.36 16 16 0 0 0 6.08-19.36 62.08 62.08 0 0 1 5.28-46.56A60.8 60.8 0 0 1 943.04 832H944a24.16 24.16 0 0 0 11.52-13.28 176 176 0 0 0 4.48-37.76 276.16 276.16 0 0 0-4.32-36 16.96 16.96 0 0 0-13.28-14.88 57.6 57.6 0 0 1-42.24-69.6v-2.72a16.96 16.96 0 0 0-5.28-19.2 167.04 167.04 0 0 0-60-36.16 14.08 14.08 0 0 0-5.12-1.12A19.52 19.52 0 0 0 816 608a50.88 50.88 0 0 1-41.12 18.4 58.4 58.4 0 0 1-41.44-19.2 16.8 16.8 0 0 0-12.48-5.6z"
        p-id="5593"/>
  <path fill="#1296db"
        d="M782.88 753.6a32.8 32.8 0 1 1-32.96 32 32 32 0 0 1 32.96-32m0-32a64 64 0 1 0 64 64 64 64 0 0 0-64-64z"
        p-id="5594"/>
</svg>
