<svg xmlns="http://www.w3.org/2000/svg" xmlns:xlink="http://www.w3.org/1999/xlink" width="200" height="200" class="icon" p-id="3947" t="1584944891110" version="1.1" viewBox="0 0 1024 1024"><defs><style type="text/css"/></defs><path fill="#14ADC4" d="M928 0H403.2c-6.4 0-6.4 6.4-12.8 6.4l-320 320s-6.4 6.4-6.4 12.8v652.8c0 19.2 12.8 32 32 32h832c19.2 0 32-12.8 32-32V32c0-19.2-12.8-32-32-32zM384 108.8V320H172.8L384 108.8zM896 960H128V384h288c19.2 0 32-12.8 32-32V64h448v896z" p-id="3948"/><path fill="#14ADC4" d="M320 608c-12.8-12.8-32-12.8-44.8 0-12.8 12.8-12.8 32 0 44.8l160 140.8c6.4 6.4 12.8 6.4 19.2 6.4 6.4 0 19.2-6.4 19.2-12.8l268.8-332.8c12.8-12.8 6.4-32-6.4-44.8-12.8-12.8-32-6.4-44.8 6.4l-249.6 307.2L320 608z" p-id="3949"/></svg>