<svg xmlns="http://www.w3.org/2000/svg" width="200" height="200" class="icon"
     p-id="2065" t="1563244680344" version="1.1" viewBox="0 0 1024 1024">
  <defs>
    <style type="text/css"/>
  </defs>
  <path
    d="M596.992 652.288h-65.536l29.184-102.4s3.072-9.728 0-13.312-13.312 6.656-13.312 6.656L409.6 678.4s-9.728 9.728-6.656 13.312 6.656 6.656 9.728 6.656h66.56l-23.04 102.4s-3.072 9.728 3.072 13.312 9.728-3.072 13.312-6.656l134.144-137.216a9.216 9.216 0 0 0 0-13.312c-3.584-7.68-9.728-4.608-9.728-4.608zM771.072 250.368H240.64a36.352 36.352 0 0 0-35.84 35.328V460.8a36.352 36.352 0 0 0 35.328 35.328H768a36.352 36.352 0 0 0 35.84-35.328V285.696a32.768 32.768 0 0 0-32.768-35.328zM775.68 460.8a7.68 7.68 0 0 1-7.168 7.168H240.64A7.68 7.68 0 0 1 233.472 460.8V285.696a7.68 7.68 0 0 1 7.168-7.168H768a7.68 7.68 0 0 1 7.168 7.168z"
    p-id="2066"/>
  <path
    d="M775.168 102.4H248.832A146.432 146.432 0 0 0 102.4 250.88v526.336A146.432 146.432 0 0 0 248.832 921.6h526.336A146.432 146.432 0 0 0 921.6 777.216V250.88A146.432 146.432 0 0 0 775.168 102.4zM870.4 777.216A94.72 94.72 0 0 1 775.168 870.4H248.832A94.72 94.72 0 0 1 153.6 777.216V250.88a94.72 94.72 0 0 1 95.232-94.208h526.336A94.72 94.72 0 0 1 870.4 250.88z"
    p-id="2067"/>
</svg>
