<svg xmlns="http://www.w3.org/2000/svg" width="200" height="200" class="icon"
     p-id="2898" t="1548303844069" version="1.1" viewBox="0 0 1024 1024">
  <defs>
    <style type="text/css"/>
  </defs>
  <path
    d="M678.121658 139.636364H159.698385a21.876364 21.876364 0 0 0-20.014545 23.272727 21.876364 21.876364 0 0 0 20.014545 23.272727h518.423273a21.876364 21.876364 0 0 0 20.014546-23.272727 21.876364 21.876364 0 0 0-20.014546-23.272727zM698.136204 302.545455a21.876364 21.876364 0 0 0-20.014546-23.272728H158.720931a23.738182 23.738182 0 0 0 0 46.545455h519.354182a21.876364 21.876364 0 0 0 20.014545-23.272727zM152.670022 418.909091c-6.981818 0-13.032727 10.24-13.032727 23.272727s5.585455 23.272727 13.032727 23.272727h206.661818c6.981818 0 13.032727-10.24 13.032727-23.272727S366.779113 418.909091 359.33184 418.909091H152.670022z"
    p-id="2899"/>
  <path
    d="M418.910022 977.454545H154.997295A109.381818 109.381818 0 0 1 46.546385 867.607273V156.392727A109.381818 109.381818 0 0 1 154.997295 46.545455h527.825454A109.381818 109.381818 0 0 1 791.273658 156.392727v222.487273a23.272727 23.272727 0 1 0 46.545455 0V156.392727A155.927273 155.927273 0 0 0 682.822749 0H154.997295A155.927273 155.927273 0 0 0 0.000931 156.392727v711.214546A155.927273 155.927273 0 0 0 154.997295 1024H418.910022a23.272727 23.272727 0 0 0 0-46.545455z"
    p-id="2900"/>
  <path
    d="M721.455476 418.909091a302.545455 302.545455 0 1 0 0 605.090909 302.545455 302.545455 0 0 0 0-605.090909z m0 558.545454a256 256 0 1 1 0-512 256 256 0 0 1 0 512z"
    p-id="2901"/>
  <path
    d="M741.609658 713.960727v-86.109091c0-12.567273-9.634909-22.760727-21.504-22.760727a22.155636 22.155636 0 0 0-21.504 22.807273v91.042909a23.133091 23.133091 0 0 0 6.469818 20.945454l95.883637 91.089455c5.585455 6.050909 13.917091 8.331636 21.550545 5.864727a22.341818 22.341818 0 0 0 14.894546-17.454545 23.505455 23.505455 0 0 0-7.633455-22.109091l-88.157091-83.316364z"
    p-id="2902"/>
</svg>
