<svg xmlns="http://www.w3.org/2000/svg" width="300" height="300" class="icon"
     p-id="20110" t="1574130955578" version="1.1" viewBox="0 0 1024 1024">
  <defs>
    <style type="text/css"/>
  </defs>
  <path fill="#27A6F4"
        d="M224 235.52h391.68a34.56 34.56 0 0 1 0 69.12h-391.68a34.56 34.56 0 1 1 0-69.12z m0 184.32h289.28a34.56 34.56 0 0 1 0 69.12h-289.28a34.56 34.56 0 1 1 0-69.12z m0 184.32h156.16a34.56 34.56 0 0 1 0 69.12h-156.16a34.56 34.56 0 0 1 0-69.12z m238.08 330.24a38.4 38.4 0 1 1 0 76.8H143.36A130.56 130.56 0 0 1 12.8 880.64V143.36A130.56 130.56 0 0 1 143.36 12.8h552.96a130.56 130.56 0 0 1 130.56 130.56v235.008a38.4 38.4 0 1 1-76.8 0V143.36c0-29.696-24.064-53.76-53.76-53.76H143.36c-29.696 0-53.76 24.064-53.76 53.76v737.28c0 29.696 24.064 53.76 53.76 53.76h318.7712z m256.1024-174.08l89.6-89.6a34.56 34.56 0 0 1 48.896 48.896l-114.0224 114.0224a34.56 34.56 0 0 1-46.7968 1.9456h-0.1024l-67.1744-67.072a34.56 34.56 0 0 1 48.896-48.896l40.704 40.704z m24.2176 250.88a268.8 268.8 0 1 1 0-537.6 268.8 268.8 0 0 1 0 537.6z m0-76.8a192 192 0 1 0 0-384 192 192 0 0 0 0 384z"
        p-id="20111"/>
</svg>
