<?xml version="1.0" standalone="no"?><!DOCTYPE svg PUBLIC "-//W3C//DTD SVG 1.1//EN" "http://www.w3.org/Graphics/SVG/1.1/DTD/svg11.dtd"><svg t="1562652463461" class="icon" viewBox="0 0 1024 1024" version="1.1" xmlns="http://www.w3.org/2000/svg" p-id="1491" xmlns:xlink="http://www.w3.org/1999/xlink" width="200" height="200"><defs><style type="text/css"></style></defs><path d="M671.031 289c0-59.574-23.199-115.582-65.324-157.707S507.574 65.968 448 65.968s-115.582 23.2-157.707 65.325S224.968 229.426 224.968 289s23.2 115.582 65.325 157.707a225.833 225.833 0 0 0 27.956 23.744 384.789 384.789 0 0 0-19.741 7.71c-45.734 19.344-86.801 47.03-122.059 82.289-35.258 35.258-62.944 76.324-82.288 122.059C74.126 729.874 63.968 780.17 63.968 832c0 17.69 14.341 32.031 32.032 32.031S128.032 849.69 128.032 832c0-176.432 143.537-319.968 319.968-319.968 59.574 0 115.582-23.2 157.707-65.325S671.031 348.574 671.031 289zM448 447.968c-87.655 0-158.968-71.313-158.968-158.968S360.345 130.032 448 130.032 606.969 201.345 606.969 289 535.655 447.968 448 447.968zM736 640h192c17.673 0 32-14.327 32-32s-14.327-32-32-32H736c-17.673 0-32 14.327-32 32s14.327 32 32 32zM928 704H544c-17.673 0-32 14.327-32 32s14.327 32 32 32h384c17.673 0 32-14.327 32-32s-14.327-32-32-32zM928 832H544c-17.673 0-32 14.327-32 32s14.327 32 32 32h384c17.673 0 32-14.327 32-32s-14.327-32-32-32zM544 576c-17.673 0-32 14.327-32 32s14.327 32 32 32h65c17.673 0 32-14.327 32-32s-14.327-32-32-32h-65z" p-id="1492"></path></svg>