<svg xmlns="http://www.w3.org/2000/svg" width="200" height="200" class="icon"
     p-id="2040" t="1572576763521" version="1.1" viewBox="0 0 1024 1024">
  <defs>
    <style type="text/css"/>
  </defs>
  <path fill="#9F9F9F"
        d="M512 578.7904a66.7904 66.7904 0 0 0-44.4672 116.5568v61.44a44.4672 44.4672 0 1 0 88.9344 0v-61.44a66.7904 66.7904 0 0 0-44.4672-116.5568m311.2448-200.3456h-44.4672v-111.3088a266.7776 266.7776 0 1 0-533.5552 0v111.3088H200.7552A111.232 111.232 0 0 0 89.6 489.728v422.9632A111.232 111.232 0 0 0 200.7552 1024h622.4896A111.232 111.232 0 0 0 934.4 912.6912V489.728a111.232 111.232 0 0 0-111.1552-111.3088M512 44.5184a222.464 222.464 0 0 1 222.3104 222.72v111.3088H289.7152v-111.4112a222.464 222.464 0 0 1 222.3104-222.72m377.9072 868.2752a66.7136 66.7136 0 0 1-66.688 66.7904H200.7552a66.7136 66.7136 0 0 1-66.688-66.7904V489.728a66.7392 66.7392 0 0 1 66.688-66.7904h622.4896a66.7392 66.7392 0 0 1 66.688 66.7904v422.9632m0 0z"
        p-id="2041"/>
</svg>
