<?xml version="1.0" standalone="no"?><!DOCTYPE svg PUBLIC "-//W3C//DTD SVG 1.1//EN" "http://www.w3.org/Graphics/SVG/1.1/DTD/svg11.dtd"><svg t="1550129525167" class="icon" style="" viewBox="0 0 1248 1024" version="1.1" xmlns="http://www.w3.org/2000/svg" p-id="2987" xmlns:xlink="http://www.w3.org/1999/xlink" width="243.75" height="200"><defs><style type="text/css"></style></defs><path d="M124.64 179.36c2.4 3.328 4.352 7.104 7.36 9.888 41.376 38.496 82.88 76.864 124.384 115.232 27.136 25.056 58.08 25.056 85.024 0.128 18.112-16.736 36.288-33.408 54.272-50.272 23.392-21.952 23.488-52.032-0.16-74.016-43.36-40.288-87.008-80.288-130.496-120.416-3.008-2.784-5.824-5.696-9.632-9.44 35.072-13.408 70.304-19.232 106.88-16.96 142.688 8.896 243.616 122.656 225.088 253.856-1.28 9.024 2.496 14.08 8.672 19.744 165.056 152.384 330.016 304.8 494.88 457.312 48.864 45.216 58.24 110.72 23.872 163.264-47.424 72.512-156.16 85.088-221.024 25.216-168.064-155.232-335.968-310.656-503.744-466.112-6.336-5.888-12.192-8.032-21.504-7.36-141.824 10.176-259.424-88.832-261.984-220.48-0.512-26.336 4.064-52.128 18.112-79.552zM923.968 863.936c0 37.6 32.896 68.192 73.568 68.384 40.256 0.224 73.952-30.592 74.272-67.904 0.32-37.984-33.312-69.12-74.272-68.832-40.736 0.288-73.568 30.784-73.568 68.352z" p-id="2988"></path><path d="M707.84 345.6c-13.568-12.192-25.984-23.296-38.72-34.752 2.272-2.496 3.808-4.576 5.696-6.336 86.048-79.616 171.904-159.424 258.208-238.752 57.152-52.576 149.92-41.312 189.12 22.4 25.728 41.824 20.448 95.36-16.16 129.728-87.552 82.336-176.288 163.552-264.608 245.216-0.8 0.768-1.92 1.216-2.56 1.6-12.256-11.84-24.384-23.584-39.776-38.464 1.504-0.768 6.496-2.112 9.728-5.088 87.072-80.224 173.92-160.608 260.8-241.024 2.784-2.56 7.232-5.088 7.616-8.064 0.832-5.92 1.312-13.088-1.6-17.92-3.84-6.4-12.064-8.288-19.68-4.256-4.32 2.336-8.096 5.76-11.68 9.056-86.336 79.872-172.64 159.776-258.784 239.776-3.264 3.04-5.376 7.136-7.872 10.464-16.288-15.2-30.048-28.032-46.848-43.68 3.616-2.112 8.256-3.84 11.552-6.848 86.432-79.776 172.768-159.648 259.136-239.52 13.28-12.256 15.168-20.928 6.24-28.672-8.48-7.36-17.568-5.504-30.208 6.144-86.624 80.128-173.248 160.224-259.872 240.352-3.008 2.784-6.208 5.44-9.728 8.576z" p-id="2989"></path><path d="M147.52 991.552c-13.76-13.088-27.52-26.624-41.824-39.584-5.536-5.056-1.792-8.256 0.96-12.128 29.664-41.632 59.296-83.264 88.992-124.896 2.816-3.968 6.336-7.616 8.32-11.904 12.352-26.816 34.88-39.168 65.6-40.832 19.392-1.056 33.792-9.984 47.36-22.976 42.368-40.608 85.984-80.064 129.152-119.936 2.752-2.496 5.6-4.928 7.68-6.752 19.232 17.76 38.016 35.136 57.824 53.408-7.968 7.104-16.8 14.784-25.376 22.688-41.248 38.048-82.528 76.064-123.424 114.432-4.608 4.352-8.064 10.656-9.792 16.576-4.48 15.84-7.36 32.032-11.68 47.904-1.088 4.064-4.192 8.768-7.904 11.04-59.616 36.704-119.456 73.088-179.264 109.504-1.664 0.96-3.424 1.728-6.656 3.392z" p-id="2990"></path></svg>