<?xml version="1.0" standalone="no"?><!DOCTYPE svg PUBLIC "-//W3C//DTD SVG 1.1//EN" "http://www.w3.org/Graphics/SVG/1.1/DTD/svg11.dtd"><svg t="1557987667594" class="icon" style="" viewBox="0 0 1024 1024" version="1.1" xmlns="http://www.w3.org/2000/svg" p-id="3848" xmlns:xlink="http://www.w3.org/1999/xlink" width="200" height="200"><defs><style type="text/css"></style></defs><path d="M507.2 70.88L35.84 416H142.4v523.2h739.2V416h102.24L507.2 70.88zM843.2 900.8H180.8V416h662.4v484.8zM152.96 377.6L507.2 117.92 865.76 377.6H152.96z" p-id="3849"></path><path d="M363.2 872h24v-52.8h249.6v52.8h24v-52.8h52.8v-24h-51.84c29.28-33.12 47.04-75.84 47.04-122.4 0-47.04-18.24-90.24-48-123.36v-3.84h52.8v-24h-52.8V473.6h-24v48h-100.8v-33.6h-24v33.6H387.2V473.6h-24v48H310.4v24h52.8v3.84c-14.88 18.72-16.8 80.64-16.8 125.76 0 46.56 3.84 107.04 15.84 120H310.4v24h52.8v52.8z m297.6-308.16c24.48 30.24 39.36 68.16 39.36 108.96 0 41.28-14.4 78.72-39.36 109.44v-218.4z m-24 231.36H387.2v-48h249.6v48z m0-52.8H387.2v-4.8h249.6v4.8z m0-9.6H387.2v-4.8h249.6v4.8z m0-9.6H387.2v-4.8h249.6v4.8z m0-9.6H387.2v-4.8h249.6v4.8z m0-9.6H387.2v-4.8h249.6v4.8z m0-9.6H387.2v-4.8h249.6v4.8z m0-9.6H387.2v-4.8h249.6v4.8z m0-9.6H387.2v-4.8h249.6v4.8z m0-9.6H387.2v-4.8h249.6v4.8z m0-9.6H387.2v-4.8h249.6v4.8z m0-9.6H387.2v-4.8h249.6v4.8z m0-9.6H387.2v-4.8h249.6v4.8z m0-9.6H387.2v-4.8h249.6v4.8z m0-9.6H387.2v-4.8h249.6v4.8z m0-9.6H387.2v-4.8h249.6v4.8z m0-9.6H387.2v-4.8h249.6v4.8z m0-9.6H387.2v-4.8h249.6v4.8z m0-9.6H387.2v-4.8h249.6v4.8z m0-33.6v24H387.2v-24h249.6z m-281.76 129.6c0-36 1.44-76.8 8.16-102.72V776c-5.76-22.08-8.16-65.76-8.16-100.8z" p-id="3850"></path></svg>