<svg xmlns="http://www.w3.org/2000/svg" xmlns:xlink="http://www.w3.org/1999/xlink" width="200" height="200" class="icon" p-id="4821" t="1548743106721" version="1.1" viewBox="0 0 1024 1024"><defs><style type="text/css"/></defs><path fill="#999898" d="M939.929782 460.373771c-38.364481 215.267365-249.369126 381.513449-539.234093 360.199848-8.52544 0-17.05088-2.13136-25.57632-2.13136 61.809441 87.385762 172.640164 144.932483 298.390407 144.932483 34.101761 0 68.203522-4.26272 100.173922-12.78816l89.517122 68.203521c12.78816 10.6568 23.444961 4.26272 23.44496-12.78816v-106.568002c83.123042-55.415361 136.407043-142.801123 136.407044-242.975046 0-74.597602-31.970401-142.801123-83.123042-196.085124z" p-id="4822"/><path fill="#999898" d="M176.902884 705.480176C70.334882 635.145295 0 520.051852 0 394.301609 0 176.902884 202.479205 0 451.84833 0 703.348816 0 905.828021 176.902884 905.828021 394.301609S703.348816 788.603218 453.97969 788.603218c-44.758561 0-87.385762-6.39408-127.881602-14.91952l-117.224803 87.385762c-17.05088 12.78816-31.970401 6.39408-31.970401-14.91952v-140.669764z m552.022253-253.631846c31.970401 0 59.678081-25.576321 59.678081-59.678081 0-31.970401-25.576321-59.678081-59.678081-59.678081-31.970401 0-59.678081 25.576321-59.678082 59.678081 0 34.101761 25.576321 59.678081 59.678082 59.678081z m-277.076807 0c31.970401 0 59.678081-25.576321 59.678082-59.678081 0-31.970401-25.576321-59.678081-59.678082-59.678081-31.970401 0-59.678081 25.576321-59.678081 59.678081 2.13136 34.101761 27.707681 59.678081 59.678081 59.678081z m-274.945446 0c31.970401 0 59.678081-25.576321 59.678081-59.678081 0-31.970401-25.576321-59.678081-59.678081-59.678081s-59.678081 25.576321-59.678081 59.678081c0 34.101761 27.707681 59.678081 59.678081 59.678081z" p-id="4823"/></svg>