<svg xmlns="http://www.w3.org/2000/svg" width="200" height="200" class="icon"
     p-id="1525" t="1573696634567" version="1.1" viewBox="0 0 1024 1024">
  <defs>
    <style type="text/css"/>
  </defs>
  <path
    d="M128 480v416a64 64 0 0 0 64 64h640a64 64 0 0 0 64-64V480z m160 352a32 32 0 0 1-64 0V640a32 32 0 0 1 64 0z m128 0a32 32 0 0 1-64 0V640a32 32 0 0 1 64 0z m128 0a32 32 0 0 1-64 0V640a32 32 0 0 1 64 0z m128 0a32 32 0 0 1-64 0V640a32 32 0 0 1 64 0z m128 0a32 32 0 0 1-64 0V640a32 32 0 0 1 64 0zM896 288H640v64a64 64 0 0 1-64 64H448a64 64 0 0 1-64-64v-64H128a64 64 0 0 0-64 64v32a64 64 0 0 0 64 64h768a64 64 0 0 0 64-64v-32a64 64 0 0 0-64-64z"
    p-id="1526"/>
  <path d="M416 64l192 0 0 320-192 0 0-320Z" p-id="1527"/>
</svg>
