<svg xmlns="http://www.w3.org/2000/svg" width="200" height="200" class="icon"
     p-id="4270" t="1565318736741" version="1.1" viewBox="0 0 1024 1024">
  <defs>
    <style type="text/css"/>
  </defs>
  <path
    d="M568.3 904.8H179.1c-33 0-59.8-26.8-59.8-59.8V179c0-33 26.8-59.8 59.8-59.8h332.3v185.5c0 52.2 42.4 94.5 94.5 94.5h185.7c1.6 14 13.4 24.9 27.8 24.9s26.3-10.9 27.8-24.9h0.2v-20.4c0-14.4-3.7-28.5-10.6-40.9-5.1-10.4-11.9-20-20.3-28.5L603 94.6c-7.8-7.9-16.9-14.4-26.6-19.4-13-7.8-27.9-12-43.2-12H179.1c-63.9 0-115.8 51.9-115.8 115.8v666c0 63.8 51.9 115.8 115.8 115.8h389.2c15.5 0 28-12.5 28-28s-12.6-28-28-28z m37.6-561.5c-21.3 0-38.5-17.2-38.5-38.5v-163l200.2 201.4H605.9z m0 0"
    p-id="4271"/>
  <path
    d="M427.4 233h-224c-15.5 0-28 12.5-28 28s12.5 28 28 28h224c15.5 0 28-12.5 28-28s-12.5-28-28-28z m0 0M427.4 401h-224c-15.5 0-28 12.5-28 28s12.5 28 28 28h224c15.5 0 28-12.5 28-28s-12.5-28-28-28z m0 0M427.4 569h-224c-15.5 0-28 12.5-28 28s12.5 28 28 28h224c15.5 0 28-12.5 28-28s-12.5-28-28-28z m0 0M427.4 737h-224c-15.5 0-28 12.5-28 28s12.5 28 28 28h224c15.5 0 28-12.5 28-28 0-15.4-12.5-28-28-28z m0 0M944.9 612h-43.8c-4-14.4-9.7-28.2-16.9-41l30.9-30.9c5.7-5.7 5.7-14.9 0-20.6l-49.9-49.9c-2.8-2.8-6.6-4.2-10.2-4.2-3.8 0-7.4 1.4-10.2 4.2l-30.9 30.9c-12.8-7.2-26.5-12.9-41-16.9V440c0-8-6.6-14.5-14.5-14.5h-70.5c-8 0-14.5 6.6-14.5 14.5v43.8c-14.4 4-28.2 9.7-41 16.9l-30.9-30.8c-2.8-2.8-6.6-4.2-10.2-4.2-3.7 0-7.4 1.4-10.2 4.2l-49.9 49.9c-5.6 5.7-5.6 14.9 0 20.6l30.9 30.9c-7.2 12.8-12.9 26.5-16.9 41h-43.8c-8 0-14.5 6.6-14.5 14.5v70.5c0 8 6.6 14.5 14.5 14.5h43.8c4 14.4 9.7 28.2 16.9 41l-31 30.8c-5.6 5.7-5.6 14.9 0 20.6l49.9 49.9c2.8 2.8 6.6 4.2 10.2 4.2 3.7 0 7.4-1.4 10.2-4.2l30.9-30.9c12.8 7.2 26.5 12.9 41 16.9v43.8c0 8 6.6 14.5 14.5 14.5h70.5c8 0 14.5-6.6 14.5-14.5v-43.8c14.4-4 28.2-9.7 41-16.9l30.9 30.9c2.8 2.8 6.6 4.2 10.2 4.2 3.8 0 7.4-1.4 10.2-4.2l49.9-49.9c5.7-5.7 5.7-14.9 0-20.6l-30.9-30.9c7.2-12.8 12.9-26.5 16.9-41h43.8c8 0 14.5-6.6 14.5-14.5v-70.5c0.1-8.1-6.4-14.7-14.4-14.7z m-97.7 84.6c-2.8 10.1-6.7 19.7-11.7 28.5l-17.8 31.4-31.4 17.8c-8.8 5-18.4 8.9-28.5 11.7l-34.7 9.6-34.7-9.7c-10.1-2.8-19.7-6.7-28.5-11.7l-31.4-17.8-17.8-31.4c-5-8.8-8.9-18.4-11.7-28.5l-9.6-34.7 9.7-34.7c2.8-10.1 6.7-19.7 11.7-28.5l17.8-31.4 31.4-17.8c8.8-5 18.4-8.9 28.5-11.7l34.7-9.7 34.7 9.7c10.1 2.8 19.7 6.7 28.5 11.7l31.4 17.8 17.8 31.4c5 8.8 8.9 18.4 11.7 28.5l9.7 34.7-9.8 34.8z m0 0"
    p-id="4272"/>
  <path
    d="M723.1 573.2c-48.9 0-88.6 39.6-88.6 88.6 0 48.9 39.6 88.6 88.6 88.6 48.9 0 88.6-39.6 88.6-88.6 0-48.9-39.6-88.6-88.6-88.6z m0 121.2c-18 0-32.6-14.6-32.6-32.6s14.6-32.6 32.6-32.6 32.6 14.6 32.6 32.6-14.6 32.6-32.6 32.6z m0 0"
    p-id="4273"/>
</svg>
