<svg xmlns="http://www.w3.org/2000/svg" width="200" height="200" class="icon"
     p-id="2773" t="1568278234742" version="1.1" viewBox="0 0 1024 1024">
  <defs>
    <style type="text/css"/>
  </defs>
  <path
    d="M929.529131 1007.942263zM483.72442 192.881369c-30.467372 0-57.673815-28.653853-57.673815-60.938393s27.206443-60.944475 57.673815-60.944475c33.914397 0 57.675031 28.659934 57.675031 60.944475 0 39.358605-27.200361 60.938393-57.675031 60.938393z m159.241858-93.222934c-16.866584 0-27.197928-14.32571-27.197928-28.655069 0-28.655069-23.760634-53.684315-54.232871-53.684315H402.119688c-30.469805 0-54.225573 25.029246-54.225574 53.684315 0 17.955182-13.603221 28.655069-27.206442 28.655069h-20.311176c-16.866584 0-27.205226 14.329359-27.205227 28.658718v85.968856c0 17.950317 13.603221 28.653853 27.205227 28.653853H659.842592c16.866584 0 27.205226-14.329359 27.205227-28.653853v-85.968856c0-17.955182-13.600789-28.658718-27.205227-28.658718h-16.876314z m118.794655 64.569082v125.502609c0 17.955182-13.600789 28.659934-27.197928 28.659934l-505.288397 3.624607c-16.866584 0-27.205226-14.324494-27.205226-28.655069V167.852123c0-17.950317-13.603221-28.655069-27.200361-28.655069H158.002437c-44.073026-3.629472-64.389067 25.030462-64.389067 64.564216v698.990776c0 32.284541 30.469805 75.268969 71.278252 75.268969h634.056801c33.914397 0 71.273387-39.358605 71.273387-75.268969V199.95665c0-32.284541-23.753336-64.569081-61.119623-64.569082H792.238036c-16.866584 0.184879-30.467372 10.884766-30.467372 28.839949h-0.009731zM352.963698 785.770911z m0 0"
    p-id="2774"/>
</svg>
