<?xml version="1.0" standalone="no"?><!DOCTYPE svg PUBLIC "-//W3C//DTD SVG 1.1//EN" "http://www.w3.org/Graphics/SVG/1.1/DTD/svg11.dtd"><svg t="1573696634567" class="icon" viewBox="0 0 1024 1024" version="1.1" xmlns="http://www.w3.org/2000/svg" p-id="1525" xmlns:xlink="http://www.w3.org/1999/xlink" width="200" height="200"><defs><style type="text/css"></style></defs><path d="M128 480v416a64 64 0 0 0 64 64h640a64 64 0 0 0 64-64V480z m160 352a32 32 0 0 1-64 0V640a32 32 0 0 1 64 0z m128 0a32 32 0 0 1-64 0V640a32 32 0 0 1 64 0z m128 0a32 32 0 0 1-64 0V640a32 32 0 0 1 64 0z m128 0a32 32 0 0 1-64 0V640a32 32 0 0 1 64 0z m128 0a32 32 0 0 1-64 0V640a32 32 0 0 1 64 0zM896 288H640v64a64 64 0 0 1-64 64H448a64 64 0 0 1-64-64v-64H128a64 64 0 0 0-64 64v32a64 64 0 0 0 64 64h768a64 64 0 0 0 64-64v-32a64 64 0 0 0-64-64z" p-id="1526"></path><path d="M416 64l192 0 0 320-192 0 0-320Z" p-id="1527"></path></svg>