<svg xmlns="http://www.w3.org/2000/svg" xmlns:xlink="http://www.w3.org/1999/xlink" width="128" height="128" class="icon" p-id="1911" t="1577334314591" version="1.1" viewBox="0 0 1024 1024"><defs><style type="text/css"/></defs><path fill="#36C52E" d="M512 961.536c-248.32 0.512-450.048-200.704-450.56-449.536-0.512-248.32 200.704-450.048 449.536-450.56s450.048 200.704 450.56 449.536v0.512c0 248.32-201.216 449.536-449.536 450.048z m0-843.264c-217.6 0-393.728 176.128-393.728 393.728s176.128 393.728 393.728 393.728 393.728-176.128 393.728-393.728c0-217.088-176.128-393.216-393.728-393.728z" p-id="1912"/><path fill="#36C52E" d="M511.488 964.096c-249.344 0-452.096-202.752-452.608-452.096 0-120.832 46.592-234.496 132.096-320s198.656-132.608 320-133.12h0.512c249.344 0 452.096 202.752 452.608 452.096v0.512c0 249.344-202.752 452.096-452.608 452.608z m0.512-5.12v2.56-2.56c246.272-0.512 446.976-201.216 446.976-447.488v-0.512c0-119.296-47.104-231.936-131.584-315.904-84.48-84.48-196.608-130.56-315.904-130.56h-0.512c-119.296 0-231.936 47.104-315.904 131.584C110.08 280.064 64 392.704 64 512c0.512 246.272 200.704 446.976 448 446.976z m0-50.688c-218.624 0-396.288-177.664-396.288-396.288S293.376 115.712 512 115.712c218.112 0.512 396.288 178.176 396.288 396.288 0 218.624-177.664 396.288-396.288 396.288z m0-787.456c-215.552 0-391.168 175.616-391.168 391.168s175.616 391.168 391.168 391.168 391.168-175.616 391.168-391.168-175.616-390.656-391.168-391.168z" p-id="1913"/><path fill="#2AA820" d="M295.936 742.912c-69.12-62.976-100.864-144.384-104.448-231.424C184.32 328.192 346.112 200.192 503.296 200.192c183.296 0 323.072 141.312 323.072 325.12 0 80.896-29.184 158.72-82.432 219.136l-29.184-25.6c47.104-53.76 72.704-122.88 72.704-194.048 0-162.304-122.368-286.72-284.672-286.72s-286.72 120.32-286.72 282.624c0 82.432 18.432 166.4 79.872 222.208z" p-id="1914"/><path fill="#4AD340" d="M399.872 653.312c-36.352-32.768-52.736-75.776-54.784-121.344-3.584-96.256 80.896-162.816 163.84-162.816 96.256 0 169.472 73.728 169.472 169.984 0 42.496-15.36 83.456-43.52 115.2l-15.36-13.312c24.576-28.16 38.4-64 37.888-101.376 0-84.992-64-150.016-148.992-150.016S358.4 452.608 358.4 537.6c0 42.496 9.728 86.528 41.472 115.712z" p-id="1915"/><path fill="#36C52E" d="M462.848 536.064c0 30.72 25.088 55.808 55.808 55.808s55.808-25.088 55.808-55.808-25.088-55.808-55.808-55.808-55.808 25.088-55.808 55.808z" p-id="1916"/><path fill="#C1361B" d="M588.288 259.072c0 29.696 24.064 53.76 53.76 53.76s53.76-24.064 53.76-53.76-24.064-53.76-53.76-53.76c-29.696-0.512-53.76 23.552-53.76 53.76 0-0.512 0 0 0 0z" p-id="1917"/><path fill="#2C9CFA" d="M321.536 498.176c0 20.992 16.896 37.888 37.888 37.888s37.888-16.896 37.888-37.888-16.896-37.888-37.888-37.888c-20.992-0.512-37.888 16.384-37.888 37.888 0-0.512 0-0.512 0 0z" p-id="1918"/><path fill="#36C52E" d="M551.936 543.744l250.88 241.152-21.504 22.528-250.88-241.152 21.504-22.528z" p-id="1919"/></svg>