<svg xmlns="http://www.w3.org/2000/svg" width="200" height="200" class="icon"
     p-id="3554" t="1556524623436" version="1.1" viewBox="0 0 1024 1024">
  <defs>
    <style type="text/css"/>
  </defs>
  <path
    d="M682.2 850.8c-91.5 0-165.9-74.4-165.9-165.9 0-14.3 1.8-28.5 5.5-42.3l0.9-3.2-93.1-45.6-2.1 2c-27.9 27.1-64.6 42.1-103.3 42.1-81.8 0-148.3-66.5-148.3-148.3 0-81.8 66.5-148.3 148.3-148.3 48.1 0 93.5 23.6 121.3 63.2l1.9 2.7 123.1-52.9-1.3-3.6c-5.4-14.6-8.1-29.9-8.1-45.5 0-72.8 59.2-132 132-132s132 59.2 132 132-59.2 132-132 132c-40.2 0-77.8-18.1-103-49.6l-1.9-2.4-124.7 53.6 1.2 3.6c5.2 15.3 7.8 31.2 7.8 47.3 0 25.2-6.5 50-18.7 72l-2.1 3.8 84.3 41.3 1.9-3.3c29.5-52 84.8-84.3 144.4-84.3 91.5 0 165.9 74.4 165.9 165.9s-74.5 165.7-166 165.7z m0-296.5c-72 0-130.7 58.6-130.7 130.7s58.6 130.7 130.7 130.7S812.9 757.1 812.9 685s-58.6-130.7-130.7-130.7zM324.1 376.6c-62.3 0-113 50.7-113 113s50.7 113 113 113 113.1-50.7 113.1-113-50.7-113-113.1-113z m369-168.2c-53.4 0-96.8 43.4-96.8 96.8s43.4 96.8 96.8 96.8 96.8-43.4 96.8-96.8c-0.1-53.4-43.5-96.8-96.8-96.8z"
    p-id="3555"/>
</svg>
