<?xml version="1.0" standalone="no"?><!DOCTYPE svg PUBLIC "-//W3C//DTD SVG 1.1//EN" "http://www.w3.org/Graphics/SVG/1.1/DTD/svg11.dtd"><svg t="1548743177100" class="icon" style="" viewBox="0 0 1024 1024" version="1.1" xmlns="http://www.w3.org/2000/svg" p-id="6295" xmlns:xlink="http://www.w3.org/1999/xlink" width="200" height="200"><defs><style type="text/css"></style></defs><path d="M1012.26496 681.12384H833.536v-167.30112a10.8544 10.8544 0 0 0-11.1616-10.4448h-44.60544a10.8544 10.8544 0 0 0-11.1616 10.4448v167.30112h-178.66752a10.8544 10.8544 0 0 0-11.1616 10.46528v41.79968a10.8544 10.8544 0 0 0 11.1616 10.46528h178.66752v167.30112a10.8544 10.8544 0 0 0 11.1616 10.4448h44.66688a10.86464 10.86464 0 0 0 11.16672-10.4448v-167.30112h178.66752a10.86464 10.86464 0 0 0 11.16672-10.46528v-41.82016a10.86464 10.86464 0 0 0-11.16672-10.4704v0.0256zM314.90048 165.13024A257.50528 257.50528 0 0 1 487.99744 231.0144l23.4496 21.44256 23.45472-21.44256a257.47456 257.47456 0 0 1 173.09184-65.86368c136.79104 0 248.46848 104.5504 248.46848 232.6528a174.19776 174.19776 0 0 1-11.16672 58.55232 60.40064 60.40064 0 0 0-3.33312 14.6432 32.57856 32.57856 0 0 0 33.50016 31.37536 41.1648 41.1648 0 0 0 32.93696-25.62048 278.272 278.272 0 0 0 15.60576-78.99136C1024 234.65984 882.688 102.4 708.608 102.4A326.69696 326.69696 0 0 0 512 166.68672 326.64064 326.64064 0 0 0 315.392 102.4C141.312 102.4 0 234.65984 0 397.76256c0 208.0768 363.47904 449.59744 474.03008 518.14912 0.51712 0.4096 1.08032 0.75776 1.67936 1.03936 5.51424 2.39104 11.3408 3.97824 17.3056 4.7104a32.58368 32.58368 0 0 0 33.50528-31.37536 29.96736 29.96736 0 0 0-15.62624-26.13248c-139.01824-83.64544-444.98944-301.056-444.98944-466.3296 0.53248-128.14336 112.27136-232.69376 248.99584-232.69376z" fill="" p-id="6296"></path></svg>