<svg xmlns="http://www.w3.org/2000/svg" xmlns:xlink="http://www.w3.org/1999/xlink" width="67.688" height="64" class="icon" p-id="21263" t="1584590048709" version="1.1" viewBox="0 0 1083 1024"><defs><style type="text/css"/></defs><path fill="#E9EAEB" d="M469.78679581 419.13095054m-354.59091798 0a354.59091797 354.59091797 0 1 0 709.18183595 0 354.59091797 354.59091797 0 1 0-709.18183595 0Z" p-id="21264"/><path fill="#FFF" d="M385.36038627 216.50756835h641.64070856v455.9026085H385.36038627z" p-id="21265"/><path fill="#FFF" d="M64.54003257 351.58982315h641.64070855v455.9026085H64.54003257z" p-id="21266"/><path fill="#2A5082" d="M1043.88637696 689.29545899h-135.08225479v-33.77056313h101.31169052V233.39285049H402.24566841v67.5411274h-33.77056427v-101.31169167h675.41127282z" p-id="21267"/><path fill="#2A5082" d="M182.73700523 824.37771378H47.65475043V334.70454101h675.41127168v101.31169053h-33.77056312v-67.5411274H81.42531357v422.13204537h101.31169166z" p-id="21268"/><path fill="#FFF" d="M233.39285049 486.6720768h624.75542642v455.90260963H233.39285049z" p-id="21269"/><path fill="#2A5082" d="M875.03355904 959.45996743H216.50756835V469.78679581h658.52599069v489.67317162z m-624.75542755-33.77056313h590.98486328V503.55735893H250.27813149v422.13204537z" p-id="21270"/><path fill="#A3D4FF" d="M706.18074112 621.75433159m-50.65584526 0a50.65584526 50.65584526 0 1 0 101.31169052 0 50.65584526 50.65584526 0 1 0-101.31169052 0Z" p-id="21271"/><path fill="#2A5082" d="M706.18074112 689.29545899c-37.14761955 0-67.54112739-30.3935067-67.54112739-67.5411274s30.3935067-67.54112739 67.54112739-67.5411274 67.54112739 30.3935067 67.54112739 67.5411274-30.3935067 67.54112739-67.54112739 67.5411274z m0-101.31169053c-18.57381035 0-33.77056313 15.19675392-33.77056427 33.77056313s15.19675392 33.77056313 33.77056427 33.77056427 33.77056313-15.19675392 33.77056313-33.77056427-15.19675392-33.77056313-33.77056313-33.77056313z" p-id="21272"/><path fill="#A3D4FF" d="M638.63961373 739.95130425l-59.09848634 59.09848633L452.90151367 672.41017685 233.39285049 891.91884003v50.6558464h607.87014428z" p-id="21273"/><path fill="#2A5082" d="M881.78767189 959.45996743H216.50756835v-74.29523911l236.39394532-236.39394531 126.63961372 126.63961258 59.09848634-59.09848633L881.78767189 959.45996743zM250.27813149 925.6894043h550.4601873L638.63961373 763.59069923l-35.45909248 35.45909135 47.27878997 47.27878883-23.63939499 23.63939499L452.90151367 696.04957184l-202.62338218 202.62338105V925.6894043z" p-id="21274"/></svg>