<?xml version="1.0" standalone="no"?><!DOCTYPE svg PUBLIC "-//W3C//DTD SVG 1.1//EN" "http://www.w3.org/Graphics/SVG/1.1/DTD/svg11.dtd"><svg t="1584600166944" class="icon" viewBox="0 0 1024 1024" version="1.1" xmlns="http://www.w3.org/2000/svg" p-id="2000" xmlns:xlink="http://www.w3.org/1999/xlink" width="300" height="300"><defs><style type="text/css"></style></defs><path d="M767.0784 351.6416H244.736a19.1488 19.1488 0 0 0-19.1488 19.1488v522.24c0 10.496 8.6016 19.0976 19.1488 19.0976h522.24a19.1488 19.1488 0 0 0 19.2-19.1488v-522.24a19.1488 19.1488 0 0 0-19.1488-19.0976z m-50.688 459.4176a34.304 34.304 0 0 1-68.5568 0v-353.792a34.304 34.304 0 0 1 68.608 0v353.792z m50.688-531.456h-50.688V0H295.424v279.6032h-50.688A91.136 91.136 0 0 0 153.6 370.7392v522.24c0 50.3808 40.8064 91.136 91.136 91.136h522.3424a91.136 91.136 0 0 0 91.136-91.136v-522.24a91.136 91.136 0 0 0-91.136-91.136zM367.4624 72.0384h276.9408v206.7968H367.4624V72.0384z m418.7648 820.9408a19.1488 19.1488 0 0 1-19.1488 19.1488H244.736a19.1488 19.1488 0 0 1-19.1488-19.1488v-522.24c0-10.496 8.6016-19.0976 19.1488-19.0976h522.24c10.5984 0 19.2 8.6016 19.2 19.1488v522.24zM436.736 139.6736h140.1344v70.912H436.7872V139.6736z" p-id="2001"></path></svg>