<svg xmlns="http://www.w3.org/2000/svg" width="200" height="200" class="icon"
     p-id="3728" t="1553655853084" version="1.1" viewBox="0 0 1024 1024">
  <defs>
    <style type="text/css"/>
  </defs>
  <path
    d="M781.2 510.9l62.4 44.3-173.2 247.4-62.7 21.7-1.1-63.9 174.6-249.5m-5.7-68.9c-11.7 0-23.3 5.3-30.1 15.4L553.7 731.2c-3.7 5.5-7.3 14.6-7.3 21.9l1.8 104.1c0 21.4 18 36.4 36.7 36.4 3.6 0 7.3-0.6 10.8-1.7l100.4-34.7c7.3-1.8 14.6-7.3 18.3-12.8l191.7-273.8c11-16.4 7.3-38.3-9.1-51.1l-100.4-71.2c-6.4-4.2-13.8-6.3-21.1-6.3z"
    p-id="3729"/>
  <path
    d="M415 111c-125.9 0-228 102.1-228 228 0 81.7 43 153.4 107.6 193.6-91.1 42-153.7 131.9-171.6 244.4l-8.5 67.5C110 880.3 137.9 912 174 912h269.6c1.1 0 2.1-0.1 3.2-0.2 1.1 0.1 2.1 0.2 3.2 0.2 16.6 0 30-13.4 30-30s-13.4-30-30-30c-1.1 0-2.2 0.1-3.2 0.2-1-0.1-2.1-0.2-3.2-0.2H208c-18.1 0-32-15.8-29.8-33.7l4.1-32.7c5.3-32.5 14.9-62.7 28.6-90 13.4-26.6 30.4-49.7 50.5-68.9 41.2-39 94.2-59.7 153.5-59.7 30 0 58.8 5.5 85.5 16.5 5.9 2.4 11.7 5.1 17.3 8 4.4 2.3 9.2 3.4 13.9 3.4 9 0 17.8-4 23.6-11.5 11.5-14.8 6.9-36.5-9.8-45.1-3.5-1.8-7.1-3.6-10.8-5.3C599.7 492.8 643 421 643 339c0-125.9-102.1-228-228-228z m0 396c-44.9 0-87.1-17.5-118.8-49.2S247 383.9 247 339s17.5-87.1 49.2-118.8S370.1 171 415 171c44.9 0 87.1 17.5 118.8 49.2C565.5 251.9 583 294.1 583 339s-17.5 87.1-49.2 118.8C502.1 489.5 459.9 507 415 507z"
    p-id="3730"/>
</svg>
