<svg xmlns="http://www.w3.org/2000/svg" xmlns:xlink="http://www.w3.org/1999/xlink" width="66.875" height="64" class="icon" p-id="26339" t="1584590166594" version="1.1" viewBox="0 0 1070 1024"><defs><style type="text/css"/></defs><path fill="#1be048" d="M467.79187 186.173537L309.556699 0.011227H130.32032l158.291025 186.16231z m465.433701 0L774.990401 0.011227h-179.180525L754.045046 186.173537z m-232.688923 0L542.245623 0.011227H363.065098l158.23517 186.16231zM1000.753394 0.011227h-172.254595l158.291025 186.16231h83.781418V69.829075A68.589054 68.589054 0 0 0 1000.753394 0.011227zM76.811921 0.011227H69.830136A68.589054 68.589054 0 0 0 0.012288 69.829075v116.344462h235.034804zM0.012288 954.169864a68.5332 68.5332 0 0 0 69.817848 69.817848h930.923258a68.5332 68.5332 0 0 0 69.817848-69.817848V232.756005H0.012288z m372.380474-511.960315c0-39.600683 32.563044-58.200158 69.817848-58.200158a73.560085 73.560085 0 0 1 37.198949 9.327664l265.307823 153.599266a65.908048 65.908048 0 0 1 0 116.344461l-265.307823 153.599266a68.14222 68.14222 0 0 1-37.198949 9.327664c-37.254804 0-69.817848-18.655329-69.817848-58.200158z" p-id="26340"/></svg>