<svg xmlns="http://www.w3.org/2000/svg" xmlns:xlink="http://www.w3.org/1999/xlink" width="300" height="300" class="icon" p-id="1954" t="1577240571991" version="1.1" viewBox="0 0 1024 1024"><defs><style type="text/css"/></defs><path d="M491.52 491.52c51.2 0 92.16-40.96 92.16-92.16s-40.96-92.16-92.16-92.16-92.16 40.96-92.16 92.16 40.96 92.16 92.16 92.16zM358.4 153.6h307.2c11.264 0 20.48-9.216 20.48-20.48V61.44c0-11.264-9.216-20.48-20.48-20.48H358.4c-11.264 0-20.48 9.216-20.48 20.48v71.68c0 11.264 9.216 20.48 20.48 20.48z m522.24-40.96H716.8v30.72c0 22.528-18.432 40.96-40.96 40.96H348.16c-22.528 0-40.96-18.432-40.96-40.96v-30.72H143.36c-22.528 0-40.96 18.432-40.96 40.96v788.48c0 22.528 18.432 40.96 40.96 40.96h737.28c22.528 0 40.96-18.432 40.96-40.96V153.6c0-22.528-18.432-40.96-40.96-40.96zM491.52 245.76c84.992 0 153.6 68.608 153.6 153.6 0 31.744-9.216 60.416-25.6 84.992l47.104 47.104c12.288 12.288 12.288 31.744 0 43.008-12.288 12.288-31.744 12.288-43.008 0l-47.104-47.104C551.936 543.744 523.264 552.96 491.52 552.96c-84.992 0-153.6-68.608-153.6-153.6s68.608-153.6 153.6-153.6z m-10.24 634.88H215.04v-61.44h266.24v61.44z m327.68-102.4H215.04v-61.44h593.92v61.44z m0-102.4H215.04v-61.44h593.92v61.44z" p-id="1955"/></svg>