<svg xmlns="http://www.w3.org/2000/svg" width="200" height="200" class="icon"
     p-id="3168" t="1548743017515" version="1.1" viewBox="0 0 1024 1024">
  <defs>
    <style type="text/css"/>
  </defs>
  <path
    d="M158.6796875 359.0703125c0 15.8203125-5.2734375 31.640625-5.2734375 47.4609375 0 31.640625 0 58.0078125 15.8203125 84.375 31.640625 58.0078125 84.375 89.6484375 142.3828125 121.2890625 26.3671875 10.546875 47.4609375 26.3671875 73.828125 36.9140625 31.640625 10.546875 68.5546875 21.09375 105.46875 26.3671875 94.921875 21.09375 189.84375 21.09375 284.765625 10.546875 36.9140625-5.2734375 73.828125-21.09375 110.7421875-31.640625 5.2734375 0 10.546875-5.2734375 21.09375-5.2734375v5.2734375l-21.09375 21.09375c-26.3671875 10.546875-52.734375 26.3671875-79.1015625 36.9140625-84.375 31.640625-174.0234375 42.1875-268.9453125 36.9140625-79.1015625-5.2734375-158.203125-15.8203125-232.03125-47.4609375-26.3671875-10.546875-58.0078125-21.09375-79.1015625-36.9140625-31.640625-21.09375-58.0078125-36.9140625-84.375-68.5546875-5.2734375-15.8203125-21.09375-26.3671875-31.640625-36.9140625-5.2734375-10.546875-5.2734375-21.09375-10.546875-31.640625C95.3984375 512 90.125 496.1796875 90.125 480.359375c5.2734375-42.1875 10.546875-84.375 52.734375-116.015625 5.2734375 0 5.2734375-5.2734375 10.546875-5.2734375h5.2734375z"
    p-id="3169"/>
  <path
    d="M385.4375 316.8828125v10.546875c-5.2734375 42.1875 10.546875 73.828125 42.1875 105.46875 31.640625 31.640625 68.5546875 52.734375 105.46875 73.828125 31.640625 10.546875 63.28125 15.8203125 94.921875 26.3671875 68.5546875 21.09375 137.109375 15.8203125 200.390625 10.546875 31.640625-5.2734375 63.28125-15.8203125 94.921875-26.3671875h10.546875l-10.546875 10.546875c-26.3671875 21.09375-63.28125 31.640625-94.921875 36.9140625-73.828125 21.09375-152.9296875 15.8203125-232.03125 10.546875-26.3671875-5.2734375-52.734375-15.8203125-84.375-26.3671875-47.4609375-10.546875-89.6484375-36.9140625-121.2890625-73.828125L374.890625 459.265625c-5.2734375-15.8203125-15.8203125-26.3671875-21.09375-42.1875-10.546875-31.640625-5.2734375-58.0078125 15.8203125-79.1015625 5.2734375-10.546875 5.2734375-15.8203125 15.8203125-21.09375-5.2734375 0-5.2734375 0 0 0zM886.4140625 422.3515625s0 5.2734375 0 0c-47.4609375 10.546875-89.6484375 21.09375-137.109375 15.8203125-36.9140625-5.2734375-79.1015625-15.8203125-110.7421875-31.640625-21.09375-10.546875-36.9140625-26.3671875-52.734375-42.1875-5.2734375-10.546875-10.546875-31.640625-15.8203125-42.1875 0-10.546875 10.546875-26.3671875 15.8203125-42.1875 5.2734375 5.2734375 5.2734375 10.546875 5.2734375 15.8203125 0 42.1875 26.3671875 63.28125 58.0078125 79.1015625 63.28125 42.1875 137.109375 52.734375 216.2109375 47.4609375 5.2734375-5.2734375 15.8203125-5.2734375 21.09375 0z"
    p-id="3170"/>
</svg>
