<svg xmlns="http://www.w3.org/2000/svg" xmlns:xlink="http://www.w3.org/1999/xlink" width="200" height="200" class="icon" p-id="721" t="1566013795237" version="1.1" viewBox="0 0 1024 1024"><defs><style type="text/css"/></defs><path d="M980.992 664.576h-87.04V547.84c0-38.4-29.184-70.144-65.536-70.144h-283.136V360.96h65.536c24.064 0 43.52-20.992 43.52-46.592v-209.92c0-26.112-19.456-46.592-43.52-46.592H414.72c-24.064 0-43.52 20.992-43.52 46.592v209.92c0 26.112 19.456 46.592 43.52 46.592h43.52v116.736H175.104c-36.352 0-65.536 31.232-65.536 70.144v116.736H44.544c-24.064 0-43.52 20.992-43.52 46.592v209.92C1.024 947.2 20.48 967.68 44.544 967.68H240.64c24.064 0 43.52-20.992 43.52-46.592v-209.92c0-26.112-19.456-46.592-43.52-46.592H175.104V547.84h283.136v116.736H414.72c-24.064 0-43.52 20.992-43.52 46.592v209.92c0 26.112 19.456 46.592 43.52 46.592h196.096c24.064 0 43.52-20.992 43.52-46.592v-209.92c0-26.112-19.456-46.592-43.52-46.592h-65.536V547.84h283.136v116.736h-43.52c-24.064 0-43.52 20.992-43.52 46.592v209.92c0 26.112 19.456 46.592 43.52 46.592h196.096c24.064 0 43.52-20.992 43.52-46.592v-209.92c0.512-25.6-19.456-46.592-43.52-46.592z" p-id="722"/></svg>