<?xml version="1.0" standalone="no"?><!DOCTYPE svg PUBLIC "-//W3C//DTD SVG 1.1//EN" "http://www.w3.org/Graphics/SVG/1.1/DTD/svg11.dtd"><svg t="1558407489891" class="icon" style="" viewBox="0 0 1102 1024" version="1.1" xmlns="http://www.w3.org/2000/svg" p-id="2772" xmlns:xlink="http://www.w3.org/1999/xlink" width="215.234375" height="200"><defs><style type="text/css"></style></defs><path d="M1016.123077 3.938462c47.261538 0 84.676923 37.415385 84.676923 82.707692v846.769231c0 45.292308-37.415385 82.707692-84.676923 82.707692H39.384615c-13.784615 0-25.6-7.876923-31.507692-19.692308-5.907692-11.815385-5.907692-25.6 0-37.415384l76.8-124.061539c1.969231-3.938462 5.907692-9.846154 5.907692-13.784615 0-3.938462-1.969231-9.846154-5.907692-15.753846-11.815385-17.723077-37.415385-59.076923-76.8-122.092308-7.876923-11.815385-7.876923-27.569231 0-39.384615L90.584615 512c0-1.969231 1.969231-3.938462 1.969231-5.907692 0-1.969231 0-3.938462-1.969231-5.907693L7.876923 374.153846c-7.876923-11.815385-7.876923-27.569231 0-39.384615l82.707692-131.938462c1.969231-1.969231 1.969231-3.938462 1.969231-5.907692 0-1.969231 0-3.938462-1.969231-5.907692L7.876923 61.046154C1.969231 49.230769 0 35.446154 7.876923 23.630769c5.907692-11.815385 19.692308-19.692308 33.476923-19.692307h974.769231z m-25.6 931.446153c15.753846 0 25.6-7.876923 25.6-25.6V114.215385c0-15.753846-7.876923-25.6-25.6-25.6H128c-3.938462 0-5.907692 0-5.907692 1.96923-1.969231 1.969231-1.969231 3.938462 0 5.907693L177.230769 185.107692c7.876923 11.815385 7.876923 25.6 0 39.384616l-78.769231 126.030769c-1.969231 1.969231-3.938462 3.938462-3.938461 7.876923 0 1.969231 1.969231 3.938462 3.938461 7.876923 11.815385 19.692308 37.415385 61.046154 78.769231 128 7.876923 11.815385 7.876923 23.630769 1.969231 35.446154-37.415385 59.076923-64.984615 102.4-82.707692 131.938461 0 1.969231-1.969231 3.938462-1.969231 5.907693 0 1.969231 1.969231 3.938462 1.969231 5.907692 7.876923 9.846154 35.446154 55.138462 80.738461 129.969231 7.876923 11.815385 7.876923 21.661538 0 33.476923-17.723077 29.538462-37.415385 59.076923-55.138461 88.615385-1.969231 1.969231-1.969231 5.907692 0 7.876923 1.969231 1.969231 3.938462 1.969231 7.876923 1.96923H990.523077z" p-id="2773"></path><path d="M734.523077 354.461538c21.661538-1.969231 39.384615-19.692308 39.384615-41.353846s-17.723077-41.353846-39.384615-41.353846H368.246154c-21.661538 1.969231-39.384615 19.692308-39.384616 41.353846s17.723077 41.353846 39.384616 41.353846h366.276923zM734.523077 553.353846c21.661538-1.969231 39.384615-19.692308 39.384615-41.353846s-17.723077-41.353846-39.384615-41.353846H368.246154c-21.661538 1.969231-39.384615 19.692308-39.384616 41.353846s17.723077 41.353846 39.384616 41.353846h366.276923zM734.523077 754.215385c21.661538-1.969231 39.384615-19.692308 39.384615-41.353847s-17.723077-41.353846-39.384615-41.353846H368.246154c-21.661538 1.969231-39.384615 19.692308-39.384616 41.353846s17.723077 41.353846 39.384616 41.353847h366.276923z" p-id="2774"></path></svg>