<svg xmlns="http://www.w3.org/2000/svg" xmlns:xlink="http://www.w3.org/1999/xlink" width="164.5" height="128" class="icon" p-id="7370" t="1565319055345" version="1.1" viewBox="0 0 1316 1024"><defs><style type="text/css"/></defs><path fill="#cdcdcd" d="M659.017143 212.114286A442.806857 442.806857 0 0 0 343.771429 342.528a442.806857 442.806857 0 0 0-130.56 315.172571 45.714286 45.714286 0 0 0 91.428571 0c0-94.646857 36.864-183.588571 103.862857-250.514285a351.963429 351.963429 0 0 1 250.441143-103.789715c94.646857 0 183.588571 36.864 250.514286 103.789715a351.963429 351.963429 0 0 1 103.789714 250.514285 45.714286 45.714286 0 0 0 91.428571 0 442.806857 442.806857 0 0 0-130.56-315.172571A442.806857 442.806857 0 0 0 659.017143 212.041143z" p-id="7371"/><path fill="#cdcdcd" d="M659.017143 6.290286a640 640 0 0 0-536.868572 988.598857h1073.664A640 640 0 0 0 658.944 6.290286z m484.644571 897.170285H174.299429a546.742857 546.742857 0 0 1-63.926858-257.170285 546.816 546.816 0 0 1 160.694858-387.876572 546.816 546.816 0 0 1 387.876571-160.694857 546.816 546.816 0 0 1 387.876571 160.694857 546.816 546.816 0 0 1 160.694858 387.876572c0 90.331429-21.942857 178.322286-63.853715 257.170285z" p-id="7372"/><path fill="#cdcdcd" d="M687.908571 618.349714c-14.336 0-28.525714 2.706286-41.764571 7.899429l-98.742857-98.669714a45.714286 45.714286 0 1 0-64.585143 64.658285l98.742857 98.742857a114.249143 114.249143 0 1 0 106.422857-72.557714z" p-id="7373"/></svg>