<svg xmlns="http://www.w3.org/2000/svg" xmlns:xlink="http://www.w3.org/1999/xlink" width="200" height="200" class="icon" p-id="1985" t="1568104731838" version="1.1" viewBox="0 0 1024 1024"><defs><style type="text/css"/></defs><path d="M511.999488 833.051063c-191.853539 0-362.981035-121.969912-425.877527-303.516712-3.953032-11.307533-3.953032-23.662933 0-35.07382 62.869886-181.541683 234.021941-303.512618 425.877527-303.512618 191.831027 0 362.954429 121.969912 425.877527 303.512618 3.955078 11.410887 3.955078 23.76731 0 35.126009C874.953917 711.081151 703.803909 833.051063 511.999488 833.051063zM194.037786 512.051165c52.531424 128.618333 178.034812 213.791178 317.961702 213.791178 139.901307 0 265.405719-85.171822 317.965795-213.791178C777.406231 383.379621 651.899772 298.15561 511.999488 298.15561 372.072599 298.156634 246.56921 383.380644 194.037786 512.051165z" p-id="1986"/><path d="M643.208832 512.051165c0 72.449056-58.759265 131.185808-131.210367 131.185808-72.450079 0-131.210367-58.735729-131.210367-131.185808 0-72.503291 58.760289-131.236973 131.210367-131.236973C584.449567 380.815215 643.208832 439.548898 643.208832 512.051165z" p-id="1987"/></svg>