<svg xmlns="http://www.w3.org/2000/svg" width="200" height="200" class="icon"
     p-id="1249" t="1562902491062" version="1.1" viewBox="0 0 1024 1024">
  <defs>
    <style type="text/css"/>
  </defs>
  <path
    d="M759.985466 939.38281 264.011464 939.38281c-62.171991 0-112.720248-50.567699-112.720248-112.721271L151.291217 330.687538c0-62.150502 50.548256-112.721271 112.720248-112.721271l495.974002 0c62.174038 0 112.721271 50.570769 112.721271 112.721271L872.706737 826.660516C872.706737 888.815111 822.159504 939.38281 759.985466 939.38281zM264.011464 263.055185c-37.294394 0-67.632353 30.337959-67.632353 67.632353L196.379111 826.660516c0 37.294394 30.337959 67.633377 67.632353 67.633377l495.974002 0c37.294394 0 67.633377-30.337959 67.633377-67.633377L827.618842 330.687538c0-37.294394-30.337959-67.632353-67.633377-67.632353L264.011464 263.055185z"
    p-id="1250"/>
  <path
    d="M850.162278 424.65263 173.834652 424.65263c-12.459776 0-22.543436-10.083659-22.543436-22.543436 0-12.461823 10.083659-22.544459 22.543436-22.544459l676.326603 0c12.462846 0 22.544459 10.083659 22.544459 22.544459C872.706737 414.56897 862.625124 424.65263 850.162278 424.65263z"
    p-id="1251"/>
  <path
    d="M454.801788 789.676184c-5.768377 0-11.536754-2.202155-15.940041-6.606465l-101.800547-101.799524c-8.80555-8.80555-8.80555-23.072485 0-31.878035 8.806573-8.806573 23.071462-8.806573 31.878035 0l101.801571 101.798501c8.806573 8.807596 8.806573 23.075555 0 31.879058C466.337519 787.473005 460.570165 789.676184 454.801788 789.676184z"
    p-id="1252"/>
  <path
    d="M454.801788 789.676184c-5.768377 0-11.536754-2.202155-15.940041-6.606465-8.80555-8.804527-8.80555-23.071462 0-31.879058l216.151945-216.150922c8.80555-8.80555 23.073508-8.80555 31.880081 0 8.80555 8.806573 8.80555 23.073508 0 31.879058l-216.152968 216.150922C466.337519 787.473005 460.570165 789.676184 454.801788 789.676184z"
    p-id="1253"/>
</svg>
