<?xml version="1.0" standalone="no"?><!DOCTYPE svg PUBLIC "-//W3C//DTD SVG 1.1//EN" "http://www.w3.org/Graphics/SVG/1.1/DTD/svg11.dtd"><svg t="1577330827550" class="icon" viewBox="0 0 1382 1024" version="1.1" xmlns="http://www.w3.org/2000/svg" p-id="8910" xmlns:xlink="http://www.w3.org/1999/xlink" width="172.75" height="128"><defs><style type="text/css"></style></defs><path d="M667.205189 984.562162l7.389406 14.944865H105.997838V914.957838h213.379459v-74.198487a31.827027 31.827027 0 0 1 31.494919-31.965405h281.323243l-0.415135 10.793513c-0.110703 3.597838-0.110703 6.171676-0.110702 9.492757a353.833514 353.833514 0 0 0 35.535567 155.537298zM925.474595 0H74.253838A74.447568 74.447568 0 0 0 0 74.447568v595.857297c0 41.292108 33.293838 74.890378 74.253838 74.890378h567.240648l2.048-7.749189c5.590486-21.31027 13.228973-42.067027 22.777082-61.938162l7.223351-14.917189H95.508757c-5.95027 0-10.931892-5.31373-10.931892-11.540757V95.757838a11.07027 11.07027 0 0 1 10.931892-11.180973h808.683243c5.867243 0 10.655135 5.036973 10.655135 11.180973v383.474162l12.177297-2.131027c20.48-3.542486 41.236757-5.369081 62.02119-5.396757h10.378378V74.502919A74.336865 74.336865 0 0 0 925.474595 0zM640.415135 237.817081c-6.420757-14.419027-21.033514-24.077838-38.801297-24.077838h-0.19373a40.185081 40.185081 0 0 0-36.282811 27.731027l-51.172324 155.786379-49.318054-204.16346a40.157405 40.157405 0 0 0-35.231135-30.609297c-17.546378-2.407784-33.376865 7.417081-40.76627 23.635027l-53.580109 119.365189h-85.102702v80.591568h111.200865a40.12973 40.12973 0 0 0 36.697946-23.801081l15.99654-35.618595 54.880865 227.438703c4.206703 17.435676 19.677405 30.111135 37.998703 30.775351h1.162378a40.046703 40.046703 0 0 0 38.247784-27.731027l62.934486-191.072865c7.195676 12.398703 20.48 20.009514 34.816 20.009514h105.748757v-80.619244h-79.512216l-29.723676-67.639351z m436.445406 507.848649c0 37.998703-30.72 69.908757-68.774055 69.908756h-0.083027c-38.026378 0-68.746378-31.910054-68.746378-69.936432 0.027676-38.026378 30.886054-69.82573 68.829405-69.798054 37.971027 0.055351 68.718703 31.771676 68.774055 69.798054z m250.437189 14.889513S1234.335135 992.422054 1008.501622 988.547459c0 0-194.504649 23.74573-320.70573-227.992216 0 0 87.372108-221.405405 298.869622-229.016216 0.027676 0 219.163676-27.564973 340.576864 229.016216z m-318.270271-135.887567a137.216 137.216 0 0 0-138.931891 139.153297 137.188324 137.188324 0 0 0 138.931891 135.444757 137.243676 137.243676 0 0 0 135.223352-135.444757 137.271351 137.271351 0 0 0-135.195676-139.153297z" fill="#1CBB82" p-id="8911"></path></svg>