<?xml version="1.0" standalone="no"?><!DOCTYPE svg PUBLIC "-//W3C//DTD SVG 1.1//EN" "http://www.w3.org/Graphics/SVG/1.1/DTD/svg11.dtd"><svg t="1558408436121" class="icon" style="" viewBox="0 0 1024 1024" version="1.1" xmlns="http://www.w3.org/2000/svg" p-id="3946" xmlns:xlink="http://www.w3.org/1999/xlink" width="200" height="200"><defs><style type="text/css"></style></defs><path d="M681.728 452.928c-18.752 18.752-49.152 18.752-67.904 0L560 399.04l0 343.744c0 26.496-21.504 48-48 48s-48-21.504-48-48L464 399.04 410.176 452.928c-18.816 18.752-49.216 18.752-67.904 0-18.752-18.752-18.752-49.152 0-67.904L478.08 249.344C487.488 239.936 499.712 235.2 512 235.2s24.576 4.736 33.92 14.144l135.744 135.744C700.48 403.84 700.48 434.176 681.728 452.928z" p-id="3947"></path><path d="M516.544 20.544c-273.472 0-496 222.528-496 496 0 204.48 124.416 380.352 301.504 456.192l0-106.944c-122.432-68.48-205.504-199.296-205.504-349.248 0-220.544 179.456-400 400-400s400 179.456 400 400c0 152.064-85.312 284.48-210.496 352.128l0 106.048c179.712-74.56 306.496-251.84 306.496-458.176C1012.544 243.072 790.08 20.544 516.544 20.544z" p-id="3948"></path></svg>