<svg xmlns="http://www.w3.org/2000/svg" width="200" height="200" class="icon"
     p-id="5572" t="1548743137702" version="1.1" viewBox="0 0 1024 1024">
  <defs>
    <style type="text/css"/>
  </defs>
  <path fill="#00A2E9" d="M938.7 162.5h-76.6V62.9H959.3V162.5z" p-id="5573"/>
  <path fill="#332C2B"
        d="M489.3 202.5V481.8H392V202.5c0-11.3-4.4-21.9-11.8-29.4-6.6-7.5-16.2-12.1-26.5-12.1H201.2c-11.1 0-21.4 4.5-28.7 12.1-6.6 7.5-11.8 18.1-11.8 29.4v138.9c0 11.3 5.2 21.1 11.8 28.7 7.4 7.5 17.7 12.1 28.7 12.1h172.4v99.6H201.2c-38.3 0-72.2-15.9-97.3-40.8-25.1-25.7-40.5-61.1-40.5-99.6V202.5c0-38.5 15.5-73.2 40.5-98.9 25.1-24.9 58.9-40.8 97.3-40.8h152.5c36.8 0 70.7 15.9 95.8 40.8 24.3 25.7 39.8 60.4 39.8 98.9zM489.3 819.9V540.6H392V819.9c0 11.3-4.4 21.9-11.8 29.4-6.6 7.5-16.2 12.1-26.5 12.1H201.2c-11.1 0-21.4-4.5-28.7-12.1-6.6-7.5-11.8-18.1-11.8-29.4V681c0-11.3 5.2-21.1 11.8-28.7 7.4-7.5 17.7-12.1 28.7-12.1h172.4v-99.6H201.2c-38.3 0-72.2 15.9-97.3 40.8-25.1 25.7-40.5 61.1-40.5 99.6v138.9c0 38.5 15.5 73.2 40.5 98.9 25.1 24.9 58.9 40.8 97.3 40.8h152.5c36.8 0 70.7-15.9 95.8-40.8 24.3-25.7 39.8-60.4 39.8-98.9zM533.5 202.5V481.8H630.7V202.5c0-11.3 4.4-21.9 11.8-29.4 6.6-7.5 16.2-12.1 27.3-12.1h152.5c2.2 0 4.4 0.8 6.6 0.8V62.9H669.8c-37.6 0-71.5 15.9-95.8 40.8-25.1 25.6-40.5 60.3-40.5 98.8z m328.6 0v138.9c0 11.3-4.4 21.1-11.8 28.7-7.4 7.5-17.7 12.1-28 12.1H649.2v99.6h173.1c37.6 0 72.2-15.9 96.5-40.8 25-25.7 40.5-61.1 40.5-99.6V202.5h-97.2zM533.5 819.9V540.6H630.7V819.9c0 11.3 4.4 21.9 11.8 29.4 6.6 7.5 16.2 12.1 27.3 12.1h152.5c10.3 0 20.6-4.5 28-12.1 7.4-7.5 11.8-18.1 11.8-29.4V681c0-11.3-4.4-21.1-11.8-28.7-7.4-7.5-17.7-12.1-28-12.1H649.2v-99.6h173.1c37.6 0 72.2 15.9 96.5 40.8 25 25.7 40.5 61.1 40.5 99.6v138.9c0 38.5-15.5 73.2-40.5 98.9-25.1 24.9-58.9 40.8-96.5 40.8H669.8c-37.6 0-71.5-15.9-95.8-40.8-25.1-25.7-40.5-60.4-40.5-98.9z"
        p-id="5574"/>
</svg>
