<svg xmlns="http://www.w3.org/2000/svg" xmlns:xlink="http://www.w3.org/1999/xlink" width="200" height="200" class="icon" p-id="942" t="1561357738651" version="1.1" viewBox="0 0 1024 1024"><defs><style type="text/css"/></defs><path fill="#fff" d="M561.312102 68.191078l-98.624205 0 0 493.121024 98.624205 0L561.312102 68.191078zM799.735283 174.951591l-69.77618 69.77618c77.420277 63.36619 127.225613 159.27761 127.225613 267.271206 0 190.590779-154.592914 345.184717-345.184717 345.184717S166.815283 702.590779 166.815283 512c0-107.993596 49.805336-203.905016 127.225613-267.271206l-69.77618-69.77618C129.0911 256.316713 68.191078 376.884696 68.191078 512c0 245.080811 198.72811 443.808922 443.808922 443.808922s443.808922-198.72811 443.808922-443.808922C955.808922 376.884696 894.907876 256.316713 799.735283 174.951591z" p-id="943"/></svg>