<svg xmlns="http://www.w3.org/2000/svg" width="141.625" height="128"
     class="icon" p-id="7644" t="1577334680240" version="1.1" viewBox="0 0 1133 1024">
  <defs>
    <style type="text/css"/>
  </defs>
  <path fill="#CAF6CA" d="M89.437845 196.763258h250.425965v697.615189H89.437845z" p-id="7645"/>
  <path fill="#CAF6CA"
        d="M89.437845 912.266016V214.650827a17.887569 17.887569 0 0 1 17.887569-17.887569h214.650827a17.887569 17.887569 0 0 1 17.887569 17.887569v277.436195"
        p-id="7646"/>
  <path fill="#296629"
        d="M107.325414 912.266016H71.550276V214.650827a35.775138 35.775138 0 0 1 35.775138-35.775138h214.650827a35.775138 35.775138 0 0 1 35.775138 35.775138v277.436195h-35.775138V214.650827H107.325414z"
        p-id="7647"/>
  <path fill="#CAF6CA" d="M769.165465 196.763258h250.425965v697.615189H769.165465z" p-id="7648"/>
  <path fill="#CAF6CA"
        d="M1019.59143 912.266016V214.650827a17.887569 17.887569 0 0 0-17.887569-17.887569H787.053033a17.887569 17.887569 0 0 0-17.887568 17.887569v286.201103"
        p-id="7649"/>
  <path fill="#296629"
        d="M1037.478999 912.266016h-35.775138V214.650827H787.053033v286.201103h-35.775137V214.650827a35.775138 35.775138 0 0 1 35.775137-35.775138h214.650828a35.775138 35.775138 0 0 1 35.775138 35.775138z"
        p-id="7650"/>
  <path fill="#6BB36B"
        d="M259.36975 500.85193h608.177344a17.887569 17.887569 0 0 1 17.887569 17.887569v366.695164h-643.952482V518.739499a17.887569 17.887569 0 0 1 17.887569-17.887569z"
        p-id="7651"/>
  <path fill="#296629"
        d="M885.434663 894.378447h-643.952482a8.943784 8.943784 0 0 1-8.943785-8.943784V518.739499a26.831353 26.831353 0 0 1 26.831354-26.831353h608.177344A26.831353 26.831353 0 0 1 894.378447 518.739499v366.695164a8.943784 8.943784 0 0 1-8.943784 8.943784zM250.425965 876.490878h626.064913V518.739499a8.943784 8.943784 0 0 0-8.943784-8.943784h-608.177344a8.943784 8.943784 0 0 0-8.943785 8.943784z"
        p-id="7652"/>
  <path fill="#CAF6CA"
        d="M393.526517 661.840051h321.976241a17.887569 17.887569 0 0 1 17.887569 17.887569v196.763258H375.638948V679.72762a17.887569 17.887569 0 0 1 17.887569-17.887569z"
        p-id="7653"/>
  <path fill="#6BB36B"
        d="M160.98812 286.201103h107.325414v107.325414H160.98812zM840.71574 286.201103h107.325414v107.325414h-107.325414z"
        p-id="7654"/>
  <path fill="#296629" d="M536.627068 53.662707h35.775138v286.201103h-35.775138z" p-id="7655"/>
  <path fill="#CAF6CA" d="M563.458422 26.831353H733.390327V143.100552h-169.931905z" p-id="7656"/>
  <path fill="#296629"
        d="M715.502758 160.98812h-143.100552a35.775138 35.775138 0 0 1-35.775138-35.775137V35.775138a35.775138 35.775138 0 0 1 35.775138-35.775138h143.100552a35.775138 35.775138 0 0 1 35.775138 35.775138v89.437845a35.775138 35.775138 0 0 1-35.775138 35.775137z m-143.100552-125.212982v89.437845h143.100552V35.775138z"
        p-id="7657"/>
  <path fill="#CAF6CA"
        d="M17.887569 894.378447m17.887569 0l1037.478999 0q17.887569 0 17.887569 17.887569l0 53.662707q0 17.887569-17.887569 17.887569l-1037.478999 0q-17.887569 0-17.887569-17.887569l0-53.662707q0-17.887569 17.887569-17.887569Z"
        p-id="7658"/>
  <path fill="#296629"
        d="M1073.254137 1001.703861H35.775138a35.775138 35.775138 0 0 1-35.775138-35.775138v-53.662707a35.775138 35.775138 0 0 1 35.775138-35.775138h1037.478999a35.775138 35.775138 0 0 1 35.775137 35.775138v53.662707a35.775138 35.775138 0 0 1-35.775137 35.775138zM35.775138 912.266016v53.662707h1037.478999v-53.662707z"
        p-id="7659"/>
  <path fill="#CAF6CA" d="M330.920025 321.976241h447.189224v178.875689h-447.189224z" p-id="7660"/>
  <path fill="#296629"
        d="M778.109249 509.795715h-447.189224a8.943784 8.943784 0 0 1-8.943784-8.943785V321.976241a8.943784 8.943784 0 0 1 8.943784-8.943784h447.189224a8.943784 8.943784 0 0 1 8.943784 8.943784v178.875689a8.943784 8.943784 0 0 1-8.943784 8.943785z m-438.245439-17.887569h429.301655v-160.988121H339.86381z"
        p-id="7661"/>
  <path fill="#296629"
        d="M429.301655 393.526517m17.887569 0l214.650827 0q17.887569 0 17.887569 17.887569l0 0q0 17.887569-17.887569 17.887569l-214.650827 0q-17.887569 0-17.887569-17.887569l0 0q0-17.887569 17.887569-17.887569Z"
        p-id="7662"/>
</svg>
